<svg width="21" height="19" viewBox="0 0 21 19" fill="none" xmlns="http://www.w3.org/2000/svg">
<path d="M20.1132 15.9997C20.1317 15.9648 20.1472 15.9307 20.1587 15.8929C20.1696 15.857 20.1754 15.8213 20.1795 15.7834C20.1841 15.7421 20.1848 15.7022 20.1807 15.6601C20.1788 15.6413 20.1848 15.6235 20.1812 15.6046L18.7022 7.94608C18.6968 7.91857 18.6805 7.89728 18.6718 7.87145C18.6633 7.84596 18.6638 7.81944 18.6517 7.79464C18.6456 7.78212 18.6342 7.77472 18.6274 7.76284C18.6054 7.72419 18.5779 7.6924 18.5486 7.66001C18.525 7.63403 18.5035 7.60785 18.4761 7.58665C18.443 7.56082 18.4066 7.54312 18.3688 7.52469C18.3358 7.50862 18.3048 7.4923 18.2696 7.48239C18.2342 7.47248 18.198 7.47036 18.1605 7.46716C18.117 7.46316 18.0751 7.46065 18.0311 7.46637C18.0179 7.46809 18.0057 7.46356 17.9923 7.46612C17.9658 7.47125 17.9454 7.48742 17.9204 7.49575C17.8943 7.50447 17.867 7.50398 17.8417 7.5166L15.6186 8.60332C15.9735 7.89526 16.2634 7.01559 16.2634 6.01401C16.2634 2.84674 13.6959 0.268273 10.5346 0.251709C10.5267 0.251709 10.5204 0.251709 10.5141 0.251709C10.5078 0.251709 10.5015 0.251709 10.4936 0.251709C7.33143 0.268273 4.76401 2.84674 4.76401 6.01401C4.76401 7.00622 5.0489 7.87894 5.39985 8.58404L2.62646 9.93968C2.61493 9.94535 2.60813 9.9559 2.59713 9.96216C2.55538 9.98562 2.52023 10.0152 2.48528 10.0479C2.46166 10.07 2.4381 10.0903 2.41853 10.1156C2.39353 10.1479 2.37584 10.1837 2.35759 10.2212C2.34009 10.2569 2.32388 10.2912 2.31362 10.3296C2.30987 10.3437 2.30036 10.3546 2.29755 10.3692L0.818621 18.0276C0.814924 18.0469 0.820938 18.065 0.819114 18.0841C0.814973 18.1254 0.815762 18.1651 0.820248 18.207C0.824734 18.2478 0.832228 18.2858 0.844651 18.3243C0.850616 18.3431 0.848545 18.3625 0.856482 18.381C0.866687 18.4048 0.883251 18.423 0.895969 18.4448C0.907209 18.464 0.917167 18.4826 0.930428 18.5005C0.96824 18.5515 1.01182 18.5958 1.06195 18.6317C1.06841 18.6364 1.07295 18.6428 1.0796 18.6472C1.13965 18.6869 1.20684 18.712 1.27679 18.7283C1.28458 18.7301 1.2903 18.7356 1.29819 18.7371C1.33684 18.7445 1.37475 18.7479 1.41187 18.748C1.41236 18.748 1.41286 18.7482 1.41335 18.7482C1.49109 18.7482 1.56597 18.7305 1.63573 18.7027C1.6412 18.7006 1.64692 18.7016 1.65234 18.6993L7.08889 16.3693L13.7307 18.7135C13.7352 18.7151 13.7398 18.7144 13.7444 18.7158C13.8049 18.7357 13.8679 18.7482 13.9326 18.7482C14.0069 18.7482 14.0782 18.7305 14.1464 18.7045C14.1547 18.7013 14.1633 18.7028 14.1716 18.6993L19.8254 16.2762C19.8436 16.2684 19.8552 16.2531 19.8723 16.2438C19.9083 16.2241 19.94 16.2018 19.9708 16.1757C20.0008 16.1503 20.0278 16.1249 20.0519 16.0947C20.076 16.0648 20.0951 16.0337 20.1132 15.9997ZM3.42972 10.8954L6.03047 9.62417L7.13113 11.1211L6.71339 15.2117L2.22469 17.1354L3.42972 10.8954ZM7.52206 15.2375L7.84353 12.09L10.0156 15.0442C10.13 15.1995 10.3319 15.291 10.5243 15.291C10.7168 15.291 10.8982 15.1991 11.0126 15.0442L12.9424 12.4189L13.4437 17.3275L7.52206 15.2375ZM14.2567 17.3442L13.6548 11.4498L14.2722 10.6098L17.6628 8.95239L18.8991 15.3546L14.2567 17.3442ZM10.5141 1.46325C13.0176 1.46877 15.0518 3.50811 15.0518 6.01401C15.0518 7.19676 14.5249 8.19454 14.0785 8.82831C14.0769 8.83028 14.0753 8.83186 14.0738 8.83383L10.5141 13.6764L6.96702 8.85198C6.96465 8.84921 6.96308 8.84645 6.96071 8.84369C6.51112 8.21032 5.97555 7.20543 5.97555 6.01401C5.97555 3.50811 8.01055 1.46877 10.5141 1.46325Z" fill="black"/>
<path d="M10.5243 8.56883C11.9307 8.56883 13.0752 7.42276 13.0752 6.01403C13.0752 4.6053 11.9307 3.45923 10.5243 3.45923C9.11715 3.45923 7.97266 4.6053 7.97266 6.01403C7.97266 7.42276 9.11715 8.56883 10.5243 8.56883ZM10.5243 4.26692C11.4858 4.26692 12.2675 5.05056 12.2675 6.01403C12.2675 6.9775 11.4858 7.76114 10.5243 7.76114C9.5628 7.76114 8.78035 6.9775 8.78035 6.01403C8.78035 5.05056 9.5628 4.26692 10.5243 4.26692Z" fill="black"/>
</svg>
