<svg width="50" height="50" viewBox="0 0 50 50" fill="none" xmlns="http://www.w3.org/2000/svg">
<circle cx="25" cy="25" r="25" fill="#D9D9D9"/>
<path d="M38.5 41.625V38.375C38.5 36.6511 37.8152 34.9978 36.5962 33.7788C35.3772 32.5598 33.7239 31.875 32 31.875H19C17.2761 31.875 15.6228 32.5598 14.4038 33.7788C13.1848 34.9978 12.5 36.6511 12.5 38.375V41.625M32 18.875C32 22.4649 29.0899 25.375 25.5 25.375C21.9101 25.375 19 22.4649 19 18.875C19 15.2851 21.9101 12.375 25.5 12.375C29.0899 12.375 32 15.2851 32 18.875Z" stroke="#1E1E1E" stroke-width="3" stroke-linecap="round" stroke-linejoin="round"/>
</svg>
