<svg width="21" height="21" viewBox="0 0 21 21" fill="none" xmlns="http://www.w3.org/2000/svg">
<path d="M20.1132 16.9997C20.1317 16.9648 20.1472 16.9307 20.1587 16.8929C20.1696 16.857 20.1754 16.8213 20.1795 16.7834C20.1841 16.7421 20.1848 16.7022 20.1807 16.6601C20.1788 16.6413 20.1848 16.6235 20.1812 16.6046L18.7022 8.94608C18.6968 8.91857 18.6805 8.89728 18.6718 8.87145C18.6633 8.84596 18.6638 8.81944 18.6517 8.79464C18.6456 8.78212 18.6342 8.77472 18.6274 8.76284C18.6054 8.72419 18.5779 8.6924 18.5486 8.66001C18.525 8.63403 18.5035 8.60785 18.4761 8.58665C18.443 8.56082 18.4066 8.54312 18.3688 8.52469C18.3358 8.50862 18.3048 8.4923 18.2696 8.48239C18.2342 8.47248 18.198 8.47036 18.1605 8.46716C18.117 8.46316 18.0751 8.46065 18.0311 8.46637C18.0179 8.46809 18.0057 8.46356 17.9923 8.46612C17.9658 8.47125 17.9454 8.48742 17.9204 8.49575C17.8943 8.50447 17.867 8.50398 17.8417 8.5166L15.6186 9.60332C15.9735 8.89526 16.2634 8.01559 16.2634 7.01401C16.2634 3.84674 13.6959 1.26827 10.5346 1.25171C10.5267 1.25171 10.5204 1.25171 10.5141 1.25171C10.5078 1.25171 10.5015 1.25171 10.4936 1.25171C7.33143 1.26827 4.76401 3.84674 4.76401 7.01401C4.76401 8.00622 5.0489 8.87894 5.39985 9.58404L2.62646 10.9397C2.61493 10.9453 2.60813 10.9559 2.59713 10.9622C2.55538 10.9856 2.52023 11.0152 2.48528 11.0479C2.46166 11.07 2.4381 11.0903 2.41853 11.1156C2.39353 11.1479 2.37584 11.1837 2.35759 11.2212C2.34009 11.2569 2.32388 11.2912 2.31362 11.3296C2.30987 11.3437 2.30036 11.3546 2.29755 11.3692L0.818621 19.0276C0.814924 19.0469 0.820938 19.065 0.819114 19.0841C0.814973 19.1254 0.815762 19.1651 0.820248 19.207C0.824734 19.2478 0.832228 19.2858 0.844651 19.3243C0.850616 19.3431 0.848545 19.3625 0.856482 19.381C0.866687 19.4048 0.883251 19.423 0.895969 19.4448C0.907209 19.464 0.917167 19.4826 0.930428 19.5005C0.96824 19.5515 1.01182 19.5958 1.06195 19.6317C1.06841 19.6364 1.07295 19.6428 1.0796 19.6472C1.13965 19.6869 1.20684 19.712 1.27679 19.7283C1.28458 19.7301 1.2903 19.7356 1.29819 19.7371C1.33684 19.7445 1.37475 19.7479 1.41187 19.748C1.41236 19.748 1.41286 19.7482 1.41335 19.7482C1.49109 19.7482 1.56597 19.7305 1.63573 19.7027C1.6412 19.7006 1.64692 19.7016 1.65234 19.6993L7.08889 17.3693L13.7307 19.7135C13.7352 19.7151 13.7398 19.7144 13.7444 19.7158C13.8049 19.7357 13.8679 19.7482 13.9326 19.7482C14.0069 19.7482 14.0782 19.7305 14.1464 19.7045C14.1547 19.7013 14.1633 19.7028 14.1716 19.6993L19.8254 17.2762C19.8436 17.2684 19.8552 17.2531 19.8723 17.2438C19.9083 17.2241 19.94 17.2018 19.9708 17.1757C20.0008 17.1503 20.0278 17.1249 20.0519 17.0947C20.076 17.0648 20.0951 17.0337 20.1132 16.9997ZM3.42972 11.8954L6.03047 10.6242L7.13113 12.1211L6.71339 16.2117L2.22469 18.1354L3.42972 11.8954ZM7.52206 16.2375L7.84353 13.09L10.0156 16.0442C10.13 16.1995 10.3319 16.291 10.5243 16.291C10.7168 16.291 10.8982 16.1991 11.0126 16.0442L12.9424 13.4189L13.4437 18.3275L7.52206 16.2375ZM14.2567 18.3442L13.6548 12.4498L14.2722 11.6098L17.6628 9.95239L18.8991 16.3546L14.2567 18.3442ZM10.5141 2.46325C13.0176 2.46877 15.0518 4.50811 15.0518 7.01401C15.0518 8.19676 14.5249 9.19454 14.0785 9.82831C14.0769 9.83028 14.0753 9.83186 14.0738 9.83383L10.5141 14.6764L6.96702 9.85198C6.96465 9.84921 6.96308 9.84645 6.96071 9.84369C6.51112 9.21032 5.97555 8.20543 5.97555 7.01401C5.97555 4.50811 8.01055 2.46877 10.5141 2.46325Z" fill="black"/>
<path d="M10.5243 9.56883C11.9307 9.56883 13.0752 8.42276 13.0752 7.01403C13.0752 5.6053 11.9307 4.45923 10.5243 4.45923C9.11715 4.45923 7.97266 5.6053 7.97266 7.01403C7.97266 8.42276 9.11715 9.56883 10.5243 9.56883ZM10.5243 5.26692C11.4858 5.26692 12.2675 6.05056 12.2675 7.01403C12.2675 7.9775 11.4858 8.76114 10.5243 8.76114C9.5628 8.76114 8.78035 7.9775 8.78035 7.01403C8.78035 6.05056 9.5628 5.26692 10.5243 5.26692Z" fill="black"/>
</svg>
