<svg width="24" height="24" viewBox="0 0 24 24" fill="none" xmlns="http://www.w3.org/2000/svg">
<path d="M7 9C7.45963 9 7.91475 8.90947 8.33939 8.73358C8.76403 8.55769 9.14987 8.29988 9.47487 7.97487C9.79988 7.64987 10.0577 7.26403 10.2336 6.83939C10.4095 6.41475 10.5 5.95963 10.5 5.5C10.5 5.04037 10.4095 4.58525 10.2336 4.16061C10.0577 3.73597 9.79988 3.35013 9.47487 3.02513C9.14987 2.70012 8.76403 2.44231 8.33939 2.26642C7.91475 2.09053 7.45963 2 7 2C6.07174 2 5.1815 2.36875 4.52513 3.02513C3.86875 3.6815 3.5 4.57174 3.5 5.5C3.5 6.42826 3.86875 7.3185 4.52513 7.97487C5.1815 8.63125 6.07174 9 7 9ZM17 9C17.4596 9 17.9148 8.90947 18.3394 8.73358C18.764 8.55769 19.1499 8.29988 19.4749 7.97487C19.7999 7.64987 20.0577 7.26403 20.2336 6.83939C20.4095 6.41475 20.5 5.95963 20.5 5.5C20.5 5.04037 20.4095 4.58525 20.2336 4.16061C20.0577 3.73597 19.7999 3.35013 19.4749 3.02513C19.1499 2.70012 18.764 2.44231 18.3394 2.26642C17.9148 2.09053 17.4596 2 17 2C16.0717 2 15.1815 2.36875 14.5251 3.02513C13.8687 3.6815 13.5 4.57174 13.5 5.5C13.5 6.42826 13.8687 7.3185 14.5251 7.97487C15.1815 8.63125 16.0717 9 17 9Z" stroke="black" stroke-width="2" stroke-linejoin="round"/>
<path d="M2 22V17.5C2 14.7385 3.885 12.5 6.2105 12.5H8.737C10.7795 12.5 12 14.5135 12 14.5135" stroke="black" stroke-width="2" stroke-linecap="round" stroke-linejoin="round"/>
<path d="M22 22V17.5C22 14.7385 20.0925 12.5 17.7395 12.5H15.183C13.2025 12.5 11.996 14.5135 12 14.5135M5.5 20H19" stroke="black" stroke-width="2" stroke-linecap="round" stroke-linejoin="round"/>
<path d="M17.1474 18.129L17.7674 18.7525L19.0074 20L17.7674 21.2805L17.1474 21.921M7.16488 18.116L6.53488 18.743L5.27588 19.9965L6.53488 21.2705L7.16488 21.908" stroke="black" stroke-width="2" stroke-linecap="round" stroke-linejoin="round"/>
</svg>
