<svg width="23" height="22" viewBox="0 0 23 22" fill="none" xmlns="http://www.w3.org/2000/svg">
<g clip-path="url(#clip0_2004_2547)">
<path fill-rule="evenodd" clip-rule="evenodd" d="M7.9644 1.914C7.9641 1.70682 8.01843 1.50323 8.1219 1.32374C8.22536 1.14425 8.37432 0.995203 8.55375 0.891625C8.73317 0.788048 8.93674 0.733599 9.14391 0.733765C9.35109 0.733931 9.55456 0.788708 9.73382 0.892573L16.7864 4.81172C16.97 4.91382 17.123 5.06316 17.2296 5.24427C17.3361 5.42538 17.3923 5.63167 17.3923 5.84179C17.3923 6.0519 17.3361 6.2582 17.2296 6.43931C17.123 6.62042 16.97 6.76976 16.7864 6.87186L10.3215 10.4657V14.7149C11.1104 15.0339 11.739 15.6624 12.058 16.4513H17.5501V15.1706C17.5503 14.9376 17.6195 14.71 17.7491 14.5163C17.8786 14.3227 18.0626 14.1718 18.2778 14.0827C18.493 13.9936 18.7298 13.9702 18.9583 14.0156C19.1868 14.061 19.3967 14.1731 19.5615 14.3377L22.0208 16.7954C22.1309 16.9054 22.2181 17.0361 22.2774 17.1799C22.3367 17.3238 22.3669 17.4779 22.3663 17.6335C22.3657 17.7891 22.3343 17.943 22.274 18.0864C22.2136 18.2298 22.1254 18.3599 22.0145 18.469L19.5615 20.9204C19.3967 21.085 19.1868 21.1971 18.9583 21.2425C18.7298 21.2879 18.493 21.2646 18.2778 21.1755C18.0626 21.0863 17.8786 20.9354 17.7491 20.7418C17.6195 20.5482 17.5503 20.3205 17.5501 20.0876V18.8084H12.058C11.8237 19.3897 11.421 19.8877 10.9015 20.2384C10.3821 20.589 9.76969 20.7764 9.14297 20.7764C8.51624 20.7764 7.90383 20.589 7.3844 20.2384C6.86497 19.8877 6.46225 19.3897 6.22797 18.8084H1.81383C1.50125 18.8084 1.20147 18.6843 0.980449 18.4632C0.759424 18.2422 0.635254 17.9424 0.635254 17.6299C0.635254 17.3173 0.759424 17.0175 0.980449 16.7965C1.20147 16.5755 1.50125 16.4513 1.81383 16.4513H6.22954C6.38725 16.06 6.62214 15.7044 6.92019 15.4058C7.21825 15.1072 7.57337 14.8717 7.9644 14.7133V1.914Z" fill="black"/>
</g>
<defs>
<clipPath id="clip0_2004_2547">
<rect width="22" height="22" fill="white" transform="translate(0.5)"/>
</clipPath>
</defs>
</svg>
