<svg width="19" height="18" viewBox="0 0 19 18" fill="none" xmlns="http://www.w3.org/2000/svg">
<g clip-path="url(#clip0_2004_2534)">
<path d="M16.6249 6.46172V2.1375C16.6256 1.93075 16.5832 1.72591 16.5001 1.53474C16.417 1.34357 16.2949 1.16982 16.1407 1.02348C15.9866 0.877142 15.8034 0.761087 15.6018 0.681979C15.4002 0.602872 15.184 0.562269 14.9658 0.562501H10.4039C10.1048 0.563084 9.81798 0.675386 9.6057 0.87504L0.485705 9.51258C0.17466 9.8082 0 10.2086 0 10.626C0 11.0434 0.17466 11.4438 0.485705 11.7394L4.8275 15.8527C5.13943 16.1474 5.56201 16.3129 6.00257 16.3129C6.44313 16.3129 6.86571 16.1474 7.17764 15.8527L16.295 7.21793C16.5059 7.01687 16.6244 6.74512 16.6249 6.46172ZM13.0624 5.0625C12.8276 5.0625 12.598 4.99652 12.4027 4.8729C12.2074 4.74929 12.0552 4.57359 11.9653 4.36802C11.8755 4.16245 11.8519 3.93625 11.8978 3.71802C11.9436 3.4998 12.0567 3.29934 12.2228 3.14201C12.3888 2.98467 12.6004 2.87753 12.8308 2.83412C13.0611 2.79071 13.2999 2.81299 13.5169 2.89814C13.7339 2.98329 13.9193 3.12748 14.0498 3.31248C14.1803 3.49749 14.2499 3.715 14.2499 3.9375C14.2499 4.23587 14.1248 4.52202 13.9021 4.733C13.6794 4.94397 13.3774 5.0625 13.0624 5.0625Z" fill="black"/>
<path d="M18.4063 2.25C18.2488 2.25 18.0978 2.30926 17.9864 2.41475C17.8751 2.52024 17.8125 2.66332 17.8125 2.8125V7.29035L8.11546 16.4774C8.058 16.5291 8.01205 16.5912 7.98032 16.66C7.9486 16.7288 7.93173 16.8029 7.93071 16.878C7.9297 16.9531 7.94456 17.0276 7.97442 17.0971C8.00428 17.1667 8.04853 17.2298 8.10457 17.2829C8.16061 17.336 8.2273 17.3779 8.30071 17.4062C8.37412 17.4345 8.45277 17.4486 8.53202 17.4476C8.61126 17.4467 8.6895 17.4307 8.76212 17.4006C8.83475 17.3706 8.90028 17.327 8.95487 17.2726L18.6775 8.06168C18.7809 7.96324 18.8627 7.84633 18.9181 7.71773C18.9734 7.58912 19.0013 7.45138 19 7.3125V2.8125C19 2.66332 18.9375 2.52024 18.8261 2.41475C18.7148 2.30926 18.5637 2.25 18.4063 2.25Z" fill="black"/>
</g>
<defs>
<clipPath id="clip0_2004_2534">
<rect width="19" height="18" fill="white"/>
</clipPath>
</defs>
</svg>
