<?xml version="1.0" encoding="UTF-8"?>
<svg version="1.1" xmlns="http://www.w3.org/2000/svg" width="512" height="512">
<path d="M0 0 C4.37988822 3.83560488 6.15586676 9.24435896 8.3671875 14.49609375 C17.66328678 35.58217549 30.03884643 53.53664294 46.0546875 70.12109375 C46.86421875 70.9821875 47.67375 71.84328125 48.5078125 72.73046875 C82.15712708 107.68233745 131.42183415 123.34141077 178.89770508 124.35546875 C196.85320387 124.48553688 214.65303741 122.5260419 232.0546875 118.12109375 C232.77317871 117.9420752 233.49166992 117.76305664 234.23193359 117.57861328 C245.73344701 114.64634207 256.38828268 110.29381983 267.0546875 105.12109375 C267.77156738 104.775625 268.48844727 104.43015625 269.22705078 104.07421875 C285.41446854 96.17036457 299.78098089 86.1239996 312.63623047 73.50439453 C313.94404737 72.22899168 315.28136995 70.98403193 316.62109375 69.7421875 C333.6737047 53.5654731 345.01988634 33.1674999 354.9375 12.1328125 C355.39370728 11.18233032 355.39370728 11.18233032 355.85913086 10.21264648 C356.68817185 8.4837396 357.50280306 6.74794391 358.31640625 5.01171875 C360.60673627 1.20308006 363.11875644 -1.03458595 367.1953125 -2.8125 C373.0969797 -4.22234272 377.6943138 -3.88113105 383.0546875 -0.87890625 C387.15978455 2.80590705 389.26155061 6.52934105 389.6796875 11.99609375 C389.49354242 37.80821117 363.87663044 66.65874698 348.0546875 85.30859375 C347.60512695 85.84210449 347.15556641 86.37561523 346.69238281 86.92529297 C342.09829638 92.26781784 337.07047131 97.17779595 332.0546875 102.12109375 C332.6530542 103.01602539 333.2514209 103.91095703 333.86791992 104.83300781 C353.93002392 134.84614028 353.93002392 134.84614028 361.8671875 147.05859375 C362.39272217 147.86651367 362.91825684 148.67443359 363.4597168 149.50683594 C367.49647483 155.74188325 368.69517785 159.55166239 368.0546875 167.12109375 C366.06625195 172.77243689 362.91428074 175.61604467 357.6796875 178.37109375 C352.8851714 179.74095549 348.74038915 179.66693951 344.1171875 177.80859375 C334.18755864 172.14025802 327.57829281 157.43890581 321.4296875 147.99609375 C320.0508674 145.88426072 318.6712483 143.77295125 317.29156494 141.66168213 C316.41015923 140.31274433 315.52908777 138.96358806 314.64837646 137.61419678 C311.4806063 132.76292949 308.2858737 127.93041726 305.0546875 123.12109375 C304.28769531 123.58257812 303.52070313 124.0440625 302.73046875 124.51953125 C262.57049778 148.12109375 262.57049778 148.12109375 248.0546875 148.12109375 C248.3228125 149.03761719 248.5909375 149.95414063 248.8671875 150.8984375 C251.71842173 160.81371956 254.31893273 170.79782622 256.81762695 180.80715942 C257.18020709 182.25133898 257.54762029 183.69431486 257.92016602 185.13595581 C263.34527205 206.18752702 263.34527205 206.18752702 259.4296875 214.62109375 C254.85603077 219.43546925 251.7459413 221.37265611 245.0546875 221.62109375 C239.93747756 221.43109833 236.87398922 220.74943038 233.0546875 217.12109375 C228.6917268 211.74098104 227.42434393 205.95451631 225.8203125 199.30078125 C225.53742371 198.16456329 225.25453491 197.02834534 224.96307373 195.85769653 C224.36941466 193.46362803 223.78141361 191.06815026 223.19873047 188.67138672 C222.30539666 184.999009 221.39446565 181.33134615 220.48046875 177.6640625 C219.90521674 175.33489037 219.33096345 173.00547129 218.7578125 170.67578125 C218.48600159 169.57781219 218.21419067 168.47984314 217.93414307 167.34860229 C217.68678406 166.32719147 217.43942505 165.30578064 217.18457031 164.25341797 C216.96569153 163.35662323 216.74681274 162.45982849 216.52130127 161.53585815 C216.0546875 159.12109375 216.0546875 159.12109375 216.0546875 155.12109375 C214.78830444 155.33330566 214.78830444 155.33330566 213.49633789 155.54980469 C203.35650555 157.09071798 193.4225992 157.43054904 183.17504883 157.38183594 C180.49212123 157.37109348 177.80986087 157.38180793 175.12695312 157.39453125 C165.24362537 157.40135652 155.80253344 156.90395152 146.0546875 155.12109375 C145.94294189 156.21276855 145.83119629 157.30444336 145.71606445 158.42919922 C145.04307487 163.78302909 143.7666511 168.95872757 142.47265625 174.19140625 C142.0894799 175.75119705 142.0894799 175.75119705 141.69856262 177.34249878 C141.1589326 179.52990728 140.6167055 181.71667654 140.07202148 183.90283203 C139.24377311 187.23970561 138.43320182 190.58056911 137.62304688 193.921875 C137.09483238 196.0536539 136.56557085 198.1851737 136.03515625 200.31640625 C135.67710152 201.80722214 135.67710152 201.80722214 135.31181335 203.32815552 C133.60200775 210.07957995 131.68273383 214.62444974 126.5546875 219.49609375 C121.38968741 221.8941295 116.6544587 221.8749091 111.0546875 221.12109375 C106.170035 218.85321937 103.32256188 216.00574625 101.0546875 211.12109375 C100.24649464 202.8649546 101.58734886 195.26150394 103.64453125 187.30078125 C103.90851212 186.23489777 104.17249298 185.16901428 104.44447327 184.0708313 C105.28067043 180.70916412 106.13635093 177.35280789 106.9921875 173.99609375 C107.56308006 171.70733798 108.13275257 169.41827752 108.70117188 167.12890625 C109.74023825 162.96938561 110.78051971 158.81023617 111.83959961 154.65576172 C112.05055771 153.82591766 112.26151581 152.99607361 112.47886658 152.14108276 C113.0546875 150.12109375 113.0546875 150.12109375 114.0546875 148.12109375 C113.49265625 147.99734375 112.930625 147.87359375 112.3515625 147.74609375 C92.56463374 142.89040571 74.60749944 133.17393566 57.0546875 123.12109375 C56.14928223 124.47920166 56.14928223 124.47920166 55.22558594 125.86474609 C54.82345886 126.46791153 54.42133179 127.07107697 54.00701904 127.69252014 C53.09843753 129.05544403 52.18995227 130.41843207 51.28155518 131.78147888 C48.77455973 135.54290072 46.26585305 139.30316196 43.75390625 143.0612793 C37.38955527 152.58504284 37.38955527 152.58504284 31.1328125 162.1796875 C30.59688477 163.0061377 30.06095703 163.83258789 29.50878906 164.68408203 C28.57378383 166.1305458 27.64785191 167.58293702 26.73339844 169.04248047 C23.41190527 174.15538478 19.85236159 177.18853572 14.0546875 179.12109375 C8.06548695 179.70827027 3.95987634 178.42676449 -0.9453125 175.12109375 C-5.17263599 170.67698444 -6.71093642 166.41897105 -6.57470703 160.34130859 C-5.77380374 156.24359158 -3.87409707 153.25801042 -1.61328125 149.828125 C-1.16830292 149.13546539 -0.72332458 148.44280579 -0.26486206 147.72915649 C1.16209754 145.51776168 2.60596679 143.31828439 4.0546875 141.12109375 C4.52190216 140.40921906 4.98911682 139.69734436 5.4704895 138.96389771 C8.76195484 133.95558757 12.09152902 128.97335478 15.4296875 123.99609375 C16.41037805 122.53009627 17.39084746 121.06395083 18.37109375 119.59765625 C20.15929064 116.92340665 21.94872487 114.24999552 23.73974609 111.57763672 C25.84977215 108.42880494 27.95339217 105.27575785 30.0546875 102.12109375 C29.22066406 101.31027344 28.38664062 100.49945313 27.52734375 99.6640625 C20.54644209 92.81842946 14.09961251 85.82200397 8.0546875 78.12109375 C7.40242188 77.33605469 6.75015625 76.55101562 6.078125 75.7421875 C-7.74683817 59.02554877 -26.08802671 34.28131184 -27.9453125 12.12109375 C-27.29164487 7.46462994 -25.71543029 3.38284289 -22.1953125 0.18359375 C-14.47065223 -4.7185945 -7.6630988 -4.88852855 0 0 Z " fill="#ADABC3" transform="translate(74.9453125,178.87890625)"/>
</svg>
