<svg width="96" height="96" viewBox="0 0 96 96" fill="none" xmlns="http://www.w3.org/2000/svg">
<ellipse cx="61.3316" cy="56.5669" rx="5.77558" ry="6.21986" fill="#EF6B01"/>
<path d="M11.1284 82.3349L17.3483 81.4463L19.4267 80.9573C23.0583 80.1028 26.5525 78.7444 29.8076 76.9215L29.9917 76.8185C33.9711 74.59 37.5264 71.6775 40.4946 68.2146L41.818 66.6707C43.2687 64.9783 44.4783 63.0933 45.4124 61.0694C46.2479 59.2595 46.8562 57.3531 47.2236 55.3937L48.0033 51.2356L49.7804 57.0112L51.5571 61.4542L52.9757 64.007C53.5073 64.9637 54.1967 65.8238 55.0148 66.551L55.435 66.9245C56.9439 68.2658 58.8925 69.0067 60.9113 69.0067C62.6293 69.0067 64.3044 68.4699 65.7024 67.4713L66.0245 67.2412C66.4494 66.9377 66.8484 66.5997 67.2176 66.2306L70.2171 63.231L68.44 67.2295L66.2185 70.7838C63.5849 74.8806 60.0864 78.3513 55.9685 80.9519L53.7789 82.3348L52.0717 83.1885C47.9046 85.2721 43.4335 86.6814 38.8249 87.3641C35.4771 87.8601 32.0832 87.9686 28.7105 87.6875L27.5187 87.5882C24.5993 87.3449 21.7193 86.7537 18.9401 85.8273C17.2886 85.2768 15.6783 84.6098 14.1212 83.8313L11.1284 82.3349Z" fill="#EF6B01"/>
<ellipse cx="4.31337" cy="4.64517" rx="4.31337" ry="4.64517" transform="matrix(0.321621 -0.946869 -0.946869 -0.321621 44.3192 17.3049)" fill="#012369"/>
<path d="M11.0277 41.0386L13.1501 36.8537L13.9951 35.5014C15.4716 33.1386 17.2715 30.9939 19.3424 29.1299L19.4595 29.0245C21.9912 26.7458 24.9047 24.9311 28.0664 23.664L29.4761 23.099C31.0214 22.4797 32.6449 22.0771 34.3004 21.9026C35.781 21.7466 37.2752 21.7743 38.749 21.9851L41.8767 22.4325L38.2194 19.7886L35.5043 17.465L34.0398 15.8486C33.4909 15.2429 33.0483 14.5488 32.7306 13.7957L32.5674 13.4088C31.9813 12.0196 31.9255 10.4637 32.4104 9.03607C32.823 7.82119 33.605 6.7656 34.6469 6.01686L34.887 5.84432C35.2036 5.61679 35.5385 5.41582 35.8882 5.24344L38.7299 3.84278L35.4754 4.13906L32.4285 4.85623C28.8988 5.73453 25.6042 7.3749 22.7761 9.66215L21.2722 10.8784L20.2585 11.8806C17.7842 14.3269 15.7136 17.1501 14.1238 20.2451C12.969 22.4934 12.0771 24.8673 11.4658 27.3198L11.2497 28.1865C10.7205 30.3094 10.4468 32.4879 10.4344 34.6757C10.427 35.9758 10.5118 37.2748 10.6884 38.5629L11.0277 41.0386Z" fill="#012369"/>
<ellipse cx="3.00433" cy="3.23543" rx="3.00433" ry="3.23543" transform="matrix(-1 0 0 1 19.4897 39.4893)" fill="#259821"/>
<path d="M43.2516 53.9374L39.9864 53.7958L38.8855 53.649C36.9619 53.3926 35.0836 52.8682 33.3052 52.0913L33.2047 52.0473C31.0307 51.0974 29.0412 49.7717 27.3274 48.1311L26.5633 47.3996C25.7258 46.5978 25.0031 45.6839 24.416 44.6841C23.8909 43.7899 23.4784 42.8342 23.1879 41.8387L22.5715 39.7262L21.9472 42.8069L21.2549 45.1977L20.6512 46.5918C20.425 47.1143 20.1121 47.5948 19.7259 48.0131L19.5274 48.228C18.815 48.9995 17.8442 49.4827 16.7992 49.5861C15.9099 49.674 15.0153 49.4819 14.2405 49.0365L14.062 48.9339C13.8265 48.7985 13.6026 48.644 13.3927 48.4718L11.6864 47.0726L12.811 49.0515L14.1429 50.7776C15.7158 52.7636 17.7045 54.3811 19.9692 55.5166L21.1735 56.1204L22.101 56.4749C24.3647 57.3402 26.7513 57.8409 29.1719 57.9584C30.9303 58.0438 32.6927 57.9263 34.4242 57.6081L35.0361 57.4957C36.5349 57.2203 37.9954 56.7669 39.3867 56.1451C40.2134 55.7756 41.0129 55.3479 41.779 54.8652L43.2516 53.9374Z" fill="#259821"/>
<path d="M46.2261 6.13731L48.171 7.97635C49.5367 9.26762 50.7718 10.6904 51.8584 12.2239C53.2814 14.2324 54.4393 16.4162 55.3032 18.7212L56.0001 20.5806L56.5259 23.5599C57.0608 26.5911 57.1249 29.7286 56.7268 32.7807C56.2509 36.4291 55.0963 40.0086 53.3345 43.2386L49.7803 48.2017L54.223 45.46L54.5371 45.2855C56.9881 43.9239 59.5601 42.7925 62.22 41.9058L64.0215 41.4554C65.1722 41.1677 66.3761 41.1677 67.5269 41.4554L67.7933 41.522C68.7978 41.7732 69.7151 42.2926 70.4473 43.0247C71.4432 44.0206 72.0361 45.3493 72.1122 46.7557L72.3807 51.717L72.2195 56.3773L73.8067 52.6412L74.8115 48.885L75.1062 47.7243C76.0316 44.0799 76.4996 40.3345 76.4996 36.5745L76.183 34.2088C75.7615 31.0591 74.9513 27.9738 73.7711 25.0233C70.5942 18.3807 65.4031 12.9094 58.9366 9.38796L58.686 9.25147C54.9295 7.20793 50.7212 6.13733 46.4448 6.13731L46.2261 6.13731Z" fill="#EF6B01"/>
</svg>
