<svg width="771" height="272" viewBox="0 0 771 272" fill="none" xmlns="http://www.w3.org/2000/svg">
<g clip-path="url(#clip0_250_322)">
<ellipse cx="328.135" cy="142.323" rx="12.6744" ry="13.6494" fill="#EF6B01"/>
<path d="M217.964 198.87L231.614 196.92L236.175 195.847C244.144 193.972 251.812 190.991 258.955 186.991L259.359 186.764C268.092 181.874 275.894 175.483 282.408 167.883L285.312 164.495C288.495 160.781 291.15 156.645 293.2 152.203V152.203C295.033 148.231 296.368 144.048 297.175 139.748L298.886 130.623L302.785 143.298L306.684 153.048L309.797 158.65C310.964 160.749 312.477 162.637 314.272 164.233L315.194 165.052C318.506 167.996 322.782 169.622 327.212 169.622V169.622C330.982 169.622 334.658 168.444 337.726 166.252L338.433 165.747C339.365 165.081 340.241 164.34 341.051 163.529L347.633 156.947L343.734 165.722L338.859 173.521V173.521C333.079 182.512 325.402 190.128 316.365 195.835L311.56 198.87L307.813 200.743C298.669 205.316 288.857 208.409 278.744 209.907V209.907C271.397 210.995 263.949 211.233 256.548 210.616L253.932 210.398C247.526 209.864 241.206 208.567 235.107 206.534V206.534C231.483 205.326 227.949 203.862 224.532 202.154L217.964 198.87Z" fill="#EF6B01"/>
<ellipse cx="9.46563" cy="10.1938" rx="9.46563" ry="10.1938" transform="matrix(0.321621 -0.946869 -0.946869 -0.321621 290.801 56.1628)" fill="#012369"/>
<path d="M217.743 108.247L222.401 99.0627L224.255 96.0951C227.495 90.9099 231.445 86.2036 235.99 82.1131L236.247 81.8818C241.802 76.881 248.196 72.8989 255.135 70.1181L258.228 68.8782C261.619 67.5192 265.182 66.6356 268.815 66.2528V66.2528C272.064 65.9104 275.343 65.9712 278.577 66.4338L285.441 67.4157L277.415 61.6136L271.457 56.5144L268.243 52.9675C267.038 51.6382 266.067 50.115 265.37 48.4622L265.012 47.6132C263.726 44.5647 263.603 41.1502 264.667 38.0174V38.0174C265.573 35.3513 267.289 33.0349 269.575 31.3918L270.102 31.0131C270.797 30.5138 271.532 30.0728 272.299 29.6945L278.535 26.6208L271.393 27.271L264.707 28.8448V28.8448C256.961 30.7722 249.731 34.372 243.525 39.3913L240.225 42.0603L238 44.2597C232.57 49.628 228.026 55.8235 224.538 62.6154V62.6154C222.003 67.5493 220.046 72.7587 218.705 78.1407L218.23 80.0426C217.069 84.7013 216.468 89.482 216.441 94.2832V94.2832C216.425 97.1363 216.611 99.9868 216.999 102.814L217.743 108.247Z" fill="#012369"/>
<ellipse cx="6.59295" cy="7.1001" rx="6.59295" ry="7.1001" transform="matrix(-1 0 0 1 236.313 104.846)" fill="#259821"/>
<path d="M288.458 136.553L281.293 136.242L278.877 135.92C274.655 135.357 270.534 134.206 266.631 132.501L266.41 132.405C261.64 130.32 257.274 127.411 253.513 123.811L251.836 122.205C249.998 120.446 248.412 118.44 247.124 116.246V116.246C245.971 114.284 245.066 112.187 244.429 110.002L243.076 105.366L241.706 112.127L240.187 117.373L238.862 120.433C238.365 121.579 237.679 122.634 236.831 123.552L236.396 124.023C234.832 125.716 232.702 126.777 230.409 127.004V127.004C228.457 127.197 226.494 126.775 224.794 125.798L224.402 125.572C223.885 125.275 223.394 124.936 222.933 124.558L219.189 121.488L221.657 125.83L224.579 129.618V129.618C228.031 133.977 232.395 137.526 237.365 140.018L240.008 141.343L242.043 142.121C247.011 144.02 252.248 145.119 257.56 145.377V145.377C261.419 145.564 265.287 145.306 269.086 144.608L270.429 144.361C273.718 143.757 276.923 142.762 279.977 141.397V141.397C281.791 140.586 283.545 139.648 285.227 138.589L288.458 136.553Z" fill="#259821"/>
<path d="M294.986 31.6553L299.254 35.691C302.251 38.5247 304.961 41.6469 307.346 45.0123V45.0123C310.469 49.4199 313.009 54.2122 314.905 59.2704L316.435 63.3509L317.589 69.8889C318.762 76.5408 318.903 83.426 318.029 90.1239V90.1239C316.985 98.1302 314.451 105.985 310.585 113.074V113.074L302.785 123.965L312.535 117.948L313.224 117.565C318.603 114.577 324.247 112.094 330.084 110.149V110.149L334.037 109.16C336.563 108.529 339.205 108.529 341.73 109.16L342.315 109.307C344.519 109.858 346.532 110.997 348.139 112.604V112.604C350.324 114.79 351.625 117.705 351.792 120.792L352.382 131.679L352.028 141.906L355.511 133.707L357.716 125.464L358.363 122.917C360.393 114.92 361.421 106.701 361.421 98.4493V98.4493L360.726 93.2578C359.801 86.3459 358.023 79.5752 355.433 73.1004V73.1004V73.1004C348.461 58.5233 337.07 46.5166 322.879 38.7888L322.329 38.4893V38.4893C314.085 34.0048 304.85 31.6554 295.466 31.6553L294.986 31.6553Z" fill="#EF6B01"/>
<path d="M10.0167 191V50.0505H61.5313C70.912 50.0505 77.9873 52.1969 82.7572 56.4898C87.527 60.6237 89.912 66.427 89.912 73.8998V95.8412C89.912 103.314 87.9245 109.594 83.9496 114.682C79.9748 119.77 73.7739 122.711 65.3472 123.506C70.753 124.301 74.5689 126.13 76.7948 128.992C79.1798 131.695 81.2467 136.147 82.9957 142.347L96.3513 191H65.5857L55.3304 144.255C54.3765 140.439 53.2635 137.26 51.9915 134.716C50.8786 132.013 49.2091 130.661 46.9832 130.661H38.8744V191H10.0167ZM38.8744 111.343H50.3221C54.774 111.343 57.9539 110.151 59.8618 107.766C61.7698 105.222 62.7237 101.247 62.7237 95.8412V78.9081C62.7237 73.8203 61.8493 70.2429 60.1003 68.1759C58.3514 66.109 55.6484 65.0755 51.9915 65.0755H38.8744V111.343ZM117.32 191V50.0505H182.19V69.6069H146.178V107.289H176.705V128.992H146.178V171.921H182.19V191H117.32Z" fill="#259821"/>
<path d="M371.573 191L396.853 50.0505H436.443L461.246 191H430.242L425.949 165.004H405.439L401.384 191H371.573ZM405.916 151.172H425.711L415.932 74.6153L405.916 151.172ZM518.389 193.862C510.599 193.862 503.682 192.908 497.64 191C491.758 189.251 487.067 185.515 483.569 179.791C480.23 173.908 478.561 165.243 478.561 153.795V79.8621C478.561 71.4353 480.23 64.9165 483.569 60.3057C487.067 55.6948 491.837 52.5149 497.879 50.7659C503.921 48.858 510.837 47.904 518.628 47.904C526.578 47.904 533.414 48.858 539.138 50.7659C545.021 52.6739 549.553 55.9333 552.732 60.5442C555.912 65.155 557.502 71.5944 557.502 79.8621V108.958H529.837V78.6697C529.837 74.8538 529.36 71.9918 528.406 70.0839C527.452 68.0169 526.101 66.6655 524.352 66.0295C522.762 65.3935 520.854 65.0755 518.628 65.0755C516.402 65.0755 514.415 65.3935 512.666 66.0295C510.917 66.6655 509.565 68.0169 508.611 70.0839C507.657 71.9918 507.18 74.8538 507.18 78.6697V164.05C507.18 167.707 507.657 170.569 508.611 172.636C509.565 174.544 510.917 175.895 512.666 176.69C514.415 177.326 516.402 177.644 518.628 177.644C520.854 177.644 522.762 177.326 524.352 176.69C526.101 175.895 527.452 174.544 528.406 172.636C529.36 170.569 529.837 167.707 529.837 164.05V136.147H557.502V153.557C557.502 165.163 555.912 173.908 552.732 179.791C549.553 185.515 545.021 189.251 539.138 191C533.414 192.908 526.498 193.862 518.389 193.862ZM516.481 229.397C513.461 229.397 510.599 228.841 507.896 227.728C505.352 226.615 503.523 225.741 502.41 225.105L505.749 216.519C506.862 217.314 508.373 218.029 510.281 218.665C512.189 219.301 513.858 219.619 515.289 219.619C517.833 219.619 519.741 218.983 521.013 217.711C522.285 216.598 522.921 215.088 522.921 213.18C522.921 211.59 522.364 210.318 521.251 209.364C520.297 208.569 519.025 208.172 517.435 208.172C516.481 208.172 515.607 208.331 514.812 208.649C514.017 208.966 513.302 209.364 512.666 209.841L505.034 205.787L512.666 191H522.921L516.72 203.402L515.051 202.686C516.163 202.05 517.435 201.494 518.866 201.017C520.456 200.699 522.205 200.54 524.113 200.54C528.406 200.54 531.745 201.891 534.13 204.594C536.674 207.297 537.946 210.238 537.946 213.418C537.946 217.87 536.038 221.607 532.222 224.628C528.565 227.807 523.318 229.397 516.481 229.397ZM574.068 191L599.349 50.0505H638.938L663.742 191H632.738L628.445 165.004H607.934L603.88 191H574.068ZM608.411 151.172H628.206L618.428 74.6153L608.411 151.172ZM629.16 39.0798C626.775 39.0798 624.549 38.6823 622.482 37.8873C620.415 36.9333 618.269 35.8204 616.043 34.5484C614.453 33.4354 612.784 32.4814 611.035 31.6865C609.286 30.8915 607.457 30.494 605.549 30.494C603.482 30.494 601.813 31.289 600.541 32.8789C599.428 34.3099 598.792 36.2973 598.633 38.8413H590.524C590.683 32.6404 592.114 27.6321 594.817 23.8162C597.679 19.8413 601.336 17.8539 605.788 17.8539C608.332 17.8539 610.717 18.3308 612.943 19.2848C615.169 20.0798 617.236 21.1133 619.144 22.3852C620.892 23.3392 622.562 24.2137 624.152 25.0087C625.901 25.8036 627.65 26.2011 629.399 26.2011C631.625 26.2011 633.294 25.4856 634.407 24.0547C635.679 22.6237 636.474 20.7953 636.792 18.5693H645.616C645.616 23.0212 644.742 26.8371 642.993 30.017C641.403 33.0379 639.336 35.3434 636.792 36.9333C634.248 38.3643 631.704 39.0798 629.16 39.0798ZM720.17 193.862C712.379 193.862 705.542 192.908 699.659 191C693.776 189.251 689.166 185.515 685.827 179.791C682.647 173.908 681.057 165.243 681.057 153.795V79.8621C681.057 71.4353 682.647 64.9165 685.827 60.3057C689.166 55.6948 693.776 52.5149 699.659 50.7659C705.701 48.858 712.617 47.904 720.408 47.904C728.04 47.904 734.797 48.858 740.68 50.7659C746.722 52.6739 751.412 55.9333 754.751 60.5442C758.249 65.155 759.998 71.5944 759.998 79.8621V153.557C759.998 165.163 758.249 173.908 754.751 179.791C751.412 185.515 746.722 189.251 740.68 191C734.797 192.908 727.96 193.862 720.17 193.862ZM720.17 177.644C722.555 177.644 724.622 177.247 726.37 176.452C728.278 175.657 729.709 174.305 730.663 172.398C731.776 170.331 732.333 167.548 732.333 164.05V78.6697C732.333 75.1717 731.776 72.4688 730.663 70.5609C729.709 68.4939 728.278 67.063 726.37 66.268C724.622 65.473 722.555 65.0755 720.17 65.0755C717.785 65.0755 715.718 65.473 713.969 66.268C712.22 67.063 710.789 68.4939 709.676 70.5609C708.722 72.4688 708.245 75.1717 708.245 78.6697V164.05C708.245 167.548 708.722 170.331 709.676 172.398C710.789 174.305 712.22 175.657 713.969 176.452C715.718 177.247 717.785 177.644 720.17 177.644Z" fill="#012369"/>
<line x1="9.53973" y1="208.682" x2="183.64" y2="208.682" stroke="#EF6B01" stroke-width="7.1548"/>
<path d="M369.665 208.682L497.259 208.682M760.794 208.682L546.15 208.682" stroke="#EF6B01" stroke-width="7.1548"/>
<path d="M79.2944 260.38C79.2944 259.891 79.2183 259.456 79.0661 259.075C78.9248 258.695 78.6694 258.347 78.2999 258.032C77.9303 257.717 77.4086 257.412 76.7348 257.119C76.0718 256.815 75.224 256.505 74.1914 256.19C73.0611 255.842 72.0177 255.456 71.0612 255.032C70.1156 254.597 69.2896 254.098 68.5831 253.532C67.8767 252.956 67.3278 252.299 66.9365 251.56C66.5452 250.81 66.3496 249.946 66.3496 248.967C66.3496 248 66.5507 247.12 66.9528 246.326C67.3658 245.533 67.9473 244.848 68.6972 244.272C69.4581 243.685 70.3547 243.234 71.3873 242.919C72.4198 242.593 73.5611 242.43 74.811 242.43C76.5717 242.43 78.0879 242.756 79.3596 243.408C80.6421 244.06 81.6257 244.935 82.3105 246.033C83.0061 247.131 83.3539 248.342 83.3539 249.668H79.2944C79.2944 248.886 79.1259 248.196 78.789 247.598C78.4629 246.989 77.9629 246.511 77.2891 246.163C76.6261 245.815 75.7837 245.642 74.7621 245.642C73.7947 245.642 72.9904 245.788 72.3492 246.082C71.7079 246.375 71.2297 246.772 70.9145 247.272C70.5993 247.772 70.4417 248.337 70.4417 248.967C70.4417 249.413 70.5449 249.821 70.7515 250.19C70.958 250.549 71.2732 250.886 71.697 251.201C72.1209 251.505 72.6535 251.793 73.2948 252.065C73.936 252.337 74.6914 252.598 75.5609 252.848C76.876 253.239 78.0227 253.674 79.0009 254.152C79.9791 254.619 80.7943 255.152 81.4464 255.75C82.0985 256.347 82.5876 257.027 82.9137 257.787C83.2397 258.537 83.4028 259.391 83.4028 260.347C83.4028 261.347 83.2017 262.249 82.7996 263.053C82.3974 263.847 81.8214 264.526 81.0714 265.091C80.3323 265.646 79.4411 266.075 78.3977 266.379C77.3651 266.673 76.213 266.819 74.9414 266.819C73.8002 266.819 72.6752 266.667 71.5666 266.363C70.4689 266.059 69.4689 265.597 68.5668 264.977C67.6647 264.347 66.9474 263.564 66.4148 262.63C65.8822 261.684 65.6159 260.581 65.6159 259.32H69.708C69.708 260.092 69.8385 260.749 70.0993 261.293C70.371 261.836 70.746 262.282 71.2243 262.63C71.7025 262.966 72.2568 263.216 72.8872 263.379C73.5284 263.543 74.2132 263.624 74.9414 263.624C75.8979 263.624 76.6967 263.488 77.338 263.216C77.9901 262.945 78.4792 262.564 78.8053 262.075C79.1313 261.586 79.2944 261.021 79.2944 260.38ZM117.636 253.973V255.277C117.636 257.07 117.403 258.679 116.935 260.103C116.468 261.526 115.8 262.738 114.93 263.738C114.071 264.738 113.039 265.504 111.832 266.037C110.626 266.559 109.289 266.819 107.822 266.819C106.365 266.819 105.034 266.559 103.827 266.037C102.632 265.504 101.594 264.738 100.714 263.738C99.8332 262.738 99.1485 261.526 98.6594 260.103C98.1811 258.679 97.942 257.07 97.942 255.277V253.973C97.942 252.179 98.1811 250.576 98.6594 249.163C99.1376 247.739 99.8115 246.527 100.681 245.527C101.561 244.517 102.599 243.75 103.795 243.229C105.001 242.696 106.333 242.43 107.789 242.43C109.256 242.43 110.593 242.696 111.8 243.229C113.006 243.75 114.044 244.517 114.914 245.527C115.783 246.527 116.452 247.739 116.919 249.163C117.397 250.576 117.636 252.179 117.636 253.973ZM113.544 255.277V253.94C113.544 252.614 113.414 251.446 113.153 250.435C112.903 249.413 112.528 248.56 112.028 247.875C111.539 247.179 110.936 246.658 110.218 246.31C109.501 245.951 108.691 245.772 107.789 245.772C106.887 245.772 106.083 245.951 105.376 246.31C104.67 246.658 104.067 247.179 103.567 247.875C103.078 248.56 102.703 249.413 102.442 250.435C102.181 251.446 102.05 252.614 102.05 253.94V255.277C102.05 256.603 102.181 257.777 102.442 258.798C102.703 259.82 103.083 260.684 103.583 261.39C104.094 262.086 104.702 262.613 105.409 262.972C106.115 263.32 106.92 263.494 107.822 263.494C108.735 263.494 109.545 263.32 110.251 262.972C110.957 262.613 111.555 262.086 112.044 261.39C112.533 260.684 112.903 259.82 113.153 258.798C113.414 257.777 113.544 256.603 113.544 255.277ZM148.283 263.249V266.493H136.366V263.249H148.283ZM137.507 242.756V266.493H133.415V242.756H137.507ZM175.767 242.756H179.843V258.619C179.843 260.423 179.452 261.934 178.669 263.151C177.887 264.369 176.822 265.287 175.474 265.906C174.137 266.515 172.642 266.819 170.99 266.819C169.284 266.819 167.762 266.515 166.425 265.906C165.089 265.287 164.034 264.369 163.263 263.151C162.502 261.934 162.121 260.423 162.121 258.619V242.756H166.197V258.619C166.197 259.76 166.393 260.7 166.784 261.439C167.175 262.168 167.73 262.706 168.447 263.053C169.164 263.401 170.012 263.575 170.99 263.575C171.969 263.575 172.811 263.401 173.517 263.053C174.235 262.706 174.789 262.168 175.18 261.439C175.572 260.7 175.767 259.76 175.767 258.619V242.756ZM210.001 258.766H214.077C213.946 260.32 213.511 261.706 212.772 262.923C212.033 264.129 210.995 265.08 209.658 265.776C208.322 266.472 206.697 266.819 204.784 266.819C203.316 266.819 201.996 266.559 200.822 266.037C199.648 265.504 198.643 264.754 197.806 263.787C196.969 262.809 196.328 261.63 195.882 260.249C195.447 258.869 195.23 257.326 195.23 255.619V253.646C195.23 251.94 195.453 250.397 195.898 249.016C196.355 247.636 197.007 246.457 197.855 245.479C198.703 244.489 199.719 243.734 200.904 243.212C202.099 242.691 203.441 242.43 204.93 242.43C206.822 242.43 208.419 242.778 209.724 243.473C211.028 244.169 212.039 245.131 212.756 246.359C213.484 247.587 213.93 248.995 214.093 250.581H210.017C209.908 249.56 209.669 248.685 209.3 247.957C208.941 247.228 208.409 246.674 207.702 246.294C206.996 245.902 206.072 245.707 204.93 245.707C203.996 245.707 203.181 245.881 202.485 246.228C201.789 246.576 201.208 247.087 200.741 247.761C200.273 248.435 199.92 249.266 199.681 250.255C199.453 251.234 199.338 252.353 199.338 253.614V255.619C199.338 256.815 199.442 257.902 199.648 258.88C199.866 259.847 200.192 260.679 200.626 261.374C201.072 262.07 201.637 262.608 202.322 262.988C203.007 263.369 203.827 263.559 204.784 263.559C205.947 263.559 206.887 263.374 207.604 263.005C208.332 262.635 208.881 262.097 209.251 261.39C209.631 260.673 209.881 259.798 210.001 258.766ZM203.316 266.526H206.235L206.039 267.439C206.659 267.548 207.224 267.809 207.735 268.222C208.256 268.645 208.517 269.325 208.517 270.259C208.517 270.814 208.403 271.314 208.175 271.759C207.947 272.205 207.604 272.585 207.148 272.901C206.702 273.227 206.142 273.477 205.468 273.651C204.805 273.824 204.034 273.911 203.153 273.911L203.039 271.694C203.463 271.694 203.844 271.64 204.181 271.531C204.517 271.433 204.784 271.276 204.979 271.058C205.186 270.841 205.289 270.558 205.289 270.211C205.289 269.874 205.202 269.613 205.028 269.428C204.854 269.243 204.583 269.102 204.213 269.004C203.854 268.906 203.387 268.836 202.811 268.792L203.316 266.526ZM248.408 253.973V255.277C248.408 257.07 248.174 258.679 247.707 260.103C247.24 261.526 246.571 262.738 245.702 263.738C244.843 264.738 243.81 265.504 242.604 266.037C241.398 266.559 240.061 266.819 238.593 266.819C237.137 266.819 235.806 266.559 234.599 266.037C233.404 265.504 232.366 264.738 231.485 263.738C230.605 262.738 229.92 261.526 229.431 260.103C228.953 258.679 228.714 257.07 228.714 255.277V253.973C228.714 252.179 228.953 250.576 229.431 249.163C229.909 247.739 230.583 246.527 231.453 245.527C232.333 244.517 233.371 243.75 234.567 243.229C235.773 242.696 237.104 242.43 238.561 242.43C240.028 242.43 241.365 242.696 242.571 243.229C243.778 243.75 244.816 244.517 245.685 245.527C246.555 246.527 247.223 247.739 247.691 249.163C248.169 250.576 248.408 252.179 248.408 253.973ZM244.316 255.277V253.94C244.316 252.614 244.185 251.446 243.925 250.435C243.675 249.413 243.3 248.56 242.8 247.875C242.311 247.179 241.707 246.658 240.99 246.31C240.273 245.951 239.463 245.772 238.561 245.772C237.659 245.772 236.854 245.951 236.148 246.31C235.441 246.658 234.838 247.179 234.338 247.875C233.849 248.56 233.474 249.413 233.213 250.435C232.953 251.446 232.822 252.614 232.822 253.94V255.277C232.822 256.603 232.953 257.777 233.213 258.798C233.474 259.82 233.855 260.684 234.355 261.39C234.865 262.086 235.474 262.613 236.181 262.972C236.887 263.32 237.691 263.494 238.593 263.494C239.506 263.494 240.316 263.32 241.023 262.972C241.729 262.613 242.327 262.086 242.816 261.39C243.305 260.684 243.675 259.82 243.925 258.798C244.185 257.777 244.316 256.603 244.316 255.277ZM242.148 236.561L244.544 236.74C244.544 237.533 244.387 238.245 244.071 238.876C243.756 239.495 243.327 239.984 242.783 240.343C242.24 240.702 241.626 240.881 240.941 240.881C240.409 240.881 239.957 240.805 239.588 240.653C239.218 240.501 238.881 240.327 238.577 240.131C238.273 239.935 237.958 239.767 237.632 239.626C237.316 239.473 236.941 239.397 236.507 239.397C236.094 239.397 235.74 239.55 235.447 239.854C235.164 240.158 235.023 240.566 235.023 241.077L232.61 240.946C232.61 240.164 232.768 239.457 233.083 238.827C233.398 238.196 233.827 237.696 234.371 237.327C234.914 236.957 235.528 236.773 236.213 236.773C236.659 236.773 237.061 236.849 237.42 237.001C237.789 237.142 238.137 237.311 238.463 237.506C238.8 237.702 239.142 237.876 239.49 238.028C239.838 238.18 240.224 238.256 240.648 238.256C241.061 238.256 241.414 238.099 241.707 237.783C242.001 237.468 242.148 237.061 242.148 236.561ZM279.723 263.249V266.493H267.121V263.249H279.723ZM268.278 242.756V266.493H264.186V242.756H268.278ZM278.077 252.668V255.864H267.121V252.668H278.077ZM279.642 242.756V246.017H267.121V242.756H279.642ZM307.24 260.38C307.24 259.891 307.164 259.456 307.012 259.075C306.87 258.695 306.615 258.347 306.245 258.032C305.876 257.717 305.354 257.412 304.68 257.119C304.017 256.815 303.17 256.505 302.137 256.19C301.007 255.842 299.963 255.456 299.007 255.032C298.061 254.597 297.235 254.098 296.529 253.532C295.822 252.956 295.273 252.299 294.882 251.56C294.491 250.81 294.295 249.946 294.295 248.967C294.295 248 294.496 247.12 294.898 246.326C295.311 245.533 295.893 244.848 296.643 244.272C297.404 243.685 298.3 243.234 299.333 242.919C300.365 242.593 301.507 242.43 302.757 242.43C304.517 242.43 306.033 242.756 307.305 243.408C308.588 244.06 309.571 244.935 310.256 246.033C310.952 247.131 311.299 248.342 311.299 249.668H307.24C307.24 248.886 307.071 248.196 306.735 247.598C306.408 246.989 305.908 246.511 305.235 246.163C304.572 245.815 303.729 245.642 302.708 245.642C301.74 245.642 300.936 245.788 300.295 246.082C299.653 246.375 299.175 246.772 298.86 247.272C298.545 247.772 298.387 248.337 298.387 248.967C298.387 249.413 298.491 249.821 298.697 250.19C298.904 250.549 299.219 250.886 299.643 251.201C300.066 251.505 300.599 251.793 301.24 252.065C301.882 252.337 302.637 252.598 303.506 252.848C304.822 253.239 305.968 253.674 306.946 254.152C307.925 254.619 308.74 255.152 309.392 255.75C310.044 256.347 310.533 257.027 310.859 257.787C311.185 258.537 311.348 259.391 311.348 260.347C311.348 261.347 311.147 262.249 310.745 263.053C310.343 263.847 309.767 264.526 309.017 265.091C308.278 265.646 307.387 266.075 306.343 266.379C305.311 266.673 304.159 266.819 302.887 266.819C301.746 266.819 300.621 266.667 299.512 266.363C298.414 266.059 297.414 265.597 296.512 264.977C295.61 264.347 294.893 263.564 294.36 262.63C293.828 261.684 293.561 260.581 293.561 259.32H297.654C297.654 260.092 297.784 260.749 298.045 261.293C298.317 261.836 298.692 262.282 299.17 262.63C299.648 262.966 300.202 263.216 300.833 263.379C301.474 263.543 302.159 263.624 302.887 263.624C303.843 263.624 304.642 263.488 305.284 263.216C305.936 262.945 306.425 262.564 306.751 262.075C307.077 261.586 307.24 261.021 307.24 260.38ZM351.024 242.756V266.493H346.932V242.756H351.024ZM386.627 242.756V266.493H382.535L371.889 249.489V266.493H367.797V242.756H371.889L382.567 259.793V242.756H386.627ZM412.464 242.756V266.493H408.405V242.756H412.464ZM419.915 242.756V246.017H401.019V242.756H419.915ZM450.268 263.249V266.493H437.666V263.249H450.268ZM438.823 242.756V266.493H434.731V242.756H438.823ZM448.622 252.668V255.864H437.666V252.668H448.622ZM450.187 242.756V246.017H437.666V242.756H450.187ZM483.524 254.364V263.428C483.187 263.874 482.66 264.363 481.942 264.896C481.236 265.417 480.296 265.868 479.122 266.249C477.948 266.629 476.486 266.819 474.736 266.819C473.247 266.819 471.883 266.569 470.644 266.07C469.405 265.559 468.335 264.814 467.432 263.836C466.541 262.858 465.851 261.668 465.362 260.266C464.873 258.853 464.628 257.244 464.628 255.44V253.793C464.628 252 464.851 250.402 465.297 249C465.753 247.587 466.405 246.391 467.253 245.413C468.101 244.435 469.123 243.696 470.318 243.196C471.525 242.685 472.889 242.43 474.41 242.43C476.356 242.43 477.964 242.756 479.236 243.408C480.519 244.049 481.508 244.941 482.203 246.082C482.899 247.223 483.339 248.527 483.524 249.995H479.513C479.383 249.168 479.127 248.429 478.747 247.777C478.377 247.125 477.845 246.614 477.149 246.245C476.464 245.864 475.573 245.674 474.475 245.674C473.53 245.674 472.698 245.853 471.981 246.212C471.264 246.571 470.666 247.098 470.188 247.794C469.72 248.489 469.367 249.337 469.128 250.337C468.889 251.337 468.769 252.478 468.769 253.761V255.44C468.769 256.744 468.905 257.902 469.177 258.912C469.459 259.923 469.862 260.776 470.383 261.472C470.916 262.168 471.563 262.695 472.323 263.053C473.084 263.401 473.943 263.575 474.899 263.575C475.834 263.575 476.6 263.499 477.198 263.347C477.796 263.184 478.269 262.994 478.616 262.776C478.975 262.548 479.252 262.331 479.448 262.124V257.412H474.508V254.364H483.524ZM499.742 242.756H508.138C509.943 242.756 511.481 243.028 512.752 243.571C514.024 244.114 514.997 244.919 515.67 245.984C516.355 247.038 516.698 248.342 516.698 249.897C516.698 251.081 516.48 252.125 516.045 253.027C515.611 253.929 514.997 254.69 514.203 255.309C513.41 255.918 512.464 256.391 511.366 256.728L510.127 257.331H502.579L502.546 254.087H508.204C509.182 254.087 509.997 253.913 510.649 253.565C511.301 253.217 511.79 252.744 512.116 252.147C512.453 251.538 512.622 250.853 512.622 250.092C512.622 249.266 512.459 248.549 512.133 247.94C511.817 247.321 511.328 246.848 510.665 246.522C510.002 246.185 509.16 246.017 508.138 246.017H503.834V266.493H499.742V242.756ZM513.29 266.493L507.714 255.831L512.002 255.815L517.659 266.281V266.493H513.29ZM541.704 245.919L534.612 266.493H530.324L539.258 242.756H541.997L541.704 245.919ZM547.638 266.493L540.53 245.919L540.22 242.756H542.975L551.942 266.493H547.638ZM547.296 257.69V260.934H534.383V257.69H547.296ZM573.182 266.493H568.112L568.144 263.249H573.182C574.649 263.249 575.877 262.928 576.866 262.287C577.866 261.646 578.616 260.727 579.116 259.532C579.627 258.336 579.882 256.913 579.882 255.26V253.973C579.882 252.69 579.736 251.554 579.442 250.565C579.16 249.576 578.736 248.745 578.171 248.071C577.616 247.397 576.932 246.886 576.116 246.538C575.312 246.19 574.383 246.017 573.329 246.017H568.014V242.756H573.329C574.905 242.756 576.345 243.022 577.649 243.555C578.953 244.076 580.078 244.832 581.024 245.821C581.98 246.81 582.714 247.995 583.225 249.375C583.735 250.755 583.991 252.299 583.991 254.005V255.26C583.991 256.967 583.735 258.51 583.225 259.891C582.714 261.271 581.98 262.456 581.024 263.445C580.067 264.423 578.926 265.178 577.6 265.711C576.285 266.233 574.812 266.493 573.182 266.493ZM570.378 242.756V266.493H566.286V242.756H570.378ZM608.671 245.919L601.579 266.493H597.291L606.225 242.756H608.964L608.671 245.919ZM614.605 266.493L607.497 245.919L607.187 242.756H609.942L618.909 266.493H614.605ZM614.263 257.69V260.934H601.351V257.69H614.263ZM645.741 260.38C645.741 259.891 645.665 259.456 645.513 259.075C645.372 258.695 645.116 258.347 644.747 258.032C644.377 257.717 643.855 257.412 643.181 257.119C642.518 256.815 641.671 256.505 640.638 256.19C639.508 255.842 638.464 255.456 637.508 255.032C636.562 254.597 635.736 254.098 635.03 253.532C634.323 252.956 633.774 252.299 633.383 251.56C632.992 250.81 632.796 249.946 632.796 248.967C632.796 248 632.997 247.12 633.4 246.326C633.813 245.533 634.394 244.848 635.144 244.272C635.905 243.685 636.801 243.234 637.834 242.919C638.867 242.593 640.008 242.43 641.258 242.43C643.018 242.43 644.535 242.756 645.806 243.408C647.089 244.06 648.072 244.935 648.757 246.033C649.453 247.131 649.801 248.342 649.801 249.668H645.741C645.741 248.886 645.573 248.196 645.236 247.598C644.91 246.989 644.41 246.511 643.736 246.163C643.073 245.815 642.23 245.642 641.209 245.642C640.241 245.642 639.437 245.788 638.796 246.082C638.155 246.375 637.676 246.772 637.361 247.272C637.046 247.772 636.888 248.337 636.888 248.967C636.888 249.413 636.992 249.821 637.198 250.19C637.405 250.549 637.72 250.886 638.144 251.201C638.568 251.505 639.1 251.793 639.741 252.065C640.383 252.337 641.138 252.598 642.008 252.848C643.323 253.239 644.469 253.674 645.448 254.152C646.426 254.619 647.241 255.152 647.893 255.75C648.545 256.347 649.034 257.027 649.36 257.787C649.686 258.537 649.849 259.391 649.849 260.347C649.849 261.347 649.648 262.249 649.246 263.053C648.844 263.847 648.268 264.526 647.518 265.091C646.779 265.646 645.888 266.075 644.844 266.379C643.812 266.673 642.66 266.819 641.388 266.819C640.247 266.819 639.122 266.667 638.013 266.363C636.916 266.059 635.916 265.597 635.014 264.977C634.111 264.347 633.394 263.564 632.862 262.63C632.329 261.684 632.063 260.581 632.063 259.32H636.155C636.155 260.092 636.285 260.749 636.546 261.293C636.818 261.836 637.193 262.282 637.671 262.63C638.149 262.966 638.704 263.216 639.334 263.379C639.975 263.543 640.66 263.624 641.388 263.624C642.345 263.624 643.143 263.488 643.785 263.216C644.437 262.945 644.926 262.564 645.252 262.075C645.578 261.586 645.741 261.021 645.741 260.38Z" fill="#EF6B01"/>
</g>
<defs>
<clipPath id="clip0_250_322">
<rect width="770.333" height="271.882" fill="white"/>
</clipPath>
</defs>
</svg>
