<svg width="46" height="46" viewBox="0 0 47 46" fill="none" xmlns="http://www.w3.org/2000/svg">
<path d="M39.1191 11.9922H8.04626C5.70611 11.9922 3.80905 13.8892 3.80905 16.2294V36.003C3.80905 38.3432 5.70611 40.2402 8.04626 40.2402H39.1191C41.4592 40.2402 43.3563 38.3432 43.3563 36.003V16.2294C43.3563 13.8892 41.4592 11.9922 39.1191 11.9922Z" stroke="white" stroke-width="2.8248" stroke-linejoin="round"/>
<path d="M13.6959 11.9921V9.16733C13.6959 8.41815 13.9935 7.69965 14.5232 7.16989C15.053 6.64014 15.7715 6.34253 16.5207 6.34253H30.6447C31.3939 6.34253 32.1124 6.64014 32.6421 7.16989C33.1719 7.69965 33.4695 8.41815 33.4695 9.16733V11.9921M43.3563 21.8789H3.80905M29.2323 21.8789V23.9976C29.2323 24.1848 29.1579 24.3645 29.0254 24.4969C28.893 24.6293 28.7134 24.7038 28.5261 24.7038H18.6393C18.452 24.7038 18.2723 24.6293 18.1399 24.4969C18.0075 24.3645 17.9331 24.1848 17.9331 23.9976V21.8789" stroke="white" stroke-width="2.8248" stroke-linecap="round" stroke-linejoin="round"/>
</svg>
