<?xml version="1.0" encoding="UTF-8"?>
<svg version="1.1" xmlns="http://www.w3.org/2000/svg" width="512" height="512">
<path d="M0 0 C2.35667281 2.11560857 4.6772686 4.26502661 6.99609375 6.421875 C8.34632288 7.59309648 9.70035866 8.75994733 11.05859375 9.921875 C18.26851521 16.21602015 24.84703168 23.09708405 30.99609375 30.421875 C31.42841309 30.92444824 31.86073242 31.42702148 32.30615234 31.94482422 C46.05454472 47.96842987 61.31147903 67.04840469 68.74609375 86.984375 C69.1328125 87.99628906 69.51953125 89.00820312 69.91796875 90.05078125 C76.16894222 109.59639756 74.69198971 131.53548401 66.12109375 150.109375 C58.31320234 164.78485261 48.4072016 178.49281482 37.99609375 191.421875 C36.94615234 192.75992188 36.94615234 192.75992188 35.875 194.125 C16.74709006 218.1314044 -6.31966749 239.47080723 -33.23583984 254.43652344 C-35.01011779 255.42533672 -36.76632622 256.44199787 -38.5234375 257.4609375 C-48.86323219 263.33553227 -59.78940479 267.52429774 -71.00390625 271.421875 C-71.73335449 271.67598145 -72.46280273 271.93008789 -73.21435547 272.19189453 C-122.34326683 288.89317104 -178.63312852 283.37116064 -224.99609375 261.03125 C-244.20016378 251.46111543 -261.31491397 239.01494503 -277.00390625 224.421875 C-278.35413538 223.25065352 -279.70817116 222.08380267 -281.06640625 220.921875 C-288.27632771 214.62772985 -294.85484418 207.74666595 -301.00390625 200.421875 C-301.43622559 199.91930176 -301.86854492 199.41672852 -302.31396484 198.89892578 C-316.06235722 182.87532013 -331.31929153 163.79534531 -338.75390625 143.859375 C-339.140625 142.84746094 -339.52734375 141.83554687 -339.92578125 140.79296875 C-346.20633222 121.15486917 -344.70505639 99.42557582 -336.12890625 80.796875 C-328.361682 66.08090819 -318.42463269 52.36288005 -308.00390625 39.421875 C-306.95396484 38.08382812 -306.95396484 38.08382812 -305.8828125 36.71875 C-269.11263243 -9.42951269 -217.78051224 -42.43165004 -158.60473633 -49.56274414 C-100.60108771 -55.78007636 -44.14742425 -37.88985696 0 0 Z M-253.00390625 29.421875 C-253.55175781 29.9080127 -254.09960938 30.39415039 -254.6640625 30.89501953 C-274.77067025 48.80319599 -308.37798453 82.06607045 -310.375 110.71484375 C-311.41828793 136.08909674 -293.66327347 156.92914893 -278.00390625 175.421875 C-277.53162598 175.98438965 -277.0593457 176.5469043 -276.57275391 177.12646484 C-244.048269 215.84409708 -201.19315604 242.37394427 -150.44140625 248.171875 C-105.930678 251.05943807 -64.47003826 238.54531731 -29.00390625 211.421875 C-27.534375 210.30039062 -27.534375 210.30039062 -26.03515625 209.15625 C-1.83997637 189.94243068 18.82698626 165.65774254 34.12109375 138.796875 C34.48734863 138.15830566 34.85360352 137.51973633 35.23095703 136.86181641 C40.92164779 126.54794871 41.57398509 114.79846593 39.4140625 103.33203125 C32.63375743 82.74343365 15.40907125 63.40996206 1.09765625 47.74609375 C-0.73775462 45.71622485 -2.49772069 43.6447814 -4.25390625 41.546875 C-33.38071945 8.25908848 -75.99087835 -12.35001305 -119.56640625 -17.328125 C-169.60875308 -20.57454307 -215.69590501 -3.95595289 -253.00390625 29.421875 Z " fill="#ADABC3" transform="translate(391.00390625,140.578125)"/>
<path d="M0 0 C17.81145952 14.8832527 30.21508463 36.5930845 32.68823242 59.89013672 C34.24071855 85.82947872 28.68575137 108.23016461 12.68823242 128.89013672 C12.06303711 129.69966797 11.4378418 130.50919922 10.79370117 131.34326172 C-1.13912838 145.71290067 -18.45303175 155.07714408 -36.31176758 159.89013672 C-37.50479492 160.22658203 -37.50479492 160.22658203 -38.72192383 160.56982422 C-60.86613993 165.69352557 -85.66403317 161.30925244 -105.12133789 149.82177734 C-109.01213992 147.38328245 -112.67998972 144.70231065 -116.31176758 141.89013672 C-117.12129883 141.26494141 -117.93083008 140.63974609 -118.76489258 139.99560547 C-135.57022375 126.04012941 -147.01394867 103.53559081 -149.31176758 81.89013672 C-151.03150531 53.15631146 -143.67881875 29.59620952 -124.99926758 7.64013672 C-113.04194764 -5.10059384 -97.10292091 -13.58458791 -80.31176758 -18.10986328 C-79.11874023 -18.44630859 -79.11874023 -18.44630859 -77.90161133 -18.78955078 C-50.82476533 -25.05455794 -21.39869403 -17.20564811 0 0 Z M-105.31176758 35.89013672 C-115.40381373 49.45530145 -118.23050948 65.68094663 -115.83911133 82.14404297 C-113.15075973 94.49114284 -107.23834805 104.08604792 -98.31176758 112.89013672 C-97.67368164 113.53853516 -97.0355957 114.18693359 -96.37817383 114.85498047 C-85.39640584 125.28880161 -71.12185722 129.44380815 -56.29345703 129.38012695 C-39.28981459 128.80027597 -25.44519279 121.01692707 -13.82348633 108.83154297 C-3.54888012 96.79922807 0.68164401 82.34039089 0.00463867 66.67529297 C-1.26279233 51.51306278 -7.55524854 39.49905344 -18.31176758 28.89013672 C-18.94985352 28.24173828 -19.58793945 27.59333984 -20.24536133 26.92529297 C-31.0826655 16.62872746 -45.46305774 12.3422895 -60.16918945 12.47045898 C-78.76854872 13.15842292 -93.66316429 21.82770101 -105.31176758 35.89013672 Z " fill="#ADABC3" transform="translate(314.311767578125,185.10986328125)"/>
</svg>
