<?xml version="1.0" encoding="UTF-8"?>
<svg version="1.1" xmlns="http://www.w3.org/2000/svg" width="512" height="512">
<path d="M0 0 C1.75953231 -0.00935994 1.75953231 -0.00935994 3.55461073 -0.01890898 C6.79773841 -0.03207468 10.0402641 -0.02737552 13.28337646 -0.0149641 C16.78583794 -0.00589867 20.28821922 -0.0198907 23.79066467 -0.03088379 C30.64685655 -0.04865775 37.50287314 -0.04483409 44.35907185 -0.03323323 C49.93189565 -0.02419473 55.50467036 -0.0229767 61.07749939 -0.02732849 C61.87105858 -0.02794142 62.66461776 -0.02855436 63.4822242 -0.02918586 C65.09439235 -0.03046478 66.7065605 -0.03176163 68.31872863 -0.03307623 C83.43127174 -0.04447873 98.54371775 -0.03137351 113.65624493 -0.00987476 C126.61971484 0.00799594 139.58304147 0.00489174 152.54650879 -0.0135498 C167.60546556 -0.03496235 182.66433726 -0.04338013 197.72330713 -0.03110075 C199.32949987 -0.02982657 200.93569262 -0.02856909 202.54188538 -0.02732849 C203.72726 -0.02640284 203.72726 -0.02640284 204.93658158 -0.02545848 C210.50184484 -0.02200674 216.06705407 -0.02783015 221.63230896 -0.0372467 C228.41577647 -0.04847235 235.19905886 -0.04541485 241.9825052 -0.02412373 C245.44267995 -0.01362078 248.90254621 -0.00947824 252.36271858 -0.02272034 C256.11524939 -0.03363334 259.86690959 -0.01996153 263.61938477 0 C264.7109222 -0.00892289 265.80245963 -0.01784577 266.92707396 -0.02703905 C273.28179445 0.03863261 277.13283645 0.74044825 282.30969238 4.50793457 C287.50325339 9.98222861 288.60953844 14.94080598 288.55020142 22.32234192 C288.55276469 23.49256253 288.55276469 23.49256253 288.55537975 24.68642396 C288.55867014 27.29669911 288.54767842 29.90671636 288.53674316 32.51696777 C288.53617895 34.3896026 288.5364958 36.26223787 288.53762817 38.13487244 C288.5382023 43.21709764 288.52643826 48.29922854 288.51248026 53.38143182 C288.49998291 58.69322244 288.49880318 64.00501519 288.49642944 69.31681824 C288.49021175 79.3748073 288.473797 89.43275291 288.45373046 99.49072284 C288.43138048 110.94164265 288.42038029 122.39256454 288.41033959 133.84350073 C288.38943105 157.3983361 288.35424943 180.9531329 288.30969238 204.50793457 C289.39089355 204.49045166 290.47209473 204.47296875 291.58605957 204.45495605 C302.4227334 204.60913637 312.78804209 210.21915451 321.30969238 216.50793457 C321.95293457 216.96812988 322.59617676 217.4283252 323.25891113 217.90246582 C333.82432431 226.14111385 342.00048271 240.3884225 344.05969238 253.60168457 C345.68747515 272.52465929 343.26965081 288.8788506 331.13781738 304.26184082 C321.03619371 315.94837441 306.8685411 325.5138754 291.07189941 326.67199707 C271.31824748 327.60652821 255.34902816 323.63591402 240.13781738 310.33605957 C231.95695999 302.15520217 226.64245279 292.57805833 223.30969238 281.50793457 C223.30969238 280.84793457 223.30969238 280.18793457 223.30969238 279.50793457 C222.12140083 279.51069995 220.93310928 279.51346533 219.7088089 279.51631451 C191.48986706 279.58131307 163.27092895 279.63076864 135.05192831 279.66113056 C131.57730266 279.6648826 128.10267717 279.66876557 124.62805176 279.67272949 C123.93632761 279.67351642 123.24460347 279.67430335 122.53191799 279.67511413 C111.33727411 279.68816169 100.14267653 279.71181195 88.9480601 279.73939296 C77.45805573 279.76746526 65.96808392 279.78389019 54.47804594 279.79020005 C48.02564674 279.7941118 41.57335251 279.80330883 35.12098694 279.82512474 C29.04718178 279.84549424 22.97352479 279.85176735 16.89968872 279.84725761 C14.67126154 279.8480826 12.44282939 279.85404537 10.21443176 279.86555099 C7.16922163 279.88050209 4.12456905 279.87687836 1.0793457 279.86869812 C0.19994843 279.87743664 -0.67944884 279.88617517 -1.58549452 279.8951785 C-7.90492844 279.84937339 -13.76406253 279.00107317 -18.74890137 274.75402832 C-19.20394043 274.15719238 -19.65897949 273.56035645 -20.12780762 272.94543457 C-20.60089355 272.34602051 -21.07397949 271.74660645 -21.56140137 271.12902832 C-23.49420451 268.35354976 -23.81720801 266.64120412 -23.82732201 263.30175591 C-23.83239655 262.41444153 -23.83747109 261.52712715 -23.84269941 260.61292446 C-23.84319717 259.63201528 -23.84369492 258.65110611 -23.84420776 257.64047241 C-23.84859002 256.60310224 -23.85297227 255.56573206 -23.85748732 254.49692643 C-23.87091244 250.99782711 -23.87706253 247.49875299 -23.88317871 243.99963379 C-23.89107681 241.50003443 -23.89934557 239.00043623 -23.90795898 236.50083923 C-23.93194743 228.98210708 -23.94711315 221.46337907 -23.96001905 213.94462174 C-23.96373049 211.82099422 -23.96770377 209.69736735 -23.97177172 207.57374048 C-23.99701082 194.38735193 -24.01906482 181.20096236 -24.03149986 168.01455498 C-24.03442959 164.95928824 -24.03739124 161.90402154 -24.04040527 158.84875488 C-24.04115132 158.0893776 -24.04189737 157.33000032 -24.04266603 156.54761161 C-24.05531532 144.25050591 -24.08853154 131.95354494 -24.13020711 119.65650688 C-24.17264201 107.03190542 -24.1961968 94.40737801 -24.20142043 81.78270543 C-24.2048331 74.69423981 -24.21657082 67.60600023 -24.24952316 60.51760483 C-24.28047851 53.84780272 -24.28593182 47.17846323 -24.2741394 40.50857735 C-24.27391828 38.06083394 -24.28225523 35.6130725 -24.29979324 33.16539192 C-24.32244297 29.82221847 -24.31420771 26.48047915 -24.29830933 23.13729858 C-24.31219141 22.16977374 -24.3260735 21.2022489 -24.34037626 20.20540512 C-24.26539625 13.80128209 -23.04667267 9.32590898 -18.69030762 4.50793457 C-12.79585174 -0.21292711 -7.35563765 -0.06012943 0 0 Z M-11.69030762 14.50793457 C-12.83066984 16.78865901 -12.81938215 18.04794993 -12.82732201 20.58193684 C-12.83239655 21.43975075 -12.83747109 22.29756467 -12.84269941 23.18137294 C-12.84319717 24.12930994 -12.84369492 25.07724694 -12.84420776 26.0539093 C-12.84859002 27.0566442 -12.85297227 28.0593791 -12.85748732 29.09249991 C-12.87091089 32.47422541 -12.87706213 35.85592483 -12.88317871 39.2376709 C-12.89107679 41.65346902 -12.89934555 44.06926596 -12.90795898 46.48506165 C-12.93194362 53.75015828 -12.94711078 61.01525671 -12.96001905 68.28037909 C-12.96373023 70.33173775 -12.96770352 72.38309574 -12.97177172 74.43445373 C-12.99700614 87.16842491 -13.01906298 99.90239715 -13.03149986 112.63638783 C-13.03442964 115.58649004 -13.03739129 118.53659221 -13.04040527 121.48669434 C-13.04115132 122.21994301 -13.04189737 122.95319169 -13.04266603 123.70866003 C-13.0553236 135.59070382 -13.0885516 147.4725981 -13.13020711 159.35457198 C-13.17260692 171.54862427 -13.19619257 183.74259997 -13.20142043 195.9367258 C-13.20483666 202.78532518 -13.21661648 209.63369088 -13.24952316 216.48221779 C-13.2804195 222.9229644 -13.28595148 229.36341491 -13.2741394 235.80422783 C-13.27391783 238.17099144 -13.28229143 240.53777344 -13.29979324 242.90447235 C-13.32235526 246.13048135 -13.31424924 249.35499416 -13.29830933 252.58100891 C-13.31913246 253.99287616 -13.31913246 253.99287616 -13.34037626 255.43326598 C-13.28847248 259.68317981 -13.05147335 261.93901005 -10.7332449 265.59078789 C-6.5255541 268.24176611 -3.27788348 268.19034101 1.60469055 268.10920715 C2.54409617 268.11347928 3.48350178 268.1177514 4.45137423 268.12215298 C7.60100155 268.13039268 10.74929897 268.10288105 13.89880371 268.07556152 C16.15566985 268.07415127 18.41253828 268.07494259 20.66940308 268.07777405 C26.79927721 268.07921047 32.9286636 268.04978335 39.05842423 268.01490426 C45.4632561 267.98367886 51.86809876 267.98071302 58.272995 267.97477722 C69.02418064 267.96099504 79.77515277 267.92974977 90.52624512 267.88513184 C101.59915268 267.83922617 112.67201159 267.80383924 123.74499512 267.78259277 C124.76905767 267.78062235 124.76905767 267.78062235 125.81380836 267.77861211 C129.2388072 267.77208686 132.66380638 267.76576833 136.08880579 267.7595526 C164.49589131 267.70773162 192.90278224 267.61930487 221.30969238 267.50793457 C221.50015137 266.21178223 221.69061035 264.91562988 221.88684082 263.5802002 C222.14726043 261.85814617 222.40802067 260.13614364 222.66906738 258.41418457 C222.79330078 257.56243652 222.91753418 256.71068848 223.04553223 255.83312988 C225.27865778 241.25461211 232.57827267 226.77556662 244.30969238 217.50793457 C254.27203509 210.8785368 264.42360796 206.4264011 276.30969238 204.50793457 C276.37970507 179.91722831 276.43264255 155.32653693 276.4651289 130.73575115 C276.48061231 119.31838847 276.50172996 107.90108764 276.53601074 96.48376465 C276.565868 86.53498555 276.58525665 76.58625123 276.59195787 66.63742858 C276.59587636 61.36728074 276.60511589 56.09726103 276.62688255 50.82715416 C276.64718971 45.87043168 276.65353791 40.91389056 276.64901543 35.95713043 C276.64984322 34.13457823 276.65584312 32.31202019 276.66730881 30.48950386 C276.68216282 28.00740017 276.67867226 25.52598761 276.67045593 23.04386902 C276.67919446 22.31721832 276.68793298 21.59056761 276.69693631 20.84189719 C276.67108452 17.96665432 276.65156482 15.99665279 274.97464466 13.59943867 C271.89096394 11.57784911 269.20445123 11.38182838 265.6285038 11.37650681 C264.66071357 11.37266566 263.69292335 11.36882452 262.69580615 11.36486697 C261.63016259 11.36573345 260.56451904 11.36659994 259.46658325 11.36749268 C258.3364038 11.36452155 257.20622435 11.36155043 256.04179704 11.35848927 C252.23476648 11.34978108 248.42776729 11.34829224 244.62072754 11.34680176 C241.89936639 11.34271404 239.17800857 11.33717148 236.45664978 11.33175659 C229.04970478 11.31817027 221.64276519 11.31214824 214.2358098 11.30774593 C209.61231782 11.30498432 204.98882794 11.30074714 200.36533737 11.29624176 C187.56803074 11.28404927 174.77072578 11.27374955 161.97341347 11.27036667 C161.15424832 11.2701471 160.33508318 11.26992754 159.49109485 11.26970132 C158.66995585 11.26948304 157.84881686 11.26926476 157.00279486 11.26903987 C155.33881799 11.2685964 153.67484112 11.26814984 152.01086426 11.2677002 C151.18547202 11.26747877 150.36007979 11.26725734 149.50967567 11.2670292 C136.13074257 11.26307987 122.75186389 11.24562167 109.37295182 11.22234067 C95.64204985 11.19863968 81.9111752 11.18616541 68.18025243 11.18499875 C60.46877731 11.18408134 52.75737312 11.17831249 45.04591751 11.16017914 C38.48046142 11.14479511 31.91509819 11.13964765 25.34962751 11.14791724 C21.99908405 11.15182971 18.64888005 11.14924054 15.29833412 11.13685989 C11.66764962 11.12422811 8.03744932 11.12996972 4.4067688 11.14044189 C2.81499563 11.12835729 2.81499563 11.12835729 1.19106543 11.11602855 C-5.76238757 11.10710687 -5.76238757 11.10710687 -11.69030762 14.50793457 Z M245.30969238 232.50793457 C235.42665075 244.2050718 232.19878265 257.42459676 233.30969238 272.50793457 C236.09233845 286.56427243 243.55872757 299.17888726 255.49719238 307.25793457 C267.3889314 314.37348333 280.49777173 317.12014009 294.16906738 314.41809082 C307.248024 310.62779618 318.81972859 302.71990678 325.99719238 291.01574707 C333.38240579 276.90471432 334.87018967 264.2026919 330.56359863 248.84777832 C325.86253044 235.66389374 316.22683358 225.60042637 303.68469238 219.63293457 C301.90474955 218.89563608 300.11374103 218.18411062 298.30969238 217.50793457 C297.6561377 217.26172363 297.00258301 217.0155127 296.32922363 216.76184082 C277.59504397 210.96982365 258.20887989 218.91500925 245.30969238 232.50793457 Z " fill="#ADAAC3" transform="translate(96.6903076171875,92.4920654296875)"/>
<path d="M0 0 C80.19 0 160.38 0 243 0 C243 53.79 243 107.58 243 163 C162.81 163 82.62 163 0 163 C0 109.21 0 55.42 0 0 Z M12 12 C12 57.87 12 103.74 12 151 C21.39550788 152.14061087 21.39550788 152.14061087 24.671875 148.4921875 C25.40083794 147.30802506 26.09134742 146.09966503 26.75 144.875 C27.57903962 143.4945589 28.40849217 142.11436573 29.23828125 140.734375 C29.89497803 139.59838867 29.89497803 139.59838867 30.56494141 138.43945312 C32.65947735 134.87895582 34.89803432 131.41545892 37.12988281 127.93994141 C38.95044989 125.10483357 40.75598736 122.26061735 42.55859375 119.4140625 C45.51251654 114.75855626 48.49627176 110.12348423 51.5 105.5 C56.46177301 97.86084384 61.3530982 90.17765665 66.23046875 82.484375 C66.7925 81.59878906 67.35453125 80.71320313 67.93359375 79.80078125 C68.46194824 78.96756348 68.99030273 78.1343457 69.53466797 77.27587891 C70.79452108 75.31913937 72.08975253 73.39647362 73.41015625 71.48046875 C75.17987264 69.21040327 75.17987264 69.21040327 75 67 C75.66 67 76.32 67 77 67 C77.23203125 67.67160156 77.4640625 68.34320313 77.703125 69.03515625 C79.34486644 72.78841455 81.4896354 76.03088796 83.75 79.4375 C84.74046302 80.94864253 85.72999901 82.46039297 86.71875 83.97265625 C87.51152344 85.18332764 87.51152344 85.18332764 88.3203125 86.41845703 C91.33247559 91.04790652 94.28946291 95.71243278 97.25 100.375 C97.81557617 101.26501709 98.38115234 102.15503418 98.96386719 103.07202148 C100.07184128 104.81577395 101.17959276 106.55966788 102.28710938 108.30371094 C105.18856892 112.87094571 108.09436907 117.43541828 111 122 C113.49420104 118.95417107 115.7918752 115.90624671 117.875 112.56640625 C118.38546875 111.75236328 118.8959375 110.93832031 119.421875 110.09960938 C120.20304687 108.84374023 120.20304687 108.84374023 121 107.5625 C122.04096572 105.89669719 123.08261744 104.23132284 124.125 102.56640625 C124.61484375 101.78152832 125.1046875 100.99665039 125.609375 100.18798828 C126.82735595 98.27163554 128.08625382 96.39636605 129.375 94.52734375 C131.18027443 92.22040097 131.18027443 92.22040097 131 90 C134.97756179 93.54077346 137.48950228 97.69632513 140.25 102.1875 C141.31165834 103.89114978 142.37420643 105.59424533 143.4375 107.296875 C144.00726563 108.21146484 144.57703125 109.12605469 145.1640625 110.06835938 C148.49080657 115.38053262 151.87125425 120.65830876 155.25 125.9375 C155.8987207 126.95416748 156.54744141 127.97083496 157.21582031 129.01831055 C163.90274134 140.57393002 163.90274134 140.57393002 172 151 C191.47 151 210.94 151 231 151 C231 105.13 231 59.26 231 12 C158.73 12 86.46 12 12 12 Z M75 89 C73.34906556 91.49039263 71.81906679 93.98574756 70.3125 96.5625 C65.9047315 103.93946251 61.33764674 111.18900199 56.625 118.375 C55.99754883 119.33301514 55.37009766 120.29103027 54.72363281 121.27807617 C53.45337719 123.21581763 52.18238234 125.15307472 50.91064453 127.08984375 C47.78743079 131.84689815 44.67251373 136.60930794 41.5625 141.375 C40.71969482 142.65963135 40.71969482 142.65963135 39.85986328 143.97021484 C39.35052246 144.75090332 38.84118164 145.5315918 38.31640625 146.3359375 C37.86724854 147.02220215 37.41809082 147.7084668 36.95532227 148.41552734 C35.91394366 149.83436621 35.91394366 149.83436621 36 151 C75.93 151 115.86 151 157 151 C155.38967555 146.97418887 153.83238178 143.95160908 151.515625 140.359375 C150.82726562 139.28816406 150.13890625 138.21695313 149.4296875 137.11328125 C148.70316344 135.99216259 147.97660074 134.87106897 147.25 133.75 C146.54617187 132.65558594 145.84234375 131.56117188 145.1171875 130.43359375 C143.73467752 128.28787659 142.34743234 126.14520173 140.95507812 124.00585938 C139.69965691 122.07569628 138.45278983 120.13992705 137.21679688 118.19726562 C136.68634766 117.37419922 136.15589844 116.55113281 135.609375 115.703125 C135.15014648 114.98286133 134.69091797 114.26259766 134.21777344 113.52050781 C133.8159082 113.01874023 133.41404297 112.51697266 133 112 C132.34 112 131.68 112 131 112 C129.80522339 113.51482154 129.80522339 113.51482154 128.6796875 115.515625 C128.23020752 116.26730957 127.78072754 117.01899414 127.31762695 117.79345703 C126.84156006 118.60411621 126.36549316 119.41477539 125.875 120.25 C124.88866486 121.89960269 123.90037261 123.54803669 122.91015625 125.1953125 C122.42047363 126.01032227 121.93079102 126.82533203 121.42626953 127.66503906 C118.44334895 132.5484099 115.23122568 137.27815158 112 142 C108.37503672 138.72184414 105.94199671 134.9598177 103.4375 130.8125 C102.5520429 129.37031837 101.66527964 127.92893804 100.77734375 126.48828125 C100.32085449 125.74658691 99.86436523 125.00489258 99.39404297 124.24072266 C96.70400796 119.91688005 93.90984853 115.66039734 91.12695312 111.39599609 C88.75447091 107.74868435 86.42281261 104.08293206 84.15234375 100.37109375 C83.46785156 99.25541016 83.46785156 99.25541016 82.76953125 98.1171875 C81.89736987 96.69001433 81.03123447 95.25913688 80.171875 93.82421875 C79.16752611 92.18255877 78.09056584 90.58569553 77 89 C76.34 89 75.68 89 75 89 Z " fill="#ADABC3" transform="translate(107,127)"/>
<path d="M0 0 C7.2974243 5.41500664 11.39369959 12.40348515 12.9375 21.3125 C13.48600798 28.95147692 11.45418047 37.4657084 6.578125 43.47265625 C0.14416942 49.69957861 -6.91515234 52.96735949 -15.875 53.3125 C-25.17368594 53.03157293 -31.12089019 49.98569547 -37.82421875 43.51171875 C-43.57390625 36.87428776 -44.69324504 29.79865419 -44.37890625 21.1796875 C-43.46548058 13.51444524 -40.646238 7.67769874 -34.93359375 2.46875 C-24.3405844 -5.5776571 -11.73071344 -6.22481804 0 0 Z M-29.25 14.1875 C-31.96811168 18.55589377 -33.43008136 22.96737501 -32.6953125 28.1484375 C-31.00001816 33.6110526 -27.61523301 36.78601846 -23 40 C-19.24379655 41.87810173 -15.09032575 41.51428072 -11 41 C-6.18373939 39.24714325 -2.99136568 36.60248938 -0.5 32.125 C1.62670518 27.09652375 1.76695362 23.01829901 -0.1875 17.875 C-2.9948219 13.42200664 -6.09345869 10.01981482 -11 8 C-18.96120566 6.87019194 -23.48102925 8.57877843 -29.25 14.1875 Z " fill="#ADABC3" transform="translate(304,168)"/>
<path d="M0 0 C5.76050161 4.11971282 10.95772647 8.59822911 16.0625 13.5 C20.93088482 18.14773478 25.85203464 22.6620526 31 27 C26.85714286 33.42857143 26.85714286 33.42857143 24 36 C20 34 20 34 7 22 C6.67 35.2 6.34 48.4 6 62 C2.37 62 -1.26 62 -5 62 C-5.33 48.8 -5.66 35.6 -6 22 C-8.64 24.64 -11.28 27.28 -14 30 C-16.31280476 32.02370417 -18.63911659 34.03259716 -21 36 C-25.28359673 34.1144852 -27.15103592 31.64034299 -30 28 C-26.79319636 23.89128284 -23.41719319 20.50680947 -19.453125 17.1328125 C-15.74061794 13.90505955 -12.15896228 10.53757357 -8.56835938 7.17529297 C-5.81322905 4.61088962 -3.03206396 2.22634067 0 0 Z " fill="#ADABC3" transform="translate(379,328)"/>
</svg>
