<?xml version="1.0" standalone="no"?>
<!DOCTYPE svg PUBLIC "-//W3C//DTD SVG 20010904//EN"
 "http://www.w3.org/TR/2001/REC-SVG-20010904/DTD/svg10.dtd">
<svg version="1.0" xmlns="http://www.w3.org/2000/svg"
 width="512.000000pt" height="512.000000pt" viewBox="0 0 512.000000 512.000000"
 preserveAspectRatio="xMidYMid meet">

<g transform="translate(0.000000,512.000000) scale(0.100000,-0.100000)"
fill="#000000" stroke="none">
<path d="M3855 4776 c-16 -8 -190 -175 -386 -372 -344 -346 -357 -361 -369
-410 -34 -150 105 -289 254 -253 47 11 64 25 213 172 l162 160 3 -630 3 -630
30 -48 c40 -65 97 -95 179 -95 104 1 182 53 206 138 6 24 10 260 10 652 l0
615 153 -152 c187 -185 224 -207 320 -182 90 22 167 116 167 204 0 84 -23 112
-383 472 -188 189 -356 350 -373 358 -40 19 -148 19 -189 1z"/>
<path d="M816 4144 c-243 -53 -429 -241 -480 -487 -14 -67 -16 -233 -16 -1417
0 -1470 -2 -1421 59 -1555 40 -86 112 -177 184 -230 77 -59 113 -77 207 -106
l75 -24 1400 0 1400 0 82 28 c193 65 335 208 401 402 l27 80 3 607 c2 421 -1
620 -8 649 -14 53 -82 120 -136 137 -158 47 -284 -56 -284 -232 l0 -50 -182
180 c-238 235 -287 268 -455 301 -69 13 -96 14 -161 5 -155 -22 -248 -73 -405
-222 l-98 -93 -292 289 c-313 311 -337 329 -482 373 -88 28 -232 30 -325 6
-137 -35 -189 -72 -392 -273 l-188 -186 0 628 c0 679 -2 653 54 714 54 60 7
57 896 62 809 5 815 5 855 26 45 25 66 46 88 89 59 119 -1 271 -120 304 -25 7
-302 11 -838 10 -667 -1 -812 -3 -869 -15z m742 -1768 c15 -8 389 -377 832
-820 l805 -806 -1148 0 c-1037 0 -1151 2 -1180 16 -45 23 -76 53 -98 96 -18
35 -19 64 -19 455 l0 418 313 312 c171 172 326 319 342 327 38 20 118 20 153
2z m1499 -376 c15 -6 173 -156 351 -333 l322 -322 0 -213 c0 -171 -3 -219 -15
-242 -9 -17 -19 -30 -23 -30 -4 0 -222 215 -485 478 l-477 477 82 82 c46 44
97 88 113 97 35 18 92 20 132 6z"/>
</g>
</svg>
