<svg width="144" height="130" viewBox="0 0 144 130" fill="none" xmlns="http://www.w3.org/2000/svg">
<path d="M32.2552 31.1087L34.9254 34.9147C38.7268 40.3333 43.0568 45.4135 47.8534 50.0829L57.3121 59.2907L68.6297 68.5621L82.7556 79.2226L100.559 90.7458" stroke="white" stroke-width="20" stroke-linecap="round" stroke-linejoin="round"/>
<path d="M108.409 71.4402L121.057 97.5984L91.3174 107.753" stroke="white" stroke-width="20" stroke-linecap="round" stroke-linejoin="round"/>
<path d="M100.494 98.3518C99.7995 97.9545 99.2465 97.4846 98.835 96.9419C98.4302 96.3876 98.1882 95.8037 98.1092 95.1901C98.0367 94.5649 98.1289 93.9341 98.3856 93.2975L99.8785 94.1517C99.7757 94.4923 99.7441 94.8429 99.7836 95.2034C99.8347 95.5706 99.9734 95.9188 100.2 96.2481C100.438 96.5839 100.777 96.8776 101.216 97.1293C101.633 97.3676 102.002 97.5018 102.323 97.5317C102.662 97.5567 102.951 97.5073 103.191 97.3834C103.449 97.2545 103.648 97.0686 103.787 96.8256C103.985 96.4784 104.051 96.1625 103.983 95.878C103.927 95.6002 103.767 95.3165 103.502 95.0269C103.238 94.7373 102.906 94.4171 102.508 94.0663C102.177 93.785 101.86 93.4805 101.556 93.1529C101.263 92.8319 101.022 92.5018 100.832 92.1627C100.649 91.812 100.55 91.4481 100.535 91.071C100.52 90.694 100.626 90.3087 100.851 89.9152C101.135 89.4176 101.514 89.0506 101.988 88.8144C102.467 88.5666 103.001 88.4652 103.59 88.5102C104.191 88.5618 104.815 88.773 105.463 89.1438C106.377 89.6669 106.994 90.3196 107.315 91.1021C107.647 91.8911 107.614 92.7403 107.217 93.6497L105.776 92.8253C105.981 92.359 105.991 91.9117 105.806 91.4833C105.64 91.0499 105.284 90.6776 104.74 90.3664C104.196 90.0551 103.723 89.93 103.319 89.991C102.915 90.0519 102.611 90.2618 102.406 90.6206C102.28 90.8405 102.243 91.0802 102.294 91.3399C102.356 91.6062 102.502 91.8891 102.73 92.1886C102.976 92.4831 103.296 92.7966 103.689 93.1293C104.179 93.5628 104.611 94.0022 104.986 94.4472C105.368 94.8807 105.613 95.3514 105.722 95.8592C105.831 96.3669 105.707 96.9333 105.349 97.5582C105.056 98.0972 104.655 98.4898 104.145 98.7359C103.636 98.982 103.066 99.0785 102.436 99.0252C101.824 98.967 101.177 98.7425 100.494 98.3518Z" fill="#012369"/>
<path d="M90.164 92.1291C89.3758 91.6293 88.7806 90.9992 88.3785 90.2391C87.9765 89.4789 87.8003 88.6488 87.85 87.7488C87.9109 86.8559 88.2235 85.9647 88.7875 85.0752C89.3588 84.1744 90.0408 83.5096 90.8337 83.0809C91.6266 82.6522 92.4525 82.4576 93.3116 82.4971C94.1819 82.5438 95.0112 82.817 95.7994 83.3169C96.5989 83.8239 97.1997 84.4574 97.6017 85.2176C98.0038 85.9778 98.1744 86.8043 98.1134 87.6972C98.0525 88.59 97.7364 89.4869 97.1651 90.3877C96.601 91.2772 95.9226 91.9364 95.1297 92.3651C94.3481 92.8009 93.5221 92.9955 92.6518 92.9488C91.7927 92.9093 90.9634 92.6361 90.164 92.1291ZM90.9351 90.913C91.4306 91.2272 91.9616 91.3981 92.5282 91.4258C93.0947 91.4536 93.6518 91.3095 94.1995 90.9937C94.7655 90.6737 95.2734 90.1591 95.7233 89.4497C96.1731 88.7403 96.4241 88.0706 96.4763 87.4405C96.5285 86.8105 96.4212 86.2452 96.1546 85.7445C95.8879 85.2439 95.5124 84.84 95.0283 84.533C94.5553 84.2331 94.0299 84.0657 93.4521 84.0308C92.8855 84.0031 92.3228 84.1436 91.7639 84.4523C91.205 84.761 90.6971 85.2756 90.2401 85.9963C89.7974 86.6944 89.552 87.3677 89.504 88.0161C89.4631 88.6533 89.5703 89.2186 89.8257 89.7121C90.0924 90.2128 90.4622 90.6131 90.9351 90.913Z" fill="#012369"/>
<path d="M82.0901 86.5062L87.7228 78.2677L89.1097 79.2159L83.477 87.4544L82.0901 86.5062ZM89.6466 76.9422C89.3715 76.7541 89.2005 76.508 89.1338 76.204C89.0857 75.8964 89.1556 75.6051 89.3438 75.3299C89.5319 75.0548 89.7705 74.8948 90.0594 74.8501C90.367 74.802 90.6583 74.8719 90.9335 75.0601C91.1976 75.2407 91.3631 75.483 91.4298 75.787C91.504 76.0801 91.4471 76.3642 91.2589 76.6393C91.0708 76.9145 90.8192 77.0817 90.5042 77.1409C90.1967 77.189 89.9108 77.1228 89.6466 76.9422Z" fill="#012369"/>
<path d="M75.6439 82.2191C74.8808 81.6587 74.3232 80.9763 73.9711 80.1719C73.6297 79.3753 73.5105 78.5351 73.6136 77.6513C73.7353 76.7647 74.104 75.9023 74.7195 75.064C75.343 74.215 76.0555 73.6051 76.8572 73.2343C77.6774 72.8607 78.5187 72.7175 79.381 72.8048C80.254 72.9 81.072 73.2278 81.835 73.7881C82.7915 74.4905 83.4106 75.3256 83.6924 76.2935C83.9742 77.2613 83.8933 78.2275 83.4497 79.1921L82.0633 78.174C82.3268 77.59 82.3476 77.0097 82.1258 76.4333C81.9118 75.8461 81.5254 75.3473 80.9666 74.9369C80.5152 74.6055 80.0078 74.4066 79.4445 74.3403C78.8811 74.274 78.3062 74.3811 77.7196 74.6617C77.141 74.9316 76.607 75.3997 76.1177 76.066C75.7468 76.5711 75.4892 77.0684 75.3448 77.5578C75.219 78.0445 75.1757 78.5089 75.2148 78.9512C75.2726 79.3907 75.41 79.7893 75.6269 80.1471C75.8546 80.5128 76.1351 80.818 76.4682 81.0627C76.8444 81.3389 77.2317 81.5323 77.6301 81.643C78.0365 81.7429 78.434 81.7535 78.8225 81.6749C79.219 81.5856 79.5771 81.402 79.897 81.124L81.2834 82.1421C80.5116 82.8326 79.6179 83.1936 78.6022 83.2252C77.5864 83.2568 76.6003 82.9214 75.6439 82.2191Z" fill="#012369"/>
<path d="M67.1904 75.4509L73.3774 67.62L74.6956 68.6615L68.5086 76.4924L67.1904 75.4509ZM72.9689 66.2013L73.6749 65.1788L78.4823 65.7399L77.668 66.9318L72.9689 66.2013Z" fill="#012369"/>
<path d="M61.9688 71.1687L69.4167 62.2233C69.8262 61.7315 70.2409 61.4001 70.6607 61.2292C71.0892 61.0481 71.5219 61.018 71.959 61.139C72.4149 61.2583 72.8785 61.5142 73.3498 61.9067L74.1644 62.5849L73.243 63.6915L72.6282 63.1797C72.2389 62.8555 71.8982 62.702 71.6063 62.7192C71.3144 62.7364 71.0063 62.9397 70.6821 63.329L63.2599 72.2436L61.9688 71.1687ZM66.2778 63.6178L67.1864 62.5265L71.5515 66.1608L70.6429 67.2521L66.2778 63.6178Z" fill="#012369"/>
<path d="M55.6122 65.955C54.908 65.3223 54.4258 64.6022 54.1654 63.7947C53.914 62.9773 53.8925 62.1335 54.1009 61.2631C54.3192 60.4017 54.7803 59.5792 55.4843 58.7957C56.1883 58.0122 56.9525 57.4709 57.7768 57.1719C58.61 56.863 59.442 56.7949 60.2726 56.9677C61.1221 57.1394 61.9088 57.5506 62.6328 58.2011C63.3569 58.8516 63.8297 59.5722 64.0514 60.3629C64.2819 61.1436 64.295 61.9172 64.0905 62.6834C63.8959 63.4586 63.5179 64.1586 62.9565 64.7834C62.8674 64.8826 62.7738 64.9867 62.6758 65.0958C62.5777 65.2049 62.4614 65.3245 62.3267 65.4544L56.1676 59.9205L57.0365 58.9535L61.9756 63.3913C62.5618 62.6991 62.8109 61.9729 62.7231 61.2128C62.6451 60.4617 62.2888 59.8009 61.654 59.2306C61.2276 58.8474 60.7462 58.5852 60.2099 58.4439C59.6736 58.3026 59.1266 58.313 58.5687 58.475C58.0208 58.6459 57.5018 59.0041 57.0117 59.5496L56.6374 59.9662C56.0849 60.5811 55.7356 61.1993 55.5894 61.8208C55.4522 62.4324 55.4735 63.0072 55.6533 63.5452C55.8421 64.0733 56.1447 64.5245 56.5613 64.8988C57.077 65.3621 57.6059 65.6313 58.1481 65.7061C58.7091 65.78 59.2516 65.6849 59.7757 65.4208L61.0105 66.5303C60.4806 66.8608 59.9064 67.0708 59.2881 67.1606C58.6796 67.2592 58.0587 67.2121 57.4252 67.0194C56.8017 66.8356 56.1974 66.4808 55.6122 65.955Z" fill="#012369"/>
<path d="M43.551 54.1238L50.5653 47.0244L51.6465 48.0928L50.4807 49.415C51.1394 49.2036 51.8086 49.1807 52.4885 49.3464C53.1683 49.512 53.7785 49.8618 54.3192 50.396C54.8788 50.9489 55.25 51.5406 55.433 52.1712C55.6253 52.7923 55.6104 53.443 55.3882 54.1231C55.166 54.8033 54.7129 55.4896 54.0288 56.182L49.8821 60.379L48.687 59.1982L52.7072 55.1293C53.4194 54.4084 53.7923 53.7085 53.8259 53.0295C53.8784 52.3503 53.6154 51.7249 53.0368 51.1533C52.6289 50.7503 52.1654 50.4891 51.6461 50.3697C51.1457 50.2501 50.6132 50.2863 50.0487 50.4783C49.503 50.6702 48.9631 51.0364 48.4289 51.577L44.7461 55.3045L43.551 54.1238Z" fill="#012369"/>
<path d="M37.9945 48.5699C37.3533 47.8734 36.9414 47.1109 36.7586 46.2824C36.5857 45.4449 36.6441 44.6028 36.934 43.7561C37.2328 42.9192 37.7697 42.1441 38.5447 41.4307C39.3197 40.7173 40.1316 40.2508 40.9805 40.0311C41.8393 39.8025 42.6739 39.8134 43.4845 40.064C44.3139 40.3153 45.0582 40.7991 45.7174 41.5152C46.3766 42.2313 46.7791 42.9935 46.925 43.8016C47.0806 44.6006 47.0204 45.3719 46.7443 46.1154C46.4772 46.8687 46.0347 47.5297 45.4166 48.0986C45.3185 48.1889 45.2155 48.2838 45.1076 48.3831C44.9997 48.4824 44.8726 48.5904 44.7262 48.707L39.1185 42.6151L40.0749 41.7346L44.572 46.6199C45.221 45.9863 45.5377 45.287 45.5222 44.522C45.5157 43.7668 45.2235 43.0753 44.6456 42.4475C44.2573 42.0257 43.8029 41.7191 43.2824 41.5277C42.7619 41.3363 42.2163 41.2948 41.6456 41.4033C41.084 41.5216 40.5334 41.8291 39.9939 42.3257L39.5818 42.705C38.9736 43.2649 38.5674 43.8473 38.363 44.4522C38.1685 45.048 38.1353 45.6223 38.2634 46.1749C38.4013 46.7184 38.6599 47.1962 39.0392 47.6082C39.5088 48.1183 40.0099 48.4363 40.5425 48.5622C41.094 48.6888 41.6431 48.6455 42.1898 48.4322L43.3141 49.6535C42.7552 49.9323 42.1638 50.0872 41.5397 50.1179C40.9247 50.1585 40.311 50.0529 39.6986 49.8011C39.0953 49.5591 38.5272 49.1487 37.9945 48.5699Z" fill="#012369"/>
<path d="M29.6149 39.022C29.2565 38.5917 28.9895 38.1461 28.8138 37.6851C28.6466 37.2343 28.5554 36.7811 28.5402 36.3252C28.5335 35.8797 28.6062 35.4461 28.7582 35.0245L27.3803 35.9638L26.4075 34.7959L37.4726 25.5805L38.5478 26.8714L33.8912 30.7495C34.4751 30.6797 35.1024 30.7559 35.7733 30.978C36.4544 31.1916 37.085 31.6467 37.6653 32.3434C38.2882 33.0913 38.6601 33.8921 38.781 34.7457C38.902 35.5993 38.7831 36.4358 38.4244 37.2551C38.0844 38.0762 37.5302 38.8067 36.7618 39.4466C35.9831 40.0951 35.1593 40.5123 34.2903 40.6981C33.4401 40.8856 32.6062 40.8427 31.7885 40.5693C30.9709 40.296 30.2463 39.7802 29.6149 39.022ZM30.6216 37.9494C31.0397 38.4514 31.5287 38.7989 32.0886 38.992C32.6672 39.1868 33.2613 39.2126 33.8708 39.0694C34.4991 38.9278 35.1052 38.6139 35.6892 38.1275C36.263 37.6497 36.6711 37.1189 36.9137 36.5351C37.1751 35.9531 37.2572 35.3641 37.1601 34.7683C37.0817 34.1742 36.8335 33.6261 36.4154 33.1241C35.9887 32.6118 35.4861 32.2583 34.9074 32.0635C34.3475 31.8704 33.7535 31.8446 33.1252 31.9861C32.5157 32.1294 31.9241 32.4399 31.3503 32.9177C30.7663 33.4041 30.3436 33.9383 30.0823 34.5204C29.8397 35.1042 29.7576 35.6931 29.8359 36.2872C29.9331 36.883 30.1949 37.4371 30.6216 37.9494Z" fill="#012369"/>
</svg>
