<svg width="350" height="218" viewBox="0 0 350 218" fill="none" xmlns="http://www.w3.org/2000/svg">
<path d="M275.733 24.0397H251.083V99.6452H275.733V24.0397Z" fill="#DEDEDE"/>
<path d="M275.738 24.0396H263.411V99.6451H275.738V24.0396Z" fill="#D4D4D4"/>
<path d="M262.609 15.0533H253.902V24.0398H262.609V15.0533Z" fill="#DEDEDE"/>
<path d="M262.604 15.0533H260.529V24.0398H262.604V15.0533Z" fill="#D4D4D4"/>
<path d="M276.459 23.5165H249.033V24.0398H276.459V23.5165Z" fill="#D4D4D4"/>
<path d="M258.043 27.9562H255.954V33.1106H258.043V27.9562Z" fill="white"/>
<path d="M263.411 35.1365C263.411 35.1929 260.65 35.238 257.25 35.238C253.85 35.238 251.083 35.1929 251.083 35.1365C251.083 35.0801 253.845 35.0406 257.25 35.0406C260.654 35.0406 263.411 35.0858 263.411 35.1365Z" fill="#D4D4D4"/>
<path d="M270.476 27.9562H268.387V33.1106H270.476V27.9562Z" fill="#E8E8E8"/>
<path d="M275.843 35.1365C275.843 35.1929 273.082 35.238 269.682 35.238C266.282 35.238 263.516 35.1929 263.516 35.1365C263.516 35.0801 266.277 35.0406 269.682 35.0406C273.087 35.0406 275.843 35.0858 275.843 35.1365Z" fill="#DEDEDE"/>
<path d="M270.476 38.1917H268.387V43.3461H270.476V38.1917Z" fill="#E8E8E8"/>
<path d="M275.843 45.3723C275.843 45.4287 273.082 45.4738 269.682 45.4738C266.282 45.4738 263.516 45.4287 263.516 45.3723C263.516 45.316 266.277 45.2765 269.682 45.2765C273.087 45.2765 275.843 45.3216 275.843 45.3723Z" fill="#DEDEDE"/>
<path d="M270.476 48.7369H268.387V53.8913H270.476V48.7369Z" fill="#E8E8E8"/>
<path d="M275.843 55.9173C275.843 55.9736 273.082 56.0188 269.682 56.0188C266.282 56.0188 263.516 55.9736 263.516 55.9173C263.516 55.8609 266.277 55.8214 269.682 55.8214C273.087 55.8214 275.843 55.8609 275.843 55.9173Z" fill="#DEDEDE"/>
<path d="M270.476 59.282H268.387V64.4365H270.476V59.282Z" fill="#E8E8E8"/>
<path d="M275.843 66.485C275.843 66.5414 273.082 66.5865 269.682 66.5865C266.282 66.5865 263.516 66.5414 263.516 66.485C263.516 66.4286 266.277 66.3892 269.682 66.3892C273.087 66.3892 275.843 66.4061 275.843 66.485Z" fill="#DEDEDE"/>
<path d="M270.476 69.5291H268.387V74.6835H270.476V69.5291Z" fill="#E8E8E8"/>
<path d="M275.843 76.7038C275.843 76.7601 273.082 76.8052 269.682 76.8052C266.282 76.8052 263.516 76.7601 263.516 76.7038C263.516 76.6474 266.277 76.6079 269.682 76.6079C273.087 76.6079 275.843 76.653 275.843 76.7038Z" fill="#DEDEDE"/>
<path d="M270.476 79.8097H268.387V84.9641H270.476V79.8097Z" fill="#E8E8E8"/>
<path d="M270.476 90.231H268.387V95.3854H270.476V90.231Z" fill="#E8E8E8"/>
<path d="M275.843 86.99C275.843 87.0464 273.082 87.0915 269.682 87.0915C266.282 87.0915 263.516 87.0464 263.516 86.99C263.516 86.9336 266.277 86.8942 269.682 86.8942C273.087 86.8942 275.843 86.9336 275.843 86.99Z" fill="#DEDEDE"/>
<path d="M258.043 38.3494H255.954V43.5038H258.043V38.3494Z" fill="white"/>
<path d="M263.411 45.5297C263.411 45.5861 260.65 45.6256 257.25 45.6256C253.85 45.6256 251.083 45.5861 251.083 45.5297C251.083 45.4733 253.845 45.4282 257.25 45.4282C260.654 45.4282 263.411 45.4733 263.411 45.5297Z" fill="#D4D4D4"/>
<path d="M258.043 48.7426H255.954V53.897H258.043V48.7426Z" fill="white"/>
<path d="M263.411 55.9229C263.411 55.9736 260.65 56.0188 257.25 56.0188C253.85 56.0188 251.083 55.9736 251.083 55.9229C251.083 55.8722 253.845 55.8214 257.25 55.8214C260.654 55.8214 263.411 55.8665 263.411 55.9229Z" fill="#D4D4D4"/>
<path d="M258.043 59.1358H255.954V64.2902H258.043V59.1358Z" fill="white"/>
<path d="M263.411 66.3163C263.411 66.3671 260.65 66.4122 257.25 66.4122C253.85 66.4122 251.083 66.3671 251.083 66.3163C251.083 66.2656 253.845 66.2148 257.25 66.2148C260.654 66.2148 263.411 66.2599 263.411 66.3163Z" fill="#D4D4D4"/>
<path d="M258.043 69.5291H255.954V74.6835H258.043V69.5291Z" fill="white"/>
<path d="M263.411 76.7038C263.411 76.7601 260.65 76.8052 257.25 76.8052C253.85 76.8052 251.083 76.7601 251.083 76.7038C251.083 76.6474 253.845 76.6079 257.25 76.6079C260.654 76.6079 263.411 76.653 263.411 76.7038Z" fill="#D4D4D4"/>
<path d="M258.043 79.9166H255.954V85.071H258.043V79.9166Z" fill="white"/>
<path d="M263.411 87.097C263.411 87.1534 260.65 87.1985 257.25 87.1985C253.85 87.1985 251.083 87.1534 251.083 87.097C251.083 87.0406 253.845 87.0012 257.25 87.0012C260.654 87.0012 263.411 87.0463 263.411 87.097Z" fill="#D4D4D4"/>
<path d="M258.043 90.3099H255.954V95.4643H258.043V90.3099Z" fill="white"/>
<path d="M216.824 109.599H187.718V174.328H216.824V109.599Z" fill="#D4D4D4"/>
<path d="M216.83 109.599H203.182V174.328H216.83V109.599Z" fill="#DEDEDE"/>
<path d="M196.439 115.688H193.822V123.138H196.439V115.688Z" fill="#E8E8E8"/>
<path d="M196.439 144.847H193.822V152.298H196.439V144.847Z" fill="#E8E8E8"/>
<path d="M203.181 126.065C203.181 126.127 199.719 126.183 195.45 126.183C191.181 126.183 187.718 126.127 187.718 126.065C187.718 126.002 191.181 125.946 195.45 125.946C199.719 125.946 203.181 126.002 203.181 126.065Z" fill="#E8E8E8"/>
<path d="M196.439 130.38H193.822V137.831H196.439V130.38Z" fill="#E8E8E8"/>
<path d="M203.181 140.762C203.181 140.824 199.719 140.875 195.45 140.875C191.181 140.875 187.718 140.824 187.718 140.762C187.718 140.7 191.181 140.644 195.45 140.644C199.719 140.644 203.181 140.689 203.181 140.762Z" fill="#E8E8E8"/>
<path d="M208.695 115.688H206.078V123.138H208.695V115.688Z" fill="#D4D4D4"/>
<path d="M214.371 115.688H211.753V123.138H214.371V115.688Z" fill="#D4D4D4"/>
<path d="M208.695 129.829H206.078V137.279H208.695V129.829Z" fill="#D4D4D4"/>
<path d="M214.371 129.829H211.753V137.279H214.371V129.829Z" fill="#D4D4D4"/>
<path d="M208.695 143.964H206.078V151.414H208.695V143.964Z" fill="#D4D4D4"/>
<path d="M214.371 143.964H211.753V151.414H214.371V143.964Z" fill="#D4D4D4"/>
<path d="M219.014 108.035H185.533V109.656H219.014V108.035Z" fill="#D4D4D4"/>
<path d="M217.031 109.813C217.031 109.881 210.524 109.932 202.5 109.932C194.475 109.932 187.973 109.881 187.973 109.813C187.973 109.746 194.475 109.695 202.5 109.695C210.524 109.695 217.031 109.746 217.031 109.813Z" fill="#DEDEDE"/>
<path d="M326.027 62.9733H301.142V155.393H326.027V62.9733Z" fill="#E8E8E8"/>
<path d="M326.027 62.9733H313.584V155.139H326.027V62.9733Z" fill="#DEDEDE"/>
<path d="M312.773 53.8969H303.985V62.9678H312.773V53.8969Z" fill="#E8E8E8"/>
<path d="M312.773 53.8969H310.679V62.9678H312.773V53.8969Z" fill="#DEDEDE"/>
<path d="M299.067 62.9735V62.4446H326.756V62.9735" fill="#D4D4D4"/>
<path d="M308.163 66.9293H306.055V72.1344H308.163V66.9293Z" fill="#EDEDED"/>
<path d="M313.585 74.1771C313.585 74.2335 310.8 74.273 307.366 74.273C303.932 74.273 301.123 74.2335 301.123 74.1771C301.123 74.1207 303.908 74.0756 307.366 74.0756C310.824 74.0756 313.585 74.1207 313.585 74.1771Z" fill="#D4D4D4"/>
<path d="M320.717 66.9292H318.608V72.1343H320.717V66.9292Z" fill="#D4D4D4"/>
<path d="M326.138 74.1771C326.138 74.2335 323.352 74.273 319.895 74.273C316.437 74.273 313.652 74.2335 313.652 74.1771C313.652 74.1207 316.437 74.0756 319.895 74.0756C323.352 74.0756 326.138 74.1207 326.138 74.1771Z" fill="#D4D4D4"/>
<path d="M320.717 77.2606H318.608V82.4657H320.717V77.2606Z" fill="#D4D4D4"/>
<path d="M326.138 84.4916C326.138 84.548 323.352 84.5931 319.895 84.5931C316.437 84.5931 313.652 84.548 313.652 84.4916C313.652 84.4352 316.437 84.3958 319.895 84.3958C323.352 84.3958 326.138 84.4578 326.138 84.4916Z" fill="#D4D4D4"/>
<path d="M320.717 87.9071H318.608V93.1122H320.717V87.9071Z" fill="#D4D4D4"/>
<path d="M326.138 95.1831C326.138 95.2395 323.352 95.2846 319.895 95.2846C316.437 95.2846 313.652 95.2395 313.652 95.1831C313.652 95.1267 316.437 95.0873 319.895 95.0873C323.352 95.0873 326.138 95.0986 326.138 95.1831Z" fill="#D4D4D4"/>
<path d="M320.717 98.5536H318.608V103.759H320.717V98.5536Z" fill="#D4D4D4"/>
<path d="M326.138 105.801C326.138 105.858 323.352 105.903 319.895 105.903C316.437 105.903 313.652 105.858 313.652 105.801C313.652 105.745 316.437 105.7 319.895 105.7C323.352 105.7 326.138 105.745 326.138 105.801Z" fill="#D4D4D4"/>
<path d="M320.717 108.896H318.608V114.101H320.717V108.896Z" fill="#D4D4D4"/>
<path d="M326.138 116.144C326.138 116.2 323.352 116.24 319.895 116.24C316.437 116.24 313.652 116.2 313.652 116.144C313.652 116.088 316.437 116.042 319.895 116.042C323.352 116.042 326.138 116.088 326.138 116.144Z" fill="#D4D4D4"/>
<path d="M320.717 119.278H318.608V124.483H320.717V119.278Z" fill="#D4D4D4"/>
<path d="M320.717 129.795H318.608V135H320.717V129.795Z" fill="#D4D4D4"/>
<path d="M326.138 126.526C326.138 126.582 323.352 126.627 319.895 126.627C316.437 126.627 313.652 126.582 313.652 126.526C313.652 126.469 316.437 126.424 319.895 126.424C323.352 126.424 326.138 126.469 326.138 126.526Z" fill="#D4D4D4"/>
<path d="M308.163 77.4182H306.055V82.6233H308.163V77.4182Z" fill="#EDEDED"/>
<path d="M313.585 84.666C313.585 84.7224 310.8 84.7675 307.366 84.7675C303.932 84.7675 301.123 84.7224 301.123 84.666C301.123 84.6097 303.908 84.5702 307.366 84.5702C310.824 84.5702 313.585 84.6153 313.585 84.666Z" fill="#D4D4D4"/>
<path d="M308.163 87.9127H306.055V93.1178H308.163V87.9127Z" fill="#EDEDED"/>
<path d="M313.585 95.183C313.585 95.2394 310.8 95.2789 307.366 95.2789C303.932 95.2789 301.123 95.2394 301.123 95.183C301.123 95.1266 303.908 95.0815 307.366 95.0815C310.824 95.0815 313.585 95.1041 313.585 95.183Z" fill="#D4D4D4"/>
<path d="M308.163 98.4017H306.055V103.607H308.163V98.4017Z" fill="#EDEDED"/>
<path d="M313.585 105.649C313.585 105.706 310.8 105.751 307.366 105.751C303.932 105.751 301.123 105.706 301.123 105.649C301.123 105.593 303.908 105.554 307.366 105.554C310.824 105.554 313.585 105.599 313.585 105.649Z" fill="#D4D4D4"/>
<path d="M308.163 108.896H306.055V114.101H308.163V108.896Z" fill="#EDEDED"/>
<path d="M313.585 116.144C313.585 116.2 310.8 116.24 307.366 116.24C303.932 116.24 301.123 116.2 301.123 116.144C301.123 116.088 303.908 116.042 307.366 116.042C310.824 116.042 313.585 116.088 313.585 116.144Z" fill="#D4D4D4"/>
<path d="M308.163 119.385H306.055V124.59H308.163V119.385Z" fill="#EDEDED"/>
<path d="M313.585 126.633C313.585 126.689 310.8 126.734 307.366 126.734C303.932 126.734 301.123 126.689 301.123 126.633C301.123 126.576 303.908 126.537 307.366 126.537C310.824 126.537 313.585 126.576 313.585 126.633Z" fill="#D4D4D4"/>
<path d="M308.163 129.88H306.055V135.085H308.163V129.88Z" fill="#EDEDED"/>
<path d="M342.1 111.839H301.252V174.964H342.1V111.839Z" fill="#DEDEDE"/>
<path d="M342.095 111.839H322.944V174.964H342.095V111.839Z" fill="#D4D4D4"/>
<path d="M313.489 120.387H309.815V130.842H313.489V120.387Z" fill="#E8E8E8"/>
<path d="M313.489 161.301H309.815V171.756H313.489V161.301Z" fill="#E8E8E8"/>
<path d="M322.944 134.944C322.944 135.063 318.089 135.159 312.095 135.159C306.102 135.159 301.252 135.063 301.252 134.944C301.252 134.826 306.107 134.73 312.095 134.73C318.084 134.73 322.944 134.826 322.944 134.944Z" fill="#E8E8E8"/>
<path d="M313.489 140.999H309.815V151.454H313.489V140.999Z" fill="#E8E8E8"/>
<path d="M322.944 155.556C322.944 155.675 318.089 155.771 312.096 155.771C306.103 155.771 301.271 155.675 301.271 155.556C301.271 155.438 306.127 155.348 312.115 155.348C318.103 155.348 322.944 155.444 322.944 155.556Z" fill="#E8E8E8"/>
<path d="M330.685 120.387H327.011V130.842H330.685V120.387Z" fill="#E8E8E8"/>
<path d="M338.652 120.387H334.979V130.842H338.652V120.387Z" fill="#E8E8E8"/>
<path d="M330.685 140.222H327.011V150.677H330.685V140.222Z" fill="#E8E8E8"/>
<path d="M338.652 140.222H334.979V150.677H338.652V140.222Z" fill="#E8E8E8"/>
<path d="M330.685 160.063H327.011V170.518H330.685V160.063Z" fill="#E8E8E8"/>
<path d="M338.652 160.063H334.979V170.518H338.652V160.063Z" fill="#E8E8E8"/>
<path d="M345.164 109.639H298.179V111.918H345.164V109.639Z" fill="#D4D4D4"/>
<path d="M342.384 112.132C342.384 112.251 333.26 112.346 321.994 112.346C310.728 112.346 301.604 112.251 301.604 112.132C301.604 112.014 310.728 111.918 321.994 111.918C333.26 111.918 342.384 112.014 342.384 112.132Z" fill="#DEDEDE"/>
<path d="M299.394 174.626H258.224L258.042 98.3847H299.216L299.394 174.626Z" fill="#DEDEDE"/>
<path d="M299.216 98.3847H278.629V174.632H299.216V98.3847Z" fill="#D4D4D4"/>
<path d="M277.28 83.3716H262.744V98.379H277.28V83.3716Z" fill="#DEDEDE"/>
<path d="M277.285 83.3716H273.817V98.379H277.285V83.3716Z" fill="#D4D4D4"/>
<path d="M300.422 97.5069H254.613V98.3847H300.422V97.5069Z" fill="#D4D4D4"/>
<path d="M269.658 104.929H266.172V113.538H269.658V104.929Z" fill="white"/>
<path d="M278.629 116.921C278.629 117.011 274.019 117.084 268.338 117.084C262.657 117.084 258.042 117.011 258.042 116.921C258.042 116.83 262.652 116.757 268.338 116.757C274.024 116.757 278.629 116.83 278.629 116.921Z" fill="#D4D4D4"/>
<path d="M290.423 104.929H286.937V113.538H290.423V104.929Z" fill="#E8E8E8"/>
<path d="M299.394 116.921C299.394 117.011 294.784 117.084 289.103 117.084C283.422 117.084 278.807 117.011 278.807 116.921C278.807 116.83 283.417 116.757 289.103 116.757C294.788 116.757 299.394 116.83 299.394 116.921Z" fill="#DEDEDE"/>
<path d="M290.423 122.024H286.937V130.633H290.423V122.024Z" fill="#E8E8E8"/>
<path d="M299.394 134.01C299.394 134.1 294.784 134.174 289.103 134.174C283.422 134.174 278.807 134.1 278.807 134.01C278.807 133.92 283.417 133.847 289.103 133.847C294.788 133.847 299.394 133.926 299.394 134.01Z" fill="#DEDEDE"/>
<path d="M290.423 139.637H286.937V148.246H290.423V139.637Z" fill="#E8E8E8"/>
<path d="M299.394 151.629C299.394 151.719 294.784 151.792 289.103 151.792C283.422 151.792 278.807 151.719 278.807 151.629C278.807 151.538 283.417 151.459 289.103 151.459C294.788 151.459 299.394 151.538 299.394 151.629Z" fill="#DEDEDE"/>
<path d="M290.423 157.25H286.937V165.859H290.423V157.25Z" fill="#E8E8E8"/>
<path d="M299.394 169.236C299.394 169.326 294.784 169.405 289.103 169.405C283.422 169.405 278.807 169.326 278.807 169.236C278.807 169.145 283.417 169.072 289.103 169.072C294.788 169.072 299.394 169.145 299.394 169.236Z" fill="#DEDEDE"/>
<path d="M269.658 122.289H266.172V130.898H269.658V122.289Z" fill="white"/>
<path d="M278.629 134.275C278.629 134.365 274.019 134.444 268.338 134.444C262.657 134.444 258.042 134.365 258.042 134.275C258.042 134.184 262.652 134.111 268.338 134.111C274.024 134.111 278.629 134.184 278.629 134.275Z" fill="#D4D4D4"/>
<path d="M269.658 139.642H266.172V148.252H269.658V139.642Z" fill="white"/>
<path d="M278.629 151.634C278.629 151.724 274.019 151.798 268.338 151.798C262.657 151.798 258.042 151.724 258.042 151.634C258.042 151.544 262.652 151.465 268.338 151.465C274.024 151.465 278.629 151.544 278.629 151.634Z" fill="#D4D4D4"/>
<path d="M269.658 156.996H266.172V165.606H269.658V156.996Z" fill="white"/>
<path d="M278.629 168.988C278.629 169.078 274.019 169.151 268.338 169.151C262.657 169.151 258.042 169.078 258.042 168.988C258.042 168.898 262.652 168.824 268.338 168.824C274.024 168.824 278.629 168.898 278.629 168.988Z" fill="#D4D4D4"/>
<path d="M248.61 34.0165H214.793V174.767H248.61V34.0165Z" fill="#DEDEDE"/>
<path d="M220.551 38.8728H217.54V46.3118H220.551V38.8728Z" fill="white"/>
<path d="M226.881 38.8726H223.87V46.3116H226.881V38.8726Z" fill="white"/>
<path d="M233.209 38.8728H230.198V46.3118H233.209V38.8728Z" fill="white"/>
<path d="M239.534 38.8728H236.523V46.3118H239.534V38.8728Z" fill="white"/>
<path d="M245.864 38.8726H242.853V46.3116H245.864V38.8726Z" fill="white"/>
<path d="M220.551 49.2772H217.54V56.7162H220.551V49.2772Z" fill="white"/>
<path d="M226.881 49.2772H223.87V56.7162H226.881V49.2772Z" fill="white"/>
<path d="M233.209 49.2772H230.198V56.7162H233.209V49.2772Z" fill="white"/>
<path d="M239.534 49.2772H236.523V56.7162H239.534V49.2772Z" fill="white"/>
<path d="M245.864 49.2772H242.853V56.7162H245.864V49.2772Z" fill="white"/>
<path d="M220.551 59.6817H217.54V67.1207H220.551V59.6817Z" fill="white"/>
<path d="M226.881 59.6818H223.87V67.1208H226.881V59.6818Z" fill="white"/>
<path d="M233.209 59.6817H230.198V67.1207H233.209V59.6817Z" fill="white"/>
<path d="M239.534 59.6817H236.523V67.1207H239.534V59.6817Z" fill="white"/>
<path d="M245.864 59.6818H242.853V67.1208H245.864V59.6818Z" fill="white"/>
<path d="M220.551 70.0918H217.54V77.5308H220.551V70.0918Z" fill="white"/>
<path d="M226.881 70.0918H223.87V77.5308H226.881V70.0918Z" fill="white"/>
<path d="M233.209 70.0918H230.198V77.5308H233.209V70.0918Z" fill="white"/>
<path d="M239.534 70.0918H236.523V77.5308H239.534V70.0918Z" fill="white"/>
<path d="M245.864 70.0918H242.853V77.5308H245.864V70.0918Z" fill="white"/>
<path d="M220.551 80.4963H217.54V87.9353H220.551V80.4963Z" fill="white"/>
<path d="M226.881 80.4963H223.87V87.9353H226.881V80.4963Z" fill="white"/>
<path d="M233.209 80.4963H230.198V87.9353H233.209V80.4963Z" fill="white"/>
<path d="M239.534 80.4963H236.523V87.9353H239.534V80.4963Z" fill="white"/>
<path d="M245.864 80.4963H242.853V87.9353H245.864V80.4963Z" fill="white"/>
<path d="M220.551 90.9007H217.54V98.3397H220.551V90.9007Z" fill="white"/>
<path d="M226.881 90.9007H223.87V98.3397H226.881V90.9007Z" fill="white"/>
<path d="M233.209 90.9007H230.198V98.3397H233.209V90.9007Z" fill="white"/>
<path d="M239.534 90.9007H236.523V98.3397H239.534V90.9007Z" fill="white"/>
<path d="M245.864 90.9007H242.853V98.3397H245.864V90.9007Z" fill="white"/>
<path d="M220.551 101.311H217.54V108.75H220.551V101.311Z" fill="white"/>
<path d="M226.881 101.311H223.87V108.75H226.881V101.311Z" fill="white"/>
<path d="M233.209 101.311H230.198V108.75H233.209V101.311Z" fill="white"/>
<path d="M239.534 101.311H236.523V108.75H239.534V101.311Z" fill="white"/>
<path d="M245.864 101.311H242.853V108.75H245.864V101.311Z" fill="white"/>
<path d="M220.551 111.715H217.54V119.154H220.551V111.715Z" fill="white"/>
<path d="M226.881 111.715H223.87V119.154H226.881V111.715Z" fill="white"/>
<path d="M233.209 111.715H230.198V119.154H233.209V111.715Z" fill="white"/>
<path d="M239.534 111.715H236.523V119.154H239.534V111.715Z" fill="white"/>
<path d="M245.864 111.715H242.853V119.154H245.864V111.715Z" fill="white"/>
<path d="M220.551 122.12H217.54V129.559H220.551V122.12Z" fill="white"/>
<path d="M226.881 122.12H223.87V129.559H226.881V122.12Z" fill="white"/>
<path d="M233.209 122.12H230.198V129.559H233.209V122.12Z" fill="white"/>
<path d="M239.534 122.12H236.523V129.559H239.534V122.12Z" fill="white"/>
<path d="M245.864 122.12H242.853V129.559H245.864V122.12Z" fill="white"/>
<path d="M220.551 132.524H217.54V139.963H220.551V132.524Z" fill="white"/>
<path d="M226.881 132.524H223.87V139.963H226.881V132.524Z" fill="white"/>
<path d="M233.209 132.524H230.198V139.963H233.209V132.524Z" fill="white"/>
<path d="M239.534 132.524H236.523V139.963H239.534V132.524Z" fill="white"/>
<path d="M245.864 132.524H242.853V139.963H245.864V132.524Z" fill="white"/>
<path d="M220.551 142.934H217.54V150.373H220.551V142.934Z" fill="white"/>
<path d="M226.881 142.934H223.87V150.373H226.881V142.934Z" fill="white"/>
<path d="M233.209 142.934H230.198V150.373H233.209V142.934Z" fill="white"/>
<path d="M239.534 142.934H236.523V150.373H239.534V142.934Z" fill="white"/>
<path d="M245.864 142.934H242.853V150.373H245.864V142.934Z" fill="white"/>
<path d="M220.551 153.339H217.54V160.778H220.551V153.339Z" fill="white"/>
<path d="M226.881 153.339H223.87V160.778H226.881V153.339Z" fill="white"/>
<path d="M233.209 153.339H230.198V160.778H233.209V153.339Z" fill="white"/>
<path d="M239.534 153.339H236.523V160.778H239.534V153.339Z" fill="white"/>
<path d="M245.864 153.339H242.853V160.778H245.864V153.339Z" fill="white"/>
<path d="M220.551 163.169H217.54V170.608H220.551V163.169Z" fill="white"/>
<path d="M226.881 163.169H223.87V170.608H226.881V163.169Z" fill="white"/>
<path d="M233.209 163.169H230.198V170.608H233.209V163.169Z" fill="white"/>
<path d="M239.534 163.169H236.523V170.608H239.534V163.169Z" fill="white"/>
<path d="M245.864 163.169H242.853V170.608H245.864V163.169Z" fill="white"/>
<path d="M263.382 34.0165H248.61V174.767H263.382V34.0165Z" fill="#D4D4D4"/>
<path d="M233.209 38.8728H230.198V46.3118H233.209V38.8728Z" fill="white"/>
<path d="M239.534 38.8728H236.523V46.3118H239.534V38.8728Z" fill="white"/>
<path d="M245.864 38.8726H242.853V46.3116H245.864V38.8726Z" fill="white"/>
<path d="M233.209 49.2772H230.198V56.7162H233.209V49.2772Z" fill="white"/>
<path d="M239.534 49.2772H236.523V56.7162H239.534V49.2772Z" fill="white"/>
<path d="M245.864 49.2772H242.853V56.7162H245.864V49.2772Z" fill="white"/>
<path d="M233.209 59.6817H230.198V67.1207H233.209V59.6817Z" fill="white"/>
<path d="M239.534 59.6817H236.523V67.1207H239.534V59.6817Z" fill="white"/>
<path d="M245.864 59.6818H242.853V67.1208H245.864V59.6818Z" fill="white"/>
<path d="M233.209 70.0918H230.198V77.5308H233.209V70.0918Z" fill="white"/>
<path d="M239.534 70.0918H236.523V77.5308H239.534V70.0918Z" fill="white"/>
<path d="M245.864 70.0918H242.853V77.5308H245.864V70.0918Z" fill="white"/>
<path d="M233.209 80.4963H230.198V87.9353H233.209V80.4963Z" fill="white"/>
<path d="M239.534 80.4963H236.523V87.9353H239.534V80.4963Z" fill="white"/>
<path d="M245.864 80.4963H242.853V87.9353H245.864V80.4963Z" fill="white"/>
<path d="M233.209 90.9007H230.198V98.3397H233.209V90.9007Z" fill="white"/>
<path d="M239.534 90.9007H236.523V98.3397H239.534V90.9007Z" fill="white"/>
<path d="M245.864 90.9007H242.853V98.3397H245.864V90.9007Z" fill="white"/>
<path d="M233.209 101.311H230.198V108.75H233.209V101.311Z" fill="white"/>
<path d="M239.534 101.311H236.523V108.75H239.534V101.311Z" fill="white"/>
<path d="M245.864 101.311H242.853V108.75H245.864V101.311Z" fill="white"/>
<path d="M233.209 111.715H230.198V119.154H233.209V111.715Z" fill="white"/>
<path d="M239.534 111.715H236.523V119.154H239.534V111.715Z" fill="white"/>
<path d="M245.864 111.715H242.853V119.154H245.864V111.715Z" fill="white"/>
<path d="M233.209 122.12H230.198V129.559H233.209V122.12Z" fill="white"/>
<path d="M239.534 122.12H236.523V129.559H239.534V122.12Z" fill="white"/>
<path d="M245.864 122.12H242.853V129.559H245.864V122.12Z" fill="white"/>
<path d="M233.209 132.524H230.198V139.963H233.209V132.524Z" fill="white"/>
<path d="M239.534 132.524H236.523V139.963H239.534V132.524Z" fill="white"/>
<path d="M245.864 132.524H242.853V139.963H245.864V132.524Z" fill="white"/>
<path d="M233.209 142.934H230.198V150.373H233.209V142.934Z" fill="white"/>
<path d="M239.534 142.934H236.523V150.373H239.534V142.934Z" fill="white"/>
<path d="M245.864 142.934H242.853V150.373H245.864V142.934Z" fill="white"/>
<path d="M233.209 153.339H230.198V160.778H233.209V153.339Z" fill="white"/>
<path d="M239.534 153.339H236.523V160.778H239.534V153.339Z" fill="white"/>
<path d="M245.864 153.339H242.853V160.778H245.864V153.339Z" fill="white"/>
<path d="M233.209 163.169H230.198V170.608H233.209V163.169Z" fill="white"/>
<path d="M239.534 163.169H236.523V170.608H239.534V163.169Z" fill="white"/>
<path d="M245.864 163.169H242.853V170.608H245.864V163.169Z" fill="white"/>
<path d="M254.964 38.8726H251.953V46.3116H254.964V38.8726Z" fill="#DEDEDE"/>
<path d="M261.293 38.8728H258.282V46.3118H261.293V38.8728Z" fill="#DEDEDE"/>
<path d="M254.964 49.2772H251.953V56.7162H254.964V49.2772Z" fill="#DEDEDE"/>
<path d="M261.293 49.2772H258.282V56.7162H261.293V49.2772Z" fill="#DEDEDE"/>
<path d="M254.964 59.6818H251.953V67.1208H254.964V59.6818Z" fill="#DEDEDE"/>
<path d="M261.293 59.6817H258.282V67.1207H261.293V59.6817Z" fill="#DEDEDE"/>
<path d="M254.964 70.0918H251.953V77.5308H254.964V70.0918Z" fill="#DEDEDE"/>
<path d="M261.293 70.0918H258.282V77.5308H261.293V70.0918Z" fill="#DEDEDE"/>
<path d="M254.964 80.4963H251.953V87.9353H254.964V80.4963Z" fill="#DEDEDE"/>
<path d="M261.293 80.4963H258.282V87.9353H261.293V80.4963Z" fill="#DEDEDE"/>
<path d="M254.964 90.9007H251.953V98.3397H254.964V90.9007Z" fill="#DEDEDE"/>
<path d="M261.293 90.9007H258.282V98.3397H261.293V90.9007Z" fill="#DEDEDE"/>
<path d="M254.964 101.311H251.953V108.75H254.964V101.311Z" fill="#DEDEDE"/>
<path d="M261.293 101.311H258.282V108.75H261.293V101.311Z" fill="#DEDEDE"/>
<path d="M254.964 111.715H251.953V119.154H254.964V111.715Z" fill="#DEDEDE"/>
<path d="M261.293 111.715H258.282V119.154H261.293V111.715Z" fill="#DEDEDE"/>
<path d="M254.964 122.12H251.953V129.559H254.964V122.12Z" fill="#DEDEDE"/>
<path d="M261.293 122.12H258.282V129.559H261.293V122.12Z" fill="#DEDEDE"/>
<path d="M254.964 132.524H251.953V139.963H254.964V132.524Z" fill="#DEDEDE"/>
<path d="M261.293 132.524H258.282V139.963H261.293V132.524Z" fill="#DEDEDE"/>
<path d="M254.964 142.934H251.953V150.373H254.964V142.934Z" fill="#DEDEDE"/>
<path d="M261.293 142.934H258.282V150.373H261.293V142.934Z" fill="#DEDEDE"/>
<path d="M254.964 153.339H251.953V160.778H254.964V153.339Z" fill="#DEDEDE"/>
<path d="M261.293 153.339H258.282V160.778H261.293V153.339Z" fill="#DEDEDE"/>
<path d="M254.964 163.169H251.953V170.608H254.964V163.169Z" fill="#DEDEDE"/>
<path d="M261.293 163.169H258.282V170.608H261.293V163.169Z" fill="#DEDEDE"/>
<path d="M291.446 67.2444C291.58 67.2444 291.691 70.5756 291.691 74.689C291.691 78.8024 291.58 82.1393 291.446 82.1393C291.312 82.1393 291.196 78.8024 291.196 74.689C291.196 70.5756 291.307 67.2444 291.446 67.2444Z" fill="#D4D4D4"/>
<path d="M304.086 83.2985L268.636 95.0872V174.964H304.086V83.2985Z" fill="#D4D4D4"/>
<path d="M273.952 93.2753V79.1063H295.778V86.0164L273.952 93.2753Z" fill="#D4D4D4"/>
<path d="M271.34 95.8806L271.618 169.331H300.456V86.1908L271.34 95.8806Z" fill="white"/>
<path d="M279.134 171.008C278.999 171.008 278.889 153.378 278.889 131.618C278.889 109.858 278.999 92.2287 279.134 92.2287C279.268 92.2287 279.383 109.853 279.383 131.618C279.383 153.384 279.273 171.008 279.134 171.008Z" fill="#D4D4D4"/>
<path d="M291.254 171.008C291.12 171.008 291.004 152.399 291.004 129.446C291.004 106.493 291.12 87.8901 291.254 87.8901C291.389 87.8901 291.504 106.493 291.504 129.446C291.504 152.399 291.393 171.008 291.254 171.008Z" fill="#D4D4D4"/>
<path d="M302.443 107.095C302.443 107.253 295.24 107.382 286.409 107.382C277.577 107.382 270.369 107.253 270.369 107.095C270.369 106.938 277.572 106.803 286.409 106.803C295.245 106.803 302.443 106.932 302.443 107.095Z" fill="#D4D4D4"/>
<path d="M302.146 129.57C302.146 129.733 294.942 129.863 286.106 129.863C277.27 129.863 270.057 129.733 270.057 129.57C270.057 129.407 277.26 129.283 286.092 129.283C294.923 129.283 302.146 129.412 302.146 129.57Z" fill="#D4D4D4"/>
<path d="M303.942 152.225C303.942 152.388 296.493 152.517 287.307 152.517C278.12 152.517 270.672 152.388 270.672 152.225C270.672 152.062 278.12 151.938 287.307 151.938C296.493 151.938 303.942 152.067 303.942 152.225Z" fill="#D4D4D4"/>
<path d="M303.952 83.2985C303.99 83.4504 296.143 86.1965 286.428 89.4264C276.714 92.6563 268.809 95.1491 268.771 94.9972C268.732 94.8453 276.579 92.0993 286.294 88.8693C296.009 85.6394 303.913 83.1409 303.952 83.2985Z" fill="#D4D4D4"/>
<path d="M280.757 123.881C280.661 123.768 282.404 121.54 284.652 118.907C286.899 116.273 288.796 114.231 288.892 114.349C288.988 114.467 287.25 116.684 285.002 119.317C282.755 121.951 280.853 123.994 280.757 123.881Z" fill="#D4D4D4"/>
<path d="M286.173 114.838C286.269 114.956 285.64 115.834 284.771 116.802C283.902 117.77 283.124 118.49 283.028 118.35C282.932 118.209 283.561 117.354 284.43 116.38C285.299 115.407 286.082 114.726 286.173 114.838Z" fill="#D4D4D4"/>
<path d="M288.176 140.267C288.272 140.38 286.784 142.343 284.848 144.651C282.913 146.958 281.266 148.736 281.17 148.623C281.074 148.511 282.563 146.552 284.498 144.245C286.433 141.938 288.075 140.16 288.176 140.267Z" fill="#D4D4D4"/>
<path d="M285.453 141.263C285.554 141.37 285.06 142.208 284.349 143.131C283.638 144.054 282.98 144.712 282.879 144.606C282.779 144.499 283.268 143.66 283.979 142.737C284.69 141.815 285.352 141.156 285.453 141.263Z" fill="#D4D4D4"/>
<path d="M297.699 95.8975C297.8 95.9988 297.06 97.2143 296.047 98.6098C295.034 100.005 294.126 101.046 294.016 100.945C293.905 100.844 294.65 99.6283 295.668 98.2328C296.686 96.8372 297.593 95.7906 297.699 95.8975Z" fill="#D4D4D4"/>
<path d="M296.872 94.4176C296.973 94.5301 296.445 95.4023 295.695 96.3702C294.946 97.3381 294.255 98.0583 294.154 97.9289C294.053 97.7995 294.581 96.9498 295.33 95.9819C296.08 95.0141 296.771 94.3107 296.872 94.4176Z" fill="#D4D4D4"/>
<path d="M276.474 160.187C276.584 160.277 276.133 161.251 275.46 162.359C274.788 163.468 274.159 164.295 274.02 164.199C273.88 164.104 274.361 163.136 275.033 162.021C275.705 160.907 276.363 160.091 276.474 160.187Z" fill="#D4D4D4"/>
<path d="M275.618 158.848C275.714 158.955 275.315 159.647 274.724 160.384C274.134 161.121 273.572 161.633 273.476 161.509C273.38 161.386 273.774 160.716 274.364 159.973C274.955 159.23 275.517 158.735 275.618 158.848Z" fill="#D4D4D4"/>
<path d="M145.857 75.5782H124.094V156.4H145.857V75.5782Z" fill="#E8E8E8"/>
<path d="M145.857 75.5782H134.975V156.181H145.857V75.5782Z" fill="#DEDEDE"/>
<path d="M134.26 67.6383H126.576V75.5725H134.26V67.6383Z" fill="#E8E8E8"/>
<path d="M134.26 67.6383H132.43V75.5725H134.26V67.6383Z" fill="#DEDEDE"/>
<path d="M122.278 75.579V75.111H146.496V75.579" fill="#D4D4D4"/>
<path d="M130.236 79.0387H128.392V83.591H130.236V79.0387Z" fill="#EDEDED"/>
<path d="M134.976 85.3746C134.976 85.4194 132.541 85.4586 129.535 85.4586C126.528 85.4586 124.094 85.4194 124.094 85.3746C124.094 85.3297 126.528 85.2849 129.535 85.2849C132.541 85.2849 134.976 85.3241 134.976 85.3746Z" fill="#D4D4D4"/>
<path d="M141.208 79.0387H139.364V83.591H141.208V79.0387Z" fill="#D4D4D4"/>
<path d="M145.954 85.3746C145.954 85.4194 143.514 85.4586 140.513 85.4586C137.511 85.4586 135.072 85.4194 135.072 85.3746C135.072 85.3297 137.506 85.2849 140.513 85.2849C143.519 85.2849 145.954 85.3241 145.954 85.3746Z" fill="#D4D4D4"/>
<path d="M141.208 88.0759H139.364V92.6282H141.208V88.0759Z" fill="#D4D4D4"/>
<path d="M145.954 94.4117C145.954 94.4566 143.514 94.4958 140.513 94.4958C137.511 94.4958 135.072 94.4566 135.072 94.4117C135.072 94.3669 137.506 94.322 140.513 94.322C143.519 94.322 145.954 94.3613 145.954 94.4117Z" fill="#D4D4D4"/>
<path d="M141.208 97.3831H139.364V101.935H141.208V97.3831Z" fill="#D4D4D4"/>
<path d="M145.954 103.719C145.954 103.77 143.514 103.81 140.513 103.81C137.511 103.81 135.072 103.77 135.072 103.719C135.072 103.669 137.516 103.624 140.513 103.624C143.509 103.624 145.954 103.674 145.954 103.719Z" fill="#D4D4D4"/>
<path d="M141.208 106.69H139.364V111.243H141.208V106.69Z" fill="#D4D4D4"/>
<path d="M145.954 113.032C145.954 113.076 143.514 113.116 140.513 113.116C137.511 113.116 135.072 113.076 135.072 113.032C135.072 112.987 137.506 112.942 140.513 112.942C143.519 112.942 145.954 112.981 145.954 113.032Z" fill="#D4D4D4"/>
<path d="M141.208 115.733H139.364V120.285H141.208V115.733Z" fill="#D4D4D4"/>
<path d="M145.954 122.074C145.954 122.119 143.514 122.159 140.513 122.159C137.511 122.159 135.072 122.119 135.072 122.074C135.072 122.03 137.506 121.985 140.513 121.985C143.519 121.985 145.954 122.024 145.954 122.074Z" fill="#D4D4D4"/>
<path d="M141.208 124.815H139.364V129.367H141.208V124.815Z" fill="#D4D4D4"/>
<path d="M141.208 134.015H139.364V138.568H141.208V134.015Z" fill="#D4D4D4"/>
<path d="M145.954 131.151C145.954 131.201 143.514 131.241 140.513 131.241C137.511 131.241 135.072 131.201 135.072 131.151C135.072 131.1 137.506 131.067 140.513 131.067C143.519 131.067 145.954 131.106 145.954 131.151Z" fill="#D4D4D4"/>
<path d="M130.236 88.2109H128.392V92.7632H130.236V88.2109Z" fill="#EDEDED"/>
<path d="M134.976 94.5468C134.976 94.5973 132.541 94.6365 129.535 94.6365C126.528 94.6365 124.094 94.5973 124.094 94.5468C124.094 94.4963 126.528 94.4627 129.535 94.4627C132.541 94.4627 134.976 94.5019 134.976 94.5468Z" fill="#D4D4D4"/>
<path d="M130.236 97.3831H128.392V101.935H130.236V97.3831Z" fill="#EDEDED"/>
<path d="M134.976 103.724C134.976 103.769 132.541 103.809 129.535 103.809C126.528 103.809 124.094 103.769 124.094 103.724C124.094 103.68 126.528 103.635 129.535 103.635C132.541 103.635 134.976 103.674 134.976 103.724Z" fill="#D4D4D4"/>
<path d="M130.236 106.561H128.392V111.113H130.236V106.561Z" fill="#EDEDED"/>
<path d="M134.976 112.897C134.976 112.947 132.541 112.986 129.535 112.986C126.528 112.986 124.094 112.947 124.094 112.897C124.094 112.846 126.528 112.813 129.535 112.813C132.541 112.813 134.976 112.852 134.976 112.897Z" fill="#D4D4D4"/>
<path d="M130.236 115.733H128.392V120.285H130.236V115.733Z" fill="#EDEDED"/>
<path d="M134.976 122.074C134.976 122.119 132.541 122.159 129.535 122.159C126.528 122.159 124.094 122.119 124.094 122.074C124.094 122.03 126.528 121.985 129.535 121.985C132.541 121.985 134.976 122.024 134.976 122.074Z" fill="#D4D4D4"/>
<path d="M130.236 124.911H128.392V129.463H130.236V124.911Z" fill="#EDEDED"/>
<path d="M134.976 131.247C134.976 131.297 132.541 131.336 129.535 131.336C126.528 131.336 124.094 131.297 124.094 131.247C124.094 131.196 126.528 131.162 129.535 131.162C132.541 131.162 134.976 131.196 134.976 131.247Z" fill="#D4D4D4"/>
<path d="M130.236 134.083H128.392V138.635H130.236V134.083Z" fill="#EDEDED"/>
<path d="M158.603 111.496H117.755V174.62H158.603V111.496Z" fill="#DEDEDE"/>
<path d="M158.598 111.496H139.446V174.62H158.598V111.496Z" fill="#D4D4D4"/>
<path d="M129.991 120.043H126.317V130.498H129.991V120.043Z" fill="#E8E8E8"/>
<path d="M129.991 160.964H126.317V171.419H129.991V160.964Z" fill="#E8E8E8"/>
<path d="M139.437 134.601C139.437 134.719 134.582 134.815 128.593 134.815C122.605 134.815 117.745 134.719 117.745 134.601C117.745 134.483 122.6 134.392 128.593 134.392C134.587 134.392 139.437 134.488 139.437 134.601Z" fill="#E8E8E8"/>
<path d="M129.991 140.661H126.317V151.116H129.991V140.661Z" fill="#E8E8E8"/>
<path d="M139.437 155.219C139.437 155.337 134.582 155.433 128.593 155.433C122.605 155.433 117.745 155.337 117.745 155.219C117.745 155.1 122.6 155.004 128.593 155.004C134.587 155.004 139.437 155.1 139.437 155.219Z" fill="#E8E8E8"/>
<path d="M147.188 120.043H143.514V130.499H147.188V120.043Z" fill="#E8E8E8"/>
<path d="M155.154 120.043H151.48V130.498H155.154V120.043Z" fill="#E8E8E8"/>
<path d="M147.188 139.884H143.514V150.34H147.188V139.884Z" fill="#E8E8E8"/>
<path d="M155.154 139.885H151.48V150.34H155.154V139.885Z" fill="#E8E8E8"/>
<path d="M147.188 159.726H143.514V170.181H147.188V159.726Z" fill="#E8E8E8"/>
<path d="M155.154 159.726H151.48V170.181H155.154V159.726Z" fill="#E8E8E8"/>
<path d="M161.671 109.301H114.687V111.58H161.671V109.301Z" fill="#D4D4D4"/>
<path d="M158.885 111.794C158.885 111.907 149.761 112.003 138.495 112.003C127.229 112.003 118.105 111.907 118.105 111.794C118.105 111.682 127.229 111.58 138.495 111.58C149.761 111.58 158.885 111.676 158.885 111.794Z" fill="#DEDEDE"/>
<path d="M43.0374 47.5609H13.7295V156.4H43.0374V47.5609Z" fill="#E8E8E8"/>
<path d="M43.0368 47.5609H28.3853V156.096H43.0368V47.5609Z" fill="#DEDEDE"/>
<path d="M27.4259 36.8751H17.0771V47.561H27.4259V36.8751Z" fill="#E8E8E8"/>
<path d="M27.4303 36.8751H24.9619V47.561H27.4303V36.8751Z" fill="#DEDEDE"/>
<path d="M11.2896 47.5609V46.9363H43.8966V47.5609" fill="#D4D4D4"/>
<path d="M21.9989 52.22H19.5161V58.3479H21.9989V52.22Z" fill="#EDEDED"/>
<path d="M28.3859 60.7566C28.3859 60.8186 25.1059 60.875 21.0577 60.875C17.0094 60.875 13.7295 60.8186 13.7295 60.7566C13.7295 60.6946 17.0094 60.6382 21.0577 60.6382C25.1059 60.6382 28.3859 60.6889 28.3859 60.7566Z" fill="#D4D4D4"/>
<path d="M36.7801 52.22H34.2974V58.3479H36.7801V52.22Z" fill="#D4D4D4"/>
<path d="M43.1665 60.7566C43.1665 60.8186 39.8866 60.875 35.8384 60.875C31.7901 60.875 28.5054 60.8186 28.5054 60.7566C28.5054 60.6946 31.7853 60.6382 35.8336 60.6382C39.8818 60.6382 43.1665 60.6889 43.1665 60.7566Z" fill="#D4D4D4"/>
<path d="M36.7801 64.3915H34.2974V70.5194H36.7801V64.3915Z" fill="#D4D4D4"/>
<path d="M43.1665 72.928C43.1665 72.99 39.8866 73.0407 35.8384 73.0407C31.7901 73.0407 28.5054 72.99 28.5054 72.928C28.5054 72.8659 31.7853 72.8096 35.8336 72.8096C39.8818 72.8096 43.1665 72.8603 43.1665 72.928Z" fill="#D4D4D4"/>
<path d="M36.7801 76.9286H34.2974V83.0565H36.7801V76.9286Z" fill="#D4D4D4"/>
<path d="M43.1665 85.4596C43.1665 85.5272 39.8866 85.578 35.8384 85.578C31.7901 85.578 28.5054 85.5272 28.5054 85.4596C28.5054 85.3919 31.7853 85.3468 35.8336 85.3468C39.8818 85.3468 43.1665 85.3975 43.1665 85.4596Z" fill="#D4D4D4"/>
<path d="M36.7801 89.4658H34.2974V95.5937H36.7801V89.4658Z" fill="#D4D4D4"/>
<path d="M43.1665 97.9967C43.1665 98.0643 39.8866 98.1151 35.8384 98.1151C31.7901 98.1151 28.5054 98.0643 28.5054 97.9967C28.5054 97.929 31.7853 97.8839 35.8336 97.8839C39.8818 97.8839 43.1665 97.9347 43.1665 97.9967Z" fill="#D4D4D4"/>
<path d="M36.7801 101.643H34.2974V107.771H36.7801V101.643Z" fill="#D4D4D4"/>
<path d="M43.1665 110.179C43.1665 110.241 39.8866 110.292 35.8384 110.292C31.7901 110.292 28.5054 110.241 28.5054 110.179C28.5054 110.117 31.7853 110.061 35.8336 110.061C39.8818 110.061 43.1665 110.112 43.1665 110.179Z" fill="#D4D4D4"/>
<path d="M36.7801 113.87H34.2974V119.998H36.7801V113.87Z" fill="#D4D4D4"/>
<path d="M36.7801 126.256H34.2974V132.384H36.7801V126.256Z" fill="#D4D4D4"/>
<path d="M43.1665 122.401C43.1665 122.469 39.8866 122.52 35.8384 122.52C31.7901 122.52 28.5054 122.469 28.5054 122.401C28.5054 122.334 31.7853 122.289 35.8336 122.289C39.8818 122.289 43.1665 122.339 43.1665 122.401Z" fill="#D4D4D4"/>
<path d="M21.9989 64.5773H19.5161V70.7052H21.9989V64.5773Z" fill="#EDEDED"/>
<path d="M28.3859 73.1136C28.3859 73.1757 25.1059 73.2264 21.0577 73.2264C17.0094 73.2264 13.7295 73.1757 13.7295 73.1136C13.7295 73.0516 17.0094 72.9952 21.0577 72.9952C25.1059 72.9952 28.3859 73.046 28.3859 73.1136Z" fill="#D4D4D4"/>
<path d="M21.9989 76.9286H19.5161V83.0565H21.9989V76.9286Z" fill="#EDEDED"/>
<path d="M28.3859 85.4652C28.3859 85.5329 25.1059 85.5836 21.0577 85.5836C17.0094 85.5836 13.7295 85.5329 13.7295 85.4652C13.7295 85.3975 17.0094 85.3468 21.0577 85.3468C25.1059 85.3468 28.3859 85.4032 28.3859 85.4652Z" fill="#D4D4D4"/>
<path d="M21.9989 89.2857H19.5161V95.4136H21.9989V89.2857Z" fill="#EDEDED"/>
<path d="M28.3859 97.8223C28.3859 97.8844 25.1059 97.9407 21.0577 97.9407C17.0094 97.9407 13.7295 97.8844 13.7295 97.8223C13.7295 97.7603 17.0094 97.7039 21.0577 97.7039C25.1059 97.7039 28.3859 97.7547 28.3859 97.8223Z" fill="#D4D4D4"/>
<path d="M21.9989 101.643H19.5161V107.771H21.9989V101.643Z" fill="#EDEDED"/>
<path d="M28.3859 110.179C28.3859 110.241 25.1059 110.292 21.0577 110.292C17.0094 110.292 13.7295 110.241 13.7295 110.179C13.7295 110.117 17.0094 110.061 21.0577 110.061C25.1059 110.061 28.3859 110.112 28.3859 110.179Z" fill="#D4D4D4"/>
<path d="M21.9989 113.994H19.5161V120.122H21.9989V113.994Z" fill="#EDEDED"/>
<path d="M28.3859 122.531C28.3859 122.598 25.1059 122.649 21.0577 122.649C17.0094 122.649 13.7295 122.598 13.7295 122.531C13.7295 122.463 17.0094 122.412 21.0577 122.412C25.1059 122.412 28.3859 122.469 28.3859 122.531Z" fill="#D4D4D4"/>
<path d="M21.9989 126.351H19.5161V132.479H21.9989V126.351Z" fill="#EDEDED"/>
<path d="M46.7451 111.496H5.89746V174.62H46.7451V111.496Z" fill="#DEDEDE"/>
<path d="M46.7445 111.496H27.5933V174.62H46.7445V111.496Z" fill="#D4D4D4"/>
<path d="M18.1376 120.043H14.4639V130.499H18.1376V120.043Z" fill="#E8E8E8"/>
<path d="M18.1376 160.964H14.4639V171.419H18.1376V160.964Z" fill="#E8E8E8"/>
<path d="M27.5939 134.601C27.5939 134.719 22.734 134.815 16.7457 134.815C10.7573 134.815 5.89746 134.719 5.89746 134.601C5.89746 134.483 10.7525 134.392 16.7457 134.392C22.7388 134.392 27.5939 134.488 27.5939 134.601Z" fill="#E8E8E8"/>
<path d="M18.1376 140.661H14.4639V151.116H18.1376V140.661Z" fill="#E8E8E8"/>
<path d="M27.5939 155.219C27.5939 155.337 22.734 155.433 16.7457 155.433C10.7573 155.433 5.89746 155.337 5.89746 155.219C5.89746 155.1 10.7525 155.004 16.7457 155.004C22.7388 155.004 27.5939 155.1 27.5939 155.219Z" fill="#E8E8E8"/>
<path d="M35.3343 120.043H31.6606V130.499H35.3343V120.043Z" fill="#E8E8E8"/>
<path d="M43.3016 120.043H39.6279V130.499H43.3016V120.043Z" fill="#E8E8E8"/>
<path d="M35.3343 139.884H31.6606V150.34H35.3343V139.884Z" fill="#E8E8E8"/>
<path d="M43.3016 139.884H39.6279V150.34H43.3016V139.884Z" fill="#E8E8E8"/>
<path d="M35.3343 159.726H31.6606V170.181H35.3343V159.726Z" fill="#E8E8E8"/>
<path d="M43.3016 159.726H39.6279V170.181H43.3016V159.726Z" fill="#E8E8E8"/>
<path d="M49.813 109.301H2.82812V111.58H49.813V109.301Z" fill="#D4D4D4"/>
<path d="M47.0276 111.794C47.0276 111.907 37.9034 112.003 26.6422 112.003C15.381 112.003 6.25195 111.907 6.25195 111.794C6.25195 111.682 15.3762 111.58 26.6422 111.58C37.9082 111.58 47.0276 111.676 47.0276 111.794Z" fill="#DEDEDE"/>
<path d="M117.654 174.626H76.4848L76.3071 98.3847H117.477L117.654 174.626Z" fill="#DEDEDE"/>
<path d="M117.477 98.3847H96.8896V174.632H117.477V98.3847Z" fill="#D4D4D4"/>
<path d="M95.5446 83.3716H81.0083V98.379H95.5446V83.3716Z" fill="#DEDEDE"/>
<path d="M95.5492 83.3716H92.082V98.379H95.5492V83.3716Z" fill="#D4D4D4"/>
<path d="M118.682 97.5069H72.874V98.3847H118.682V97.5069Z" fill="#D4D4D4"/>
<path d="M87.9185 104.929H84.4321V113.538H87.9185V104.929Z" fill="white"/>
<path d="M96.8894 116.921C96.8894 117.011 92.2841 117.084 86.5983 117.084C80.9125 117.084 76.3071 117.011 76.3071 116.921C76.3071 116.83 80.9125 116.757 86.5983 116.757C92.2841 116.757 96.8894 116.83 96.8894 116.921Z" fill="#D4D4D4"/>
<path d="M108.683 104.929H105.197V113.538H108.683V104.929Z" fill="#E8E8E8"/>
<path d="M117.654 116.921C117.654 117.011 113.049 117.084 107.363 117.084C101.677 117.084 97.0718 117.011 97.0718 116.921C97.0718 116.83 101.677 116.757 107.363 116.757C113.049 116.757 117.654 116.83 117.654 116.921Z" fill="#DEDEDE"/>
<path d="M108.683 122.024H105.197V130.633H108.683V122.024Z" fill="#E8E8E8"/>
<path d="M117.654 134.01C117.654 134.1 113.049 134.174 107.363 134.174C101.677 134.174 97.0718 134.1 97.0718 134.01C97.0718 133.92 101.677 133.847 107.363 133.847C113.049 133.847 117.654 133.926 117.654 134.01Z" fill="#DEDEDE"/>
<path d="M108.683 139.637H105.197V148.246H108.683V139.637Z" fill="#E8E8E8"/>
<path d="M117.654 151.629C117.654 151.719 113.049 151.792 107.363 151.792C101.677 151.792 97.0718 151.719 97.0718 151.629C97.0718 151.538 101.677 151.459 107.363 151.459C113.049 151.459 117.654 151.538 117.654 151.629Z" fill="#DEDEDE"/>
<path d="M108.683 157.25H105.197V165.859H108.683V157.25Z" fill="#E8E8E8"/>
<path d="M117.654 169.236C117.654 169.326 113.049 169.405 107.363 169.405C101.677 169.405 97.0718 169.326 97.0718 169.236C97.0718 169.145 101.677 169.072 107.363 169.072C113.049 169.072 117.654 169.145 117.654 169.236Z" fill="#DEDEDE"/>
<path d="M87.9185 122.289H84.4321V130.898H87.9185V122.289Z" fill="white"/>
<path d="M96.8894 134.275C96.8894 134.365 92.2841 134.444 86.5983 134.444C80.9125 134.444 76.3071 134.365 76.3071 134.275C76.3071 134.184 80.9125 134.111 86.5983 134.111C92.2841 134.111 96.8894 134.184 96.8894 134.275Z" fill="#D4D4D4"/>
<path d="M87.9185 139.642H84.4321V148.252H87.9185V139.642Z" fill="white"/>
<path d="M96.8894 151.634C96.8894 151.724 92.2841 151.798 86.5983 151.798C80.9125 151.798 76.3071 151.724 76.3071 151.634C76.3071 151.544 80.9125 151.465 86.5983 151.465C92.2841 151.465 96.8894 151.544 96.8894 151.634Z" fill="#D4D4D4"/>
<path d="M87.9185 156.996H84.4321V165.606H87.9185V156.996Z" fill="white"/>
<path d="M96.8894 168.988C96.8894 169.078 92.2841 169.151 86.5983 169.151C80.9125 169.151 76.3071 169.078 76.3071 168.988C76.3071 168.898 80.9125 168.824 86.5983 168.824C92.2841 168.824 96.8894 168.898 96.8894 168.988Z" fill="#D4D4D4"/>
<path d="M106.211 20.832C106.345 20.832 106.456 24.1633 106.456 28.2767C106.456 32.3901 106.345 35.7269 106.211 35.7269C106.076 35.7269 105.961 32.3901 105.961 28.2767C105.961 24.1633 106.071 20.832 106.211 20.832Z" fill="#D4D4D4"/>
<path d="M118.85 36.8807L83.4004 48.6695V128.552H118.85V36.8807Z" fill="#D4D4D4"/>
<path d="M88.7158 46.8576V32.6942H110.542V39.5986L88.7158 46.8576Z" fill="#D4D4D4"/>
<path d="M86.103 49.4684L86.3864 122.919H115.219V39.7786L86.103 49.4684Z" fill="white"/>
<path d="M93.9016 124.59C93.7623 124.59 93.6519 106.966 93.6519 85.2286C93.6519 63.4912 93.7623 45.839 93.9016 45.839C94.0408 45.839 94.1465 63.4574 94.1465 85.2286C94.1465 107 94.036 124.59 93.9016 124.59Z" fill="#D4D4D4"/>
<path d="M106.018 124.59C105.883 124.59 105.773 105.987 105.773 83.0339C105.773 60.0811 105.883 41.4723 106.018 41.4723C106.152 41.4723 106.268 60.0811 106.268 83.0339C106.268 105.987 106.157 124.59 106.018 124.59Z" fill="#D4D4D4"/>
<path d="M117.208 60.6831C117.208 60.8407 110.005 60.9701 101.173 60.9701C92.342 60.9701 85.1387 60.8407 85.1387 60.6831C85.1387 60.5256 92.318 60.3905 101.173 60.3905C110.029 60.3905 117.208 60.5199 117.208 60.6831Z" fill="#D4D4D4"/>
<path d="M116.91 83.1578C116.91 83.321 109.707 83.4504 100.876 83.4504C92.0446 83.4504 84.8364 83.321 84.8364 83.1578C84.8364 82.9947 92.0157 82.8708 100.876 82.8708C109.736 82.8708 116.91 83.0003 116.91 83.1578Z" fill="#D4D4D4"/>
<path d="M118.706 105.812C118.706 105.976 111.258 106.105 102.071 106.105C92.8848 106.105 85.4365 105.976 85.4365 105.812C85.4365 105.649 92.8848 105.52 102.071 105.52C111.258 105.52 118.706 105.655 118.706 105.812Z" fill="#D4D4D4"/>
<path d="M118.715 36.8806C118.753 37.0382 110.906 39.7842 101.196 43.0142C91.4863 46.2441 83.5722 48.7369 83.5338 48.585C83.4954 48.433 91.3422 45.687 101.057 42.4514C110.772 39.2159 118.676 36.7287 118.715 36.8806Z" fill="#D4D4D4"/>
<path d="M95.5204 77.4687C95.4243 77.3562 97.1675 75.1279 99.415 72.4944C101.662 69.8609 103.564 67.8183 103.66 67.9308C103.756 68.0434 102.013 70.2717 99.7655 72.9052C97.5181 75.5386 95.6164 77.5813 95.5204 77.4687Z" fill="#D4D4D4"/>
<path d="M100.937 68.4262C101.033 68.5443 100.404 69.4222 99.5351 70.39C98.6659 71.3579 97.888 72.05 97.7919 71.9318C97.6959 71.8137 98.325 70.9358 99.1942 69.968C100.063 69.0001 100.846 68.308 100.937 68.4262Z" fill="#D4D4D4"/>
<path d="M102.939 93.8549C103.036 93.9674 101.547 95.9313 99.6115 98.2384C97.6763 100.545 96.0339 102.324 95.933 102.211C95.8322 102.099 97.3257 100.14 99.261 97.8276C101.196 95.5149 102.839 93.7423 102.939 93.8549Z" fill="#D4D4D4"/>
<path d="M100.217 94.8509C100.318 94.9578 99.8231 95.7963 99.1124 96.7135C98.4017 97.6307 97.7438 98.3003 97.6429 98.1934C97.5421 98.0865 98.0367 97.2481 98.7474 96.3252C99.4582 95.4024 100.116 94.744 100.217 94.8509Z" fill="#D4D4D4"/>
<path d="M112.463 49.4798C112.568 49.5867 111.829 50.8022 110.811 52.1977C109.793 53.5932 108.89 54.6342 108.779 54.5329C108.669 54.4317 109.418 53.2106 110.431 51.8151C111.445 50.4195 112.357 49.3785 112.463 49.4798Z" fill="#D4D4D4"/>
<path d="M111.637 48.0055C111.738 48.1124 111.214 48.9902 110.465 49.9581C109.716 50.9259 109.024 51.6462 108.924 51.5168C108.823 51.3874 109.346 50.5377 110.095 49.5642C110.844 48.5907 111.536 47.9154 111.637 48.0055Z" fill="#D4D4D4"/>
<path d="M91.2372 113.752C91.3476 113.848 90.8962 114.821 90.2287 115.93C89.5612 117.039 88.9225 117.86 88.812 117.77C88.7016 117.68 89.153 116.701 89.8205 115.592C90.488 114.484 91.1267 113.679 91.2372 113.752Z" fill="#D4D4D4"/>
<path d="M90.3825 112.43C90.4833 112.542 90.0848 113.229 89.4893 113.972C88.8938 114.714 88.3415 115.221 88.2407 115.097C88.1399 114.973 88.5384 114.298 89.1291 113.561C89.7198 112.824 90.2816 112.323 90.3825 112.43Z" fill="#D4D4D4"/>
<path d="M196.914 70.2099C196.61 69.1026 196.177 68.0498 195.627 67.0813C195.354 66.5998 195.001 66.1881 194.588 65.8709C194.175 65.5537 193.712 65.3376 193.226 65.2356C192.733 65.1497 192.23 65.2584 191.795 65.5447C191.36 65.8309 191.019 66.2784 190.825 66.8168C190.686 64.3409 190.383 61.803 189.327 59.6535C188.27 57.504 186.297 55.8158 184.184 55.9678C182.196 56.1084 180.486 57.8416 179.54 59.9067C178.594 61.9719 178.267 64.324 177.955 66.6592C177.201 65.5732 175.607 65.9164 174.819 66.9687C174.032 68.021 173.83 69.4896 173.662 70.8795H197.419L196.914 70.2099Z" fill="#E8E8E8"/>
<path d="M243.616 10.7036C243.388 9.88968 243.065 9.11695 242.655 8.40774C242.453 8.05283 242.191 7.7497 241.885 7.51663C241.58 7.28356 241.238 7.12537 240.879 7.05162C240.518 6.99125 240.15 7.07213 239.832 7.28171C239.514 7.49129 239.264 7.81786 239.121 8.21079C239.02 6.39325 238.799 4.53068 238.021 2.94947C237.243 1.36826 235.798 0.135929 234.247 0.248471C232.806 0.349759 231.534 1.62148 230.837 3.13516C230.141 4.64885 229.901 6.38199 229.67 8.07574C229.118 7.2767 227.946 7.51303 227.37 8.30083C226.794 9.08862 226.645 10.1578 226.52 11.1763H243.981L243.616 10.7036Z" fill="#E8E8E8"/>
<path d="M312.479 33.0993C312.155 31.9275 311.696 30.8126 311.116 29.7849C310.823 29.2736 310.445 28.8369 310.004 28.5014C309.563 28.1658 309.069 27.9382 308.551 27.8323C308.029 27.7487 307.498 27.8686 307.04 28.1737C306.581 28.4788 306.222 28.952 306.016 29.5205C305.867 26.8982 305.535 24.2085 304.431 21.9352C303.326 19.6618 301.218 17.8668 298.98 18.03C296.872 18.1819 295.062 20.0163 294.058 22.1996C293.054 24.3829 292.709 26.8814 292.382 29.3291C291.58 28.2037 289.895 28.5357 289.059 29.6555C288.223 30.7753 288.012 32.3284 287.834 33.7971H313.003L312.479 33.0993Z" fill="#E8E8E8"/>
<path d="M332.966 46.2891C332.805 45.7126 332.578 45.1638 332.293 44.6573C332.149 44.4038 331.962 44.1873 331.744 44.0209C331.526 43.8545 331.282 43.7417 331.026 43.6894C330.769 43.6467 330.507 43.7047 330.281 43.8543C330.056 44.0039 329.878 44.2367 329.777 44.5166C329.763 43.2156 329.496 41.9356 328.994 40.7746C328.738 40.1974 328.352 39.7129 327.878 39.373C327.404 39.033 326.861 38.8503 326.305 38.8445C325.791 38.9303 325.303 39.1631 324.885 39.5223C324.466 39.8815 324.129 40.3561 323.904 40.904C323.46 42.0133 323.18 43.2022 323.073 44.4209C322.679 43.8582 321.849 44.0327 321.436 44.5785C321.069 45.1785 320.859 45.8899 320.831 46.6267H333.249L332.966 46.2891Z" fill="#E8E8E8"/>
<path d="M329.672 12.96C329.427 12.0891 329.081 11.2617 328.644 10.5009C328.425 10.1182 328.142 9.79195 327.812 9.54228C327.481 9.29261 327.111 9.12478 326.723 9.04914C326.337 8.98372 325.943 9.06961 325.602 9.29347C325.262 9.51732 324.994 9.86661 324.841 10.2871C324.73 8.34012 324.495 6.34814 323.664 4.66001C322.833 2.97188 321.263 1.63827 319.616 1.75644C318.046 1.86898 316.706 3.23636 315.961 4.85696C315.217 6.47756 314.958 8.3345 314.713 10.152C314.117 9.29673 312.864 9.58933 312.244 10.394C311.625 11.1987 311.466 12.3804 311.332 13.472H330.085L329.672 12.96Z" fill="#DEDEDE"/>
<path d="M159.842 17.5289C159.615 16.715 159.291 15.9423 158.882 15.2331C158.678 14.8791 158.416 14.5766 158.111 14.3436C157.805 14.1107 157.463 13.952 157.105 13.877C156.744 13.8166 156.376 13.8975 156.058 14.1071C155.74 14.3166 155.49 14.6432 155.347 15.0361C155.246 13.2186 155.025 11.356 154.247 9.78045C153.469 8.20487 152.024 6.96691 150.473 7.07382C149.008 7.17511 147.76 8.45246 147.063 9.96052C146.44 11.5184 146.047 13.189 145.901 14.9011C145.344 14.1077 144.172 14.3384 143.596 15.1318C143.02 15.9252 142.871 16.9831 142.746 18.0016H160.193L159.842 17.5289Z" fill="#E8E8E8"/>
<path d="M72.4318 51.2916C72.2044 50.4777 71.8811 49.705 71.4714 48.9958C71.2687 48.6408 71.0068 48.3377 70.7014 48.1046C70.396 47.8716 70.0535 47.7134 69.6946 47.6396C69.3336 47.5793 68.9657 47.6601 68.6479 47.8697C68.3301 48.0793 68.0802 48.4059 67.937 48.7988C67.8361 46.9813 67.6152 45.1187 66.8373 43.5375C66.0593 41.9563 64.6138 40.7239 63.0627 40.8365C61.598 40.9378 60.3495 42.2095 59.6531 43.7232C58.9568 45.2369 58.7167 46.97 58.4862 48.6638C57.9339 47.8647 56.7622 48.1011 56.1859 48.8888C55.6097 49.6766 55.4608 50.7458 55.3359 51.7643H72.7824L72.4318 51.2916Z" fill="#DEDEDE"/>
<path d="M47.1719 14.558C46.8597 13.4203 46.417 12.3375 45.8561 11.3393C45.5727 10.8516 45.2086 10.4354 44.7854 10.1155C44.3623 9.79558 43.8887 9.57838 43.3926 9.47676C42.8902 9.39224 42.378 9.5048 41.9359 9.79691C41.4938 10.089 41.1466 10.5443 40.9483 11.0917C40.8042 8.55954 40.4969 5.96546 39.4164 3.77652C38.3359 1.58759 36.3189 -0.162439 34.1627 0.0120009C32.1266 0.158305 30.3834 1.93084 29.4133 4.02974C28.4433 6.12864 28.1119 8.53141 27.795 10.906C27.0218 9.78062 25.3939 10.1464 24.5871 11.2212C23.7803 12.2959 23.5786 13.804 23.4058 15.222H47.6858L47.1719 14.558Z" fill="#E8E8E8"/>
<path d="M155.457 42.8511C155.135 41.6915 154.681 40.5881 154.108 39.5705C153.818 39.0628 153.444 38.6295 153.007 38.2967C152.571 37.9639 152.081 37.7387 151.567 37.6347C151.052 37.5464 150.525 37.6608 150.071 37.9601C149.616 38.2595 149.26 38.7268 149.056 39.2891C148.907 36.695 148.576 34.0334 147.486 31.777C146.395 29.5205 144.306 27.7536 142.093 27.9111C140.004 28.0631 138.212 29.8806 137.218 32.0414C136.224 34.2022 135.883 36.6725 135.557 39.0978C134.769 37.9724 133.093 38.3156 132.267 39.4185C131.441 40.5214 131.23 42.0689 131.057 43.5263H155.976L155.457 42.8511Z" fill="#DEDEDE"/>
<path d="M350 175.175C350 175.242 271.642 175.3 175.007 175.3C78.3722 175.3 0 175.242 0 175.175C0 175.108 78.3386 175.069 175.007 175.069C271.676 175.069 350 175.108 350 175.175Z" fill="#263238"/>
<path d="M350 179.224C350 179.297 271.642 179.349 175.007 179.349C78.3722 179.349 0 179.297 0 179.224C0 179.152 78.3386 179.1 175.007 179.1C271.676 179.1 350 179.157 350 179.224Z" fill="#263238"/>
<path d="M340.045 205.742H337.84C337.101 205.742 336.505 205.962 336.505 206.221V209.949C336.505 210.275 337.206 210.534 338.076 210.534H339.353V210.755C338.959 211.397 337.667 212.791 333.907 212.844C331.612 212.873 328.75 212.882 326.968 212.882V191.594C327.083 191.594 326.968 186.14 326.968 183.763L321.686 181.424H280.055C280.132 181.491 280.199 181.563 280.271 181.635H278.067C275.152 178.999 268.136 177.159 260.011 177.202C252.087 177.245 245.35 179.066 242.507 181.635H239.529C239.596 181.561 239.667 181.491 239.741 181.424H129.29C129.366 181.491 129.434 181.563 129.506 181.635H126.908C123.993 178.999 116.977 177.159 108.851 177.202C100.928 177.245 94.1902 179.066 91.3473 181.635H88.7637C88.8305 181.561 88.901 181.491 88.975 181.424H60.6803L31.0122 183.298L31.0746 184.482H31.0122L31.3003 188.987C31.3436 190.53 31.3964 192.068 31.5597 193.573L40.7607 213.525C40.8135 214.536 43.0274 215.346 45.7406 215.351L61.1077 216.213L62.7933 216.764C63.9199 217.105 65.0932 217.267 66.2701 217.244H88.053C89.3257 217.268 90.5926 217.065 91.7939 216.645L92.8744 216.223L139.269 216.295V216.338H165.657L205.256 216.405L206.384 217.119C207.244 217.665 208.786 217.996 210.495 217.996H290.082C291.312 218.033 292.535 217.806 293.669 217.33L295.437 216.453H321.181C323.919 216.453 326.944 215.317 326.944 214.301V214.018H332.875C337.197 214.018 341.039 212.715 341.144 211.104H341.351V206.216C341.375 205.972 340.779 205.742 340.045 205.742Z" fill="#E8E8E8"/>
<path d="M35.3296 195.543C35.3296 195.543 58.1593 204.409 62.5966 204.026C67.0338 203.642 86.1995 202.981 86.1995 202.981L104.861 209.964C104.861 209.964 119.748 210.002 123.532 205.957C127.316 201.912 128.084 201.62 128.084 201.62H244.389L263.627 209.288C263.627 209.288 279.268 205.641 282.946 202.77H321.662V198.227C321.662 198.227 98.3203 186.758 97.4511 186.092C96.5819 185.426 35.3296 195.543 35.3296 195.543Z" fill="#D4D4D4"/>
<path d="M125.731 165.038H75.4712V197.623H125.731V165.038Z" fill="#EF6B01"/>
<path opacity="0.3" d="M125.731 165.038H75.4712V197.623H125.731V165.038Z" fill="black"/>
<path d="M283.028 165.038H232.768V197.623H283.028V165.038Z" fill="#EF6B01"/>
<path opacity="0.3" d="M283.028 165.038H232.768V197.623H283.028V165.038Z" fill="black"/>
<path d="M333.826 107.417H325.921V110.59C325.921 110.59 331.132 110.556 334.878 110.695C339.953 110.882 340.698 117.405 340.698 117.405H342.427V115.675C342.427 111.131 338.393 107.417 333.826 107.417Z" fill="#EF6B01"/>
<path d="M340.534 115.584V117.117H339.209C338.777 117.117 338.363 117.289 338.058 117.593C337.753 117.898 337.581 118.311 337.581 118.742V129.123C337.581 129.489 337.727 129.84 337.986 130.099C338.246 130.358 338.597 130.503 338.964 130.503H341.255C341.622 130.503 341.973 130.358 342.233 130.099C342.492 129.84 342.638 129.489 342.638 129.123V115.521L340.534 115.584Z" fill="#EF6B01"/>
<path d="M340.54 122.878C340.413 121.822 340.372 120.758 340.415 119.696C340.372 118.632 340.414 117.566 340.54 116.509C340.663 117.566 340.705 118.632 340.665 119.696C340.705 120.758 340.663 121.822 340.54 122.878Z" fill="#263238"/>
<path d="M294.914 100.588L293.109 98.1531C292.673 97.5765 292.109 97.1089 291.462 96.787C290.814 96.4651 290.101 96.2978 289.377 96.2984H206.707C205.845 96.2985 204.997 96.5231 204.249 96.9501C203.5 97.377 202.876 97.9916 202.438 98.733L201.266 100.727L27.1762 101.489C25.8192 101.494 24.518 102.028 23.5513 102.979C22.5846 103.929 22.0293 105.22 22.0042 106.574L20.2754 192.993L51.0768 198.208H80.4232C79.0245 194.782 78.4913 191.065 78.8707 187.385C79.2501 183.705 80.5304 180.174 82.5988 177.104C84.6672 174.034 87.4602 171.519 90.732 169.779C94.0038 168.04 97.6539 167.131 101.361 167.131C105.068 167.131 108.718 168.04 111.99 169.779C115.261 171.519 118.054 174.034 120.123 177.104C122.191 180.174 123.472 183.705 123.851 187.385C124.23 191.065 123.697 194.782 122.299 198.208H237.072C235.672 194.781 235.137 191.063 235.516 187.381C235.895 183.7 237.175 180.168 239.244 177.097C241.313 174.025 244.107 171.509 247.379 169.769C250.652 168.029 254.303 167.119 258.012 167.119C261.72 167.119 265.371 168.029 268.644 169.769C271.917 171.509 274.71 174.025 276.779 177.097C278.848 180.168 280.128 183.7 280.507 187.381C280.886 191.063 280.352 194.781 278.952 198.208H322.172L327.685 191.69V106.641C327.685 103.808 324.515 100.645 321.677 100.645L294.914 100.588Z" fill="#EF6B01"/>
<path d="M28.0254 112.866V152.544C28.0267 154.549 28.8255 156.472 30.2463 157.89C31.6672 159.308 33.5939 160.105 35.6033 160.107H130.423V113.925L28.0254 112.866Z" fill="#263238"/>
<path d="M31.5073 115.977V138.296L37.0203 141.876H78.0936V116.01L31.5073 115.977Z" fill="#455A64"/>
<path d="M81.8105 145.71V115.996H127.869V156.689L119.902 148.71C118.931 147.742 117.779 146.974 116.511 146.451C115.243 145.928 113.883 145.66 112.511 145.662L81.8105 145.71Z" fill="#455A64"/>
<path opacity="0.2" d="M86.1997 145.705L119.277 116.005L127.883 115.977L95.4056 145.691L86.1997 145.705Z" fill="white"/>
<path d="M282.947 112.866H188.415V160.083H282.947V112.866Z" fill="#263238"/>
<path d="M233.594 115.085H190.667V157.332H233.594V115.085Z" fill="#455A64"/>
<path d="M280.214 115.085H237.287V157.332H280.214V115.085Z" fill="#455A64"/>
<path d="M225.396 198.193C225.396 198.193 225.396 198.04 225.396 197.752C225.396 197.465 225.396 197.029 225.396 196.477C225.396 195.356 225.396 193.726 225.368 191.656C225.368 187.501 225.339 181.592 225.315 174.432L225.42 174.532L196.002 174.556L196.127 174.432C196.127 183.02 196.127 191.129 196.127 198.193L196.012 198.083L217.252 198.14L223.274 198.169H224.873H225.396H225.262H224.863H223.283L217.285 198.198L195.973 198.255H195.863V198.14C195.863 191.076 195.863 182.967 195.863 174.379V174.254H195.992H225.411H225.512V174.36C225.512 181.549 225.473 187.482 225.459 191.647C225.459 193.712 225.459 195.332 225.459 196.439C225.459 196.985 225.459 197.398 225.459 197.695C225.459 197.992 225.396 198.193 225.396 198.193Z" fill="#263238"/>
<path d="M76.5277 198.208C76.5277 198.208 76.5277 198.15 76.5277 198.04C76.5277 197.93 76.5277 197.757 76.5277 197.561C76.5277 197.12 76.5277 196.487 76.5277 195.644C76.5277 193.981 76.5037 191.584 76.4893 188.579C76.4893 182.546 76.4893 174.096 76.4461 164.377L76.5662 164.497H65.6267L33.9609 164.458L24.3565 164.42L21.744 164.396H21.0669H20.8364C20.8364 164.396 20.9133 164.396 21.0669 164.396H21.744L24.3565 164.372L33.9609 164.329L65.6267 164.295H76.643V164.415C76.643 174.135 76.6094 182.584 76.595 188.618C76.595 191.623 76.595 194.019 76.5614 195.682C76.5614 196.501 76.5614 197.12 76.5614 197.599C76.5614 197.805 76.5614 197.968 76.5614 198.078C76.554 198.122 76.5427 198.166 76.5277 198.208Z" fill="#263238"/>
<path d="M52.3392 165.038C52.4112 165.038 52.4689 172.457 52.4689 181.611C52.4689 190.765 52.4112 198.184 52.3392 198.184C52.2672 198.184 52.2144 190.765 52.2144 181.611C52.2144 172.457 52.272 165.038 52.3392 165.038Z" fill="#263238"/>
<path d="M28.9862 164.645C29.0534 164.645 29.111 171.297 29.111 179.502C29.111 187.707 29.0534 194.359 28.9862 194.359C28.919 194.359 28.8613 187.707 28.8613 179.502C28.8613 171.297 28.8949 164.645 28.9862 164.645Z" fill="#263238"/>
<path d="M73.1951 190.937C73.1909 190.904 73.1909 190.87 73.1951 190.837V190.535C73.1951 190.26 73.1951 189.876 73.1951 189.384C73.1951 188.373 73.1951 186.911 73.1663 185.071C73.1663 181.357 73.1326 176.085 73.1134 169.797L73.2239 169.907H54.8122C54.7834 169.936 55.0475 169.673 54.937 169.788V175.539C54.937 177.413 54.937 179.243 54.937 181.021C54.937 184.573 54.937 187.913 54.937 190.952L54.8314 190.846L68.1624 190.904L71.9033 190.932H72.8925H73.2431H72.9165H71.9561L68.2392 190.961L54.841 191.014H54.7354V190.904C54.7354 187.865 54.7354 184.525 54.7354 180.974C54.7354 179.195 54.7354 177.365 54.7354 175.491V169.797L54.8602 169.668H73.2719H73.3824V169.797C73.3824 176.114 73.3391 181.41 73.3247 185.133C73.3247 186.974 73.3247 188.431 73.2959 189.447C73.2959 189.926 73.2959 190.305 73.2959 190.573C73.2959 190.693 73.2959 190.789 73.2959 190.861C73.2959 190.932 73.1951 190.942 73.1951 190.937Z" fill="#263238"/>
<path d="M57.0262 169.797C57.0935 169.797 57.1511 174.532 57.1511 180.374C57.1511 186.217 57.0935 190.952 57.0262 190.952C56.959 190.952 56.9014 186.217 56.9014 180.374C56.9014 174.532 56.959 169.797 57.0262 169.797Z" fill="#263238"/>
<path d="M59.8109 169.797C59.8781 169.797 59.9358 174.532 59.9358 180.374C59.9358 186.217 59.8781 190.952 59.8109 190.952C59.7437 190.952 59.686 186.217 59.686 180.374C59.686 174.532 59.7437 169.797 59.8109 169.797Z" fill="#263238"/>
<path d="M62.6009 169.797C62.6682 169.797 62.7258 174.532 62.7258 180.374C62.7258 186.217 62.6682 190.952 62.6009 190.952C62.5337 190.952 62.4761 186.217 62.4761 180.374C62.4761 174.532 62.5241 169.797 62.6009 169.797Z" fill="#263238"/>
<path d="M65.3822 169.797C65.4494 169.797 65.507 174.532 65.507 180.374C65.507 186.217 65.4494 190.952 65.3822 190.952C65.3149 190.952 65.2573 186.217 65.2573 180.374C65.2573 174.532 65.3101 169.797 65.3822 169.797Z" fill="#263238"/>
<path d="M68.1673 169.797C68.2345 169.797 68.2921 174.532 68.2921 180.374C68.2921 186.217 68.2345 190.952 68.1673 190.952C68.1 190.952 68.0376 186.217 68.0376 180.374C68.0376 174.532 68.0952 169.797 68.1673 169.797Z" fill="#263238"/>
<path d="M70.9476 169.797C71.0196 169.797 71.0725 174.532 71.0725 180.374C71.0725 186.217 71.0196 190.952 70.9476 190.952C70.8756 190.952 70.8228 186.217 70.8228 180.374C70.8228 174.532 70.8804 169.797 70.9476 169.797Z" fill="#263238"/>
<path d="M184.343 118.536H134.063V198.208H184.343V118.536Z" fill="#263238"/>
<path d="M155.985 123.995H136.868V186.317H155.985V123.995Z" fill="#455A64"/>
<path d="M181.159 123.995H162.041V186.317H181.159V123.995Z" fill="#455A64"/>
<path d="M159.126 118.517C159.194 118.517 159.251 136.249 159.251 158.055C159.251 179.862 159.194 197.599 159.126 197.599C159.059 197.599 159.001 179.9 159.001 158.055C159.001 136.211 159.049 118.517 159.126 118.517Z" fill="#455A64"/>
<path opacity="0.3" d="M60.3444 115.977L32.3091 138.832L37.0201 141.876L67.4229 115.977H60.3444Z" fill="white"/>
<path opacity="0.3" d="M42.4712 141.876L72.8116 116.005H74.5452L44.3056 141.876H42.4712Z" fill="white"/>
<path opacity="0.3" d="M190.667 144.071L222.918 115.119L231.519 115.085L190.566 152.553L190.667 144.071Z" fill="white"/>
<path opacity="0.3" d="M136.868 162.33V170.727L155.985 153.234V145.163L136.868 162.33Z" fill="white"/>
<path opacity="0.3" d="M162.041 172.323V180.719L181.159 163.227V155.156L162.041 172.323Z" fill="white"/>
<path opacity="0.2" d="M170.234 123.995L162.041 131.351V139.748L179.257 123.995H170.234Z" fill="white"/>
<path opacity="0.3" d="M136.863 173.933L136.829 176.679L155.985 159.364V156.944L136.863 173.933Z" fill="white"/>
<path d="M317.892 118.536H287.845V198.208H317.892V118.536Z" fill="#263238"/>
<path d="M314.608 123.995H290.654V186.317H314.608V123.995Z" fill="#455A64"/>
<path opacity="0.2" d="M314.607 123.995H305.33V173.852H314.607V123.995Z" fill="black"/>
<path opacity="0.3" d="M290.664 162.33V170.727L314.607 153.234V145.163L290.664 162.33Z" fill="white"/>
<path opacity="0.3" d="M290.654 173.933L290.616 176.679L314.608 159.364V156.944L290.654 173.933Z" fill="white"/>
<path opacity="0.2" d="M238.031 144.344L270.624 115.085H279.676L237.935 152.827L238.031 144.344Z" fill="white"/>
<path opacity="0.3" d="M237.287 157.557L278.48 119.384H280.214L239.121 157.557H237.287Z" fill="white"/>
<path d="M128.253 118.962H31.5073V119.806H128.253V118.962Z" fill="#263238"/>
<path d="M282.202 118.962H189.836V119.806H282.202V118.962Z" fill="#263238"/>
<path d="M283.062 170.727H280.92C280.217 170.727 279.647 171.296 279.647 171.997V172.083C279.647 172.785 280.217 173.353 280.92 173.353H283.062C283.765 173.353 284.334 172.785 284.334 172.083V171.997C284.334 171.296 283.765 170.727 283.062 170.727Z" fill="#FF9A6C"/>
<path d="M231.323 186.312H229.181C228.478 186.312 227.909 186.881 227.909 187.582V187.669C227.909 188.37 228.478 188.939 229.181 188.939H231.323C232.026 188.939 232.596 188.37 232.596 187.669V187.582C232.596 186.881 232.026 186.312 231.323 186.312Z" fill="white"/>
<path d="M191.118 186.312H188.977C188.274 186.312 187.704 186.881 187.704 187.582V187.669C187.704 188.37 188.274 188.939 188.977 188.939H191.118C191.821 188.939 192.391 188.37 192.391 187.669V187.582C192.391 186.881 191.821 186.312 191.118 186.312Z" fill="#FF9A6C"/>
<path d="M129.146 186.092H127.004C126.301 186.092 125.731 186.661 125.731 187.362V187.448C125.731 188.15 126.301 188.718 127.004 188.718H129.146C129.849 188.718 130.418 188.15 130.418 187.448V187.362C130.418 186.661 129.849 186.092 129.146 186.092Z" fill="#FF9A6C"/>
<path d="M34.0618 188.718H31.92C31.2172 188.718 30.6475 189.287 30.6475 189.988V190.075C30.6475 190.776 31.2172 191.345 31.92 191.345H34.0618C34.7647 191.345 35.3344 190.776 35.3344 190.075V189.988C35.3344 189.287 34.7647 188.718 34.0618 188.718Z" fill="#FF9A6C"/>
<path opacity="0.2" d="M299.385 123.995V153.512H290.664L290.654 123.995H299.385Z" fill="black"/>
<path d="M327.67 110.868H321.662V169.898H327.67V110.868Z" fill="#263238"/>
<path d="M327.684 164.866C327.684 164.866 324.629 165.642 323.842 162.915C323.054 160.188 323.842 112.866 323.842 112.866H327.684V164.866Z" fill="#455A64"/>
<path opacity="0.3" d="M323.487 142.69L327.684 139.604V134.093C327.684 133.637 323.501 136.489 323.501 136.489L323.487 142.69Z" fill="white"/>
<path opacity="0.2" d="M213.818 96.538H212.743V99.1021H213.818V96.538Z" fill="black"/>
<path opacity="0.2" d="M215.865 96.538H214.789V99.1021H215.865V96.538Z" fill="black"/>
<path opacity="0.2" d="M217.91 96.538H216.834V99.1021H217.91V96.538Z" fill="black"/>
<path opacity="0.2" d="M219.956 96.538H218.88V99.1021H219.956V96.538Z" fill="black"/>
<path opacity="0.2" d="M222.006 96.538H220.93V99.1021H222.006V96.538Z" fill="black"/>
<path opacity="0.2" d="M224.052 96.538H222.977V99.1021H224.052V96.538Z" fill="black"/>
<path opacity="0.2" d="M226.098 96.538H225.022V99.1021H226.098V96.538Z" fill="black"/>
<path opacity="0.2" d="M228.144 96.538H227.068V99.1021H228.144V96.538Z" fill="black"/>
<path opacity="0.2" d="M230.194 96.538H229.119V99.1021H230.194V96.538Z" fill="black"/>
<path opacity="0.2" d="M232.24 96.538H231.164V99.1021H232.24V96.538Z" fill="black"/>
<path opacity="0.2" d="M234.285 96.538H233.209V99.1021H234.285V96.538Z" fill="black"/>
<path opacity="0.2" d="M236.331 96.538H235.255V99.1021H236.331V96.538Z" fill="black"/>
<path opacity="0.2" d="M238.382 96.538H237.306V99.1021H238.382V96.538Z" fill="black"/>
<path opacity="0.2" d="M240.428 96.538H239.352V99.1021H240.428V96.538Z" fill="black"/>
<path d="M295.086 100.588C295.086 100.655 274.048 100.713 248.101 100.713C222.155 100.713 201.107 100.655 201.107 100.588C201.107 100.521 222.145 100.463 248.101 100.463C274.057 100.463 295.086 100.516 295.086 100.588Z" fill="black"/>
<path d="M327.684 109.89C327.684 109.958 259.238 110.015 174.825 110.015C90.4113 110.015 21.9365 109.962 21.9365 109.89C21.9365 109.818 90.3681 109.766 174.81 109.766C259.252 109.766 327.684 109.823 327.684 109.89Z" fill="#263238"/>
<path d="M102.523 208.631C112.126 208.631 119.911 200.862 119.911 191.278C119.911 181.693 112.126 173.924 102.523 173.924C92.919 173.924 85.1338 181.693 85.1338 191.278C85.1338 200.862 92.919 208.631 102.523 208.631Z" fill="#455A64"/>
<path d="M325.374 180.317H322.19V185.814H325.374V180.317Z" fill="#FF9A6C"/>
<path d="M327.679 180.317H325.374V185.814H327.679V180.317Z" fill="white"/>
<path d="M186.205 100.904H132.723V115.08H186.205V100.904Z" fill="#263238"/>
<path opacity="0.2" d="M184.338 102.428H134.385V113.561H184.338V102.428Z" fill="black"/>
<path d="M121.32 190.869C121.791 179.87 113.24 170.573 102.219 170.102C91.1989 169.632 81.8829 178.166 81.4114 189.164C80.9399 200.163 89.4914 209.46 100.512 209.931C111.532 210.401 120.848 201.867 121.32 190.869Z" fill="#263238"/>
<path d="M81.4074 189.691V189.744C81.3309 195.029 83.3614 200.128 87.052 203.919C90.7426 207.71 95.7911 209.883 101.087 209.959C106.383 210.035 111.492 208.009 115.29 204.326C119.089 200.642 121.266 195.604 121.343 190.319V190.266L81.4074 189.691Z" fill="#263238"/>
<path d="M87.3519 189.83C87.3142 192.597 88.0994 195.313 89.6081 197.635C91.1169 199.957 93.2816 201.78 95.8284 202.874C98.3753 203.969 101.19 204.285 103.917 203.783C106.644 203.281 109.16 201.983 111.148 200.054C113.136 198.125 114.507 195.651 115.086 192.944C115.665 190.238 115.428 187.421 114.403 184.85C113.379 182.278 111.613 180.068 109.33 178.498C107.047 176.927 104.349 176.068 101.576 176.028C99.7339 176.002 97.9047 176.338 96.1928 177.018C94.481 177.697 92.9201 178.707 91.5992 179.989C90.2783 181.27 89.2234 182.799 88.4946 184.488C87.7659 186.176 87.3776 187.992 87.3519 189.83Z" fill="#EDEDED"/>
<path d="M101.576 176.028C97.8579 175.974 94.2705 177.396 91.603 179.982C88.9355 182.568 87.4064 186.105 87.3521 189.816L115.392 190.218C115.419 188.381 115.083 186.557 114.403 184.849C113.723 183.142 112.713 181.585 111.43 180.267C110.147 178.949 108.616 177.896 106.925 177.169C105.235 176.442 103.417 176.054 101.576 176.028Z" fill="#D4D4D4"/>
<path d="M92.856 189.926C92.8304 191.613 93.3071 193.27 94.2257 194.687C95.1443 196.103 96.4635 197.216 98.0162 197.884C99.5689 198.552 101.285 198.745 102.948 198.439C104.611 198.133 106.145 197.341 107.357 196.164C108.569 194.988 109.403 193.478 109.755 191.828C110.106 190.177 109.959 188.46 109.332 186.892C108.705 185.325 107.626 183.979 106.232 183.025C104.837 182.07 103.191 181.55 101.5 181.529C99.2387 181.501 97.0586 182.37 95.438 183.944C93.8175 185.518 92.8888 187.669 92.856 189.926Z" fill="#263238"/>
<path d="M259.254 209.929C270.275 209.472 278.838 200.185 278.38 189.186C277.922 178.187 268.616 169.642 257.595 170.099C246.574 170.556 238.011 179.843 238.47 190.842C238.928 201.84 248.233 210.386 259.254 209.929Z" fill="#263238"/>
<path d="M238.444 189.691C238.444 189.691 238.444 189.73 238.444 189.744C238.398 195.01 240.442 200.081 244.13 203.848C247.819 207.615 252.851 209.772 258.128 209.848C263.404 209.924 268.497 207.913 272.292 204.254C276.088 200.594 278.278 195.585 278.384 190.319V190.266L238.444 189.691Z" fill="#263238"/>
<path d="M244.389 189.83C244.352 192.597 245.137 195.313 246.646 197.635C248.155 199.957 250.319 201.78 252.866 202.874C255.413 203.969 258.228 204.285 260.955 203.783C263.681 203.281 266.198 201.983 268.186 200.054C270.174 198.125 271.544 195.651 272.124 192.944C272.703 190.238 272.465 187.421 271.441 184.85C270.416 182.278 268.651 180.068 266.368 178.498C264.085 176.927 261.386 176.068 258.614 176.028C256.772 176.002 254.942 176.338 253.23 177.018C251.519 177.697 249.958 178.707 248.637 179.989C247.316 181.27 246.261 182.799 245.532 184.488C244.803 186.176 244.415 187.992 244.389 189.83Z" fill="#EDEDED"/>
<path d="M258.614 176.028C254.896 175.974 251.308 177.396 248.641 179.982C245.973 182.568 244.444 186.105 244.39 189.816L272.43 190.218C272.456 188.381 272.12 186.557 271.44 184.849C270.76 183.142 269.75 181.585 268.467 180.267C267.184 178.949 265.654 177.896 263.963 177.169C262.272 176.442 260.455 176.054 258.614 176.028Z" fill="#D4D4D4"/>
<path d="M249.888 189.926C249.863 191.613 250.339 193.27 251.258 194.687C252.177 196.103 253.496 197.216 255.048 197.884C256.601 198.552 258.318 198.745 259.98 198.439C261.643 198.133 263.177 197.341 264.389 196.164C265.601 194.988 266.435 193.478 266.787 191.828C267.138 190.177 266.991 188.46 266.364 186.892C265.737 185.325 264.658 183.979 263.264 183.025C261.87 182.07 260.223 181.55 258.532 181.529C256.271 181.501 254.091 182.37 252.47 183.944C250.85 185.518 249.921 187.669 249.888 189.926Z" fill="#263238"/>
<path opacity="0.2" d="M78.0984 115.977H31.5073V117.29H78.0984V115.977Z" fill="black"/>
<path opacity="0.2" d="M127.882 115.977H81.8242V117.29H127.882V115.977Z" fill="black"/>
<path opacity="0.2" d="M181.159 123.995H136.868V125.308H181.159V123.995Z" fill="black"/>
<path opacity="0.2" d="M280.214 115.085H190.667V116.398H280.214V115.085Z" fill="black"/>
<path d="M51.5225 101.379L53.2657 99.7923C54.2522 98.8923 55.5404 98.3931 56.8769 98.3928H79.5242C80.2508 98.3935 80.9697 98.5412 81.6374 98.8271C82.3052 99.1129 82.9079 99.5309 83.4092 100.056L84.6674 101.379H51.5225Z" fill="#EF6B01"/>
<path d="M86.1952 101.379C86.1952 101.451 78.2956 101.504 68.5471 101.504C58.7986 101.504 50.8989 101.451 50.8989 101.379C50.8989 101.307 58.7986 101.254 68.5471 101.254C78.2956 101.254 86.1952 101.312 86.1952 101.379Z" fill="#263238"/>
<path d="M23.0213 189.691H20.2744L20.6634 173.449H24.9854V187.726C24.9854 188.247 24.7786 188.746 24.4104 189.114C24.0422 189.482 23.5426 189.69 23.0213 189.691Z" fill="white"/>
<path d="M20.8464 164.391C20.8588 164.488 20.8588 164.587 20.8464 164.684C20.8464 164.899 20.8464 165.163 20.8464 165.517C20.8464 166.27 20.8175 167.31 20.7935 168.58C20.7647 171.197 20.7263 174.758 20.6831 178.692C20.6399 182.627 20.587 186.221 20.4958 188.809C20.4526 190.103 20.4046 191.148 20.3613 191.872C20.3613 192.212 20.3229 192.49 20.3085 192.706C20.3054 192.803 20.2926 192.899 20.2701 192.993C20.2576 192.896 20.2576 192.798 20.2701 192.701C20.2701 192.485 20.2701 192.222 20.2701 191.867C20.2701 191.115 20.2989 190.075 20.3229 188.805C20.3517 186.188 20.3901 182.627 20.4382 178.692C20.4862 174.758 20.5294 171.163 20.6207 168.575C20.6687 167.281 20.7119 166.236 20.7551 165.513C20.7551 165.172 20.7983 164.899 20.8127 164.679C20.813 164.582 20.8242 164.486 20.8464 164.391Z" fill="#263238"/>
<path d="M327.684 169.898C327.752 169.898 327.8 171.115 327.828 173.085C327.857 175.055 327.862 177.782 327.828 180.791C327.795 183.801 327.79 186.542 327.761 188.498C327.761 189.456 327.728 190.242 327.713 190.837C327.717 191.122 327.701 191.407 327.665 191.69C327.626 191.407 327.61 191.122 327.617 190.837C327.617 190.242 327.617 189.456 327.583 188.498C327.583 186.528 327.583 183.801 327.583 180.791C327.627 175.122 327.684 171.197 327.684 169.898Z" fill="#263238"/>
</svg>
