<svg width="250" height="242" viewBox="0 0 250 242" fill="none" xmlns="http://www.w3.org/2000/svg">
<g clip-path="url(#clip0_938_1874)">
<path d="M160.627 121.353L97.4163 120.765L78.2373 120.688H73.0263H71.6695C71.3663 120.688 71.207 120.688 71.207 120.713C71.36 120.737 71.5148 120.747 71.6695 120.744L73.0263 120.775L78.2321 120.836L97.3957 120.939L160.606 120.98C185.274 120.98 207.634 121.005 223.817 121.123C231.906 121.179 238.453 121.256 242.975 121.338C245.236 121.379 246.994 121.425 248.186 121.471C248.794 121.455 249.401 121.499 250 121.604C249.4 121.696 248.793 121.734 248.186 121.717C246.994 121.752 245.236 121.778 242.975 121.798C238.448 121.834 231.9 121.845 223.811 121.824C207.649 121.793 185.304 121.604 160.627 121.353Z" fill="#EBEBEB"/>
<path d="M160.133 126.747L97.7655 116.65L78.8538 113.682L73.7147 112.914L72.3734 112.725C72.2223 112.699 72.0693 112.685 71.916 112.684C72.062 112.729 72.2116 112.762 72.3631 112.781L73.6993 113.017L78.8383 113.866L97.7655 116.85L160.221 126.389C184.575 130.094 206.647 133.482 222.609 136.041C230.59 137.31 237.044 138.369 241.5 139.111C243.725 139.495 245.457 139.802 246.639 140.027C247.242 140.106 247.836 140.243 248.412 140.437C247.804 140.437 247.197 140.384 246.598 140.278C245.416 140.13 243.674 139.894 241.459 139.572C236.983 138.932 230.513 137.96 222.527 136.716C206.518 134.255 184.472 130.703 160.133 126.747Z" fill="#EBEBEB"/>
<path d="M158.777 131.998L98.8345 112.5L80.6423 106.686L75.6831 105.151L74.388 104.762C74.2421 104.713 74.0926 104.675 73.9409 104.649C74.0773 104.719 74.2201 104.776 74.3675 104.818L75.6471 105.253L80.5806 106.876L98.7934 112.71L158.92 131.645C182.391 139.014 203.63 145.728 218.986 150.677C226.658 153.149 232.861 155.18 237.137 156.613C239.275 157.33 240.93 157.898 242.05 158.297C242.631 158.467 243.194 158.693 243.73 158.973C243.131 158.884 242.541 158.74 241.968 158.543C240.822 158.215 239.141 157.719 236.983 157.059C232.666 155.748 226.437 153.799 218.755 151.358C203.358 146.486 182.164 139.623 158.777 131.998Z" fill="#EBEBEB"/>
<path d="M156.582 136.972L100.566 108.61L83.5301 100.1L78.905 97.8174L77.687 97.2391C77.5506 97.1688 77.4099 97.1073 77.2656 97.0549C77.3898 97.144 77.5224 97.2211 77.6613 97.2852L78.8536 97.9095L83.4787 100.264L100.494 108.784L156.787 136.65C178.767 147.509 198.655 157.376 213.009 164.597C220.204 168.21 225.98 171.157 229.968 173.225C231.962 174.248 233.503 175.072 234.541 175.635C235.084 175.892 235.6 176.2 236.083 176.556C235.505 176.374 234.945 176.141 234.408 175.86C233.334 175.349 231.756 174.612 229.731 173.634C225.682 171.679 219.849 168.808 212.654 165.226C198.255 158.046 178.449 148.057 156.582 136.972Z" fill="#EBEBEB"/>
<path d="M153.607 141.552L102.848 105.064L87.4309 94.0764L83.2118 91.1236L82.1017 90.3662C81.9811 90.2741 81.8521 90.1936 81.7163 90.1257C81.8262 90.2309 81.9448 90.3268 82.0709 90.4123L83.145 91.2055C84.1111 91.9066 85.5141 92.925 87.3179 94.2248L102.735 105.223C115.829 114.434 133.883 127.187 153.838 141.261C173.793 155.334 191.867 168.061 204.853 177.37C211.359 182.022 216.612 185.809 220.214 188.455C222.018 189.775 223.411 190.814 224.325 191.525C224.824 191.86 225.289 192.242 225.713 192.667C225.171 192.401 224.655 192.085 224.171 191.725C223.19 191.075 221.751 190.098 219.911 188.823C216.226 186.264 210.928 182.559 204.401 177.933C191.358 168.686 173.407 155.805 153.607 141.552Z" fill="#EBEBEB"/>
<path d="M149.932 145.626L105.654 101.942L92.1691 88.7644L88.4741 85.2128L87.4874 84.2968C87.3824 84.187 87.2671 84.0876 87.1431 83.9999C87.237 84.1171 87.3382 84.2282 87.4463 84.3326L88.3816 85.2845L92.02 88.8923L105.495 102.08L150.205 145.37C167.677 162.258 183.439 177.57 194.796 188.721C200.475 194.294 205.049 198.828 208.189 201.986C209.756 203.562 210.964 204.795 211.786 205.64C212.222 206.049 212.62 206.498 212.973 206.98C212.48 206.637 212.02 206.248 211.601 205.819C210.732 205.026 209.473 203.843 207.86 202.308C204.627 199.238 199.992 194.77 194.287 189.217C182.863 178.112 167.205 162.688 149.932 145.626Z" fill="#EBEBEB"/>
<path d="M145.651 149.096L108.933 99.2759L97.7242 84.2354C96.3984 82.4749 95.3603 81.1085 94.6408 80.1413L93.8237 79.1178C93.737 78.9931 93.6389 78.8766 93.5308 78.7698C93.6045 78.9013 93.6869 79.0278 93.7774 79.1485L94.5483 80.2283L97.5598 84.3224L108.758 99.3731L145.944 148.865C160.462 168.189 173.613 185.681 183.038 198.419C187.75 204.78 191.543 209.949 194.133 213.536C195.428 215.332 196.425 216.735 197.088 217.692C197.455 218.159 197.775 218.661 198.044 219.191C197.613 218.779 197.222 218.326 196.877 217.84C196.148 216.924 195.094 215.568 193.743 213.807C191.044 210.292 187.185 205.174 182.437 198.833C172.96 186.147 159.948 168.553 145.651 149.096Z" fill="#EBEBEB"/>
<path d="M140.862 151.905C129.838 130.519 119.869 111.169 112.643 97.147C108.999 90.1666 106.05 84.5168 104.004 80.5916L101.625 76.1086L100.988 74.9469C100.92 74.8138 100.842 74.6855 100.756 74.5631C100.803 74.7051 100.863 74.8422 100.936 74.9725L101.522 76.1547C102.062 77.2038 102.838 78.7135 103.835 80.6735C105.89 84.5987 108.82 90.2536 112.458 97.234L141.19 151.716C152.424 172.984 162.564 192.257 169.82 206.254C173.448 213.249 176.357 218.925 178.336 222.865C179.327 224.831 180.083 226.366 180.587 227.415C180.874 227.932 181.109 228.478 181.285 229.042C180.925 228.561 180.612 228.047 180.35 227.507C179.78 226.484 178.952 224.994 177.904 223.055C175.812 219.171 172.821 213.531 169.168 206.551C161.844 192.605 151.854 173.261 140.862 151.905Z" fill="#EBEBEB"/>
<path d="M135.676 153.901L116.713 95.5196L110.875 77.8588C110.176 75.8118 109.627 74.1793 109.251 73.0688L108.815 71.8252C108.771 71.6821 108.714 71.5434 108.645 71.4107C108.671 71.5584 108.709 71.7038 108.758 71.8457C108.851 72.1425 108.979 72.557 109.144 73.0995L110.685 77.9151C112.068 82.1013 114.056 88.1503 116.508 95.581L136.036 153.788C143.673 176.5 150.554 197.078 155.441 212.006C157.893 219.457 159.835 225.516 161.151 229.692C161.809 231.785 162.307 233.418 162.631 234.528C162.829 235.083 162.972 235.655 163.057 236.238C162.774 235.719 162.547 235.172 162.379 234.605C161.978 233.52 161.408 231.908 160.688 229.836C159.249 225.68 157.214 219.657 154.737 212.206C149.778 197.318 143.061 176.69 135.676 153.901Z" fill="#EBEBEB"/>
<path d="M130.229 155.104C126.631 131.466 123.358 110.069 120.979 94.5678C119.761 86.8351 118.774 80.5814 118.085 76.2366L117.263 71.2572C117.165 70.6994 117.088 70.2695 117.032 69.9625C117.011 69.8152 116.978 69.6697 116.934 69.5275C116.935 69.6768 116.949 69.8257 116.975 69.9727C117.016 70.2797 117.078 70.7147 117.155 71.2726C117.325 72.4291 117.576 74.1077 117.9 76.2622C118.579 80.607 119.565 86.8658 120.778 94.5985C123.291 110.079 126.755 131.445 130.589 155.052C134.422 178.66 137.886 200.01 140.286 215.496C141.489 223.239 142.429 229.508 143.046 233.848C143.354 236.018 143.585 237.701 143.724 238.848C143.831 239.426 143.88 240.015 143.868 240.603C143.69 240.05 143.568 239.481 143.503 238.904C143.282 237.773 142.989 236.1 142.609 233.94C141.864 229.621 140.831 223.362 139.597 215.624C137.1 200.128 133.816 178.737 130.229 155.104Z" fill="#EBEBEB"/>
<path d="M124.653 155.487C124.874 131.593 125.074 109.941 125.223 94.2965C125.254 86.4769 125.285 80.1464 125.3 75.7504C125.3 73.5703 125.3 71.8764 125.3 70.7096C125.3 70.1416 125.3 69.6861 125.3 69.3995C125.3 69.2491 125.291 69.0987 125.275 68.9492C125.251 69.0964 125.241 69.2454 125.244 69.3944C125.244 69.7066 125.244 70.1416 125.213 70.7096C125.213 71.8764 125.177 73.5703 125.151 75.7504C125.151 80.1464 125.095 86.4973 125.059 94.2965C125.059 109.967 125.059 131.593 125.059 155.487C125.059 179.381 125.059 201.003 124.951 216.658C124.9 224.488 124.823 230.823 124.74 235.204C124.699 237.389 124.653 239.093 124.607 240.245C124.616 240.833 124.571 241.42 124.473 242C124.373 241.421 124.331 240.832 124.35 240.245C124.319 239.088 124.288 237.389 124.268 235.199C124.221 230.823 124.211 224.483 124.226 216.658C124.226 200.983 124.411 179.356 124.653 155.487Z" fill="#EBEBEB"/>
<path d="M119.083 155.001C123.137 131.43 126.791 110.1 129.474 94.6138C130.764 86.8965 131.802 80.6479 132.526 76.3082C132.871 74.1589 133.138 72.4803 133.323 71.3237C133.405 70.7659 133.467 70.336 133.513 70.029C133.559 69.7219 133.564 69.5837 133.559 69.5837C133.51 69.7248 133.476 69.8706 133.457 70.0187C133.395 70.3258 133.318 70.7505 133.21 71.3084L132.341 76.2775C131.612 80.6172 130.563 86.8658 129.258 94.5831C126.745 110.069 123.276 131.43 119.437 155.037C115.598 178.644 112.155 200.01 109.524 215.471C108.213 223.193 107.124 229.442 106.338 233.756C105.947 235.91 105.629 237.584 105.397 238.715C105.312 239.303 105.166 239.881 104.96 240.439C104.961 239.85 105.016 239.263 105.125 238.684C105.274 237.543 105.515 235.854 105.85 233.689C106.507 229.36 107.509 223.096 108.784 215.363C111.353 199.893 115.007 178.557 119.083 155.001Z" fill="#EBEBEB"/>
<path d="M113.655 153.686L133.739 95.6629C136.267 88.2373 138.318 82.2241 139.736 78.0482L141.329 73.2479C141.504 72.7106 141.632 72.2909 141.73 71.9941C141.779 71.8535 141.818 71.7099 141.848 71.5642C141.776 71.6959 141.717 71.8348 141.674 71.9787C141.566 72.2704 141.417 72.6798 141.226 73.2172C140.836 74.3226 140.276 75.9295 139.551 77.9919L133.544 95.6117C128.538 110.519 121.636 131.087 114.015 153.814C106.394 176.541 99.4921 197.098 94.3891 211.955C91.8195 219.385 89.7639 225.388 88.2633 229.528C87.5233 231.576 86.9374 233.203 86.5263 234.283C86.3486 234.848 86.1163 235.395 85.8325 235.915C85.9188 235.332 86.067 234.759 86.2745 234.206C86.6085 233.095 87.1224 231.468 87.8162 229.38C89.1729 225.204 91.1823 219.171 93.7004 211.735C98.711 196.843 105.798 176.326 113.655 153.686Z" fill="#EBEBEB"/>
<path d="M108.517 151.567C119.941 130.386 130.286 111.215 137.809 97.321C141.509 90.3714 144.49 84.7471 146.592 80.8424L148.946 76.3441L149.547 75.167C149.62 75.0359 149.682 74.899 149.732 74.7576C149.641 74.8779 149.562 75.0064 149.496 75.1414L148.848 76.2929C148.288 77.3164 147.471 78.8517 146.422 80.7554L137.624 97.2289L108.871 151.731C97.6629 173.01 87.4824 192.267 80.0308 206.162C76.305 213.111 73.2626 218.72 71.1248 222.584C70.061 224.513 69.2233 226.008 68.6375 227.016C68.3718 227.547 68.0551 228.05 67.6919 228.52C67.8756 227.957 68.1167 227.413 68.4114 226.898C68.9253 225.875 69.691 224.339 70.7034 222.369C72.723 218.449 75.6883 212.799 79.3833 205.839C86.7475 191.909 97.0771 172.729 108.517 151.567Z" fill="#EBEBEB"/>
<path d="M103.784 148.691L141.448 99.5625L152.79 84.6141L155.842 80.52L156.623 79.4504C156.716 79.3314 156.799 79.2047 156.87 79.0717C156.764 79.1802 156.666 79.2965 156.577 79.4197L155.755 80.4432L152.635 84.4861L141.288 99.4243L104.082 148.906C89.574 168.23 76.4129 185.707 66.8028 198.301C62.003 204.601 58.0664 209.683 55.3582 213.173C53.9912 214.923 52.9222 216.243 52.1874 217.175C51.8365 217.659 51.4408 218.11 51.0054 218.521C51.2773 217.991 51.6027 217.49 51.9767 217.026C52.6499 216.074 53.6571 214.682 54.9727 212.902C57.5988 209.319 61.4428 204.202 66.217 197.887C75.7654 185.246 89.0653 167.862 103.784 148.691Z" fill="#EBEBEB"/>
<path d="M99.5692 145.14L144.675 102.265L158.283 89.2045L161.952 85.6222L162.898 84.6806C163.011 84.58 163.115 84.4686 163.206 84.348C163.08 84.435 162.963 84.5344 162.857 84.6448L161.875 85.5506L158.149 89.0715L144.531 102.116L99.821 145.396C82.3893 162.284 66.5764 177.58 55.0598 188.578C49.304 194.079 44.6223 198.511 41.3642 201.546C39.7351 203.081 38.4606 204.237 37.587 205.02C37.1643 205.437 36.7051 205.816 36.2148 206.151C36.5708 205.671 36.9718 205.226 37.4122 204.821C38.2294 203.982 39.4679 202.774 41.0096 201.198C44.1804 198.071 48.7953 193.583 54.5305 188.056C66.0214 177.032 81.9525 161.864 99.5692 145.14Z" fill="#EBEBEB"/>
<path d="M95.9772 140.994L147.429 105.422L162.97 94.5882L167.169 91.6047L168.253 90.8166C168.379 90.7306 168.499 90.6366 168.613 90.5351C168.476 90.6046 168.346 90.685 168.222 90.7756L167.107 91.5177L162.857 94.4347L147.311 105.274L96.2238 141.286C76.2843 155.359 58.1948 168.077 45.0645 177.206C38.4967 181.776 33.1572 185.446 29.452 187.953C27.5968 189.207 26.1527 190.174 25.1609 190.814C24.6787 191.172 24.1623 191.483 23.6191 191.74C24.0466 191.318 24.5148 190.94 25.017 190.609C25.9574 189.903 27.3604 188.88 29.1745 187.575C32.8078 184.965 38.0907 181.224 44.643 176.628C57.7117 167.447 75.8886 154.863 95.9772 140.994Z" fill="#EBEBEB"/>
<path d="M93.0994 136.358L149.67 109.015L166.773 100.647L171.398 98.3394L172.596 97.7253C172.735 97.6613 172.867 97.5842 172.991 97.495C172.847 97.5461 172.707 97.6059 172.57 97.6741L171.347 98.2422L166.681 100.479L149.573 108.836L93.269 136.68C71.3046 147.565 51.3959 157.391 36.9397 164.423C29.7142 167.938 23.8505 170.758 19.7804 172.677C17.7248 173.634 16.1831 174.371 15.0833 174.852C14.5466 175.133 13.9838 175.361 13.4028 175.533C13.8878 175.185 14.4039 174.881 14.9446 174.627C15.9724 174.074 17.5141 173.276 19.544 172.258C23.5525 170.211 29.375 167.335 36.5903 163.788C51.031 156.695 71.0426 147.018 93.0994 136.358Z" fill="#EBEBEB"/>
<path d="M91.0078 131.348L151.315 112.955L169.564 107.295L174.512 105.719L175.792 105.294C175.941 105.254 176.086 105.199 176.224 105.13C176.072 105.156 175.923 105.194 175.777 105.243L174.476 105.617L169.502 107.116L151.253 112.745L91.126 131.68C67.661 139.086 46.4162 145.759 30.999 150.498C23.2904 152.867 17.0464 154.761 12.7142 156.035C10.5506 156.675 8.86502 157.156 7.71901 157.468C7.14424 157.663 6.55235 157.803 5.95117 157.888C6.4902 157.61 7.05684 157.388 7.64192 157.227C8.76224 156.838 10.4222 156.286 12.5651 155.59C16.8563 154.193 23.0797 152.222 30.778 149.817C46.1592 145.022 67.4452 138.507 91.0078 131.348Z" fill="#EBEBEB"/>
<path d="M89.7587 126.072L152.306 117.106L171.244 114.291L176.383 113.493L177.719 113.267C177.872 113.25 178.024 113.217 178.171 113.17C178.016 113.175 177.862 113.188 177.709 113.211L176.367 113.385L171.228 114.112L152.286 116.906L89.8152 126.43C65.4406 130.171 43.3632 133.523 27.3601 135.856C19.3586 137.023 12.8834 137.939 8.397 138.538C6.15637 138.84 4.41423 139.05 3.25794 139.198C2.65915 139.303 2.05161 139.349 1.44385 139.336C2.02174 139.153 2.61519 139.023 3.21682 138.947C4.38853 138.732 6.1204 138.436 8.35589 138.077C12.8217 137.356 19.2867 136.353 27.2779 135.155C43.245 132.75 65.3481 129.562 89.7587 126.072Z" fill="#EBEBEB"/>
<path d="M89.3786 120.688L152.589 121.2L171.753 121.266H176.959H178.315C178.469 121.277 178.624 121.277 178.778 121.266C178.625 121.243 178.47 121.233 178.315 121.236L176.959 121.205L171.768 121.077L152.604 121L89.394 121.036C64.7265 121.072 42.3664 121.067 26.1835 120.969C18.0946 120.923 11.5475 120.857 7.0251 120.775C4.76391 120.739 3.00635 120.693 1.81409 120.652C1.20653 120.665 0.599101 120.62 0 120.519C0.59994 120.426 1.20707 120.386 1.81409 120.401C3.00635 120.371 4.76391 120.34 7.0251 120.319C11.5526 120.273 18.0998 120.253 26.1887 120.268C42.3562 120.294 64.7008 120.458 89.3786 120.688Z" fill="#EBEBEB"/>
<path d="M89.8616 115.284L152.24 125.294L171.156 128.236L176.296 129.004L177.637 129.183C177.789 129.212 177.944 129.228 178.099 129.229C177.951 129.185 177.8 129.153 177.647 129.132L176.311 128.896L171.172 128.057L152.255 125.094L89.8051 115.642C65.4203 111.988 43.3428 108.6 27.3604 106.072C19.3794 104.813 12.9247 103.759 8.46917 103.002C6.23882 102.623 4.51209 102.316 3.33011 102.091C2.72721 102.014 2.13335 101.879 1.55713 101.686C2.16548 101.683 2.77284 101.736 3.37122 101.845C4.5532 101.988 6.29534 102.224 8.51028 102.541C12.9915 103.175 19.4616 104.143 27.4477 105.371C43.4713 107.832 65.523 111.353 89.8616 115.284Z" fill="#EBEBEB"/>
<path d="M91.2134 110.033L151.181 129.434L169.384 135.227L174.348 136.762L175.643 137.146C175.789 137.196 175.938 137.233 176.09 137.259C175.951 137.191 175.807 137.134 175.659 137.09L174.379 136.66L169.445 135.043L151.248 129.239L91.085 110.376C67.5994 103.032 46.3751 96.3487 30.9939 91.4409C23.3161 88.9794 17.1184 86.9579 12.8324 85.525C10.6946 84.8136 9.03468 84.2456 7.9195 83.8464C7.33761 83.6765 6.77321 83.4521 6.23389 83.176C6.83532 83.2642 7.42717 83.4081 8.00172 83.6059C9.1426 83.9283 10.8231 84.4247 12.9866 85.0798C17.3034 86.3899 23.5371 88.3294 31.2252 90.7603C46.6166 95.6117 67.8153 102.439 91.2134 110.033Z" fill="#EBEBEB"/>
<path d="M93.4024 105.054L149.47 133.344L166.506 141.839L171.131 144.116L172.349 144.694C172.486 144.762 172.626 144.822 172.77 144.874C172.646 144.784 172.513 144.707 172.374 144.643L171.182 144.019L166.557 141.675L149.526 133.17L93.2329 105.376C71.2377 94.5421 51.3392 84.701 36.9755 77.4955C29.7808 73.9132 23.9943 70.9552 20.0166 68.8928C18.0227 67.8693 16.4758 67.0505 15.4377 66.4876C14.8951 66.2309 14.3788 65.9224 13.896 65.5664C14.4633 65.7508 15.0135 65.9837 15.5405 66.2624C16.6197 66.7742 18.1974 67.506 20.2222 68.4783C24.2718 70.4281 30.1097 73.2991 37.3096 76.8711C51.7041 84.0153 71.5563 93.9997 93.4024 105.054Z" fill="#EBEBEB"/>
<path d="M96.3729 100.473L147.178 136.895L162.631 147.862L166.855 150.815L167.965 151.567C168.088 151.657 168.217 151.739 168.351 151.813C168.243 151.706 168.124 151.61 167.996 151.526L166.922 150.728L162.744 147.714L147.301 136.742L96.1519 100.765C76.1764 86.7379 58.1229 74.0053 45.0851 64.7169C38.5739 60.0702 33.3218 56.2883 29.7141 53.6476C27.9103 52.3273 26.5125 51.2935 25.6029 50.5771C25.1073 50.2384 24.6429 49.8565 24.2153 49.4359C24.758 49.6984 25.2743 50.012 25.7571 50.3724C26.7438 51.0223 28.1775 51.9998 30.0225 53.2689C33.7072 55.8277 39.0107 59.5226 45.5424 64.1438C58.5854 73.381 76.5515 86.2415 96.3729 100.473Z" fill="#EBEBEB"/>
<path d="M100.042 96.3947L144.377 140.022L157.893 153.179L161.593 156.731L162.564 157.647C162.673 157.753 162.788 157.852 162.908 157.944C162.82 157.821 162.718 157.708 162.605 157.606L161.67 156.659L158.026 153.051L144.531 139.884L99.775 96.6352C82.3022 79.7472 66.4996 64.4815 55.1269 53.3405C49.4585 47.7828 44.859 43.2589 41.719 40.1065C40.1465 38.5302 38.9388 37.2969 38.1217 36.4525C37.6843 36.0458 37.2868 35.5985 36.9346 35.1168C37.4276 35.4584 37.887 35.8456 38.3067 36.2734C39.1803 37.0666 40.4446 38.2488 42.0582 39.7789C45.2907 42.8495 49.9364 47.312 55.6459 52.8543C67.0649 63.9441 82.7493 79.3532 100.042 96.3947Z" fill="#EBEBEB"/>
<path d="M104.318 92.9148L141.103 142.693L152.327 157.724L155.41 161.792L156.222 162.816C156.311 162.939 156.409 163.055 156.515 163.164C156.447 163.029 156.364 162.902 156.269 162.785C156.09 162.529 155.833 162.171 155.498 161.71L152.481 157.616L141.268 142.581L104.015 93.1348C89.4607 73.8467 76.3099 56.3599 66.8694 43.6428C62.1466 37.2714 58.3489 32.1231 55.7536 28.5357C54.4534 26.7394 53.4565 25.3423 52.7935 24.3853C52.4239 23.9186 52.102 23.4163 51.8325 22.8859C52.2648 23.2986 52.6571 23.7509 53.0042 24.2369C53.734 25.1478 54.7926 26.504 56.1391 28.2644C58.8422 31.7751 62.7119 36.8876 67.445 43.2231C76.9625 55.8994 89.9798 73.4782 104.318 92.9148Z" fill="#EBEBEB"/>
<path d="M109.108 90.1257L137.398 144.884L146.073 161.398L148.463 165.881L149.1 167.038C149.167 167.173 149.245 167.303 149.331 167.427C149.284 167.283 149.224 167.144 149.151 167.012C149.007 166.736 148.817 166.342 148.56 165.835L146.248 161.316L137.599 144.766C130.224 130.81 120.044 111.563 108.794 90.2895C97.5448 69.0157 87.3694 49.7787 80.0976 35.7924C76.4386 28.7966 73.5196 23.1264 71.5565 19.191C70.5647 17.2207 69.8041 15.6905 69.3056 14.6414C69.0151 14.1246 68.7792 13.5793 68.6016 13.014C68.9592 13.4966 69.2723 14.0105 69.5369 14.5493C70.1073 15.5728 70.9347 17.062 71.9882 19.0016C74.0901 22.8807 77.081 28.5101 80.7246 35.4904C88.0683 49.4256 98.0792 68.7598 109.108 90.1257Z" fill="#EBEBEB"/>
<path d="M114.288 88.0992C121.719 110.888 128.451 131.506 133.302 146.44L139.161 164.095C139.865 166.142 140.415 167.775 140.79 168.885L141.232 170.124C141.276 170.268 141.333 170.409 141.401 170.543C141.376 170.395 141.339 170.25 141.288 170.108L140.898 168.849C140.538 167.734 140.014 166.117 139.356 164.039L133.508 146.378C128.492 131.476 121.565 110.913 113.913 88.1964C106.26 65.4795 99.3587 44.9478 94.4509 30.0198C91.9944 22.5584 90.0364 16.5145 88.7157 12.3232C88.0528 10.2301 87.5543 8.60274 87.2305 7.49222C87.0256 6.93773 86.8809 6.363 86.7988 5.77783C87.077 6.30087 87.3041 6.84925 87.4772 7.41546C87.878 8.50038 88.4536 10.1073 89.1731 12.185C90.6171 16.3303 92.6625 22.3537 95.1498 29.8049C100.124 44.7021 106.872 65.3209 114.288 88.0992Z" fill="#EBEBEB"/>
<path d="M119.73 86.912C123.368 110.55 126.662 131.947 129.047 147.443C130.28 155.17 131.277 161.424 131.966 165.769C132.326 167.918 132.603 169.592 132.798 170.748C132.898 171.301 132.975 171.731 133.03 172.038C133.051 172.187 133.083 172.334 133.127 172.478C133.126 172.329 133.113 172.18 133.086 172.033C133.045 171.72 132.983 171.291 132.906 170.733L132.156 165.723C131.467 161.378 130.475 155.119 129.252 147.391C126.719 131.911 123.224 110.545 119.365 86.9478C115.505 63.3507 112.006 41.9899 109.585 26.5246C108.372 18.7868 107.422 12.5178 106.8 8.17805C106.486 6.0082 106.26 4.32452 106.116 3.17818C106.009 2.59942 105.961 2.0113 105.972 1.42285C106.16 1.98044 106.294 2.55446 106.373 3.13724C106.594 4.27334 106.887 5.94679 107.278 8.10641C108.028 12.4256 109.066 18.6793 110.31 26.4171C112.802 41.8773 116.112 63.2637 119.73 86.912Z" fill="#EBEBEB"/>
<path d="M125.306 86.5127C125.116 110.412 124.941 132.059 124.792 147.709C124.792 155.528 124.751 161.859 124.735 166.255C124.735 168.43 124.735 170.124 124.735 171.296C124.735 171.859 124.735 172.293 124.735 172.606C124.728 172.754 124.728 172.903 124.735 173.051C124.759 172.904 124.77 172.755 124.766 172.606C124.766 172.293 124.766 171.859 124.797 171.296C124.797 170.124 124.828 168.43 124.854 166.255C124.854 161.859 124.89 155.508 124.92 147.709C124.92 132.033 124.874 110.412 124.843 86.5127C124.813 62.6136 124.787 41.002 124.874 25.3422C124.915 17.5124 124.982 11.1768 125.059 6.80126C125.1 4.61094 125.141 2.9119 125.188 1.76045C125.171 1.17062 125.216 0.580686 125.321 0C125.415 0.581941 125.457 1.17113 125.445 1.76045C125.481 2.9119 125.511 4.61094 125.532 6.80126C125.583 11.1819 125.604 17.5175 125.594 25.3474C125.671 41.002 125.517 62.634 125.306 86.5127Z" fill="#EBEBEB"/>
<path d="M130.882 86.9785C126.853 110.555 123.209 131.89 120.568 147.366C119.288 155.088 118.255 161.337 117.536 165.677C117.196 167.831 116.934 169.505 116.749 170.661C116.667 171.219 116.605 171.654 116.564 171.961C116.535 172.108 116.52 172.257 116.518 172.406C116.562 172.264 116.597 172.118 116.621 171.971C116.677 171.664 116.754 171.234 116.857 170.676C117.063 169.525 117.371 167.857 117.726 165.707C118.445 161.368 119.488 155.119 120.773 147.397C123.266 131.911 126.709 110.55 130.537 86.9324C134.366 63.3148 137.753 41.9541 140.358 26.5246C141.653 18.797 142.738 12.5485 143.519 8.23435C143.909 6.07985 144.223 4.4064 144.454 3.27541C144.537 2.69022 144.676 2.11436 144.87 1.55591C144.877 2.14659 144.824 2.73645 144.711 3.31636C144.562 4.45757 144.32 6.14126 143.991 8.31111C143.339 12.6406 142.347 18.9045 141.078 26.6372C138.549 42.0769 134.926 63.4172 130.882 86.9785Z" fill="#EBEBEB"/>
<path d="M136.309 88.2833C128.492 110.954 121.405 131.465 116.297 146.337C113.779 153.763 111.744 159.781 110.326 163.957C109.642 166.03 109.108 167.647 108.738 168.757C108.568 169.3 108.434 169.714 108.342 170.011C108.293 170.153 108.253 170.299 108.224 170.446C108.296 170.314 108.355 170.175 108.398 170.032C108.506 169.735 108.65 169.325 108.845 168.793L110.511 164.013L116.498 146.399C121.482 131.486 128.353 110.908 135.954 88.1707C143.555 65.4333 150.42 44.8658 155.482 30.0043C158.021 22.5685 160.108 16.5656 161.583 12.4255C162.317 10.3528 162.903 8.75104 163.314 7.66611C163.5 7.10798 163.737 6.5683 164.024 6.05408C163.938 6.639 163.791 7.21351 163.587 7.76847C163.253 8.87386 162.739 10.5013 162.045 12.5892C160.693 16.7703 158.694 22.8244 156.187 30.2449C151.212 45.1114 144.135 65.6329 136.309 88.2833Z" fill="#EBEBEB"/>
<path d="M141.447 90.402C130.044 111.594 119.73 130.78 112.252 144.679C108.557 151.634 105.572 157.263 103.485 161.173C102.457 163.118 101.681 164.627 101.137 165.671C100.88 166.183 100.684 166.572 100.54 166.848C100.468 166.981 100.406 167.12 100.355 167.263C100.444 167.139 100.523 167.009 100.592 166.874C100.746 166.603 100.957 166.219 101.234 165.723L103.655 161.255L112.432 144.771L141.124 90.2383C152.301 68.944 162.451 49.6763 169.902 35.7719C173.618 28.8171 176.65 23.2031 178.783 19.3393C179.846 17.4049 180.679 15.9106 181.265 14.9024C181.529 14.3707 181.846 13.8667 182.21 13.3978C182.021 13.9594 181.78 14.5024 181.491 15.0201C180.977 16.0436 180.211 17.5789 179.204 19.5492C177.179 23.4539 174.224 29.1241 170.535 36.0943C163.165 50.0295 152.861 69.2204 141.447 90.402Z" fill="#EBEBEB"/>
<path d="M146.186 93.2678L108.583 142.468C103.809 148.773 99.9495 153.88 97.2772 157.427C95.9616 159.198 94.9338 160.569 94.2297 161.521L93.4486 162.591C93.3556 162.711 93.2714 162.837 93.1968 162.969C93.3059 162.862 93.4056 162.745 93.4948 162.621L94.3171 161.598C95.0366 160.656 96.0849 159.3 97.4005 157.555L108.732 142.596L145.888 93.0529C160.369 73.7084 173.51 56.2063 183.1 43.6069C187.894 37.3071 191.81 32.2203 194.524 28.7249C195.891 26.9799 196.954 25.6544 197.694 24.723C198.043 24.2381 198.437 23.7874 198.871 23.3771C198.597 23.9045 198.274 24.4048 197.905 24.8714C197.232 25.8233 196.225 27.2153 194.914 29.0013C192.288 32.5836 188.454 37.7012 183.691 44.0316C174.158 56.6823 160.878 74.0769 146.186 93.2678Z" fill="#EBEBEB"/>
<path d="M150.405 96.8195L105.351 139.756L91.7682 152.831L88.0989 156.414L87.1584 157.355C87.0463 157.457 86.9431 157.568 86.8501 157.688C86.9735 157.601 87.0888 157.504 87.1944 157.396L88.176 156.49L91.8967 152.959C95.124 149.863 99.7646 145.406 105.495 139.894L150.143 96.5636C167.554 79.6346 183.346 64.3228 194.853 53.32C200.598 47.8135 205.27 43.3817 208.528 40.3419C210.152 38.8066 211.426 37.65 212.3 36.8619C212.723 36.4369 213.184 36.0515 213.677 35.7104C213.325 36.1937 212.924 36.6396 212.48 37.041C211.668 37.8803 210.424 39.0881 208.882 40.6694C205.722 43.8013 201.107 48.2997 195.382 53.8267C183.912 64.9062 168.001 80.0747 150.405 96.8195Z" fill="#EBEBEB"/>
<path d="M154.002 100.955L102.612 136.588L87.0866 147.463L82.8623 150.447L81.7831 151.235C81.6561 151.321 81.5358 151.417 81.4233 151.521C81.5599 151.452 81.6905 151.371 81.8139 151.281L82.9291 150.534L87.174 147.611L102.704 136.747L153.781 100.663C173.7 86.5639 191.759 73.8262 204.889 64.6811C211.457 60.106 216.786 56.4265 220.492 53.9342C222.342 52.6753 223.791 51.7081 224.777 51.0632C225.26 50.7048 225.776 50.3946 226.319 50.137C225.893 50.5581 225.426 50.9369 224.927 51.2679C223.981 51.9742 222.583 53.0028 220.769 54.3078C217.141 56.9229 211.858 60.6741 205.316 65.2748C192.232 74.4557 174.075 87.0654 154.002 100.955Z" fill="#EBEBEB"/>
<path d="M156.865 105.586L100.335 133.006L83.2476 141.394L78.6224 143.707L77.425 144.326C77.2857 144.387 77.1531 144.463 77.0293 144.551C77.1742 144.502 77.3151 144.442 77.4507 144.372L78.6738 143.804L83.3401 141.557L100.433 133.18C114.822 126.015 134.731 116.169 156.7 105.263C178.67 94.3579 198.548 84.5015 212.993 77.4546C220.219 73.9337 226.078 71.1037 230.143 69.1794C232.172 68.2173 233.74 67.4855 234.84 66.9994C235.377 66.7225 235.937 66.4931 236.515 66.3136C236.033 66.6672 235.516 66.9723 234.973 67.2245C233.945 67.7772 232.378 68.5807 230.374 69.5991C226.365 71.6461 220.548 74.5375 213.343 78.0891C198.928 85.1975 178.963 94.9055 156.865 105.586Z" fill="#EBEBEB"/>
<path d="M158.982 110.601L98.701 129.065L80.4625 134.751L75.5136 136.332L74.2339 136.757C74.085 136.798 73.9405 136.852 73.8022 136.921C73.9541 136.896 74.1037 136.858 74.2493 136.808L75.5495 136.435L80.519 134.93L98.7627 129.26L158.89 110.258C182.339 102.822 203.6 96.1235 219.017 91.3642C226.725 88.9845 232.969 87.0807 237.296 85.8013C239.46 85.1617 241.146 84.6755 242.292 84.3633C242.866 84.168 243.458 84.0274 244.059 83.9437C243.517 84.2148 242.951 84.4358 242.369 84.6038C241.248 84.9928 239.588 85.5455 237.445 86.2466C233.154 87.6488 226.936 89.6293 219.243 92.0397C203.815 96.8656 182.514 103.411 158.982 110.601Z" fill="#EBEBEB"/>
<path d="M160.236 115.872L97.7036 124.925L78.7507 127.76L73.6116 128.569L72.2755 128.794C72.1225 128.815 71.9713 128.848 71.8232 128.891C71.9783 128.891 72.133 128.877 72.2858 128.85L73.6271 128.676L78.7661 127.945L97.7036 125.125L160.148 115.514C184.518 111.742 206.59 108.349 222.588 106.011C230.584 104.834 237.06 103.907 241.541 103.303C243.781 103.002 245.524 102.792 246.706 102.643C247.306 102.54 247.915 102.49 248.525 102.495C247.946 102.683 247.351 102.815 246.747 102.889C245.575 103.104 243.848 103.401 241.608 103.764C237.147 104.496 230.687 105.504 222.691 106.712C206.744 109.138 184.646 112.356 160.236 115.872Z" fill="#EBEBEB"/>
<path d="M151.053 201.828C150.684 200.714 150.165 199.655 149.511 198.68C149.183 198.195 148.76 197.78 148.267 197.46C147.775 197.141 147.222 196.924 146.643 196.823C146.06 196.739 145.466 196.849 144.953 197.137C144.439 197.425 144.036 197.874 143.806 198.414C143.642 195.922 143.293 193.363 142.033 191.198C140.774 189.033 138.436 187.334 135.939 187.488C133.58 187.631 131.555 189.376 130.435 191.449C129.314 193.522 128.924 195.901 128.559 198.23C127.665 197.135 125.773 197.478 124.838 198.537C123.903 199.597 123.666 201.096 123.471 202.478H151.623L151.053 201.828Z" fill="#F5F5F5"/>
<path d="M115.187 49.5535C114.447 47.5883 113.691 45.5976 112.448 43.9242C111.204 42.2507 109.39 40.8536 107.309 40.5875C105.227 40.3214 102.905 41.4165 102.206 43.4124C101.908 38.9345 101.27 34.3441 99.0195 30.4598C96.7686 26.5756 92.5751 23.5204 88.0784 23.807C83.8438 24.0628 80.2156 27.1999 78.196 30.9204C76.1763 34.6409 75.4877 38.9089 74.8248 43.0849C73.2214 41.1248 69.8296 41.739 68.144 43.6427C66.4584 45.5464 66.0421 48.2127 65.6875 50.7203H116.266L115.187 49.5535Z" fill="#EBEBEB"/>
<path d="M201.41 41.4371C200.959 40.0664 200.323 38.7631 199.519 37.563C199.114 36.9642 198.593 36.4526 197.985 36.0587C197.378 35.6648 196.697 35.3967 195.983 35.2704C194.55 35.0964 192.962 35.8691 192.494 37.2304C192.288 34.1599 191.852 31.0125 190.31 28.3514C188.768 25.6903 185.89 23.5921 182.807 23.7814C179.903 23.9554 177.411 26.1099 176.029 28.6585C174.646 31.207 174.173 34.1394 173.721 37.0001C172.616 35.6542 170.293 36.079 169.142 37.3839C167.991 38.6889 167.703 40.5159 167.457 42.2354H202.114L201.41 41.4371Z" fill="#F5F5F5"/>
<path d="M147.419 20.1077C147.126 19.2022 146.71 18.3411 146.181 17.5488C145.917 17.1481 145.575 16.8053 145.173 16.5412C144.772 16.2772 144.321 16.0976 143.848 16.0134C143.373 15.9463 142.889 16.0374 142.472 16.2726C142.055 16.5077 141.727 16.8736 141.54 17.3134C141.407 15.2662 141.119 13.219 140.101 11.4482C139.084 9.67744 137.177 8.30584 135.142 8.42867C133.225 8.54638 131.581 9.96404 130.666 11.653C129.751 13.3419 129.438 15.2713 129.124 17.1649C128.394 16.2744 126.858 16.5559 126.102 17.4157C125.347 18.2755 125.147 19.4629 124.987 20.6195H147.882L147.419 20.1077Z" fill="#F5F5F5"/>
<path d="M61.5711 23.4137C61.275 22.5094 60.8585 21.6487 60.3326 20.8547C60.0688 20.4544 59.7258 20.1119 59.3247 19.8479C58.9236 19.5839 58.4727 19.4041 57.9995 19.3193C57.5252 19.2501 57.0412 19.3397 56.6236 19.574C56.2059 19.8084 55.8783 20.1743 55.6921 20.6142C55.5533 18.567 55.2655 16.5198 54.248 14.7439C53.2304 12.968 51.329 11.6015 49.2939 11.7244C47.3719 11.8421 45.7274 13.2597 44.8178 14.9486C43.9082 16.6375 43.5896 18.5926 43.2915 20.4862C42.5669 19.5957 41.0303 19.8772 40.2697 20.737C39.5091 21.5968 39.3139 22.8098 39.1494 23.9664H62.0491L61.5711 23.4137Z" fill="#FAFAFA"/>
<path d="M153.052 60.2551C152.757 59.3504 152.34 58.4897 151.813 57.6962C151.548 57.2969 151.205 56.9551 150.804 56.6913C150.403 56.4274 149.953 56.247 149.48 56.1608C149.006 56.0925 148.522 56.1824 148.105 56.4167C147.687 56.6509 147.36 57.0163 147.173 57.4556C147.039 55.4085 146.746 53.3613 145.728 51.5905C144.711 49.8197 142.809 48.4481 140.774 48.5709C138.852 48.6887 137.208 50.1063 136.298 51.7952C135.389 53.4841 135.07 55.4136 134.757 57.3021C134.027 56.4167 132.49 56.6931 131.73 57.558C130.969 58.4229 130.779 59.6052 130.62 60.7618H153.514L153.052 60.2551Z" fill="#FAFAFA"/>
<path d="M236.52 24.6164C236.225 23.7117 235.808 22.8509 235.282 22.0575C235.016 21.6576 234.672 21.3155 234.27 21.0516C233.868 20.7877 233.417 20.6076 232.943 20.5221C232.47 20.4549 231.988 20.5455 231.571 20.7797C231.155 21.0138 230.828 21.3785 230.641 21.8169C230.502 19.7697 230.215 17.7226 229.197 15.9518C228.179 14.181 226.278 12.8094 224.243 12.9322C222.321 13.0499 220.676 14.4676 219.762 16.1565C218.847 17.8454 218.539 19.7749 218.22 21.6685C217.495 20.778 215.959 21.0543 215.198 21.9193C214.438 22.7842 214.247 23.9664 214.083 25.1231H236.983L236.52 24.6164Z" fill="#FAFAFA"/>
<path d="M205.804 229.692C205.382 228.388 204.782 227.149 204.021 226.008C203.637 225.439 203.142 224.954 202.566 224.581C201.989 224.208 201.342 223.955 200.665 223.838C199.303 223.669 197.792 224.401 197.35 225.695C197.155 222.778 196.739 219.79 195.295 217.257C193.851 214.723 191.091 212.738 188.162 212.912C185.402 213.081 183.023 215.123 181.722 217.548C180.422 219.974 179.954 222.758 179.523 225.481C178.495 224.201 176.27 224.6 175.175 225.844C174.081 227.087 173.803 228.817 173.572 230.45H206.513L205.804 229.692Z" fill="#FAFAFA"/>
<path d="M37.001 199.964C36.6344 198.837 36.1157 197.764 35.4593 196.776C35.1268 196.284 34.6985 195.864 34.1996 195.541C33.7008 195.217 33.1418 194.997 32.5558 194.893C31.9654 194.808 31.3636 194.92 30.844 195.212C30.3244 195.504 29.9162 195.958 29.683 196.505C29.5134 193.982 29.1691 191.387 27.8895 189.202C26.6099 187.017 24.2562 185.292 21.7226 185.446C19.3329 185.594 17.2876 187.36 16.1467 189.458C15.0059 191.556 14.605 193.961 14.2504 196.315C13.3459 195.21 11.4291 195.558 10.4835 196.633C9.53789 197.707 9.3015 199.191 9.10107 200.619H37.592L37.001 199.964Z" fill="#FAFAFA"/>
<path d="M234.979 89.3222C234.399 87.5336 233.576 85.8324 232.532 84.2661C231.417 82.7308 229.793 81.5026 227.907 81.2774C226.021 81.0522 223.961 82.0553 223.349 83.8362C223.082 79.8342 222.511 75.7248 220.497 72.2449C218.482 68.7649 214.726 66.0373 210.702 66.2829C206.909 66.5132 203.661 69.3176 201.857 72.6492C200.054 75.9807 199.432 79.8138 198.841 83.5394C197.402 81.784 194.365 82.3367 192.864 84.0511C191.363 85.7655 190.983 88.1452 190.665 90.3816H235.888L234.979 89.3222Z" fill="#EBEBEB"/>
<path d="M111.328 220.419C110.546 218.331 109.745 216.218 108.429 214.421C107.114 212.625 105.181 211.156 102.966 210.885C100.751 210.614 98.2898 211.806 97.5652 213.91C97.2466 209.166 96.5733 204.299 94.1888 200.179C91.8043 196.06 87.3487 192.846 82.5848 193.112C78.0881 193.383 74.239 196.694 72.1011 200.655C69.9633 204.616 69.2284 209.13 68.5038 213.557C66.8027 211.479 63.2054 212.129 61.4273 214.15C59.6492 216.172 59.1969 218.991 58.8218 221.653H112.448L111.328 220.419Z" fill="#EBEBEB"/>
<path d="M50.5736 144.889C50.1117 143.477 49.46 142.135 48.6362 140.897C48.2216 140.279 47.6853 139.751 47.0599 139.346C46.4345 138.94 45.7329 138.666 44.9977 138.538C43.5176 138.359 41.8834 139.152 41.4004 140.554C41.1896 137.392 40.7374 134.147 39.1494 131.404C37.5615 128.661 34.5911 126.501 31.4408 126.696C28.4448 126.875 25.8804 129.091 24.4569 131.721C23.0333 134.352 22.54 137.351 22.0723 140.319C20.9366 138.932 18.5418 139.367 17.3547 140.713C16.1676 142.059 15.8695 143.942 15.6177 145.713H51.3444L50.5736 144.889Z" fill="#EBEBEB"/>
<path d="M216.057 189.115C215.491 187.373 214.689 185.717 213.672 184.192C212.588 182.713 211.005 181.505 209.186 181.285C207.367 181.065 205.342 182.043 204.751 183.772C204.489 179.873 203.934 175.871 201.971 172.514C200.007 169.156 196.354 166.465 192.438 166.705C188.748 166.93 185.582 169.663 183.824 172.903C182.067 176.142 181.466 179.868 180.89 183.506C179.487 181.797 176.532 182.334 175.073 183.992C173.613 185.65 173.243 187.969 172.93 190.133H216.992L216.057 189.115Z" fill="#EBEBEB"/>
<path d="M164.319 169.796C160.356 168.807 156.639 167.016 153.398 164.533C152.554 163.881 151.745 163.186 150.974 162.45C150.403 161.906 149.188 161.022 148.906 160.287C148.366 158.833 150.47 156.663 151.572 155.971C152.673 155.279 155.102 154.427 156.271 155.269C157.195 155.934 157.763 158.027 158.377 158.997C160.135 161.788 162.377 164.245 164.997 166.254C165.582 166.631 166.083 167.123 166.472 167.699C166.659 167.992 166.745 168.338 166.714 168.684C166.684 169.029 166.54 169.355 166.304 169.61C165.799 170.08 165.005 169.963 164.319 169.796Z" fill="#EF6B01"/>
<path d="M178.681 98.5759C180.645 96.3478 175.095 88.2997 166.285 80.6C157.474 72.9003 148.741 68.4647 146.777 70.6928C144.814 72.921 150.364 80.9691 159.174 88.6688C167.984 96.3685 176.718 100.804 178.681 98.5759Z" fill="#EF6B01"/>
<path d="M171.568 72.9602C180.402 80.6036 183.147 90.0675 179.429 96.0877C176.867 100.255 168.773 93.9524 159.94 86.309C151.107 78.6656 143.053 71.7718 146.609 68.4118C152.287 63.0562 162.735 65.3168 171.568 72.9602Z" fill="#EF6B01"/>
<g opacity="0.3">
<path d="M178.684 98.5788C180.646 96.3523 175.093 88.3041 166.282 80.6028C157.47 72.9015 148.737 68.4634 146.775 70.6899C144.813 72.9165 150.365 80.9646 159.177 88.6659C167.989 96.3672 176.722 100.805 178.684 98.5788Z" fill="black"/>
</g>
<path d="M97.0021 90.7038C97.0021 90.7038 90.5325 95.4699 82.4032 119.942L150.196 169.741C150.196 169.741 166.839 154.197 169.41 139.662L97.0021 90.7038Z" fill="#EF6B01"/>
<path d="M163.597 128.152C168.75 150.941 155.912 172.979 133.66 177.945C111.409 182.911 86.1964 166.499 81.0385 143.69C79.4626 136.748 79.6383 129.528 81.5499 122.676C85.5292 108.409 96.8206 96.8243 112.027 93.4305C134.264 88.4679 158.443 105.363 163.597 128.152Z" fill="#EF6B01"/>
<path d="M172.924 112.764C178.193 136.068 164.813 158.664 141.724 163.816C118.636 168.969 92.5475 152.222 87.2811 128.933C85.6608 121.831 85.8572 114.439 87.8522 107.438C89.9294 100.048 93.9708 93.3571 99.5496 88.0721C105.129 82.7871 112.038 79.1042 119.548 77.412C142.641 72.2531 167.654 89.4606 172.924 112.764Z" fill="#EF6B01"/>
<path d="M170.868 114.928C176.023 137.722 163.189 159.754 140.932 164.721C118.675 169.688 93.4721 153.269 88.3165 130.47C83.1609 107.671 97.0226 85.1783 119.279 80.2112C141.536 75.2441 165.715 92.1389 170.868 114.928Z" fill="white"/>
<path d="M170.868 114.928C170.868 114.928 170.817 114.703 170.687 114.265C170.556 113.827 170.436 113.156 170.14 112.288C169.393 109.798 168.423 107.379 167.242 105.061C166.861 104.307 166.422 103.528 165.966 102.722C165.51 101.916 164.981 101.068 164.385 100.225C163.144 98.3664 161.767 96.6019 160.265 94.9456C156.619 90.8821 152.308 87.4641 147.516 84.8372C144.733 83.3143 141.798 82.0853 138.76 81.1701C137.145 80.6882 135.504 80.3009 133.845 80.0101C132.118 79.7191 130.374 79.542 128.625 79.4798C121.518 79.1711 113.836 81.1374 107.021 85.3089C99.8643 89.7442 94.2375 96.251 90.8908 103.962C89.1324 108.022 88.0186 112.331 87.5893 116.734C86.8946 123.563 87.8852 130.461 90.4751 136.827C91.3445 138.915 92.3728 140.933 93.5509 142.864C95.8739 146.639 98.7208 150.068 102.007 153.049C108.215 158.734 115.806 162.701 124.025 164.553C127.84 165.387 131.756 165.668 135.65 165.386C139.323 165.109 142.935 164.303 146.373 162.993C152.582 160.664 158.083 156.779 162.344 151.713C165.857 147.541 168.487 142.704 170.075 137.49C171.264 133.555 171.891 129.471 171.938 125.36C171.963 122.768 171.767 120.178 171.35 117.618C171.229 116.732 171.064 116.071 170.984 115.6C170.903 115.13 170.861 114.919 170.861 114.919C170.861 114.919 170.913 115.149 171.014 115.594C171.114 116.038 171.266 116.708 171.41 117.604C171.85 120.17 172.064 122.769 172.051 125.371C172.02 129.494 171.405 133.591 170.224 137.541C168.651 142.789 166.022 147.662 162.499 151.862C159.165 155.813 155.078 159.065 150.473 161.43C145.868 163.794 140.837 165.225 135.671 165.638C131.753 165.924 127.813 165.645 123.973 164.811C115.712 162.952 108.081 158.969 101.839 153.26C98.5313 150.268 95.6665 146.823 93.3303 143.029C92.143 141.086 91.1083 139.055 90.2354 136.954C87.6273 130.55 86.6306 123.61 87.3325 116.739C87.7636 112.311 88.8865 107.978 90.6605 103.898C94.0295 96.14 99.694 89.5951 106.898 85.1369C113.757 80.9504 121.49 78.9779 128.642 79.3026C130.401 79.3654 132.154 79.5441 133.89 79.8373C135.558 80.1322 137.207 80.5247 138.83 81.0128C141.879 81.9354 144.823 83.1747 147.613 84.7105C152.405 87.3458 156.716 90.7708 160.362 94.8399C161.865 96.5038 163.241 98.2776 164.478 100.146C165.075 100.994 165.56 101.857 166.056 102.655C166.552 103.452 166.946 104.262 167.328 105.021C168.495 107.343 169.45 109.765 170.18 112.258C170.446 113.106 170.572 113.782 170.697 114.242C170.822 114.702 170.868 114.928 170.868 114.928Z" fill="#263238"/>
<path d="M132.226 87.5989L131.902 94.9386L130.196 94.8629L130.46 88.8851L128.988 88.8202L129.048 87.4582L132.226 87.5989Z" fill="#263238"/>
<path d="M138.76 93.8568L138.699 95.2402L133.132 94.9869L133.183 93.889L136.139 91.345C136.389 91.1424 136.607 90.9028 136.784 90.6344C136.892 90.4489 136.955 90.2408 136.967 90.0266C136.981 89.8984 136.963 89.7688 136.916 89.6487C136.869 89.5286 136.793 89.4216 136.696 89.3367C136.446 89.149 136.14 89.0508 135.827 89.0581C135.528 89.043 135.228 89.0919 134.949 89.2016C134.683 89.3152 134.45 89.4955 134.273 89.7251L133.056 88.879C133.373 88.4579 133.799 88.1307 134.289 87.932C134.843 87.7054 135.443 87.6093 136.041 87.6511C136.535 87.6618 137.021 87.7749 137.469 87.9833C137.844 88.1579 138.164 88.4339 138.391 88.7799C138.6 89.1324 138.693 89.5415 138.655 89.9491C138.649 90.3355 138.555 90.7154 138.38 91.0601C138.109 91.5016 137.76 91.8906 137.35 92.2084L135.588 93.7249L138.76 93.8568Z" fill="#263238"/>
<path d="M151.554 94.2685L151.873 101.612L150.174 101.681L149.912 95.7056L148.437 95.7672L148.376 94.406L151.554 94.2685Z" fill="#263238"/>
<path d="M163.435 111.898L163.501 113.284L157.948 113.511L157.899 112.409L160.625 109.617C160.855 109.394 161.049 109.137 161.2 108.854C161.294 108.661 161.34 108.447 161.332 108.231C161.334 108.103 161.305 107.976 161.248 107.861C161.191 107.746 161.107 107.646 161.004 107.57C160.738 107.408 160.426 107.337 160.117 107.369C159.815 107.378 159.519 107.453 159.25 107.589C158.995 107.725 158.779 107.925 158.624 108.169L157.341 107.406C157.619 106.957 158.015 106.592 158.487 106.353C159.019 106.081 159.606 105.932 160.204 105.917C160.696 105.886 161.189 105.954 161.654 106.118C162.044 106.262 162.386 106.511 162.643 106.837C162.888 107.164 163.025 107.559 163.036 107.967C163.055 108.357 162.985 108.746 162.83 109.104C162.601 109.575 162.289 110 161.908 110.36L160.285 112.024L163.435 111.898Z" fill="#263238"/>
<path d="M165.433 126.151C165.795 126.516 166.002 127.006 166.01 127.518C166.03 127.937 165.931 128.352 165.723 128.716C165.49 129.107 165.148 129.422 164.739 129.623C164.214 129.868 163.641 129.996 163.061 129.998C162.543 130.02 162.024 129.973 161.519 129.859C161.056 129.76 160.614 129.579 160.214 129.326L160.819 128C161.124 128.205 161.461 128.357 161.816 128.449C162.187 128.549 162.571 128.591 162.954 128.573C163.305 128.578 163.649 128.478 163.941 128.284C164.055 128.206 164.146 128.099 164.206 127.974C164.265 127.849 164.291 127.711 164.281 127.574C164.255 126.971 163.782 126.693 162.864 126.73L162.087 126.762L162.033 125.64L163.475 123.87L160.345 123.996L160.285 122.634L165.441 122.418L165.49 123.52L163.92 125.513C164.483 125.546 165.017 125.772 165.433 126.151Z" fill="#263238"/>
<path d="M161.606 142.105L160.406 142.152L160.474 143.712L158.811 143.784L158.743 142.224L154.775 142.391L154.727 141.247L157.994 136.445L159.783 136.371L156.758 140.919L158.735 140.84L158.676 139.463L160.283 139.398L160.346 140.77L161.544 140.717L161.606 142.105Z" fill="#263238"/>
<path d="M149.471 150.681C149.722 150.872 149.926 151.118 150.066 151.4C150.207 151.682 150.28 151.992 150.281 152.306C150.306 152.737 150.21 153.166 150.003 153.544C149.772 153.943 149.427 154.265 149.012 154.468C148.488 154.725 147.913 154.862 147.329 154.87C146.813 154.891 146.296 154.844 145.792 154.73C145.325 154.635 144.88 154.455 144.478 154.2L145.094 152.876C145.397 153.079 145.731 153.23 146.084 153.321C146.452 153.423 146.832 153.465 147.213 153.447C147.564 153.45 147.907 153.348 148.199 153.154C148.311 153.07 148.4 152.959 148.459 152.832C148.518 152.705 148.545 152.566 148.537 152.426C148.53 152.286 148.488 152.151 148.415 152.031C148.342 151.911 148.242 151.81 148.121 151.738C147.696 151.566 147.235 151.503 146.78 151.555L144.897 151.634L145.096 147.485L149.585 147.297L149.647 148.663L146.602 148.792L146.545 150.19L147.145 150.167C147.956 150.07 148.777 150.251 149.471 150.681Z" fill="#263238"/>
<path d="M132.612 154.095C132.992 154.259 133.32 154.524 133.559 154.86C133.801 155.209 133.936 155.62 133.948 156.044C133.977 156.502 133.867 156.958 133.633 157.353C133.402 157.736 133.067 158.047 132.668 158.25C132.232 158.47 131.753 158.591 131.264 158.606C130.818 158.65 130.367 158.597 129.943 158.452C129.518 158.307 129.13 158.072 128.805 157.764C128.145 157.032 127.792 156.074 127.822 155.091C127.77 154.351 127.901 153.61 128.202 152.933C128.472 152.348 128.911 151.858 129.462 151.523C130.054 151.184 130.72 150.998 131.403 150.98C131.783 150.962 132.165 150.992 132.538 151.068C132.865 151.122 133.181 151.228 133.473 151.384L132.898 152.657C132.473 152.419 131.987 152.311 131.502 152.349C131.233 152.349 130.967 152.402 130.719 152.506C130.472 152.61 130.247 152.762 130.06 152.954C129.684 153.402 129.498 153.978 129.539 154.561C129.773 154.326 130.053 154.14 130.361 154.015C130.669 153.891 131 153.829 131.333 153.835C131.773 153.822 132.212 153.911 132.612 154.095ZM131.998 157.009C132.101 156.901 132.181 156.773 132.234 156.633C132.286 156.493 132.31 156.343 132.303 156.194C132.296 156.045 132.259 155.898 132.195 155.763C132.13 155.628 132.038 155.508 131.925 155.409C131.66 155.213 131.332 155.12 131.003 155.147C130.67 155.151 130.351 155.275 130.103 155.495C129.989 155.596 129.899 155.722 129.839 155.862C129.78 156.002 129.753 156.154 129.76 156.307C129.763 156.456 129.799 156.602 129.864 156.736C129.93 156.87 130.024 156.988 130.141 157.082C130.417 157.286 130.759 157.38 131.1 157.346C131.431 157.349 131.751 157.229 131.998 157.009Z" fill="#263238"/>
<path d="M118.449 146.426L118.498 147.528L116.036 153.882L114.185 153.959L116.566 147.896L114.125 147.995L114.18 149.19L112.663 149.255L112.544 146.658L118.449 146.426Z" fill="#263238"/>
<path d="M106.89 139.254C107.1 139.547 107.216 139.896 107.221 140.256C107.252 140.686 107.133 141.113 106.884 141.465C106.616 141.835 106.249 142.122 105.825 142.294C105.315 142.516 104.767 142.638 104.211 142.654C103.66 142.685 103.108 142.612 102.584 142.44C102.15 142.3 101.762 142.043 101.464 141.698C101.192 141.366 101.04 140.953 101.03 140.525C101.007 140.164 101.093 139.805 101.276 139.494C101.468 139.179 101.743 138.922 102.07 138.75C101.801 138.607 101.572 138.398 101.407 138.142C101.242 137.882 101.152 137.583 101.148 137.276C101.122 136.879 101.232 136.485 101.458 136.157C101.704 135.817 102.038 135.55 102.425 135.385C103.366 135.001 104.411 134.953 105.384 135.249C105.787 135.377 106.146 135.615 106.419 135.937C106.674 136.246 106.817 136.632 106.824 137.033C106.845 137.338 106.783 137.644 106.645 137.918C106.499 138.187 106.286 138.415 106.027 138.58C106.37 138.723 106.668 138.956 106.89 139.254ZM105.167 141.061C105.285 140.968 105.378 140.848 105.439 140.711C105.499 140.574 105.526 140.424 105.515 140.274C105.515 140.126 105.478 139.98 105.407 139.849C105.336 139.718 105.234 139.607 105.109 139.525C104.802 139.334 104.441 139.248 104.08 139.283C103.726 139.277 103.381 139.391 103.101 139.606C102.987 139.704 102.896 139.826 102.836 139.964C102.777 140.102 102.749 140.252 102.756 140.402C102.762 140.552 102.803 140.698 102.875 140.831C102.946 140.963 103.047 141.077 103.169 141.165C103.471 141.356 103.827 141.441 104.182 141.407C104.539 141.402 104.886 141.281 105.167 141.061ZM103.101 136.583C103.004 136.667 102.927 136.773 102.878 136.893C102.829 137.012 102.809 137.141 102.82 137.27C102.82 137.397 102.85 137.523 102.908 137.636C102.967 137.749 103.052 137.846 103.156 137.919C103.405 138.082 103.702 138.155 103.998 138.125C104.296 138.127 104.587 138.031 104.825 137.851C104.924 137.77 105.002 137.665 105.052 137.547C105.102 137.429 105.124 137.301 105.114 137.173C105.113 137.043 105.081 136.916 105.021 136.8C104.961 136.685 104.875 136.586 104.769 136.51C104.516 136.348 104.216 136.275 103.917 136.301C103.62 136.297 103.332 136.397 103.101 136.583Z" fill="#263238"/>
<path d="M101.771 121.357C102.431 122.084 102.786 123.037 102.762 124.017C102.821 124.764 102.694 125.513 102.392 126.199C102.124 126.785 101.685 127.276 101.132 127.608C100.539 127.949 99.8695 128.134 99.1853 128.148C98.8068 128.166 98.4275 128.138 98.0558 128.064C97.7305 128.01 97.4163 127.903 97.1262 127.747L97.7015 126.474C98.1247 126.716 98.6118 126.824 99.0974 126.782C99.3668 126.783 99.6336 126.73 99.8813 126.625C100.129 126.52 100.353 126.366 100.538 126.172C100.912 125.72 101.099 125.143 101.063 124.559C100.828 124.796 100.548 124.984 100.238 125.111C99.9285 125.237 99.5964 125.301 99.2616 125.297C98.8158 125.321 98.3703 125.241 97.9612 125.062C97.5818 124.898 97.2544 124.633 97.0145 124.297C96.7675 123.949 96.6316 123.535 96.6247 123.109C96.593 122.653 96.7014 122.198 96.9354 121.806C97.167 121.423 97.5013 121.112 97.9008 120.908C98.3368 120.689 98.816 120.567 99.3046 120.553C99.7492 120.5 100.2 120.545 100.626 120.684C101.052 120.822 101.443 121.052 101.771 121.357ZM100.484 123.628C100.593 123.525 100.678 123.399 100.733 123.26C100.788 123.121 100.811 122.971 100.802 122.822C100.802 122.673 100.768 122.525 100.703 122.391C100.638 122.256 100.543 122.138 100.426 122.045C100.151 121.843 99.8115 121.749 99.4717 121.78C99.1482 121.781 98.8363 121.899 98.5942 122.113C98.4908 122.221 98.4105 122.349 98.358 122.489C98.3055 122.629 98.2819 122.778 98.2887 122.928C98.2954 123.077 98.3324 123.224 98.3973 123.359C98.4623 123.494 98.5539 123.614 98.6666 123.713C98.938 123.898 99.2623 123.989 99.5902 123.974C99.9182 123.958 100.232 123.837 100.484 123.628Z" fill="#263238"/>
<path d="M100.968 104.772L100.813 112.116L99.1105 112.076L99.237 106.098L97.762 106.065L97.79 104.7L100.968 104.772Z" fill="#263238"/>
<path d="M103.636 111.851C103.152 111.52 102.772 111.059 102.541 110.521C102.024 109.202 102.054 107.735 102.623 106.44C102.816 106.056 103.088 105.716 103.421 105.443C103.754 105.171 104.141 104.971 104.557 104.857C104.973 104.743 105.408 104.717 105.835 104.781C106.261 104.846 106.67 104.998 107.034 105.23C107.518 105.56 107.898 106.022 108.129 106.56C108.637 107.88 108.606 109.346 108.042 110.642C107.849 111.026 107.577 111.366 107.244 111.638C106.911 111.911 106.524 112.111 106.108 112.225C105.692 112.339 105.257 112.365 104.83 112.3C104.404 112.236 103.995 112.083 103.631 111.852L103.636 111.851ZM106.359 110.346C106.663 109.806 106.809 109.191 106.779 108.572C106.838 107.955 106.717 107.333 106.432 106.781C106.324 106.599 106.171 106.448 105.989 106.341C105.806 106.234 105.599 106.175 105.387 106.17C105.175 106.165 104.966 106.213 104.778 106.311C104.59 106.409 104.431 106.553 104.315 106.729C104.011 107.269 103.866 107.883 103.895 108.502C103.836 109.121 103.957 109.745 104.243 110.298C104.347 110.481 104.497 110.632 104.679 110.737C104.861 110.843 105.068 110.897 105.278 110.896C105.491 110.908 105.704 110.863 105.893 110.767C106.083 110.67 106.244 110.525 106.359 110.346Z" fill="#263238"/>
<path d="M114.413 91.4788L114.254 98.8237L112.551 98.7841L112.677 92.8055L111.207 92.7716L111.235 91.4064L114.413 91.4788Z" fill="#263238"/>
<path d="M118.537 91.5476L118.377 98.8925L116.674 98.8529L116.801 92.8743L115.326 92.8415L115.359 91.4752L118.537 91.5476Z" fill="#263238"/>
<g opacity="0.3">
<path d="M90.0759 132.909C84.9121 110.103 98.7621 87.5983 121.021 82.6372C137.428 78.9802 154.884 87.2279 164.991 100.953C155.243 85.7927 136.689 76.3192 119.32 80.1906C97.0709 85.1495 83.2192 107.671 88.3807 130.466C89.7229 136.226 92.2602 141.643 95.8289 146.37C93.1306 142.255 91.1829 137.697 90.0759 132.909Z" fill="black"/>
</g>
<path d="M121.465 70.2371C121.132 69.4651 112.304 72.4619 101.74 76.9394C91.1763 81.4169 82.8846 85.6708 83.212 86.4439C83.5394 87.217 92.3719 84.2141 102.937 79.7416C113.501 75.2691 121.792 71.0102 121.465 70.2371Z" fill="#EF6B01"/>
<path d="M101.986 76.8391L83.2162 86.4351C83.2162 86.4351 78.0092 73.5811 96.4078 65.4381" fill="#EF6B01"/>
<path d="M121.469 70.2485C121.469 70.2485 116.537 57.7494 99.1351 64.1697C98.6208 64.3633 96.4185 65.4272 96.4185 65.4272L101.514 77.0182L121.469 70.2485Z" fill="#EF6B01"/>
<path d="M92.5099 67.8051C92.1062 66.7357 92.132 65.5528 92.5819 64.5033C93.0318 63.4537 93.8712 62.6185 94.9248 62.172C95.9784 61.7255 97.1649 61.7021 98.2368 62.1068C99.3087 62.5114 100.183 63.3128 100.678 64.3438" fill="#EF6B01"/>
<path d="M167.316 71.0015C167.699 70.5625 168.164 70.2031 168.686 69.9438C169.209 69.6844 169.777 69.5302 170.359 69.4899C170.942 69.4497 171.526 69.5241 172.08 69.7091C172.634 69.894 173.146 70.1858 173.587 70.5679C174.028 70.9499 174.389 71.4146 174.65 71.9355C174.911 72.4564 175.067 73.0233 175.108 73.6038C175.149 74.1843 175.076 74.7671 174.891 75.3188C174.706 75.8705 174.414 76.3804 174.032 76.8194" fill="#EF6B01"/>
<g opacity="0.2">
<path d="M137.173 126.728L136.908 124.765L132.862 125.767C132.854 125.732 132.847 125.702 132.84 125.672C132.693 125.018 132.33 124.431 131.81 124.006L131.251 109.127C131.244 108.884 131.174 108.646 131.047 108.437C130.908 108.223 130.72 108.044 130.498 107.917C130.277 107.789 130.028 107.716 129.772 107.704C129.517 107.691 129.262 107.74 129.03 107.845C128.797 107.951 128.593 108.11 128.435 108.31L128.405 108.317C128.194 108.59 128.084 108.928 128.096 109.274L128.357 121.026L116.652 102.681L116.132 102.22C115.1 101.31 113.455 102.433 114.046 103.651C114.049 103.675 114.054 103.698 114.062 103.721C114.693 104.972 121.346 115.646 126.949 124.59C126.685 124.943 126.5 125.348 126.407 125.778C126.314 126.208 126.314 126.654 126.409 127.084C126.427 127.164 126.445 127.244 126.464 127.329L94.6566 135.232L127.378 128.69C127.737 129.01 128.162 129.247 128.622 129.386C129.083 129.525 129.568 129.561 130.043 129.493C132.811 133.907 134.822 137.098 134.822 137.098L137.483 135.345L132.596 127.706L132.623 127.642L137.173 126.728Z" fill="black"/>
</g>
<path d="M130.251 125.619L129.677 107.028C129.662 106.672 129.768 106.321 129.978 106.032L130.008 106.025C130.164 105.819 130.37 105.655 130.605 105.547C130.841 105.439 131.1 105.391 131.359 105.406C131.618 105.422 131.869 105.502 132.091 105.638C132.312 105.774 132.496 105.962 132.626 106.186C132.757 106.406 132.831 106.654 132.842 106.909L133.693 125.654L130.251 125.619Z" fill="#455A64"/>
<path d="M117.614 99.5331C117.394 99.3286 117.111 99.206 116.811 99.1861C116.512 99.1662 116.215 99.2503 115.971 99.4241C115.727 99.5978 115.551 99.8506 115.473 100.139C115.395 100.428 115.42 100.735 115.543 101.008L115.56 101.083C116.691 103.386 136.644 136.178 136.644 136.178L139.291 134.37L118.109 100.026L117.614 99.5331Z" fill="#455A64"/>
<path d="M138.958 125.344L138.672 123.282L96.395 133.834L138.958 125.344Z" fill="#263238"/>
<path d="M132.118 128.119C133.895 127.722 135.01 125.965 134.609 124.193C134.209 122.421 132.444 121.306 130.667 121.703C128.89 122.099 127.775 123.857 128.176 125.629C128.576 127.401 130.341 128.515 132.118 128.119Z" fill="#EF6B01"/>
<g opacity="0.3">
<path d="M121.462 70.2373C121.13 69.4647 112.302 72.4609 101.74 76.9383C91.1772 81.4157 82.8867 85.67 83.2143 86.4437C83.542 87.2174 92.3736 84.2151 102.937 79.7427C113.501 75.2703 121.79 71.011 121.462 70.2373Z" fill="black"/>
</g>
<path d="M102.682 63.0523C102.692 63.0973 101.932 63.2775 100.714 63.6652C99.1562 64.1633 97.6326 64.7617 96.1527 65.4564C94.6762 66.1579 93.2464 66.9529 91.872 67.8366C90.82 68.5182 90.1994 68.9879 90.1703 68.9523C90.2886 68.8116 90.4252 68.6874 90.5767 68.583C90.8413 68.3558 91.25 68.0438 91.7684 67.681C93.1201 66.7403 94.549 65.9149 96.0399 65.2136C97.5298 64.51 99.0758 63.9309 100.662 63.4824C101.267 63.3158 101.767 63.1988 102.121 63.1566C102.303 63.0982 102.491 63.0632 102.682 63.0523Z" fill="#263238"/>
<path d="M99.4726 77.8762C99.6274 78.3979 102.933 85.7316 102.933 85.7316L107.24 83.5579L103.49 75.7934L99.4726 77.8762Z" fill="#EF6B01"/>
<path d="M110.896 73.084C110.829 73.1319 110.756 73.1695 110.679 73.1956L110.031 73.4768L107.623 74.472C105.601 75.3125 102.811 76.4823 99.7503 77.8071C96.6897 79.1319 93.9445 80.4073 91.9557 81.3246L89.6051 82.412L88.9599 82.7032C88.8847 82.738 88.8064 82.7661 88.7261 82.787C88.7893 82.7312 88.8606 82.6852 88.9375 82.6504L89.5585 82.3225C90.1 82.0386 90.8937 81.6354 91.876 81.1584C93.8435 80.1934 96.5803 78.9041 99.6425 77.5632C102.705 76.2222 105.511 75.0752 107.549 74.2836C108.57 73.8872 109.401 73.5757 109.975 73.3685L110.639 73.1361C110.721 73.1052 110.808 73.0876 110.896 73.084Z" fill="#263238"/>
<path d="M115.883 78.4824C115.62 78.6011 115.349 78.7019 115.072 78.7843C114.542 78.9551 113.781 79.2247 112.858 79.5885C111.934 79.9522 110.845 80.4213 109.67 80.9989C108.494 81.5764 107.227 82.2848 105.931 83.0943C104.634 83.9038 103.486 84.7642 102.458 85.5767C101.431 86.3891 100.546 87.1803 99.817 87.8683C99.0879 88.5564 98.5223 89.1292 98.1501 89.5327C97.9615 89.7507 97.7554 89.953 97.5339 90.1378C97.697 89.8984 97.8781 89.6718 98.0758 89.46C98.4323 89.0337 98.9772 88.4393 99.6817 87.7357C100.386 87.0321 101.269 86.231 102.31 85.3841C103.424 84.4848 104.586 83.645 105.79 82.8683C106.999 82.1072 108.248 81.411 109.531 80.7829C110.725 80.2169 111.824 79.7456 112.767 79.4196C113.709 79.0937 114.476 78.8279 115.013 78.6871C115.296 78.5924 115.587 78.5238 115.883 78.4824Z" fill="#263238"/>
<path d="M154.901 86.2283L163.111 77.4875L166.761 80.5471L157.908 89.3055L154.901 86.2283Z" fill="#EF6B01"/>
<path d="M171.175 85.0835C170.987 84.954 170.813 84.8066 170.654 84.6434C170.289 84.3102 169.837 83.8916 169.283 83.3748C168.133 82.3142 166.528 80.8722 164.715 79.3245C162.902 77.7768 161.214 76.4321 159.961 75.4994C159.329 75.0316 158.829 74.6603 158.471 74.4043C158.28 74.2869 158.102 74.151 157.938 73.9986C158.15 74.0846 158.351 74.1946 158.538 74.3264C158.911 74.558 159.442 74.9015 160.081 75.357C161.364 76.257 163.075 77.586 164.898 79.1316C166.721 80.6771 168.301 82.1507 169.422 83.2441C169.983 83.7908 170.427 84.2428 170.73 84.5583C170.895 84.718 171.044 84.894 171.175 85.0835Z" fill="#263238"/>
<path d="M176.97 79.065C176.93 79.074 176.455 78.3928 175.605 77.3334C174.497 75.9555 173.286 74.6626 171.983 73.4657C170.677 72.2727 169.281 71.1807 167.808 70.199C166.676 69.4494 165.967 69.0356 165.957 68.9907C166.144 69.0556 166.325 69.1383 166.497 69.2375C166.836 69.4136 167.318 69.6839 167.9 70.0473C169.42 70.994 170.846 72.0814 172.161 73.2949C173.476 74.5006 174.677 75.8241 175.749 77.2488C176.156 77.7929 176.47 78.2478 176.675 78.5746C176.79 78.7274 176.889 78.8918 176.97 79.065Z" fill="#263238"/>
<path d="M158.153 88.4178C157.942 88.2886 157.744 88.1394 157.563 87.9721C157.196 87.6761 156.661 87.2442 155.986 86.7492C154.233 85.4102 152.401 84.1784 150.499 83.0606C148.596 81.94 146.628 80.9331 144.606 80.0452C143.826 79.6942 143.195 79.4413 142.754 79.2615C142.52 79.184 142.295 79.0831 142.081 78.9603C142.323 79.0063 142.561 79.0745 142.79 79.1642C143.244 79.3096 143.889 79.5541 144.682 79.8707C146.729 80.7145 148.712 81.7052 150.616 82.8349C152.531 83.9563 154.36 85.2165 156.09 86.6052C156.737 87.138 157.271 87.591 157.618 87.9126C157.81 88.0652 157.989 88.2342 158.153 88.4178Z" fill="#263238"/>
<path d="M82.845 119.139C82.845 119.139 82.8314 119.242 82.7957 119.433L82.624 120.28C82.4821 121.025 82.2621 122.124 82.0493 123.557C80.275 133.635 82.4504 144.013 88.1265 152.55C90.0248 155.572 92.2546 158.376 94.7746 160.907C97.4773 163.63 100.479 166.042 103.722 168.096C105.366 169.139 107.066 170.091 108.814 170.948C110.516 171.766 112.261 172.489 114.042 173.115C115.765 173.713 117.519 174.215 119.298 174.619C121.009 174.987 122.74 175.258 124.482 175.43C127.708 175.752 130.962 175.678 134.169 175.21C136.955 174.788 139.69 174.079 142.328 173.095C146.158 171.666 149.745 169.661 152.963 167.147C154.105 166.263 154.941 165.514 155.505 165.005L156.141 164.417L156.36 164.222C156.296 164.297 156.228 164.368 156.155 164.435L155.54 165.045C154.99 165.567 154.162 166.329 153.03 167.232C149.824 169.785 146.238 171.825 142.401 173.278C139.753 174.281 137.005 175.003 134.204 175.433C130.984 175.915 127.717 175.999 124.476 175.683C122.724 175.516 120.983 175.247 119.262 174.879C117.472 174.476 115.706 173.973 113.973 173.372C112.176 172.748 110.417 172.023 108.703 171.199C106.944 170.34 105.234 169.385 103.582 168.337C100.317 166.274 97.2964 163.849 94.578 161.109C92.0424 158.563 89.7972 155.746 87.8835 152.709C84.602 147.572 82.4534 141.8 81.5806 135.776C81.1012 131.712 81.2158 127.6 81.9207 123.57C82.4002 120.687 82.845 119.139 82.845 119.139Z" fill="#263238"/>
<path d="M91.9465 174.184C96.3432 172.438 100.2 169.569 103.131 165.866C103.581 165.293 104.574 164.331 104.726 163.604C105.027 162.188 102.851 160.39 101.774 159.864C100.697 159.338 98.3785 158.816 97.4236 159.738C96.6714 160.462 96.4225 162.481 95.9821 163.466C94.7432 166.256 93.0161 168.803 90.8817 170.989C90.4 171.411 90.0079 171.925 89.7285 172.501C89.5995 172.799 89.5686 173.13 89.6403 173.447C89.7119 173.764 89.8825 174.05 90.1275 174.265C90.6479 174.611 91.3566 174.416 91.9465 174.184Z" fill="#EF6B01"/>
<path d="M90.5263 171.468C90.5195 171.438 90.9635 170.888 91.6704 169.964C92.596 168.767 93.4585 167.524 94.2543 166.238C95.0458 164.944 95.7702 163.61 96.4246 162.242C96.668 161.661 96.9442 161.095 97.2516 160.546C97.2263 160.714 97.1785 160.878 97.1094 161.034C97 161.342 96.8265 161.785 96.5947 162.319C95.3838 165.126 93.7765 167.746 91.8218 170.098C91.4499 170.548 91.1351 170.902 90.9041 171.137C90.7957 171.266 90.6683 171.378 90.5263 171.468Z" fill="#263238"/>
<path d="M104.048 164.538C103.822 165.007 103.542 165.448 103.214 165.853C102.467 166.86 101.636 167.801 100.728 168.666C99.8213 169.531 98.8498 170.325 97.8218 171.042C97.4133 171.363 96.9705 171.638 96.5015 171.862C96.8834 171.515 97.2872 171.194 97.7105 170.899C98.6958 170.142 99.6415 169.335 100.544 168.481C101.447 167.621 102.295 166.706 103.083 165.741C103.38 165.321 103.702 164.919 104.048 164.538Z" fill="#263238"/>
<path d="M104.396 164.009C104.342 163.533 104.253 163.062 104.13 162.599C103.789 161.501 103.062 160.562 102.084 159.953C101.087 159.379 99.9053 159.211 98.7884 159.487C98.3306 159.625 97.8838 159.796 97.4517 160C97.5371 159.899 97.6415 159.815 97.7591 159.753C98.0618 159.555 98.3931 159.403 98.7416 159.303C99.3203 159.131 99.9284 159.081 100.528 159.154C101.128 159.227 101.706 159.422 102.227 159.727C103.263 160.365 104.011 161.378 104.314 162.553C104.41 162.9 104.456 163.259 104.45 163.619C104.459 163.752 104.441 163.885 104.396 164.009Z" fill="#263238"/>
<path d="M152.669 112.442C152.734 112.561 152.792 112.685 152.842 112.812C152.946 113.062 153.122 113.422 153.289 113.904C153.793 115.266 154.167 116.673 154.407 118.105C155.063 121.78 154.859 125.556 153.812 129.138C152.764 132.719 150.901 136.01 148.368 138.755C146.916 140.348 145.261 141.745 143.444 142.908C142.226 143.699 140.935 144.372 139.589 144.918C139.109 145.124 138.734 145.234 138.481 145.327C138.354 145.38 138.222 145.42 138.087 145.447C138.208 145.383 138.332 145.327 138.46 145.28C138.708 145.167 139.085 145.04 139.546 144.822C140.869 144.243 142.138 143.55 143.341 142.752C145.126 141.574 146.755 140.175 148.188 138.59C151.751 134.697 153.936 129.747 154.411 124.496C154.749 120.927 154.333 117.327 153.189 113.926C153.036 113.436 152.875 113.073 152.791 112.818C152.737 112.697 152.696 112.571 152.669 112.442Z" fill="#263238"/>
<path d="M150.336 120.755C150.436 120.945 150.513 121.146 150.566 121.354C150.652 121.591 150.721 121.833 150.772 122.08C150.865 122.409 150.941 122.742 150.998 123.079C151.139 123.932 151.202 124.796 151.187 125.66C151.161 126.726 151.031 127.787 150.799 128.827C150.55 129.862 150.2 130.87 149.753 131.836C149.382 132.623 148.939 133.373 148.429 134.079C148.226 134.387 148.028 134.63 147.818 134.866C147.661 135.062 147.493 135.249 147.313 135.425C147.172 135.589 147.013 135.737 146.84 135.866C146.799 135.828 147.458 135.203 148.274 133.972C148.752 133.261 149.172 132.512 149.53 131.734C150.397 129.818 150.877 127.749 150.942 125.647C150.965 124.791 150.919 123.934 150.805 123.085C150.588 121.638 150.287 120.771 150.336 120.755Z" fill="#263238"/>
<g opacity="0.3">
<path d="M96.7258 66.102C93.6071 68.131 90.4501 70.2 88.0445 73.0311C85.6389 75.8621 84.0521 79.6135 84.6613 83.2798L97.086 77.3598C96.2877 75.597 95.8449 73.6955 95.7831 71.7638C95.7213 69.8322 96.0416 67.9083 96.7258 66.102Z" fill="white"/>
</g>
<g opacity="0.3">
<path d="M148.287 68.1485L148.475 68.2539C153.863 69.9105 158.81 72.7587 162.946 76.586C164.528 74.5313 166.514 72.8198 168.781 71.5552C166.005 69.163 162.623 67.5793 159.007 66.9782C155.392 66.3772 151.682 66.7821 148.287 68.1485Z" fill="white"/>
</g>
<path d="M90.1274 71.2779C90.1387 71.3278 89.4727 71.7337 88.5379 72.6036C87.9931 73.1102 87.493 73.6626 87.0429 74.2546C86.5002 74.9864 86.0266 75.7667 85.6281 76.5857C85.2449 77.4117 84.9408 78.2721 84.7198 79.1554C84.5447 79.8793 84.4333 80.6171 84.3869 81.3605C84.3063 82.6329 84.4213 83.4207 84.37 83.4269C84.3049 83.2516 84.2635 83.0685 84.2469 82.8823C84.2115 82.6662 84.192 82.4477 84.1886 82.2288C84.1673 81.9381 84.1628 81.6464 84.1752 81.3553C84.1992 80.5972 84.2947 79.8431 84.4606 79.103C84.6725 78.1989 84.976 77.3188 85.3665 76.4761C85.769 75.6398 86.2585 74.848 86.8269 74.1138C87.2928 73.5153 87.8169 72.9641 88.3915 72.4683C88.6068 72.272 88.8346 72.0897 89.0733 71.9225C89.2436 71.7849 89.4253 71.6618 89.6164 71.5546C89.775 71.4423 89.9466 71.3494 90.1274 71.2779Z" fill="white"/>
<path d="M94.7518 63.4995C94.8026 63.5617 94.376 63.9561 94.0107 64.552C93.6455 65.1479 93.4801 65.7202 93.4048 65.6898C93.4155 65.2384 93.5457 64.7981 93.7822 64.4134C94.0188 64.0288 94.3533 63.7135 94.7518 63.4995Z" fill="white"/>
<path d="M135.022 77.6924L134.896 77.6942L134.528 77.6765C134.204 77.6647 133.729 77.6132 133.12 77.5968C131.391 77.5149 129.659 77.5281 127.931 77.6363C116.409 78.316 105.593 83.375 97.7083 91.7724C96.5294 93.0245 95.4204 94.3404 94.3863 95.7139C94.011 96.1971 93.7475 96.5922 93.5521 96.846L93.3295 97.1426C93.2807 97.2061 93.2512 97.2389 93.2451 97.235C93.2623 97.1976 93.2823 97.1615 93.3049 97.1271L93.5041 96.8199C93.6861 96.5534 93.9362 96.1455 94.2942 95.6557C95.309 94.2467 96.4125 92.9035 97.598 91.6341C105.446 83.1233 116.332 78.0269 127.919 77.4395C129.652 77.3475 131.39 77.3631 133.121 77.4862C133.735 77.5225 134.199 77.5924 134.531 77.6181L134.899 77.662L135.022 77.6924Z" fill="white"/>
<path d="M168.143 71.5081C167.906 71.3405 167.68 71.1576 167.467 70.9606C166.862 70.4561 166.229 69.9872 165.57 69.5563C163.374 68.1311 160.891 67.2045 158.298 66.8421C155.704 66.4798 153.064 66.6906 150.563 67.4596C149.805 67.6876 149.061 67.9623 148.337 68.2821C148.075 68.4122 147.806 68.5267 147.53 68.6251C147.586 68.5743 147.649 68.5319 147.718 68.4992C147.849 68.4279 148.034 68.3131 148.29 68.1877C149.002 67.8293 149.742 67.5256 150.501 67.2791C153.021 66.4498 155.7 66.2094 158.33 66.5767C160.961 66.9439 163.472 67.9089 165.671 69.3972C166.335 69.8424 166.964 70.3375 167.553 70.8782C167.764 71.0624 167.912 71.2289 168.019 71.331C168.126 71.4331 168.152 71.5008 168.143 71.5081Z" fill="white"/>
<path d="M173.289 71.2452C173.244 71.2552 173.123 71.0459 172.825 70.8236C172.423 70.5094 171.941 70.3133 171.434 70.2572C170.911 70.209 170.385 70.2294 169.868 70.3179C169.47 70.3751 169.219 70.405 169.21 70.365C169.399 70.2454 169.61 70.166 169.831 70.1318C170.357 69.9883 170.905 69.9425 171.449 69.9966C172.005 70.0557 172.527 70.2977 172.931 70.6845C173.25 70.9757 173.314 71.2396 173.289 71.2452Z" fill="white"/>
<path d="M89.5952 141.092C89.4299 140.844 89.2833 140.584 89.1568 140.314C89.0209 140.061 88.8614 139.751 88.6912 139.369C88.5209 138.987 88.3178 138.576 88.1311 138.099C87.7255 137.14 87.3105 136 86.9066 134.701C86.0483 131.873 85.5385 128.951 85.3885 126.002C85.3292 124.646 85.3247 123.393 85.3877 122.393C85.4 121.866 85.4564 121.418 85.4908 121.011C85.5251 120.605 85.5679 120.26 85.6082 119.973C85.6349 119.677 85.6846 119.383 85.7567 119.095C85.7618 119.393 85.7466 119.691 85.7111 119.986C85.6858 120.27 85.6541 120.618 85.6466 121.05C85.639 121.482 85.5853 121.919 85.5847 122.427C85.5473 123.448 85.565 124.666 85.6382 126.014C85.7114 127.362 85.8884 128.843 86.1512 130.379C86.4104 131.821 86.7434 133.249 87.1489 134.657C87.5355 135.95 87.9328 137.104 88.3134 138.069C88.4912 138.553 88.6805 138.973 88.8385 139.347C88.9965 139.72 89.1371 140.04 89.2591 140.302C89.3936 140.555 89.506 140.82 89.5952 141.092Z" fill="white"/>
<g opacity="0.3">
<path d="M99.2183 170.079C99.2183 170.079 104.188 169.386 105.482 168.126C106.775 166.866 104.048 164.537 104.048 164.537L99.2183 170.079Z" fill="black"/>
</g>
</g>
<defs>
<clipPath id="clip0_938_1874">
<rect width="250" height="242" fill="white"/>
</clipPath>
</defs>
</svg>
