<svg width="200" height="200" viewBox="0 0 200 200" fill="none" xmlns="http://www.w3.org/2000/svg">
<path d="M191.658 5.57764V41.6738H139.814L137.946 5.82731L191.658 5.57764Z" fill="#E0E0E0"/>
<path d="M137.946 5.82732V41.598H189.79V5.82732H137.946Z" fill="white"/>
<path d="M190.04 41.8432H137.701V5.58215H190.04V41.8432ZM138.192 41.3528H189.545V6.07259H138.192V41.3528Z" fill="#E0E0E0"/>
<path d="M184.177 10.2725H143.564V37.1528H184.177V10.2725Z" fill="white"/>
<path d="M184.177 10.2724H183.976H183.401H181.172L172.803 10.3036L143.569 10.3616L143.684 10.2457C143.684 18.4583 143.684 27.5581 143.684 37.1216L143.56 36.9923L184.172 37.0191L184.07 37.1216C184.092 28.9402 184.11 22.2346 184.123 17.5621C184.123 15.2303 184.145 13.4068 184.15 12.1539C184.15 11.5387 184.15 11.0661 184.15 10.7361C184.15 10.4106 184.15 10.2412 184.15 10.2412C184.15 10.2412 184.15 10.3973 184.15 10.7138C184.15 11.0304 184.15 11.5074 184.15 12.1138C184.15 13.3622 184.15 15.1768 184.177 17.4997C184.177 22.1856 184.208 28.9135 184.23 37.1171V37.2197H184.128L143.515 37.2464H143.386V37.1171C143.386 27.5536 143.386 18.4538 143.386 10.2412V10.1253H143.506L172.901 10.2145L181.243 10.2457H183.45H184.012L184.177 10.2724Z" fill="#E0E0E0"/>
<path d="M137.946 5.72925C138.266 5.88344 138.566 6.07662 138.838 6.3044C139.369 6.68783 140.091 7.23177 140.871 7.85596C141.651 8.48015 142.338 9.06868 142.819 9.51453C143.099 9.73413 143.349 9.98888 143.564 10.2725C142.576 9.57775 141.624 8.83372 140.711 8.04322C139.742 7.32949 138.819 6.55669 137.946 5.72925Z" fill="#E0E0E0"/>
<path d="M189.794 5.82727C188.94 6.66449 188.029 7.44069 187.066 8.15016C186.154 8.92425 185.188 9.63341 184.177 10.2724C185.03 9.434 185.942 8.65772 186.905 7.94952C187.818 7.17543 188.783 6.46627 189.794 5.82727Z" fill="#E0E0E0"/>
<path d="M189.75 41.6024L183.954 36.9165L189.75 41.6024Z" fill="white"/>
<path d="M183.972 36.9165C185.011 37.5919 186.003 38.3366 186.941 39.1458C187.932 39.8948 188.871 40.7111 189.75 41.589C188.711 40.9137 187.719 40.1689 186.781 39.3598C185.789 38.6107 184.851 37.7944 183.972 36.9165Z" fill="#E0E0E0"/>
<path d="M137.946 41.5979C138.791 40.7675 139.694 39.9987 140.648 39.2973C141.548 38.5297 142.503 37.8293 143.506 37.2018C142.662 38.0313 141.759 38.7987 140.804 39.498C139.904 40.2661 138.948 40.9679 137.946 41.5979Z" fill="#E0E0E0"/>
<path d="M151.808 18.6455V27.6473H177.364V18.6455H151.808Z" fill="#E0E0E0"/>
<path d="M154.033 199.028H200L200 65.6071H154.033V199.028Z" fill="#E0E0E0"/>
<path d="M129.359 199.028H179.687L179.687 65.6071H129.359V199.028Z" fill="#F5F5F5"/>
<path d="M160.257 167.894H146.81C146.556 167.894 146.312 167.793 146.132 167.614C145.952 167.434 145.851 167.19 145.851 166.936V166.138H161.215V166.936C161.215 167.19 161.114 167.434 160.935 167.614C160.755 167.793 160.511 167.894 160.257 167.894Z" fill="#E0E0E0"/>
<path d="M131.584 166.138C131.584 166.138 131.584 166.298 131.584 166.619C131.584 166.94 131.584 167.426 131.584 168.05C131.584 169.321 131.584 171.171 131.557 173.557C131.557 178.349 131.526 185.242 131.504 193.682V193.785H131.606L176.455 193.812H176.606V193.682C176.606 183.936 176.606 174.64 176.606 166.178V166.062H176.468L144.108 166.089L134.875 166.111H132.427H131.798H131.593H131.816H132.454H134.924L144.188 166.151L176.468 166.24L176.348 166.12C176.348 174.591 176.348 183.878 176.348 193.624L176.477 193.5H176.45L131.602 193.526L131.7 193.624C131.678 185.211 131.66 178.336 131.647 173.561C131.647 171.171 131.647 169.308 131.624 168.032C131.624 167.399 131.624 166.918 131.624 166.583C131.624 166.249 131.584 166.138 131.584 166.138Z" fill="#E0E0E0"/>
<path d="M146.458 176.477H159.811V172.87H146.458V176.477Z" fill="#E0E0E0"/>
<path d="M160.868 135.793H147.425C147.171 135.793 146.927 135.692 146.747 135.512C146.568 135.332 146.467 135.089 146.467 134.834V134.036H161.826V134.834C161.826 135.089 161.725 135.332 161.545 135.512C161.366 135.692 161.122 135.793 160.868 135.793Z" fill="#E0E0E0"/>
<path d="M131.709 134.032C131.709 134.032 131.709 134.192 131.709 134.513C131.709 134.834 131.709 135.325 131.709 135.945C131.709 137.215 131.709 139.066 131.682 141.451C131.682 146.244 131.651 153.137 131.629 161.581V161.679H131.731L176.58 161.706H176.731V161.581C176.731 151.83 176.731 142.534 176.731 134.076V133.956H176.615L144.255 133.983L135.022 134.01H132.574H131.945H131.74H131.963H132.601H135.071L144.336 134.054L176.615 134.139L176.495 134.023C176.495 142.494 176.495 151.777 176.495 161.527L176.624 161.398H176.597L131.749 161.425L131.847 161.527C131.825 153.11 131.807 146.239 131.794 141.464C131.794 139.074 131.794 137.211 131.794 135.936C131.794 135.307 131.794 134.821 131.794 134.487C131.794 134.152 131.709 134.032 131.709 134.032Z" fill="#E0E0E0"/>
<path d="M147.465 144.157H160.818V140.55H147.465V144.157Z" fill="#E0E0E0"/>
<path d="M160.284 71.0063H146.837C146.582 71.0063 146.339 70.9054 146.159 70.7256C145.979 70.5458 145.878 70.302 145.878 70.0478V69.2497H161.242V70.0478C161.242 70.1736 161.217 70.2983 161.169 70.4146C161.121 70.5309 161.05 70.6366 160.961 70.7256C160.872 70.8146 160.767 70.8852 160.65 70.9334C160.534 70.9816 160.409 71.0063 160.284 71.0063Z" fill="#E0E0E0"/>
<path d="M131.607 69.2452C131.607 69.2452 131.607 69.4057 131.607 69.7267C131.607 70.0478 131.607 70.5382 131.607 71.1579C131.607 72.4286 131.607 74.2789 131.584 76.6642C131.584 81.4571 131.553 88.35 131.531 96.7944V96.8925H131.629L176.481 96.9237H176.633V96.7944C176.633 87.0436 176.633 77.7476 176.633 69.2898V69.1694H176.468L144.113 69.1962L134.875 69.2229H132.427H131.803H131.593C131.667 69.2268 131.742 69.2268 131.816 69.2229H132.454H134.928L144.188 69.2631L176.468 69.3478L176.348 69.2319C176.348 77.703 176.348 86.9857 176.348 96.7364L176.477 96.6071L131.624 96.6339L131.727 96.7364C131.705 88.3187 131.687 81.4482 131.673 76.6731C131.673 74.2833 131.651 72.4197 131.647 71.1446C131.647 70.5159 131.647 70.0299 131.647 69.6955C131.647 69.3612 131.607 69.2452 131.607 69.2452Z" fill="#E0E0E0"/>
<path d="M147.122 78.724H160.475V75.1171H147.122V78.724Z" fill="#E0E0E0"/>
<path d="M160.284 103.388H146.837C146.583 103.388 146.339 103.287 146.159 103.108C145.979 102.928 145.878 102.684 145.878 102.43V101.605H161.242V102.403C161.246 102.531 161.224 102.659 161.177 102.778C161.131 102.898 161.061 103.006 160.971 103.098C160.882 103.19 160.775 103.263 160.657 103.313C160.539 103.363 160.412 103.389 160.284 103.388Z" fill="#E0E0E0"/>
<path d="M131.607 101.614C131.607 101.614 131.607 101.775 131.607 102.096C131.607 102.417 131.607 102.903 131.607 103.527C131.607 104.797 131.607 106.648 131.584 109.033C131.584 113.826 131.553 120.719 131.531 129.159V129.257H131.629L176.481 129.284H176.633V129.154C176.633 119.408 176.633 110.112 176.633 101.65V101.534H176.468L144.113 101.561H134.875H132.427H131.803H131.593H131.816H132.454H134.928L144.188 101.601L176.468 101.69L176.348 101.569C176.348 110.041 176.348 119.328 176.348 129.074L176.477 128.949L131.624 128.976L131.727 129.074C131.705 120.661 131.687 113.786 131.673 109.011C131.673 106.621 131.651 104.757 131.647 103.482C131.647 102.849 131.647 102.367 131.647 102.033C131.647 101.699 131.607 101.614 131.607 101.614Z" fill="#E0E0E0"/>
<path d="M147.122 111.097H160.475V107.49H147.122V111.097Z" fill="#E0E0E0"/>
<path d="M58.5983 4.677H10.4062V47.7908H58.5983V4.677Z" fill="#FAFAFA"/>
<path d="M58.5984 47.7908C58.5984 47.7908 58.5984 47.5144 58.5984 46.9883C58.5984 46.4622 58.5984 45.6864 58.5984 44.6788C58.5984 42.6546 58.5984 39.6986 58.5672 35.9267C58.5672 28.3963 58.536 17.6468 58.5137 4.67702L58.6207 4.78402H10.433L10.5623 4.65472C10.5623 20.3398 10.5623 35.0975 10.5623 47.7686L10.4464 47.6526L45.3031 47.7106L55.1341 47.7418H57.7379H58.4067H58.6385H58.42H57.7602H55.1832L45.3744 47.7686L10.4464 47.8265H10.335V47.715C10.335 35.044 10.335 20.2863 10.335 4.60122V4.47192H10.4687H58.6563H58.7678V4.58339C58.741 17.5666 58.7232 28.3517 58.7098 35.9044C58.7098 39.663 58.6875 42.5922 58.6831 44.6298C58.6831 45.6285 58.6831 46.4132 58.6831 46.9214C58.6831 47.4297 58.5984 47.7908 58.5984 47.7908Z" fill="#E0E0E0"/>
<path d="M28.8911 12.3368C28.8911 12.4081 26.3542 12.4661 23.2243 12.4661C20.0944 12.4661 17.562 12.4081 17.562 12.3368C17.562 12.2654 20.0944 12.2075 23.2243 12.2075C26.3542 12.2075 28.8911 12.2654 28.8911 12.3368Z" fill="#E0E0E0"/>
<path d="M49.3069 15.5647C49.3069 15.6361 42.3382 15.694 33.7422 15.694C25.1462 15.694 18.1909 15.645 18.1909 15.5647C18.1909 15.4845 25.1596 15.4354 33.7556 15.4354C42.3516 15.4354 49.3069 15.5023 49.3069 15.5647Z" fill="#E0E0E0"/>
<path d="M19.6663 21.0576H17.6377V23.0862H19.6663V21.0576Z" fill="#E0E0E0"/>
<path d="M24.6644 21.0576H22.6357V23.0862H24.6644V21.0576Z" fill="#E0E0E0"/>
<path d="M29.7562 20.964H27.7275V22.9926H29.7562V20.964Z" fill="#E0E0E0"/>
<path d="M34.6605 21.0576H32.6318V23.0862H34.6605V21.0576Z" fill="#E0E0E0"/>
<path d="M39.6585 21.0576H37.6299V23.0862H39.6585V21.0576Z" fill="#E0E0E0"/>
<path d="M44.6566 21.0576H42.6279V23.0862H44.6566V21.0576Z" fill="#E0E0E0"/>
<path d="M49.6546 21.0576H47.626V23.0862H49.6546V21.0576Z" fill="#EBEBEB"/>
<path d="M19.6663 25.3734H17.6377V27.402H19.6663V25.3734Z" fill="#EBEBEB"/>
<path d="M24.6644 25.3734H22.6357V27.402H24.6644V25.3734Z" fill="#E0E0E0"/>
<path d="M29.6624 25.3734H27.6338V27.402H29.6624V25.3734Z" fill="#EBEBEB"/>
<path d="M34.6605 25.3734H32.6318V27.402H34.6605V25.3734Z" fill="#E0E0E0"/>
<path d="M39.6585 25.3734H37.6299V27.402H39.6585V25.3734Z" fill="#E0E0E0"/>
<path d="M44.7454 25.2798H42.7168V27.3084H44.7454V25.2798Z" fill="#E0E0E0"/>
<path d="M49.6546 25.3734H47.626V27.402H49.6546V25.3734Z" fill="#E0E0E0"/>
<path d="M19.6663 29.6893H17.6377V31.7179H19.6663V29.6893Z" fill="#E0E0E0"/>
<path d="M24.7581 29.5956H22.7295V31.6243H24.7581V29.5956Z" fill="#E0E0E0"/>
<path d="M29.6624 29.6893H27.6338V31.7179H29.6624V29.6893Z" fill="#E0E0E0"/>
<path d="M34.6605 29.6893H32.6318V31.7179H34.6605V29.6893Z" fill="#EBEBEB"/>
<path d="M39.6585 29.6893H37.6299V31.7179H39.6585V29.6893Z" fill="#E0E0E0"/>
<path d="M44.6566 29.6893H42.6279V31.7179H44.6566V29.6893Z" fill="#E0E0E0"/>
<path d="M49.6546 29.6893H47.626V31.7179H49.6546V29.6893Z" fill="#E0E0E0"/>
<path d="M19.6663 34.0051H17.6377V36.0338H19.6663V34.0051Z" fill="#E0E0E0"/>
<path d="M24.6644 34.0051H22.6357V36.0338H24.6644V34.0051Z" fill="#E0E0E0"/>
<path d="M29.6624 34.0051H27.6338V36.0338H29.6624V34.0051Z" fill="#E0E0E0"/>
<path d="M34.7542 33.916H32.7256V35.9446H34.7542V33.916Z" fill="#E0E0E0"/>
<path d="M39.6585 34.0051H37.6299V36.0338H39.6585V34.0051Z" fill="#E0E0E0"/>
<path d="M44.6566 34.0051H42.6279V36.0338H44.6566V34.0051Z" fill="#EBEBEB"/>
<path d="M49.6546 34.0051H47.626V36.0338H49.6546V34.0051Z" fill="#E0E0E0"/>
<path d="M19.6663 38.3209H17.6377V40.3495H19.6663V38.3209Z" fill="#E0E0E0"/>
<path d="M24.6644 38.3209H22.6357V40.3495H24.6644V38.3209Z" fill="#EBEBEB"/>
<path d="M29.6624 38.3209H27.6338V40.3495H29.6624V38.3209Z" fill="#E0E0E0"/>
<path d="M34.6605 38.3209H32.6318V40.3495H34.6605V38.3209Z" fill="#E0E0E0"/>
<path d="M39.6585 38.3209H37.6299V40.3495H39.6585V38.3209Z" fill="#E0E0E0"/>
<path d="M44.7454 38.2318H42.7168V40.2604H44.7454V38.2318Z" fill="#E0E0E0"/>
<path d="M49.6546 38.3209H47.626V40.3495H49.6546V38.3209Z" fill="#E0E0E0"/>
<path d="M99.1073 68.8711L82.4878 75.1279L86.7056 86.3313L103.325 80.0745L99.1073 68.8711Z" fill="#EBEBEB"/>
<path d="M99.2107 68.9955C99.1863 69.069 99.1533 69.1393 99.1126 69.2051L98.805 69.7847C98.5196 70.2974 98.1228 71.0197 97.6368 71.9025C96.6292 73.6859 95.2471 76.1559 93.7223 78.8801L93.6911 78.938H93.6242L93.4726 78.889L85.7683 76.361L83.4365 75.5763L82.8078 75.3578C82.7321 75.3357 82.6589 75.3059 82.5894 75.2687C82.6663 75.283 82.7423 75.3023 82.8167 75.3266L83.4588 75.5184L85.8039 76.254L93.5395 78.7151L93.6911 78.7641L93.593 78.8043C95.1401 76.089 96.5311 73.6369 97.5521 71.849L98.7604 69.7535L99.0992 69.1873C99.1306 69.1202 99.1679 69.056 99.2107 68.9955Z" fill="#E0E0E0"/>
<path d="M86.8074 86.455C86.7673 86.455 87.436 84.4353 88.3099 81.9742C89.1838 79.5131 89.9194 77.5157 89.9596 77.5469C89.9997 77.5781 89.3309 79.5711 88.4615 82.0054C87.5921 84.4398 86.852 86.455 86.8074 86.455Z" fill="#E0E0E0"/>
<path d="M95.4343 75.3311C95.4566 75.2909 97.2667 76.3521 99.4737 77.6941C101.681 79.0361 103.451 80.1596 103.428 80.1998C103.406 80.2399 101.596 79.1788 99.389 77.8323C97.182 76.4858 95.412 75.3667 95.4343 75.3311Z" fill="#E0E0E0"/>
<path d="M120.629 33.5102C121.054 33.2526 121.511 33.0532 121.989 32.9172L122.27 31.5797L124.544 31.5396L124.874 32.8771C125.356 32.9948 125.819 33.1778 126.252 33.421L127.402 32.6676L129.038 34.2459L128.325 35.4229C128.582 35.8398 128.782 36.2898 128.918 36.7605L130.255 37.0369L130.295 39.3152L128.958 39.6407C128.839 40.1229 128.658 40.5876 128.418 41.0228L129.172 42.1686L127.589 43.8049L126.417 43.096C125.991 43.3505 125.534 43.5483 125.057 43.6845L124.776 45.0221L122.502 45.0622L122.172 43.7247C121.691 43.605 121.228 43.4221 120.794 43.1807L119.644 43.9342L118.008 42.3514L118.721 41.1789C118.463 40.7546 118.263 40.2971 118.128 39.819L116.791 39.5381L116.75 37.2643L118.088 36.9344C118.206 36.4533 118.388 35.99 118.628 35.5567L117.874 34.4064L119.457 32.7701L120.629 33.4835V33.5102ZM121.842 36.5375C121.506 36.8847 121.28 37.3239 121.193 37.7995C121.106 38.2752 121.163 38.7658 121.355 39.2094C121.547 39.653 121.867 40.0296 122.273 40.2916C122.679 40.5535 123.154 40.689 123.638 40.6809C124.121 40.6727 124.591 40.5214 124.989 40.246C125.386 39.9705 125.693 39.5834 125.87 39.1336C126.047 38.6838 126.087 38.1915 125.984 37.7191C125.881 37.2466 125.641 36.8153 125.293 36.4796C125.064 36.2554 124.793 36.0787 124.495 35.9594C124.198 35.8401 123.88 35.7806 123.559 35.7843C123.239 35.788 122.922 35.8549 122.627 35.9811C122.333 36.1073 122.066 36.2903 121.842 36.5197V36.5375Z" fill="#E0E0E0"/>
<path d="M121.842 36.5197C121.969 36.3648 122.12 36.2308 122.288 36.1229C122.582 35.9323 122.913 35.8064 123.259 35.7534C123.605 35.7004 123.958 35.7217 124.296 35.8157C124.633 35.9097 124.947 36.0744 125.215 36.2987C125.484 36.5231 125.702 36.8021 125.855 37.1171C126.076 37.5613 126.158 38.0614 126.091 38.5528C126.02 39.0821 125.782 39.5753 125.414 39.9617C125.042 40.345 124.558 40.5996 124.031 40.6884C123.783 40.7285 123.53 40.7285 123.282 40.6884C123.042 40.6584 122.808 40.5923 122.587 40.4922C122.18 40.3076 121.829 40.0184 121.57 39.654C121.349 39.3352 121.205 38.9686 121.151 38.584C121.067 38.0279 121.18 37.4598 121.472 36.9789C121.574 36.811 121.702 36.6604 121.851 36.5331C121.851 36.5331 121.704 36.6936 121.517 37.028C121.255 37.5049 121.161 38.056 121.249 38.5929C121.307 38.9599 121.451 39.3082 121.668 39.6094C121.917 39.9533 122.253 40.2255 122.64 40.3986C122.849 40.4911 123.07 40.5526 123.296 40.5814C123.532 40.6192 123.773 40.6192 124.009 40.5814C124.506 40.4967 124.964 40.2562 125.315 39.8948C125.664 39.5273 125.889 39.0594 125.958 38.5572C126.014 38.0997 125.938 37.6356 125.739 37.2197C125.554 36.8363 125.271 36.5086 124.919 36.27C124.61 36.0642 124.257 35.9343 123.889 35.891C123.35 35.8213 122.804 35.9344 122.337 36.2121C121.998 36.3859 121.856 36.5509 121.842 36.5197Z" fill="#E0E0E0"/>
<path d="M120.63 33.5102L120.554 33.4701L120.331 33.3408L119.439 32.8147H119.466L117.897 34.4644V34.4198L118.655 35.5656C118.417 35.9973 118.238 36.4593 118.124 36.9388V36.9656H118.097L116.76 37.3L116.795 37.2509C116.795 37.9643 116.827 38.7267 116.84 39.5248L116.8 39.4713L118.137 39.7477H118.169V39.7789C118.305 40.2489 118.503 40.6986 118.757 41.1165V41.1477V41.1789L118.062 42.4139V42.3336L119.702 43.912H119.622L120.768 43.154L120.804 43.1317L120.839 43.154C121.268 43.392 121.727 43.5719 122.204 43.689H122.244V43.7291L122.569 45.0667L122.502 45.0177L124.776 44.9775L124.709 45.031C124.798 44.5852 124.897 44.1393 124.99 43.6935V43.6534H125.03C125.501 43.5214 125.951 43.3249 126.368 43.0693H126.408H126.444L127.616 43.7826H127.532L129.11 42.1464V42.2311C128.856 41.8432 128.602 41.4598 128.356 41.0808L128.334 41.0451V41.0095C128.574 40.5808 128.755 40.1219 128.874 39.6452V39.605H128.914L130.251 39.2796L130.202 39.3464C130.202 38.5706 130.189 37.8127 130.162 37.0726L130.216 37.135L128.878 36.8497H128.842V36.8095C128.71 36.3399 128.515 35.89 128.263 35.472V35.4408V35.4096L128.976 34.2325V34.3039L127.344 32.7211H127.411L126.261 33.4701H126.234H126.207C125.777 33.2308 125.317 33.0494 124.839 32.9306H124.812V32.9039C124.696 32.4179 124.589 31.981 124.486 31.5663L124.531 31.5975L122.253 31.6243H122.284C122.168 32.1593 122.074 32.6007 121.994 32.9618C121.635 33.0597 121.287 33.1942 120.955 33.3631L120.71 33.4879L120.625 33.5325C120.648 33.5115 120.674 33.4935 120.701 33.479L120.942 33.3408C121.273 33.1645 121.621 33.0225 121.981 32.9173C122.052 32.5517 122.141 32.1103 122.248 31.5797V31.553H122.275L124.549 31.5039H124.584V31.5351C124.687 31.9498 124.798 32.3867 124.919 32.8727L124.883 32.8415C125.371 32.9596 125.84 33.1425 126.279 33.3854H126.225L127.376 32.6319L127.411 32.6052L127.442 32.6364L129.079 34.2147L129.114 34.2459L129.088 34.286L128.379 35.4631V35.4006C128.639 35.829 128.84 36.291 128.976 36.7739L128.932 36.7293L130.269 37.0057H130.318V37.0548C130.318 37.7949 130.349 38.5528 130.363 39.3286V39.3821H130.309L128.972 39.712L129.021 39.663C128.901 40.1505 128.716 40.6198 128.472 41.0585V40.9782L129.23 42.1285L129.257 42.1731L129.221 42.2133L127.639 43.8495L127.603 43.8897L127.554 43.8629L126.377 43.1495H126.448C126.02 43.41 125.558 43.6109 125.075 43.747L125.124 43.6935C125.026 44.1393 124.932 44.6164 124.843 45.031V45.089H124.79L122.516 45.1247H122.462V45.0712C122.346 44.6253 122.235 44.1527 122.132 43.7336L122.181 43.7826C121.694 43.661 121.225 43.4767 120.786 43.2343H120.857L119.707 43.9877L119.662 44.0145L119.627 43.9788L117.99 42.3961L117.955 42.3648L117.981 42.3203C118.231 41.9101 118.472 41.5088 118.695 41.1477V41.2101C118.436 40.7797 118.236 40.3163 118.102 39.8324L118.142 39.8725L116.804 39.5917H116.76V39.5471C116.76 38.749 116.733 37.991 116.724 37.2732V37.2331H116.76L118.097 36.9076L118.062 36.9656C118.182 36.4796 118.366 36.0117 118.61 35.5745V35.6191C118.338 35.2045 118.088 34.8166 117.861 34.4644L119.448 32.837L120.34 33.372L120.558 33.5147C120.607 33.4879 120.63 33.5058 120.63 33.5102Z" fill="#E0E0E0"/>
<path d="M10.3883 194.494C9.57237 193.798 7.75776 191.582 9.15773 189.01C9.67046 188.069 10.7628 187.601 11.7481 187.186C12.7335 186.772 13.7723 186.41 14.5882 185.715C16.1308 184.404 16.5544 182.228 17.5754 180.481C18.7525 178.474 20.9416 176.967 23.2556 177.074C25.9307 177.195 28.1153 179.362 29.1185 181.827C30.1217 184.293 30.1573 187.035 30.1752 189.701C30.1752 191.177 30.1217 192.822 29.0382 193.834C28.044 194.752 26.5415 194.761 25.1905 194.726L10.7048 194.28" fill="#F5F5F5"/>
<path d="M38.0891 154.67H0L6.86165 195.582C7.00262 196.434 7.38298 197.229 7.95841 197.874C8.53385 198.519 9.28068 198.987 10.1119 199.224L10.2457 199.264C10.3571 199.291 10.4686 199.331 10.5845 199.349C10.84 199.401 11.0996 199.431 11.3603 199.438V199.478L11.5476 199.447H28.53C28.8428 199.447 29.1548 199.417 29.4619 199.358C30.4553 199.204 31.3706 198.727 32.0673 198.002C32.764 197.278 33.2035 196.344 33.3185 195.345L36.6222 167.154L36.7738 166.031L38.0846 154.884L38.0891 154.67ZM30.9064 180.762H26.9963L27.3886 168.888H31.9185L30.9064 180.762ZM32.2975 168.888H36.0248L34.6293 180.762H31.2854L32.2975 168.888ZM21.1512 193.927L20.9149 183.61H26.5237L26.1804 193.927H21.1512ZM15.043 183.61H20.5136L20.7499 193.927H15.8456L15.043 183.61ZM15.4889 193.927H10.8832C10.4374 191.141 9.88007 187.521 9.26479 183.61H14.6641L15.4889 193.927ZM14.8469 180.762L13.9239 168.888H20.1748L20.4467 180.762H14.8469ZM20.848 180.762L20.576 168.888H27.0097L26.6173 180.762H20.848ZM20.5092 166.048L20.255 155.054H27.4734L27.1078 166.039L20.5092 166.048ZM20.1302 166.048H13.6787L12.8405 155.045H19.8582L20.1302 166.048ZM13.2864 166.039H6.49605C6.25529 164.524 6.02791 163.084 5.81836 161.791C5.10946 157.332 4.84195 155.673 4.69481 155.045H12.4437L13.2864 166.039ZM13.5093 168.888L14.4322 180.762H8.82786C8.63614 179.558 8.44442 178.341 8.25271 177.119L6.95528 168.888H13.5093ZM8.43551 180.762H4.75723L2.76874 168.888H6.56293C7.14254 172.558 7.78902 176.642 8.43551 180.762ZM8.88136 183.61C9.44313 187.177 9.99153 190.7 10.4998 193.927H6.96866L5.23429 183.61H8.88136ZM26.5594 193.927L26.9027 183.61H30.6746L29.7829 193.927H26.5594ZM27.4823 166.039L27.8479 155.045H33.1L32.1637 166.039H27.4823ZM4.33368 155.045C4.48526 155.838 5.18079 160.168 6.11708 166.039H2.29168L0.445851 155.045H4.33368ZM33.1045 193.927H30.1574L31.0491 183.61H34.3216L33.1045 193.927ZM36.377 166.039H32.5427L33.4834 155.045H37.6655L36.377 166.039Z" fill="#E0E0E0"/>
<path d="M193.188 199.028C193.188 199.095 152.366 199.144 102.016 199.144C51.6655 199.144 10.8345 199.095 10.8345 199.028C10.8345 198.961 51.6477 198.912 102.016 198.912C152.383 198.912 193.188 198.966 193.188 199.028Z" fill="#263238"/>
<path d="M154.349 97.5255C154.349 97.5255 159.615 91.4663 161.603 85.4028C163.592 79.3392 162.647 80.0526 162.647 80.0526C162.647 80.0526 159.971 85.9378 157.929 88.7823C155.887 91.6269 152.263 95.8 152.263 95.8L154.349 97.5255Z" fill="#455A64"/>
<path d="M153.284 80.98C153.319 80.9185 153.375 80.8713 153.442 80.8465C153.509 80.8217 153.582 80.8208 153.649 80.8439C153.717 80.8671 153.774 80.9128 153.811 80.9734C153.849 81.034 153.864 81.1057 153.854 81.1762C153.533 83.3074 152.838 88.3098 152.864 91.5423C152.9 95.7511 152.864 97.3784 152.864 97.3784H150.671C150.671 97.3784 151.063 88.6754 151.563 86.0226C151.886 84.2666 152.466 82.5676 153.284 80.98Z" fill="#455A64"/>
<path d="M152.107 96.6739C151.187 94.5926 150.578 92.3873 150.301 90.1288C150.123 88.5773 150.444 86.4818 150.921 83.6907C151.106 82.6607 151.2 81.6163 151.202 80.5698C151.199 80.4543 151.159 80.3429 151.087 80.2526C151.014 80.1624 150.915 80.0984 150.803 80.0705C150.691 80.0426 150.572 80.0524 150.466 80.0983C150.36 80.1442 150.273 80.2237 150.216 80.3245C149.686 81.303 149.276 82.3419 148.995 83.4188C148.464 86.1786 147.862 87.5563 148.321 90.1779C148.781 92.7995 150.479 96.8255 150.479 96.8255L152.107 96.6739Z" fill="#455A64"/>
<path d="M150.131 96.8478C150.131 96.8478 144.335 84.4219 143.947 82.5806C143.559 80.7392 142.186 76.4858 142.026 76.7265C141.865 76.9673 141.624 79.2144 142.668 81.778C143.711 84.3417 148.156 97.2268 148.156 97.2268H150.131" fill="#455A64"/>
<path d="M152.74 96.2949C152.74 96.2949 152.798 96.2592 152.9 96.1834C153.003 96.1076 153.159 95.9962 153.346 95.8401C153.886 95.4086 154.404 94.9503 154.898 94.4669C156.521 92.8637 157.927 91.0545 159.08 89.0855C160.238 87.1178 161.203 85.0423 161.96 82.8881C162.254 82.0633 162.464 81.3901 162.602 80.9175C162.673 80.6856 162.722 80.5028 162.754 80.378C162.775 80.3159 162.79 80.2516 162.798 80.1863C162.798 80.1863 162.771 80.2487 162.731 80.3691L162.557 80.9041C162.406 81.35 162.178 82.041 161.88 82.8614C161.105 85 160.138 87.0639 158.991 89.0275C157.84 90.9907 156.445 92.8003 154.84 94.4134C154.224 95.0287 153.694 95.4968 153.319 95.8134L152.873 96.17C152.825 96.2077 152.781 96.2495 152.74 96.2949Z" fill="#263238"/>
<path d="M152.106 90.334C152.134 90.2139 152.152 90.0916 152.16 89.9684C152.186 89.7098 152.222 89.3754 152.262 88.9697C152.356 88.1315 152.498 86.9723 152.708 85.6971C152.917 84.422 153.154 83.2762 153.319 82.4513L153.528 81.4705C153.56 81.3523 153.581 81.2314 153.591 81.1093C153.547 81.2246 153.51 81.3422 153.479 81.4615C153.417 81.6889 153.332 82.0189 153.23 82.4335C153.033 83.2539 152.784 84.3997 152.588 85.6793C152.391 86.9589 152.253 88.1181 152.182 88.9608C152.146 89.3843 152.124 89.7276 152.115 89.9639C152.099 90.0867 152.096 90.2106 152.106 90.334Z" fill="#263238"/>
<path d="M150.751 80.2488C150.724 80.2988 150.702 80.351 150.684 80.4048L150.51 80.8507C150.434 81.0513 150.345 81.2965 150.26 81.5908C150.176 81.8851 150.064 82.2105 149.979 82.585C149.935 82.7723 149.886 82.9685 149.837 83.1691C149.788 83.3697 149.757 83.5882 149.712 83.8111C149.614 84.257 149.556 84.7296 149.489 85.2289C149.362 86.3223 149.316 87.4236 149.351 88.5238C149.394 89.6249 149.517 90.7215 149.716 91.8052C149.823 92.3001 149.917 92.7727 150.042 93.2052C150.104 93.4237 150.153 93.6511 150.216 93.8339L150.399 94.409C150.51 94.7746 150.644 95.0956 150.751 95.381C150.858 95.6663 150.96 95.9071 151.054 96.0988L151.259 96.5446C151.281 96.5976 151.308 96.6484 151.339 96.6962C151.339 96.6962 151.339 96.6383 151.281 96.5313C151.223 96.4243 151.174 96.2638 151.094 96.0854C151.014 95.9071 150.916 95.6396 150.818 95.3587C150.72 95.0778 150.586 94.7523 150.483 94.3867L150.305 93.8116C150.247 93.6154 150.198 93.4014 150.14 93.1829C150.02 92.7371 149.93 92.2912 149.828 91.7874C149.637 90.7101 149.516 89.6213 149.467 88.5282C149.435 87.4342 149.479 86.3394 149.596 85.2512C149.663 84.7519 149.716 84.2748 149.806 83.8379C149.85 83.615 149.881 83.392 149.926 83.2003C149.971 83.0086 150.02 82.799 150.06 82.6162C150.14 82.2417 150.243 81.9118 150.323 81.6175C150.403 81.3233 150.483 81.0781 150.55 80.873L150.702 80.4048C150.724 80.355 150.741 80.3026 150.751 80.2488Z" fill="#263238"/>
<path d="M142.093 76.9763C142.093 76.9763 142.093 76.9763 142.093 77.0342V77.1947C142.119 77.3374 142.151 77.5469 142.208 77.8145C142.32 78.3495 142.507 79.1163 142.797 80.0437C143.087 80.9711 143.479 82.0679 143.947 83.2717C144.415 84.4755 144.955 85.7863 145.468 87.1818C145.98 88.5773 146.391 89.9327 146.77 91.1677C147.149 92.4027 147.496 93.5084 147.84 94.4269C148.098 95.1501 148.395 95.8586 148.731 96.5491C148.847 96.7943 148.954 96.995 149.026 97.1064L149.106 97.2491C149.114 97.2652 149.125 97.2801 149.137 97.2937C149.131 97.2752 149.124 97.2573 149.115 97.2402L149.048 97.0931C148.985 96.9638 148.887 96.7765 148.776 96.5313C148.442 95.8353 148.144 95.1225 147.884 94.3957C147.55 93.4772 147.206 92.3715 146.836 91.1365C146.466 89.9015 146.065 88.5372 145.543 87.1238C145.022 85.7105 144.482 84.4175 144.014 83.2182C143.546 82.0188 143.122 80.931 142.837 80.0036C142.552 79.0762 142.342 78.3093 142.213 77.7743C142.151 77.5113 142.11 77.3017 142.079 77.1635L142.039 77.003L142.093 76.9763Z" fill="#263238"/>
<path d="M159.922 74.2342C160.002 74.1587 160.105 74.1118 160.214 74.1008C160.324 74.0897 160.434 74.1152 160.528 74.1731C160.621 74.2311 160.693 74.3183 160.732 74.4213C160.771 74.5243 160.774 74.6372 160.742 74.7425C160.541 75.3804 160.298 76.0044 160.016 76.6106C159.218 78.3004 156.895 84.3595 155.789 87.69C154.683 91.0205 153.159 97.2268 153.159 97.2268L150.822 96.8478C150.822 96.8478 152.958 86.6467 155.044 82.9685C156.721 80.0125 158.397 75.7546 159.922 74.2342Z" fill="#455A64"/>
<path d="M155.152 89.7721C155.101 89.8594 155.061 89.9521 155.031 90.0485C154.964 90.2313 154.871 90.4944 154.764 90.8332C154.55 91.4975 154.287 92.4294 154.019 93.4637C153.752 94.4981 153.533 95.4344 153.382 96.1166C153.31 96.442 153.252 96.7095 153.208 96.928C153.18 97.0254 153.164 97.1256 153.159 97.2267C153.201 97.134 153.232 97.0368 153.252 96.9369C153.31 96.7274 153.382 96.4554 153.466 96.1389L154.14 93.4949C154.403 92.4606 154.652 91.5288 154.848 90.86C154.938 90.5434 155.018 90.2759 155.076 90.0664C155.113 89.9716 155.138 89.8728 155.152 89.7721Z" fill="#263238"/>
<path d="M151.986 97.0395V96.9771L152.013 96.7943C152.035 96.6293 152.057 96.393 152.106 96.0854C152.191 95.4701 152.347 94.5873 152.597 93.5128C152.894 92.2504 153.259 91.0047 153.689 89.7811C154.166 88.3989 154.768 86.9053 155.45 85.3582C156.823 82.2685 158.192 79.5309 159.093 77.5023C159.539 76.4947 159.904 75.6699 160.136 75.0947C160.252 74.8049 160.337 74.582 160.399 74.4304C160.426 74.3591 160.444 74.3011 160.462 74.2565C160.479 74.2119 160.484 74.1941 160.462 74.1941L160.435 74.2521C160.413 74.2966 160.39 74.3501 160.359 74.4215C160.288 74.5775 160.194 74.796 160.074 75.0724C159.828 75.6431 159.463 76.4635 158.999 77.4666C158.076 79.4819 156.694 82.215 155.316 85.3092C154.634 86.8563 154.037 88.3543 153.564 89.7454C153.136 90.9723 152.779 92.2227 152.494 93.4905C152.302 94.346 152.153 95.2105 152.048 96.0809C152.008 96.3841 151.995 96.6293 151.977 96.7898V96.9726C151.98 97.0172 151.983 97.0395 151.986 97.0395Z" fill="#263238"/>
<path d="M150.822 96.8478C150.86 96.7194 150.887 96.5882 150.903 96.4554C150.947 96.1835 151.01 95.8223 151.085 95.3854C151.246 94.4937 151.491 93.2319 151.843 91.8765C152.195 90.5212 152.588 89.3129 152.891 88.4479C153.038 88.0288 153.163 87.6855 153.257 87.4225C153.307 87.2996 153.347 87.1729 153.377 87.0435C153.313 87.1597 153.258 87.2804 153.212 87.4047C153.109 87.641 152.967 87.9843 152.806 88.4167C152.387 89.5405 152.026 90.6848 151.723 91.8453C151.371 93.1829 151.139 94.458 150.996 95.3676C150.929 95.8134 150.88 96.1924 150.853 96.451C150.833 96.5823 150.822 96.7149 150.822 96.8478Z" fill="#263238"/>
<path d="M146.034 107.615H155.143V96.5135H146.034V107.615Z" fill="#EF6B01"/>
<g opacity="0.3">
<path d="M146.034 107.615H155.143V96.5134H146.034V107.615Z" fill="black"/>
</g>
<path d="M148.936 107.615H157.02V96.5134H148.936V107.615Z" fill="#EF6B01"/>
<path d="M73.2776 5.08364L56.3647 10.4975L60.0143 21.8987L76.9272 16.4849L73.2776 5.08364Z" fill="#EF6B01"/>
<path d="M73.3781 5.19421C73.3472 5.2658 73.3099 5.33444 73.2667 5.39931C73.182 5.54198 73.0705 5.72923 72.9278 5.96108L71.6571 8.02091L67.3993 14.7934L67.3636 14.8469H67.3012L67.154 14.7889L59.5746 11.882L57.2874 10.9903L56.6676 10.7406C56.5935 10.7144 56.5219 10.6816 56.4536 10.6425C56.5299 10.6576 56.6045 10.68 56.6765 10.7094L57.3096 10.9323L59.6147 11.7839L67.1942 14.6507L67.3458 14.7042L67.2477 14.7399L71.5501 7.9897C72.0985 7.14258 72.5444 6.45151 72.8654 5.96108L73.2265 5.41268C73.2703 5.33541 73.3211 5.26228 73.3781 5.19421Z" fill="#263238"/>
<path d="M60.1006 22.0117C60.0605 22.0117 60.8318 20.0232 61.8216 17.6111C62.8114 15.1991 63.6541 13.2552 63.6942 13.273C63.7343 13.2908 62.9674 15.2615 61.9732 17.6736C60.9789 20.0856 60.1541 22.0295 60.1006 22.0117Z" fill="#263238"/>
<path d="M69.285 11.3291C69.3117 11.2934 71.0684 12.4437 73.1996 13.8972C75.3307 15.3506 77.0517 16.5723 77.025 16.5723C76.9982 16.5723 75.2415 15.4621 73.1104 14.0086C70.9792 12.5551 69.2582 11.3692 69.285 11.3291Z" fill="#263238"/>
<path d="M148.005 29.8007L135.419 24.4817C135.007 24.3013 134.683 23.9665 134.516 23.5495C134.35 23.1325 134.353 22.6667 134.527 22.2524L141.91 4.82854C142.09 4.41642 142.424 4.09168 142.842 3.92475C143.259 3.75781 143.725 3.76216 144.139 3.93683L152.125 7.31639L155.602 16.3048L150.252 28.9357C150.067 29.3467 149.727 29.668 149.306 29.8299C148.886 29.9919 148.418 29.9814 148.005 29.8007Z" fill="#EF6B01"/>
<path d="M152.12 7.27185L150.042 12.1762C149.96 12.3685 149.917 12.5751 149.915 12.7842C149.913 12.9933 149.952 13.2008 150.03 13.3946C150.108 13.5885 150.224 13.7651 150.371 13.914C150.518 14.063 150.692 14.1815 150.885 14.2628L155.598 16.2602L152.12 7.27185Z" fill="#EF6B01"/>
<g opacity="0.2">
<path d="M149.922 12.6354C149.771 13.0083 149.75 13.4214 149.864 13.8075C149.977 14.1936 150.218 14.53 150.546 14.7621C150.59 14.7987 150.637 14.833 150.684 14.8646C151.255 15.2347 155 17.6735 155.04 17.5799L155.598 16.2423L150.885 14.2449C150.885 14.2449 149.717 13.7233 149.922 12.6354Z" fill="black"/>
</g>
<g opacity="0.3">
<path d="M152.12 7.27185L150.042 12.1762C149.96 12.3685 149.917 12.5751 149.915 12.7842C149.913 12.9933 149.952 13.2008 150.03 13.3946C150.108 13.5885 150.224 13.7651 150.371 13.914C150.518 14.063 150.692 14.1815 150.885 14.2628L155.598 16.2602L152.12 7.27185Z" fill="white"/>
</g>
<path d="M149.07 11.552C148.056 11.2567 147.066 10.8825 146.11 10.4329C145.122 10.0599 144.164 9.61279 143.243 9.09534C144.26 9.3878 145.252 9.76205 146.208 10.2144C147.196 10.5846 148.153 11.0318 149.07 11.552Z" fill="#FAFAFA"/>
<path d="M151.656 15.8946C151.63 15.957 149.463 15.1009 146.814 13.9774C144.166 12.8539 142.044 11.8997 142.071 11.8329C142.097 11.766 144.264 12.6309 146.913 13.75C149.561 14.8691 151.683 15.8321 151.656 15.8946Z" fill="#FAFAFA"/>
<path d="M151.541 18.5785C151.514 18.6409 149.151 17.6868 146.266 16.4785C143.382 15.2703 141.063 14.227 141.09 14.1512C141.117 14.0754 143.475 15.0429 146.365 16.2512C149.254 17.4594 151.568 18.5116 151.541 18.5785Z" fill="#FAFAFA"/>
<path d="M150.609 20.7633C150.582 20.8257 148.223 19.8716 145.339 18.6633C142.454 17.455 140.136 16.3984 140.158 16.336C140.18 16.2735 142.548 17.2277 145.432 18.4359C148.317 19.6442 150.64 20.6964 150.609 20.7633Z" fill="#FAFAFA"/>
<path d="M149.69 22.9434C149.663 23.0103 147.3 22.0517 144.416 20.8479C141.531 19.6441 139.213 18.583 139.239 18.5206C139.266 18.4582 141.625 19.4123 144.514 20.6206C147.403 21.8288 149.717 22.881 149.69 22.9434Z" fill="#FAFAFA"/>
<path d="M148.763 25.1281C148.736 25.195 146.373 24.2364 143.489 23.0326C140.604 21.8288 138.285 20.7677 138.312 20.7053C138.339 20.6429 140.702 21.597 143.587 22.8008C146.471 24.0046 148.79 25.0657 148.763 25.1281Z" fill="#FAFAFA"/>
<path d="M105.676 33.4969C114.872 33.4969 122.328 26.0413 122.328 16.8443C122.328 7.64737 114.872 0.191772 105.676 0.191772C96.4786 0.191772 89.0229 7.64737 89.0229 16.8443C89.0229 26.0413 96.4786 33.4969 105.676 33.4969Z" fill="white"/>
<path d="M122.327 16.8442C122.327 16.8442 122.327 16.755 122.3 16.5767C122.274 16.3983 122.269 16.1308 122.247 15.7831C122.247 15.6092 122.225 15.4175 122.211 15.2035C122.198 14.9895 122.144 14.7576 122.109 14.5079C122.034 13.9282 121.918 13.3545 121.761 12.7914C121.372 11.234 120.75 9.74431 119.915 8.37302C118.706 6.35855 117.084 4.62295 115.156 3.28045C113.228 1.93794 111.038 1.01897 108.729 0.584C108.038 0.455607 107.339 0.375161 106.638 0.34324C106.281 0.34324 105.92 0.294196 105.559 0.298654L104.462 0.356615C104.279 0.356615 104.092 0.356616 103.909 0.392284L103.356 0.476995C102.991 0.539415 102.616 0.584 102.246 0.659794C100.728 1.00073 99.261 1.53727 97.8812 2.25594C97.5335 2.4432 97.1991 2.66613 96.8513 2.87122C96.6819 2.97822 96.5035 3.07185 96.3386 3.19223L95.8526 3.55783C94.5027 4.53817 93.322 5.73243 92.3571 7.09343L91.9781 7.6017L91.6438 8.14564L91.3094 8.67174C91.1915 8.85096 91.0872 9.03874 90.9973 9.23352C90.8145 9.62141 90.6272 10.0093 90.4355 10.4016L89.9896 11.6233C89.4455 13.3112 89.157 15.0709 89.1336 16.8442C89.157 18.616 89.4456 20.3743 89.9896 22.0607C90.1368 22.4708 90.2884 22.881 90.4355 23.2868C90.5826 23.6925 90.81 24.067 90.9973 24.4504C91.0861 24.6472 91.1905 24.8365 91.3094 25.0167L91.6438 25.5651L91.9737 26.109L92.3571 26.6173C92.8516 27.293 93.3924 27.9335 93.9756 28.5344C94.5653 29.1074 95.1923 29.6406 95.8526 30.1306L96.3386 30.4962C96.5035 30.6165 96.6819 30.7102 96.8513 30.8172C97.1991 31.0223 97.5335 31.263 97.8812 31.4325C99.261 32.1511 100.728 32.6877 102.246 33.0286C102.616 33.1089 102.991 33.149 103.361 33.2114L103.909 33.2961C104.096 33.2961 104.279 33.2961 104.462 33.3318L105.577 33.3987C105.938 33.3987 106.299 33.3675 106.656 33.3585C107.357 33.3251 108.056 33.2432 108.747 33.1133C111.056 32.68 113.247 31.7616 115.175 30.419C117.104 29.0763 118.725 27.3399 119.933 25.3243C120.761 23.9547 121.377 22.4682 121.761 20.9148C121.918 20.3517 122.034 19.7781 122.109 19.1983C122.144 18.9486 122.189 18.7168 122.211 18.5028C122.234 18.2888 122.238 18.097 122.247 17.9232C122.271 17.5784 122.289 17.3153 122.3 17.134C122.3 16.9557 122.327 16.862 122.327 16.862C122.327 16.862 122.327 16.9557 122.327 17.134C122.327 17.3123 122.327 17.5799 122.3 17.9232C122.3 18.1015 122.3 18.2932 122.274 18.5117C122.247 18.7302 122.216 18.9575 122.18 19.2072C122.111 19.7836 122.001 20.3543 121.85 20.9148C121.472 22.485 120.857 23.9884 120.027 25.3733C118.819 27.4167 117.19 29.1795 115.248 30.5448C113.306 31.91 111.096 32.8464 108.764 33.2917C108.066 33.4228 107.36 33.5062 106.651 33.5413C106.29 33.5413 105.924 33.5904 105.559 33.5859L104.449 33.5324C104.261 33.5324 104.074 33.5324 103.887 33.4967L103.347 33.3987C102.973 33.3362 102.594 33.2961 102.219 33.2159C101.462 33.0501 100.717 32.8326 99.9901 32.5649C99.2395 32.2971 98.5081 31.9783 97.801 31.6108C97.4487 31.4191 97.1054 31.1962 96.7577 30.9866C96.5838 30.8751 96.401 30.7815 96.236 30.6611L95.7456 30.2911C95.0765 29.7952 94.4405 29.2561 93.8418 28.6771C93.2498 28.0674 92.7001 27.4179 92.1966 26.7332L91.8087 26.2205L91.4699 25.6676L91.1355 25.1103C91.0144 24.9291 90.9085 24.7382 90.8189 24.5396C90.6317 24.1472 90.44 23.7549 90.2527 23.3581L89.8068 22.1142C89.2572 20.4044 88.9657 18.6222 88.9419 16.8264C88.9556 15.0365 89.2366 13.2588 89.7756 11.5519L90.2215 10.3125L90.7922 9.12651C90.8812 8.92846 90.9856 8.73765 91.1043 8.55582L91.4431 8.00297L91.7775 7.45011L92.1654 6.93292C92.6701 6.25057 93.2197 5.60265 93.8106 4.99347C94.4093 4.41452 95.0452 3.87537 95.7144 3.37949L96.2048 3.00943C96.3698 2.88905 96.5526 2.79542 96.7265 2.68396C97.0742 2.47887 97.4175 2.23811 97.7698 2.06423C99.1685 1.33937 100.655 0.798382 102.193 0.454703C102.567 0.378908 102.946 0.334323 103.321 0.271904L103.878 0.187191C104.065 0.187191 104.252 0.187192 104.44 0.151524L105.55 0.0980225C105.915 0.0980225 106.277 0.129231 106.638 0.142607C107.348 0.179695 108.056 0.263098 108.756 0.392284C111.087 0.837552 113.297 1.77392 115.239 3.13916C117.181 4.50441 118.81 6.26727 120.018 8.3106C120.849 9.6955 121.463 11.1989 121.841 12.7691C121.992 13.337 122.101 13.9152 122.167 14.499C122.202 14.7532 122.243 14.985 122.26 15.199L122.287 15.7831C122.287 16.1264 122.309 16.3894 122.314 16.5767C122.318 16.7639 122.327 16.8442 122.327 16.8442Z" fill="#263238"/>
<path d="M113.571 16.3762C113.353 16.4563 113.13 16.5204 112.902 16.5679L111.043 17.0137C109.469 17.3793 107.285 17.8742 104.841 18.4092L104.703 18.4405V17.794C104.703 15.1857 104.703 12.8227 104.734 11.1062C104.734 10.2858 104.766 9.60368 104.774 9.08203C104.768 8.8345 104.783 8.58686 104.819 8.34192C104.853 8.58714 104.867 8.83456 104.864 9.08203C104.864 9.60368 104.886 10.2858 104.899 11.1062C104.899 12.8183 104.935 15.1813 104.935 17.794V18.2799L104.792 18.164C107.236 17.6335 109.425 17.1653 111.007 16.8265L112.88 16.4564C113.107 16.4083 113.339 16.3815 113.571 16.3762Z" fill="#263238"/>
<path d="M123.518 23.7104C123.534 23.6174 123.56 23.5263 123.594 23.4384C123.643 23.2645 123.746 22.9926 123.835 22.6805C124.122 21.7451 124.339 20.7899 124.486 19.8226C124.995 16.6263 124.69 13.3532 123.599 10.306C122.508 7.25886 120.666 4.53613 118.244 2.38976C117.518 1.74053 116.746 1.14452 115.934 0.606358C115.649 0.405725 115.413 0.27197 115.266 0.160507C115.184 0.113437 115.106 0.0597539 115.034 0C115.124 0.0269752 115.21 0.0675686 115.288 0.12038C115.444 0.20955 115.689 0.329929 115.983 0.521645C116.821 1.03717 117.615 1.62179 118.355 2.26938C120.829 4.41007 122.708 7.15436 123.808 10.2356C124.908 13.3168 125.192 16.6302 124.633 19.8538C124.475 20.8197 124.238 21.7711 123.924 22.6983C123.817 23.0282 123.701 23.2779 123.639 23.4473C123.609 23.5393 123.568 23.6276 123.518 23.7104Z" fill="#263238"/>
<path d="M126.71 15.5156C126.674 15.5156 126.652 14.8513 126.518 13.7902C126.34 12.4104 126.026 11.0514 125.582 9.7329C125.134 8.41992 124.556 7.15488 123.857 5.95654C123.313 5.03363 122.92 4.49861 122.965 4.47632C123.085 4.57676 123.19 4.69386 123.277 4.82408C123.46 5.06484 123.723 5.41706 124.008 5.86737C124.767 7.05301 125.381 8.32534 125.836 9.65711C126.295 10.9887 126.595 12.3701 126.728 13.7723C126.777 14.3073 126.79 14.7443 126.79 15.0475C126.788 15.2067 126.761 15.3647 126.71 15.5156Z" fill="#263238"/>
<path d="M89.0496 7.20044C89.023 7.2894 88.9855 7.37475 88.9381 7.45457C88.8578 7.61954 88.7196 7.85138 88.577 8.16794C86.898 11.5035 86.2206 15.2538 86.6264 18.9659C87.0323 22.6781 88.5041 26.1933 90.8642 29.0873C91.4785 29.847 92.146 30.5622 92.8616 31.2274C93.1113 31.4681 93.3074 31.6376 93.4546 31.7624C93.5262 31.8227 93.5933 31.8883 93.6552 31.9586C93.5715 31.9149 93.4937 31.861 93.4234 31.7981C93.2807 31.6866 93.0622 31.5261 92.8036 31.2942C92.0589 30.6506 91.3685 29.9468 90.7393 29.1898C88.6352 26.6837 87.216 23.6754 86.6199 20.4579C86.0237 17.2403 86.2709 13.9233 87.3375 10.8297C87.652 9.89779 88.0442 8.99399 88.5101 8.12781C88.6661 7.81571 88.8177 7.58833 88.9069 7.43228C88.9479 7.35118 88.9957 7.27363 89.0496 7.20044Z" fill="#263238"/>
<path d="M84.5956 14.7844C84.6357 14.7844 84.551 15.4487 84.5154 16.5188C84.468 17.9084 84.5622 19.2991 84.7962 20.6697C85.035 22.0416 85.4115 23.3859 85.9198 24.6823C86.3077 25.6766 86.6109 26.2696 86.5752 26.2874C86.4749 26.1667 86.3909 26.0333 86.3255 25.8906C86.1784 25.6275 85.9822 25.2396 85.7682 24.7447C85.2084 23.46 84.8043 22.1128 84.5644 20.7321C84.3277 19.3454 84.2558 17.9357 84.3504 16.5322C84.3905 15.9927 84.444 15.5602 84.4931 15.2615C84.5056 15.0986 84.5401 14.9381 84.5956 14.7844Z" fill="#263238"/>
<path d="M119.461 19.5773C118.832 19.448 118.324 19.3366 118.324 19.3321C118.324 19.3277 118.837 19.4257 119.466 19.555C120.094 19.6843 120.603 19.7913 120.598 19.7958C120.594 19.8003 120.085 19.7245 119.461 19.5773Z" fill="#263238"/>
<path d="M117.847 23.7907C117.294 23.4652 116.848 23.1977 116.848 23.1932C116.848 23.1888 117.294 23.4474 117.856 23.7728C118.418 24.0983 118.854 24.3658 118.85 24.3703C118.846 24.3747 118.395 24.1161 117.847 23.7907Z" fill="#263238"/>
<path d="M114.94 27.2326C114.521 26.7421 114.187 26.3409 114.191 26.3409C114.196 26.3409 114.539 26.7288 114.954 27.2326C115.368 27.7364 115.707 28.1243 115.698 28.1243C115.69 28.1243 115.386 27.7186 114.94 27.2326Z" fill="#263238"/>
<path d="M111.101 29.551C110.865 28.9536 110.678 28.4676 110.682 28.4676C110.687 28.4676 110.883 28.9446 111.128 29.5421C111.373 30.1395 111.552 30.6211 111.543 30.6255C111.534 30.63 111.338 30.144 111.101 29.551Z" fill="#263238"/>
<path d="M106.705 30.4918C106.679 29.8498 106.661 29.3326 106.665 29.3326C106.67 29.3326 106.701 29.8498 106.728 30.4918C106.754 31.1338 106.777 31.651 106.772 31.651C106.768 31.651 106.737 31.1338 106.705 30.4918Z" fill="#263238"/>
<path d="M102.242 29.9523C102.42 29.337 102.567 28.8421 102.576 28.8421C102.585 28.8421 102.442 29.3459 102.264 29.9612C102.086 30.5765 101.934 31.0714 101.925 31.0714C101.916 31.0714 102.059 30.5675 102.242 29.9523Z" fill="#263238"/>
<path d="M98.1888 27.9995C98.5589 27.4734 98.8621 27.0543 98.871 27.0588C98.8799 27.0632 98.5767 27.5046 98.2067 28.0129C97.8366 28.5211 97.5513 28.9402 97.5513 28.9402C97.5513 28.9402 97.8188 28.5211 98.1888 27.9995Z" fill="#263238"/>
<path d="M95.0013 24.8339C95.5185 24.455 95.942 24.1562 95.9465 24.1607C95.9509 24.1652 95.5318 24.4728 95.0102 24.8518C94.4885 25.2307 94.0694 25.525 94.065 25.5205C94.0605 25.5161 94.4796 25.2084 95.0013 24.8339Z" fill="#263238"/>
<path d="M93.0041 20.8034C93.6194 20.6162 94.1188 20.469 94.1188 20.4735C94.1188 20.4779 93.6239 20.6385 93.0086 20.8257C92.3933 21.013 91.8984 21.1556 91.8984 21.1512C91.8984 21.1467 92.3933 20.9907 93.0041 20.8034Z" fill="#263238"/>
<path d="M92.4288 16.3449C93.0708 16.3449 93.588 16.3895 93.588 16.3984C93.588 16.4073 93.0663 16.3984 92.4288 16.3672C91.7912 16.336 91.2651 16.3182 91.2696 16.3137C91.274 16.3093 91.7867 16.3182 92.4288 16.3449Z" fill="#263238"/>
<path d="M93.3301 11.9355C93.932 12.1673 94.4135 12.3546 94.4135 12.3813C94.4135 12.4081 93.923 12.203 93.3211 11.9756C92.7192 11.7482 92.2422 11.5565 92.2422 11.552C92.2422 11.5476 92.7326 11.7081 93.3301 11.9355Z" fill="#263238"/>
<path d="M95.6173 8.06102C96.1077 8.47566 96.509 8.8145 96.509 8.81896C96.509 8.82342 96.1033 8.49349 95.6173 8.07885C95.1313 7.66421 94.7256 7.32982 94.7256 7.32536C94.7256 7.3209 95.1224 7.65083 95.6173 8.06102Z" fill="#263238"/>
<path d="M99.0318 5.1451C99.3617 5.69349 99.6292 6.13934 99.6248 6.1438C99.6203 6.14826 99.3439 5.69795 99.0139 5.15401C98.684 4.61008 98.4165 4.15977 98.421 4.15531C98.4254 4.15085 98.7018 4.5967 99.0318 5.1451Z" fill="#263238"/>
<path d="M103.21 3.4865C103.344 4.11515 103.451 4.62342 103.446 4.62342C103.442 4.62342 103.326 4.1196 103.187 3.49095C103.049 2.8623 102.947 2.35849 102.956 2.35403C102.965 2.34957 103.076 2.8623 103.21 3.4865Z" fill="#263238"/>
<path d="M107.7 3.28146C107.624 3.91903 107.557 4.43176 107.553 4.43176C107.548 4.43176 107.602 3.91457 107.682 3.277C107.762 2.63944 107.824 2.12671 107.829 2.12671C107.833 2.12671 107.78 2.63498 107.7 3.28146Z" fill="#263238"/>
<path d="M112.019 4.54321C111.743 5.11836 111.511 5.5865 111.506 5.58204C111.502 5.57758 111.72 5.10944 111.997 4.52983C112.273 3.95023 112.505 3.48654 112.514 3.491C112.523 3.49546 112.296 3.97252 112.019 4.54321Z" fill="#263238"/>
<path d="M115.689 7.1381C115.243 7.58395 114.868 7.95847 114.864 7.95401C114.859 7.94955 115.225 7.57504 115.675 7.12027C116.126 6.6655 116.496 6.2999 116.5 6.30436C116.505 6.30882 116.143 6.68333 115.689 7.1381Z" fill="#263238"/>
<path d="M118.319 10.7807C117.744 11.066 117.276 11.2934 117.276 11.289C117.276 11.2845 117.722 11.0482 118.31 10.7629C118.899 10.4775 119.354 10.2501 119.354 10.2546C119.354 10.259 118.894 10.4953 118.319 10.7807Z" fill="#263238"/>
<path d="M119.63 15.0831L118.475 15.2214C118.475 15.2214 118.988 15.1411 119.625 15.0609C120.263 14.9806 120.776 14.9137 120.776 14.9182C120.776 14.9226 120.263 14.9984 119.63 15.0831Z" fill="#263238"/>
<path d="M127.869 13.5449C127.622 14.2977 127.303 15.0249 126.915 15.7162L126.889 15.7653L126.799 15.9481L126.688 15.7786C126.239 15.1525 125.854 14.4834 125.538 13.7812C126.052 14.3566 126.509 14.9808 126.902 15.6449H126.701L126.728 15.5914C127.041 14.8739 127.424 14.1885 127.869 13.5449Z" fill="#263238"/>
<path d="M135.45 51.1971H83.049C81.8181 51.1971 80.6375 51.6861 79.7671 52.5565C78.8967 53.4269 78.4077 54.6074 78.4077 55.8384C78.4077 57.0693 78.8967 58.2499 79.7671 59.1203C80.6375 59.9907 81.8181 60.4797 83.049 60.4797H107.571L113.059 65.7095V60.4797H135.45C136.059 60.4797 136.663 60.3597 137.226 60.1264C137.789 59.8932 138.301 59.5513 138.732 59.1203C139.163 58.6893 139.505 58.1777 139.738 57.6146C139.971 57.0514 140.091 56.4479 140.091 55.8384C140.091 55.2289 139.971 54.6254 139.738 54.0622C139.505 53.4991 139.163 52.9875 138.732 52.5565C138.301 52.1255 137.789 51.7836 137.226 51.5504C136.663 51.3171 136.059 51.1971 135.45 51.1971Z" fill="#FAFAFA"/>
<path d="M135.45 51.1971H135.619C135.789 51.1989 135.959 51.2123 136.128 51.2373C136.79 51.326 137.424 51.5589 137.987 51.9194C138.525 52.2619 138.987 52.7109 139.345 53.2388C139.703 53.7666 139.949 54.3621 140.068 54.9886C140.187 55.6152 140.176 56.2594 140.037 56.8817C139.898 57.504 139.632 58.0912 139.257 58.6072C138.751 59.3125 138.06 59.8647 137.26 60.2033C136.831 60.3768 136.382 60.4922 135.922 60.5466C135.445 60.5823 134.973 60.5689 134.482 60.5734H128.169H113.05L113.153 60.4708C113.153 62.1116 113.153 63.8861 113.153 65.7007V65.9459L112.975 65.7765L107.482 60.5466L107.557 60.5778H86.7183H83.0802C81.8657 60.5905 80.6924 60.1377 79.8012 59.3125C78.9101 58.4872 78.3687 57.3521 78.2883 56.1401C78.2078 54.9282 78.5944 53.7315 79.3686 52.7957C80.1429 51.8599 81.246 51.2559 82.4515 51.108C83.0311 51.0455 83.5885 51.0768 84.1502 51.0678H92.3093L114.762 51.0946L129.921 51.1303L134.037 51.1526H135.107C135.347 51.1526 135.472 51.1526 135.472 51.1526H135.107H134.037L129.921 51.1748L114.762 51.215H92.3093H84.1502C83.5929 51.215 83.0222 51.215 82.4827 51.2551C81.3659 51.3939 80.3416 51.9458 79.6115 52.8022C79.0491 53.4621 78.6879 54.2695 78.5708 55.1286C78.4537 55.9877 78.5856 56.8623 78.9508 57.6486C79.3161 58.435 79.8993 59.1 80.6313 59.5647C81.3632 60.0294 82.2132 60.2742 83.0802 60.2702H86.7183H107.557H107.602L107.633 60.297L113.122 65.5313L112.943 65.607C112.943 63.7924 112.943 62.0179 112.943 60.3772V60.2791H113.041H128.16H134.473C134.959 60.2791 135.441 60.2791 135.9 60.2791C136.348 60.2294 136.788 60.1199 137.207 59.9537C138.131 59.5646 138.903 58.8846 139.405 58.0168C139.908 57.149 140.114 56.1409 139.991 55.1457C139.868 54.1504 139.424 53.2223 138.726 52.5024C138.028 51.7825 137.114 51.3101 136.123 51.157C135.682 51.2016 135.45 51.2328 135.45 51.1971Z" fill="#263238"/>
<path d="M105.966 59.1199H83.0178C82.5867 59.1205 82.1597 59.036 81.7613 58.8713C81.363 58.7066 81.001 58.4649 80.6961 58.1601C80.3913 57.8552 80.1496 57.4933 79.9849 57.0949C79.8202 56.6965 79.7357 56.2695 79.7363 55.8384C79.7387 54.9701 80.0856 54.1382 80.7009 53.5254C81.3161 52.9126 82.1495 52.5691 83.0178 52.5703H105.966C106.396 52.5697 106.823 52.6541 107.221 52.8185C107.619 52.9829 107.981 53.2242 108.286 53.5286C108.591 53.8329 108.832 54.1944 108.997 54.5922C109.162 54.9901 109.247 55.4166 109.247 55.8473C109.247 56.2777 109.161 56.7037 108.996 57.101C108.831 57.4984 108.589 57.8593 108.284 58.1632C107.98 58.4671 107.618 58.708 107.22 58.8721C106.822 59.0363 106.396 59.1205 105.966 59.1199Z" fill="#EF6B01"/>
<path d="M107.887 46.4131L107.112 48.785H106.523L106.001 47.18L105.462 48.785H104.878L104.098 46.4131H104.686L105.221 48.0806L105.779 46.4131H106.287L106.831 48.0939L107.379 46.4131H107.887Z" fill="#263238"/>
<path d="M108.017 47.5991C108.003 47.3399 108.067 47.0824 108.2 46.8599C108.334 46.6374 108.531 46.46 108.767 46.3508C109.002 46.2416 109.265 46.2055 109.521 46.2472C109.777 46.2889 110.015 46.4065 110.204 46.5848C110.392 46.7631 110.523 46.9938 110.579 47.2473C110.635 47.5007 110.614 47.7651 110.518 48.0064C110.423 48.2476 110.257 48.4546 110.042 48.6006C109.828 48.7466 109.574 48.8248 109.315 48.8252C109.148 48.8349 108.98 48.8104 108.823 48.7532C108.666 48.6959 108.523 48.6072 108.401 48.4923C108.28 48.3775 108.183 48.239 108.117 48.0854C108.051 47.9318 108.017 47.7663 108.017 47.5991ZM110.055 47.5991C110.051 47.4535 110.005 47.3122 109.921 47.1929C109.838 47.0736 109.721 46.9815 109.586 46.9282C109.45 46.8749 109.302 46.8628 109.16 46.8933C109.017 46.9238 108.887 46.9957 108.785 47.0999C108.683 47.2041 108.615 47.3359 108.588 47.479C108.56 47.622 108.576 47.7699 108.633 47.9041C108.689 48.0383 108.784 48.1529 108.905 48.2335C109.027 48.314 109.169 48.357 109.315 48.3571C109.412 48.3572 109.509 48.3374 109.599 48.2989C109.689 48.2604 109.771 48.204 109.838 48.1331C109.906 48.0622 109.958 47.9783 109.992 47.8865C110.027 47.7947 110.042 47.6969 110.037 47.5991H110.055Z" fill="#263238"/>
<path d="M112.538 48.785L112.092 48.1252H111.588V48.785H111.04V46.4131H112.065C112.699 46.4131 113.095 46.743 113.095 47.2736C113.102 47.4341 113.059 47.5927 112.971 47.7271C112.883 47.8615 112.755 47.9649 112.605 48.0226L113.14 48.785H112.538ZM112.021 46.8589H111.575V47.6882H112.021C112.355 47.6882 112.525 47.5322 112.525 47.2736C112.525 47.015 112.355 46.8589 112.021 46.8589Z" fill="#263238"/>
<path d="M114.38 47.8532L114.059 48.1831V48.785H113.515V46.4131H114.05V47.5188L115.102 46.4131H115.713L114.727 47.4698L115.771 48.785H115.129L114.38 47.8532Z" fill="#263238"/>
<path d="M129.44 56.7078H128.762L128.597 57.5639H128.115L128.289 56.7078H126.363L126.426 56.3645L128.628 54.0952H129.208L127.099 56.2843H128.405L128.557 55.5308H129.003L128.851 56.2843H129.511L129.44 56.7078Z" fill="#263238"/>
<path d="M130.867 54.5276L130.581 55.4772H130.916C131.807 55.4772 132.204 55.8428 132.204 56.4046C132.204 57.1224 131.616 57.5995 130.728 57.5995C130.506 57.6124 130.284 57.5795 130.076 57.5028C129.867 57.4261 129.676 57.3073 129.516 57.1536L129.779 56.7702C129.907 56.8989 130.061 56.9992 130.231 57.0644C130.401 57.1297 130.582 57.1586 130.764 57.1492C131.361 57.1492 131.709 56.8861 131.709 56.4447C131.709 56.1014 131.464 55.8963 130.818 55.8963H129.979L130.519 54.0817H132.472L132.391 54.5276H130.867Z" fill="#263238"/>
<path d="M132.775 55.2008C132.761 55.0636 132.774 54.9248 132.814 54.7928C132.854 54.6608 132.921 54.5383 133.009 54.4325C133.098 54.3268 133.207 54.24 133.33 54.1774C133.453 54.1149 133.587 54.0778 133.725 54.0684C133.822 54.0644 133.92 54.0817 134.01 54.119C134.1 54.1563 134.181 54.2127 134.247 54.2844C134.313 54.3561 134.363 54.4412 134.393 54.534C134.423 54.6268 134.432 54.725 134.421 54.8218C134.436 54.9588 134.423 55.0975 134.384 55.2295C134.344 55.3615 134.278 55.4841 134.19 55.5899C134.101 55.6957 133.993 55.7826 133.87 55.8452C133.747 55.9078 133.613 55.9449 133.475 55.9543C133.378 55.9581 133.28 55.9408 133.19 55.9036C133.1 55.8663 133.019 55.81 132.952 55.7384C132.886 55.6668 132.836 55.5817 132.805 55.489C132.774 55.3962 132.764 55.2979 132.775 55.2008ZM135.852 54.0951H136.249L133.221 57.5638H132.816L135.852 54.0951ZM134.113 54.8486C134.113 54.5187 133.961 54.3492 133.712 54.3492C133.31 54.3492 133.114 54.7951 133.114 55.1741C133.114 55.553 133.266 55.6734 133.515 55.6734C133.912 55.6913 134.113 55.2454 134.113 54.8486ZM134.661 56.8371C134.646 56.7 134.659 56.5612 134.699 56.4292C134.739 56.2972 134.805 56.1747 134.894 56.0691C134.983 55.9636 135.092 55.8773 135.215 55.8154C135.339 55.7535 135.473 55.7173 135.611 55.7091C135.708 55.705 135.805 55.7223 135.895 55.7596C135.985 55.797 136.066 55.8535 136.132 55.9253C136.197 55.997 136.247 56.0823 136.276 56.1751C136.306 56.2679 136.314 56.366 136.302 56.4626C136.317 56.5993 136.305 56.7378 136.265 56.8695C136.225 57.0012 136.159 57.1235 136.071 57.229C135.983 57.3345 135.874 57.4209 135.751 57.4831C135.628 57.5452 135.494 57.5818 135.357 57.5906C135.259 57.596 135.161 57.5797 135.07 57.543C134.979 57.5062 134.897 57.4499 134.83 57.378C134.763 57.3061 134.713 57.2203 134.683 57.1269C134.653 57.0334 134.644 56.9344 134.657 56.8371H134.661ZM135.999 56.4849C135.999 56.1594 135.843 55.9855 135.598 55.9855C135.201 55.9855 134.996 56.4314 134.996 56.8148C134.996 57.1982 135.156 57.3142 135.397 57.3142C135.776 57.3142 135.977 56.8638 135.977 56.4849H135.999Z" fill="#263238"/>
<g opacity="0.3">
<path d="M83.9045 52.5613L81.7778 59.1198H83.9045L85.902 52.5613H83.9045Z" fill="white"/>
</g>
<g opacity="0.3">
<path d="M89.1565 52.5614L87.0298 59.1199H89.1565L91.1539 52.5614H89.1565Z" fill="white"/>
</g>
<g opacity="0.3">
<path d="M94.4045 52.5613L92.2822 59.1198H94.4045L96.4064 52.5613H94.4045Z" fill="white"/>
</g>
<g opacity="0.3">
<path d="M99.6564 52.5614L97.5342 59.1199H99.6564L101.658 52.5614H99.6564Z" fill="white"/>
</g>
<g opacity="0.3">
<path d="M104.909 52.5614L102.782 59.1199H104.909L106.911 52.5614H104.909Z" fill="white"/>
</g>
<path d="M25.3247 145.388C25.3247 145.388 36.6181 150.475 48.3797 150.475C59.2674 150.475 70.7926 144.995 70.7926 144.995L25.3247 145.388Z" fill="#E0E0E0"/>
<path d="M49.6055 145.486H44.9419V194.338H49.6055V145.486Z" fill="#E0E0E0"/>
<path d="M67.9656 191.471H26.5728V194.333H67.9656V191.471Z" fill="#E0E0E0"/>
<path d="M31.6376 195.274C31.6394 195.9 31.4553 196.512 31.1089 197.033C30.7624 197.554 30.2691 197.961 29.6914 198.201C29.1136 198.442 28.4775 198.505 27.8636 198.384C27.2497 198.263 26.6857 197.962 26.2429 197.52C25.8001 197.078 25.4985 196.514 25.3763 195.9C25.2541 195.286 25.3168 194.65 25.5565 194.072C25.7962 193.494 26.202 193 26.7226 192.653C27.2432 192.306 27.8552 192.121 28.481 192.122C29.317 192.123 30.1186 192.455 30.7102 193.046C31.3018 193.637 31.6352 194.438 31.6376 195.274Z" fill="#263238"/>
<path d="M50.0336 195.274C50.0336 195.899 49.8482 196.51 49.5009 197.03C49.1535 197.55 48.6598 197.955 48.0822 198.194C47.5046 198.434 46.869 198.496 46.2558 198.374C45.6426 198.252 45.0794 197.951 44.6373 197.509C44.1952 197.067 43.8941 196.504 43.7722 195.891C43.6502 195.278 43.7128 194.642 43.952 194.064C44.1913 193.487 44.5965 192.993 45.1163 192.646C45.6361 192.298 46.2473 192.113 46.8725 192.113C47.7109 192.113 48.5149 192.446 49.1077 193.039C49.7006 193.632 50.0336 194.436 50.0336 195.274Z" fill="#263238"/>
<path d="M71.3407 195.274C71.3407 195.899 71.1553 196.51 70.808 197.03C70.4606 197.55 69.9669 197.955 69.3893 198.194C68.8117 198.434 68.1761 198.496 67.5629 198.374C66.9498 198.252 66.3865 197.951 65.9444 197.509C65.5023 197.067 65.2013 196.504 65.0793 195.891C64.9573 195.278 65.0199 194.642 65.2592 194.064C65.4984 193.487 65.9036 192.993 66.4234 192.646C66.9433 192.298 67.5544 192.113 68.1796 192.113C69.018 192.113 69.8221 192.446 70.4149 193.039C71.0077 193.632 71.3407 194.436 71.3407 195.274Z" fill="#263238"/>
<path d="M48.3747 163.066H42.0303V165.692H48.3747V163.066Z" fill="#E0E0E0"/>
<path d="M43.185 161.229H40.8755V167.529H43.185V161.229Z" fill="#E0E0E0"/>
<path d="M24.2183 71.033H43.158V139.172H19.0464V76.2004C19.0487 74.8299 19.5945 73.5162 20.5641 72.5476C21.5336 71.5789 22.8477 71.0342 24.2183 71.033Z" fill="#455A64"/>
<path d="M24.3791 138.138C24.3167 138.138 24.2632 123.354 24.2632 105.118C24.2632 86.883 24.3167 72.0941 24.3791 72.0941C24.4415 72.0941 24.495 86.8785 24.495 105.118C24.495 123.358 24.4326 138.138 24.3791 138.138Z" fill="#263238"/>
<path d="M19.0467 139.034H78.7061V146.444H22.5912C21.6452 146.444 20.738 146.069 20.0691 145.4C19.4002 144.731 19.0244 143.823 19.0244 142.877V139.016L19.0467 139.034Z" fill="#455A64"/>
<path d="M52.8155 44.0992L50.2296 68.7503C49.7837 72.9457 50.0022 79.1921 56.6632 79.5845C62.4593 79.4908 64.4924 74.1897 64.8981 70.2795C65.0943 68.4203 65.2548 66.8732 65.2904 66.686C65.2904 66.686 71.626 66.7529 72.7317 60.5867C73.2667 57.6084 73.8642 51.3844 74.3412 45.7488C74.588 42.8283 73.7258 39.922 71.9263 37.6086C70.1268 35.2951 67.522 33.7443 64.6306 33.265L64.0331 33.1624C57.546 32.458 53.3282 37.5808 52.8155 44.0992Z" fill="#FFBE9D"/>
<path d="M65.2904 66.6726C62.4382 66.1906 59.7844 64.9 57.644 62.9542C57.644 62.9542 58.8523 67.7917 65.1076 68.2643L65.2904 66.6726Z" fill="#EB996E"/>
<path d="M63.4849 47.3003C63.3511 47.4118 62.6868 46.7697 61.648 46.6449C60.6092 46.5201 59.7843 46.9614 59.6863 46.8188C59.6372 46.7519 59.7888 46.5334 60.1321 46.3283C60.6161 46.063 61.172 45.9584 61.7193 46.0296C62.2611 46.0976 62.7671 46.3366 63.1639 46.7118C63.4715 47.0016 63.5518 47.2468 63.4849 47.3003Z" fill="#263238"/>
<path d="M63.3819 49.6857C63.3477 49.9037 63.2298 50.0997 63.0533 50.2321C62.8768 50.3645 62.6556 50.4228 62.4367 50.3946C62.3296 50.3851 62.2254 50.3544 62.1302 50.3043C62.035 50.2542 61.9508 50.1857 61.8823 50.1027C61.8138 50.0197 61.7626 49.924 61.7315 49.821C61.7003 49.718 61.69 49.6099 61.7011 49.5029C61.7363 49.2854 61.8545 49.09 62.0307 48.9579C62.207 48.8257 62.4276 48.7669 62.6463 48.794C62.7534 48.8035 62.8576 48.8342 62.9528 48.8843C63.048 48.9344 63.1323 49.0029 63.2007 49.0859C63.2692 49.1689 63.3204 49.2646 63.3516 49.3676C63.3827 49.4706 63.393 49.5787 63.3819 49.6857Z" fill="#263238"/>
<path d="M65.4243 54.7996C65.9505 54.7271 66.4836 54.7197 67.0115 54.7773C67.2568 54.7773 67.4975 54.7773 67.5644 54.6257C67.6253 54.3772 67.6097 54.1161 67.5198 53.8767L67.1141 51.9149C66.5523 49.1194 66.1912 46.8411 66.3071 46.8188C66.423 46.7965 66.9625 49.0481 67.5198 51.8347C67.6536 52.5257 67.7784 53.1722 67.8988 53.8098C68.0023 54.1278 67.9896 54.4722 67.8631 54.7817C67.8155 54.8601 67.7505 54.9266 67.6732 54.976C67.596 55.0255 67.5084 55.0566 67.4173 55.0671C67.2767 55.0854 67.1343 55.0854 66.9937 55.0671C66.4616 55.0425 65.9345 54.9527 65.4243 54.7996Z" fill="#263238"/>
<path d="M63.4047 43.3456C63.2798 43.5685 62.4639 43.3144 61.4607 43.2743C60.4576 43.2342 59.6194 43.3768 59.5213 43.145C59.4812 43.0335 59.655 42.8373 60.0162 42.6635C60.4847 42.4479 60.9997 42.3529 61.5142 42.387C62.0294 42.4141 62.53 42.5672 62.9722 42.8329C63.3066 43.0246 63.4582 43.2386 63.4047 43.3456Z" fill="#263238"/>
<path d="M73.1107 46.1857C72.9859 46.3641 72.1923 46.0787 71.2114 45.9583C70.2305 45.838 69.4013 45.887 69.3121 45.6819C69.2764 45.5838 69.4548 45.4322 69.8114 45.3119C70.2917 45.1715 70.7963 45.135 71.2917 45.2049C71.7916 45.269 72.2728 45.436 72.705 45.6953C73.0305 45.9048 73.1687 46.101 73.1107 46.1857Z" fill="#263238"/>
<path d="M52.557 48.7449C52.4589 48.6781 48.522 46.7832 47.9558 51.0277C47.3896 55.2722 51.7678 54.9646 51.7901 54.8442C51.8124 54.7238 52.557 48.7449 52.557 48.7449Z" fill="#FFBE9D"/>
<path d="M50.7108 53.0652C50.7108 53.0652 50.6261 53.1053 50.4968 53.1455C50.3099 53.1971 50.1103 53.1748 49.9395 53.0831C49.4936 52.8601 49.2306 52.0977 49.3153 51.3309C49.352 50.9643 49.4709 50.6108 49.6631 50.2965C49.7203 50.1691 49.808 50.0577 49.9184 49.9722C50.0288 49.8867 50.1585 49.8296 50.2962 49.806C50.3834 49.7946 50.4719 49.8143 50.546 49.8616C50.6202 49.9089 50.6754 49.9808 50.7019 50.0646C50.7465 50.1895 50.7019 50.2742 50.7286 50.2831C50.7554 50.292 50.8312 50.2251 50.8178 50.0423C50.8106 49.9347 50.7647 49.8333 50.6885 49.757C50.5828 49.6524 50.4404 49.5932 50.2917 49.592C50.1128 49.6043 49.9399 49.6618 49.7893 49.7593C49.6388 49.8568 49.5156 49.9911 49.4312 50.1494C49.2008 50.4914 49.0584 50.8849 49.0166 51.2952C48.9319 52.1557 49.2618 53.0162 49.8503 53.2748C49.9598 53.3231 50.0788 53.3462 50.1984 53.3423C50.318 53.3385 50.4352 53.3078 50.5414 53.2525C50.6885 53.1678 50.7376 53.0741 50.7108 53.0652Z" fill="#EB996E"/>
<path d="M64.1445 57.6396C64.2024 57.5371 63.391 57.1938 62.8738 56.3689C62.6624 56.0036 62.499 55.6125 62.3878 55.2053C62.2942 54.8843 62.2184 54.6792 62.1693 54.6881C62.1203 54.697 62.1158 54.911 62.1693 55.2543C62.2223 55.714 62.3744 56.1566 62.6152 56.5517C62.8601 56.9498 63.2104 57.2723 63.6273 57.4836C63.9126 57.6441 64.1132 57.6753 64.1445 57.6396Z" fill="#263238"/>
<path d="M47.5279 41.3215C48.5578 39.8992 48.9278 38.1247 49.5699 36.4929C50.2119 34.8611 51.3042 33.2115 53.0029 32.7745L53.0386 32.7968C54.5679 32.351 56.3869 32.4981 57.4971 33.635C58.0009 31.4459 60.1053 29.872 62.3212 29.5064C64.5371 29.1408 67.9702 29.7962 69.9676 30.844C71.5102 31.6376 72.9369 33.1 74.6401 35.2178C75.3621 36.1081 76.0093 37.0565 76.5751 38.0534L77.9126 44.0323L76.0222 46.9258C75.9074 47.1282 75.7824 47.3246 75.6477 47.5144L73.6057 53.7964C73.6726 52.0398 74.3637 45.9673 74.4305 44.2061C73.1187 44.0456 71.8528 43.6216 70.709 42.9597C69.5651 42.2977 68.5668 41.4114 67.774 40.354C66.9179 39.2082 66.2893 37.8126 65.0677 37.0636C63.4983 36.0961 61.5009 36.5063 59.6862 36.9521L59.7665 36.8897C58.8213 37.226 57.9495 37.7406 57.1984 38.4056C57.268 41.8941 56.5852 45.3567 55.1965 48.5577C54.987 49.0392 54.4519 50.02 53.9437 50.1672C52.9539 50.4481 52.7845 49.4494 52.2584 48.8787C51.8705 48.4596 51.2463 48.3481 50.5552 48.2901C50.2139 46.7964 49.9608 45.2838 49.7973 43.7603C49.207 43.8819 48.5965 43.8651 48.0138 43.7113L48.6871 42.445C48.4433 42.592 48.1715 42.6862 47.889 42.7215C47.7416 42.7399 47.5923 42.7105 47.463 42.6374C47.3337 42.5643 47.2314 42.4515 47.1712 42.3157C47.0597 41.9724 47.3139 41.6202 47.5279 41.3215Z" fill="#263238"/>
<path d="M59.3962 34.5267C59.1586 34.6815 58.9321 34.8528 58.7185 35.0394C58.1732 35.5877 57.7799 36.2683 57.5772 37.0145C57.4222 37.5245 57.3191 38.0488 57.2695 38.5795C57.216 39.1546 57.2071 39.7699 57.1893 40.4208C57.1843 41.1038 57.1366 41.7858 57.0466 42.4628C56.9934 42.8218 56.9144 43.1764 56.8103 43.524C56.72 43.8983 56.5358 44.2435 56.2753 44.5271C56.1572 44.6359 56.0133 44.7127 55.8573 44.7501C55.7012 44.7876 55.5381 44.7845 55.3836 44.7411C55.0833 44.657 54.8196 44.475 54.6345 44.2239C54.3421 43.7283 54.1882 43.1632 54.1887 42.5877L54.3135 42.6144C54.0777 43.0671 53.7773 43.4831 53.4218 43.8494C53.0842 44.1877 52.629 44.3825 52.1511 44.3934C51.9301 44.395 51.7128 44.3365 51.5225 44.2239C51.3466 44.1108 51.2085 43.9478 51.1257 43.7558C51.0489 43.5776 51.0212 43.3821 51.0454 43.1896C51.0737 43.0173 51.1603 42.8599 51.2907 42.7437L51.3486 42.8106C50.8355 43.3097 50.1931 43.6556 49.4939 43.8093C49.4448 43.8246 49.3937 43.8321 49.3423 43.8316C49.3885 43.8126 49.4362 43.7977 49.485 43.787C49.583 43.7558 49.7257 43.7157 49.9041 43.6443C50.4196 43.4423 50.8896 43.1391 51.2862 42.7526L51.3486 42.8195C51.2347 42.9404 51.161 43.0937 51.1379 43.2582C51.1147 43.4227 51.1432 43.5903 51.2193 43.738C51.2953 43.9094 51.4211 44.0539 51.5805 44.1526C51.753 44.255 51.9506 44.3075 52.1511 44.3042C52.5969 44.2867 53.0194 44.1001 53.3327 43.7825C53.6714 43.4224 53.9567 43.0155 54.1798 42.5743L54.2868 42.3826V42.601C54.2965 43.1526 54.4502 43.6921 54.7326 44.166C54.9023 44.3821 55.1366 44.5383 55.4014 44.6118C55.5348 44.6507 55.676 44.6544 55.8112 44.6223C55.9464 44.5903 56.071 44.5237 56.1727 44.429C56.4129 44.1629 56.583 43.8411 56.6676 43.4927C56.7717 43.1512 56.8507 42.8025 56.9039 42.4495C56.9936 41.7783 57.0428 41.1024 57.0511 40.4253C57.0511 39.7743 57.0867 39.1591 57.1447 38.5795C57.2008 38.0406 57.3113 37.5088 57.4746 36.9922C57.6917 36.2353 58.1074 35.5503 58.6784 35.0082C58.8888 34.8083 59.1315 34.6455 59.3962 34.5267Z" fill="#455A64"/>
<path d="M78.0642 42.3514L78.0107 42.3871L77.8458 42.4852C77.7573 42.5408 77.6649 42.59 77.5693 42.6323C77.4534 42.6813 77.3241 42.7482 77.1725 42.7973C76.3032 43.0958 75.3737 43.1755 74.4662 43.0291C73.1165 42.814 71.8577 42.2132 70.8414 41.2992C69.6198 40.1713 68.6412 38.8059 67.9657 37.2865C67.5823 36.4929 67.2835 35.6859 66.9447 34.9369C66.6398 34.2078 66.2297 33.5274 65.7275 32.9172C65.2799 32.3627 64.6984 31.9315 64.0377 31.6644C63.7393 31.5507 63.4249 31.4845 63.1059 31.4682C62.8062 31.4565 62.5063 31.485 62.2142 31.5529C61.3319 31.7653 60.5625 32.3036 60.0608 33.0599C59.8925 33.341 59.7564 33.6401 59.655 33.9516C59.6521 33.9309 59.6521 33.9099 59.655 33.8892C59.655 33.8357 59.6818 33.7777 59.6996 33.7019C59.7708 33.4624 59.8727 33.2331 60.0028 33.0197C60.2102 32.6803 60.4741 32.3787 60.783 32.128C61.1923 31.7978 61.6685 31.5605 62.1785 31.4325C62.8007 31.2721 63.4569 31.3047 64.06 31.5261C64.741 31.7989 65.3421 32.239 65.8078 32.8057C66.3191 33.4242 66.7381 34.1135 67.0517 34.8522C67.395 35.6101 67.6937 36.4127 68.0727 37.2018C68.7436 38.7018 69.7077 40.0525 70.9083 41.1744C71.9074 42.0801 73.1453 42.6805 74.4751 42.9043C75.3689 43.0589 76.2868 42.9946 77.1502 42.717C77.7566 42.5342 78.0553 42.3157 78.0642 42.3514Z" fill="#455A64"/>
<path d="M72.9367 48.5576C72.8029 48.6735 72.1386 48.0271 71.0998 47.9067C70.0609 47.7863 69.2361 48.2188 69.1425 48.0761C69.0934 48.0092 69.2406 47.7952 69.5883 47.5857C70.0731 47.3225 70.6287 47.2195 71.1756 47.2914C71.7177 47.3551 72.2246 47.5929 72.6201 47.9691C72.9233 48.2678 73.0036 48.5175 72.9367 48.5576Z" fill="#263238"/>
<path d="M72.0538 50.4927C72.0206 50.7112 71.903 50.9079 71.7262 51.0405C71.5494 51.1731 71.3276 51.2309 71.1085 51.2016C71.0016 51.1921 70.8975 51.1614 70.8026 51.1112C70.7076 51.0611 70.6236 50.9924 70.5555 50.9094C70.4874 50.8263 70.4366 50.7305 70.406 50.6276C70.3754 50.5246 70.3657 50.4166 70.3774 50.3098C70.4116 50.0927 70.5288 49.8974 70.7043 49.7651C70.8799 49.6329 71.1 49.574 71.3181 49.6009C71.4253 49.6104 71.5294 49.6411 71.6246 49.6912C71.7198 49.7413 71.8041 49.8099 71.8725 49.8929C71.941 49.9758 71.9923 50.0716 72.0234 50.1746C72.0545 50.2775 72.0648 50.3857 72.0538 50.4927Z" fill="#263238"/>
<path d="M76.1515 37.2642C76.5974 38.0177 77.3508 38.74 78.2292 38.74C78.5512 38.7063 78.8701 38.6482 79.1833 38.5661C79.4686 38.7801 79.2903 39.8145 79.0495 40.0775C78.8267 40.3001 78.5851 40.503 78.3273 40.6839C79.2903 41.3393 80.2489 41.1654 81.3769 40.8845C81.1712 41.8007 80.7291 42.647 80.0947 43.3393C79.4604 44.0315 78.6558 44.5456 77.761 44.8303C77.483 44.9439 77.182 44.9898 76.8828 44.9643C76.5836 44.9387 76.2947 44.8423 76.04 44.6832C75.6693 44.3016 75.4519 43.7969 75.4292 43.2654C75.1351 41.3476 75.0797 39.4007 75.2643 37.4693L76.1515 37.2642Z" fill="#263238"/>
<path d="M64.6351 72.4553C64.6351 72.4553 68.5585 74.047 70.7923 79.4774C72.3617 83.2939 81.0914 95.3408 81.0914 95.3408L104.302 100.495L105.096 107.9L67.97 107.593L62.8115 91.1632L64.6351 72.4553Z" fill="#EF6B01"/>
<path d="M49.0037 65.6115L44.884 67.3414C41.072 68.9375 36.1944 72.6158 34.5581 76.4144C30.6301 85.5633 27.0723 97.3204 25.7079 107.722C24.3303 118.213 27.0723 133.738 27.0723 133.738L61.9111 113.83L59.8735 112.408L66.4766 76.4902L65.246 72.1432L66.0664 68.4649C66.0664 68.4649 56.8239 64.7554 50.0916 62.0937L49.0037 65.6115Z" fill="#EF6B01"/>
<g opacity="0.3">
<path d="M45.6773 123.358C45.8052 121.575 45.933 119.781 46.0608 117.977C45.6522 118.366 45.1174 118.595 44.5538 118.623C45.4254 117.791 46.1988 116.862 46.8589 115.854L45.2716 116.537C45.8314 116.106 46.2883 115.556 46.6092 114.927C45.7576 114.263 44.5583 114.374 43.4882 114.481C37.9819 115.039 32.4266 114.669 26.8981 114.298C26.3443 114.267 25.8042 114.115 25.3153 113.853C25.3153 113.853 25.2039 112.337 25.4491 111.77C25.6943 111.204 26.0777 111.369 26.6573 111.16C27.2458 110.981 27.8569 110.888 28.4719 110.883C35.1998 110.527 41.9411 111.079 48.6556 111.637C49.0743 111.63 49.4855 111.748 49.8371 111.976C50.3855 112.421 50.3365 113.26 50.2429 113.96C49.8981 116.474 49.5562 118.987 49.2174 121.499" fill="black"/>
</g>
<path d="M66.0663 75.0457C66.0658 75.1594 66.0554 75.2727 66.0351 75.3846L65.8924 76.3431C65.7675 77.1724 65.5669 78.3762 65.3039 79.8564C64.7778 82.8214 63.9886 86.9009 63.0746 91.3951C62.1606 95.8893 61.2332 99.951 60.5689 102.885C60.2345 104.334 59.9626 105.515 59.7664 106.358C59.6728 106.75 59.597 107.062 59.539 107.299C59.5183 107.41 59.4854 107.519 59.4409 107.624C59.4525 107.512 59.4704 107.4 59.4944 107.29C59.539 107.049 59.6014 106.732 59.6817 106.34C59.8556 105.488 60.1275 104.307 60.4084 102.849L62.8249 91.3594C63.7612 86.8652 64.5771 82.7901 65.1434 79.8342C65.4153 78.3762 65.6427 77.1858 65.8032 76.3342C65.879 75.9419 65.9414 75.6253 65.986 75.3846C66.0013 75.2692 66.0282 75.1557 66.0663 75.0457Z" fill="#263238"/>
<path d="M34.5581 126.038C34.6205 125.961 34.6907 125.891 34.7677 125.828L35.3918 125.253C35.6594 125.003 35.9982 124.705 36.4039 124.361C36.8097 124.018 37.2555 123.635 37.7816 123.238C38.8115 122.413 40.0822 121.49 41.5312 120.523C42.9802 119.555 44.6522 118.574 46.4044 117.629C48.1566 116.684 49.9355 115.899 51.5495 115.235C53.1635 114.57 54.6437 114.058 55.9055 113.674C56.5297 113.465 57.1093 113.313 57.6131 113.17C58.1169 113.028 58.5538 112.916 58.9105 112.832L59.7398 112.644C59.8338 112.614 59.9311 112.596 60.0296 112.591C59.9395 112.633 59.8454 112.666 59.7487 112.689L58.9328 112.921C58.5806 113.019 58.1481 113.139 57.6487 113.295C57.1494 113.451 56.5787 113.612 55.9545 113.83C54.7061 114.236 53.2348 114.775 51.6298 115.435C50.0247 116.095 48.2903 116.902 46.5158 117.834C44.7414 118.766 43.1051 119.756 41.6471 120.701C40.1892 121.646 38.9185 122.565 37.8797 123.376C37.3491 123.764 36.8944 124.147 36.4842 124.468C36.074 124.789 35.7307 125.084 35.4498 125.32L34.7989 125.859C34.7252 125.927 34.6445 125.987 34.5581 126.038Z" fill="#263238"/>
<path d="M52.4408 112.89C52.4721 112.947 49.0836 114.851 44.8614 117.143C40.6392 119.435 37.215 121.249 37.1838 121.191C37.1526 121.133 40.5411 119.234 44.7633 116.938C48.9855 114.642 52.4096 112.836 52.4408 112.89Z" fill="#263238"/>
<g opacity="0.3">
<path d="M40.1978 85.3716C42.3601 94.7345 48.9721 103.09 57.7732 106.902C51.4417 100.124 45.5702 92.9317 40.1978 85.3716Z" fill="black"/>
</g>
<g opacity="0.3">
<path d="M65.5132 78.2558C66.3647 82.215 65.7316 87.1728 63.7298 90.6817L63.2349 89.6562C63.9348 86.6824 64.938 81.408 65.4953 78.2558" fill="black"/>
</g>
<path d="M84.0338 172.732L79.8562 185.296C79.8562 185.296 91.2299 193.767 90.6815 196.161L66.0259 188.938L71.7283 169.089L84.0338 172.732Z" fill="#455A64"/>
<g opacity="0.3">
<path d="M84.0343 172.732L79.8567 185.296C79.8567 185.296 91.2303 193.767 90.6819 196.161L66.0264 188.938L71.7288 169.089L84.0343 172.732Z" fill="black"/>
</g>
<path d="M72.5445 181.997C72.2863 181.999 72.0381 182.097 71.8478 182.271C71.6576 182.446 71.5389 182.685 71.5146 182.942C71.507 183.2 71.5991 183.451 71.7718 183.643C71.9446 183.834 72.1846 183.952 72.442 183.972C72.7159 183.968 72.9789 183.863 73.1798 183.677C73.3808 183.491 73.5056 183.237 73.5298 182.964C73.5093 182.694 73.3848 182.443 73.1827 182.264C72.9806 182.084 72.7166 181.99 72.4464 182.001" fill="#E0E0E0"/>
<g opacity="0.6">
<path d="M66.0264 188.938L66.6773 186.959L90.0756 194.623C90.0756 194.623 91.0342 195.421 90.6819 196.161L66.0264 188.938Z" fill="white"/>
</g>
<path d="M80.2935 185.287C80.2533 185.407 79.6381 185.287 78.9292 185.501C78.2203 185.715 77.761 186.125 77.6629 186.045C77.5649 185.965 77.9483 185.323 78.8088 185.082C79.6693 184.841 80.3514 185.184 80.2935 185.287Z" fill="#263238"/>
<path d="M82.567 187.115C82.567 187.24 81.9785 187.293 81.4212 187.681C80.8639 188.069 80.5875 188.573 80.4671 188.533C80.3467 188.493 80.4671 187.793 81.176 187.32C81.8849 186.847 82.5982 186.999 82.567 187.115Z" fill="#263238"/>
<path d="M83.1288 190.642C83.0129 190.642 83.0218 189.986 83.5212 189.415C84.0205 188.845 84.667 188.747 84.6849 188.863C84.7027 188.979 84.239 189.228 83.8511 189.701C83.4632 190.173 83.2537 190.664 83.1288 190.642Z" fill="#263238"/>
<path d="M80.9269 182.313C80.8466 182.411 80.3428 182.081 79.6473 181.93C78.9518 181.778 78.3588 181.836 78.3097 181.711C78.2607 181.586 78.9116 181.31 79.7275 181.502C80.5434 181.693 81.0161 182.242 80.9269 182.313Z" fill="#263238"/>
<path d="M91.2253 178.341L90.7037 191.573C90.7037 191.573 103.981 196.545 104.119 199.001L78.4294 198.912L78.3804 178.26L91.2253 178.341Z" fill="#455A64"/>
<path d="M82.7634 190.432C82.5155 190.506 82.3037 190.669 82.1687 190.889C82.0337 191.11 81.9851 191.373 82.0322 191.627C82.0976 191.877 82.2568 192.093 82.4767 192.229C82.6967 192.365 82.9605 192.411 83.2137 192.358C83.4751 192.279 83.698 192.106 83.8388 191.872C83.9797 191.638 84.0286 191.36 83.9761 191.092C83.8823 190.838 83.6936 190.631 83.4499 190.514C83.2062 190.396 82.9265 190.378 82.6697 190.463" fill="#E0E0E0"/>
<g opacity="0.6">
<path d="M78.4297 198.912L78.5055 196.83L103.112 197.69C103.112 197.69 104.253 198.194 104.12 199.001L78.4297 198.912Z" fill="white"/>
</g>
<path d="M91.1231 191.444C91.1231 191.569 90.49 191.622 89.8702 192.024C89.2505 192.425 88.9206 192.951 88.8046 192.915C88.6887 192.88 88.8804 192.14 89.6384 191.667C90.3963 191.194 91.1498 191.328 91.1231 191.444Z" fill="#263238"/>
<path d="M93.8114 192.568C93.8381 192.688 93.2942 192.898 92.8662 193.428C92.4381 193.959 92.3133 194.52 92.1885 194.512C92.0636 194.503 91.9878 193.798 92.5318 193.147C93.0757 192.496 93.8114 192.447 93.8114 192.568Z" fill="#263238"/>
<path d="M95.323 195.796C95.2071 195.822 95.0376 195.194 95.3586 194.512C95.6797 193.829 96.2726 193.553 96.3261 193.656C96.3796 193.758 96.0141 194.128 95.7555 194.694C95.4969 195.261 95.4567 195.787 95.323 195.796Z" fill="#263238"/>
<path d="M90.9046 188.412C90.8511 188.528 90.2759 188.354 89.567 188.412C88.8581 188.47 88.3052 188.68 88.2294 188.573C88.1537 188.466 88.6753 188.02 89.5358 187.975C90.3963 187.931 90.967 188.314 90.9046 188.412Z" fill="#263238"/>
<path d="M60.4485 113.54C60.4485 113.54 91.2434 121.566 95.0688 126.876C98.2968 131.383 81.3455 177.409 81.3455 177.409L67.97 176.254L73.7393 137.741L39.2349 126.773L44.4469 113.523L60.4485 113.54Z" fill="#263238"/>
<path d="M62.6552 120.754C62.6552 120.754 94.1367 128.401 97.3201 133.836C98.8048 136.373 97.8284 144.701 97.2755 148.633C96.901 151.282 91.3368 188.341 91.3368 188.341H77.7249L78.0237 146.484L45.316 139.89C45.316 139.89 27.7584 141.228 27.0718 133.738L34.4016 123.804L51.7006 115.257L62.6552 120.754Z" fill="#263238"/>
<path d="M60.257 119.791C60.257 119.791 60.413 119.827 60.7028 119.912L62.0404 120.282L67.1766 121.717C69.4058 122.342 72.1345 123.104 75.2866 124.04C78.4388 124.977 82.0101 126.109 85.8845 127.576C87.8255 128.301 89.8288 129.127 91.8946 130.055L93.4551 130.759C93.9809 131.016 94.4928 131.3 94.9888 131.611C95.4961 131.929 95.9749 132.29 96.42 132.69C96.8825 133.096 97.2703 133.581 97.5658 134.121C98.6269 138.945 97.9849 144.22 97.1958 149.61C96.8525 152.325 96.4111 155.094 95.9964 157.925C95.5818 160.756 95.1404 163.654 94.699 166.597C93.8073 172.486 92.9156 178.586 91.9704 184.828C91.792 186.009 91.6182 187.186 91.4398 188.354V188.457H77.6184V188.341C77.7388 172.478 77.8503 158.112 77.9394 146.489L78.0108 146.574L54.7507 141.843L48.4062 140.541L46.7566 140.198C46.3821 140.118 46.1948 140.069 46.1948 140.069L46.7611 140.171L48.4196 140.492L54.7908 141.741L78.042 146.386H78.1133V146.462C78.0375 158.085 77.9439 172.451 77.8413 188.319L77.7254 188.203H91.3328L91.2214 188.301C91.3952 187.128 91.5736 185.956 91.7475 184.774L94.4805 166.543C94.9264 163.595 95.3603 160.704 95.7824 157.871C96.2015 155.04 96.6474 152.272 96.9951 149.556C97.1794 148.201 97.3592 146.863 97.5346 145.544C97.7223 144.245 97.8384 142.936 97.8824 141.625C97.927 140.332 97.927 139.058 97.8824 137.804C97.8556 137.175 97.82 136.555 97.7664 135.94C97.7613 135.337 97.6386 134.74 97.4053 134.183C97.1219 133.663 96.7491 133.197 96.3041 132.806C95.8692 132.413 95.4007 132.06 94.9041 131.749C94.4151 131.438 93.909 131.156 93.3882 130.902L91.8366 130.193C89.7768 129.27 87.7749 128.436 85.8399 127.71C81.9744 126.234 78.4031 125.106 75.2599 124.143C72.1166 123.18 69.388 122.422 67.1632 121.784L62.0359 120.34L60.6984 119.947C60.4086 119.845 60.257 119.791 60.257 119.791Z" fill="#455A64"/>
<path d="M103.857 100.86C104.057 100.557 106.656 97.5567 107.356 97.5567C108.056 97.5567 108.859 98.3592 108.859 98.3592C109.327 98.1444 109.849 98.0745 110.357 98.1586C110.959 98.3592 113.759 100.758 113.759 101.659V103.161C113.822 103.558 113.822 103.963 113.759 104.36C113.661 105.06 111.976 106.26 111.976 106.26H102.358C102.358 106.26 100.526 105.025 100.753 103.861C100.981 102.697 103.857 100.86 103.857 100.86Z" fill="#FFBE9D"/>
<path d="M108.859 98.3593C109.067 98.4545 109.267 98.5679 109.456 98.6981L111.044 99.7013C111.227 99.8078 111.403 99.927 111.57 100.058C111.747 100.222 111.88 100.427 111.958 100.655C112.018 100.897 112.047 101.146 112.042 101.396L112.082 102.162C112.136 103.21 112.189 104.36 112.247 105.564L112.274 106.108V106.206L112.18 106.229L111.592 106.371H111.565C111.29 106.363 111.025 106.264 110.812 106.09C110.615 105.927 110.45 105.729 110.326 105.506C110.1 105.1 109.93 104.665 109.822 104.213C109.635 103.458 109.524 102.686 109.492 101.908L109.545 101.98L107.865 101.32C107.657 101.247 107.455 101.156 107.263 101.048C107.479 101.092 107.691 101.154 107.896 101.235L109.599 101.828H109.648V101.881C109.7 102.646 109.823 103.405 110.018 104.146C110.127 104.577 110.294 104.991 110.513 105.377C110.609 105.581 110.756 105.756 110.939 105.886C111.123 106.017 111.337 106.098 111.561 106.122H111.534L112.122 105.974L112.033 106.095L112.007 105.546C111.958 104.343 111.904 103.197 111.859 102.145C111.859 101.881 111.859 101.627 111.833 101.378C111.837 101.146 111.815 100.914 111.766 100.687C111.704 100.488 111.592 100.308 111.44 100.165C111.282 100.037 111.117 99.918 110.945 99.8083L109.398 98.7471C109.208 98.6334 109.027 98.5037 108.859 98.3593Z" fill="#EB996E"/>
<path d="M102.358 105.916C102.57 105.871 102.784 105.843 103 105.832L104.753 105.694H104.779C105.431 105.847 106.09 105.966 106.755 106.05C107.137 106.102 107.523 106.134 107.909 106.144C108.097 106.175 108.289 106.163 108.472 106.111C108.654 106.059 108.823 105.966 108.966 105.841C109.086 105.67 109.144 105.464 109.131 105.257C109.131 105.038 109.1 104.811 109.091 104.579C109.065 104.39 108.974 104.216 108.832 104.088C108.691 103.947 108.531 103.827 108.355 103.732C107.719 103.411 107.003 103.284 106.295 103.366C106.042 103.39 105.786 103.353 105.55 103.258C105.313 103.164 105.103 103.014 104.935 102.822C104.726 102.524 104.744 102.305 104.757 102.31C104.816 102.471 104.9 102.621 105.007 102.755C105.174 102.922 105.377 103.049 105.6 103.126C105.823 103.204 106.061 103.229 106.295 103.201C107.034 103.092 107.788 103.21 108.458 103.54C108.652 103.643 108.831 103.774 108.988 103.928C109.174 104.096 109.291 104.326 109.318 104.574C109.318 104.78 109.363 105.02 109.363 105.252C109.375 105.514 109.298 105.771 109.144 105.983C108.989 106.163 108.776 106.284 108.542 106.327C108.332 106.366 108.118 106.38 107.905 106.367C107.495 106.367 107.102 106.313 106.728 106.264C106.056 106.168 105.391 106.032 104.735 105.858H104.762L103.009 105.921C102.793 105.942 102.575 105.941 102.358 105.916Z" fill="#EB996E"/>
<path d="M112.145 105.876C112.368 105.28 112.627 104.698 112.921 104.133C113.147 103.534 113.446 102.965 113.812 102.439C113.659 103.058 113.433 103.656 113.139 104.222C112.912 104.83 112.575 105.391 112.145 105.876Z" fill="#EB996E"/>
<path d="M91.3107 107.905L125.949 108.351L137.095 77.0787C137.214 76.7657 137.209 76.419 137.08 76.1098C136.952 75.8005 136.71 75.5522 136.404 75.4157C136.239 75.3393 136.061 75.2979 135.879 75.2942C135.698 75.2904 135.517 75.3244 135.35 75.394C135.182 75.4636 135.031 75.5672 134.905 75.6984C134.78 75.8295 134.683 75.9853 134.621 76.1558L123.63 105.769L91.2795 106.09C91.043 106.09 90.8162 106.184 90.649 106.351C90.4817 106.519 90.3878 106.745 90.3878 106.982C90.3834 107.104 90.4043 107.226 90.4491 107.34C90.494 107.454 90.5618 107.558 90.6484 107.644C90.735 107.731 90.8385 107.799 90.9524 107.844C91.0664 107.888 91.1883 107.909 91.3107 107.905Z" fill="#263238"/>
<path d="M39.6941 84.6716C39.6941 84.6716 56.6364 107.704 59.2625 107.704H83.985V98.3414L65.2904 93.9319C65.2904 93.9319 56.088 74.8941 54.046 72.4553C52.004 70.0165 46.5602 66.7305 42.4896 70.4043C38.4189 74.0782 39.6941 84.6716 39.6941 84.6716Z" fill="#EF6B01"/>
<path d="M83.9673 99.2643L88.0201 98.9388C88.0201 98.9388 88.1048 97.4363 88.992 96.9058C89.8793 96.3752 89.7856 95.2249 90.3296 95.3141C90.624 95.372 90.9269 95.372 91.2213 95.3141L94.5785 92.4874L97.4097 90.6326L99.639 90.1868C99.639 90.1868 100.977 90.539 99.639 91.774L98.2212 92.5721L96.9861 93.8115L99.8128 92.4205C99.9428 92.3577 100.085 92.3251 100.23 92.3251C100.374 92.3251 100.517 92.3577 100.647 92.4205C101.411 92.7509 102.141 93.1588 102.822 93.6377C102.883 93.6948 102.932 93.7638 102.965 93.8405C102.998 93.9172 103.016 93.9999 103.016 94.0835C103.016 94.1671 102.998 94.2498 102.965 94.3265C102.932 94.4032 102.883 94.4722 102.822 94.5294L104.057 95.5905C104.057 95.5905 104.325 97.0083 102.907 96.6516L101.761 96.3886L100.227 97.8777C100.227 97.8777 105.359 96.8166 105.711 96.986C106.064 97.1554 106.51 97.958 105.711 98.6624C104.913 99.3669 101.819 99.193 101.115 99.9019C100.41 100.611 95.7288 104.882 94.5785 105.145C93.4283 105.408 83.994 107.713 83.994 107.713L83.9673 99.2643Z" fill="#FFBE9D"/>
<path d="M104.021 95.5771C103.779 95.4292 103.547 95.2654 103.326 95.0867C103.116 94.9307 102.88 94.7479 102.577 94.5517C102.434 94.4536 102.286 94.3555 102.131 94.2574C101.992 94.1546 101.83 94.0886 101.658 94.0657C101.307 94.1416 100.973 94.2822 100.673 94.4803C100.37 94.6453 100.102 94.8014 99.875 94.9262C99.6414 95.0904 99.3902 95.228 99.126 95.3364C99.3131 95.1203 99.5345 94.9366 99.7814 94.7924C99.9998 94.6409 100.263 94.467 100.566 94.2886C100.718 94.1995 100.878 94.1103 101.048 94.0211C101.232 93.9146 101.437 93.8506 101.649 93.8339C101.711 93.8215 101.775 93.8215 101.837 93.8339C101.889 93.8512 101.939 93.872 101.988 93.8963C102.079 93.94 102.167 93.9891 102.251 94.0434C102.416 94.146 102.568 94.2485 102.697 94.3555C102.978 94.5606 103.223 94.7612 103.424 94.9351C103.83 95.3007 104.048 95.5549 104.021 95.5771Z" fill="#EB996E"/>
<path d="M91.6044 94.9708C91.6401 95.0243 91.221 95.3899 90.7127 95.8625C90.2044 96.3351 89.821 96.7274 89.772 96.6784C89.9599 96.2987 90.2258 95.963 90.5522 95.693C90.8383 95.3696 91.1997 95.1215 91.6044 94.9708Z" fill="#EB996E"/>
<path d="M54.0459 72.4553C54.4094 72.9031 54.7373 73.3786 55.0267 73.8775C55.6108 74.845 56.4356 76.2896 57.4254 78.1577C59.4184 81.8939 62.1604 87.311 65.375 93.9052L65.3125 93.8517L84.0115 98.2478H84.1007V107.856H82.8657H61.8527H59.463C59.359 107.862 59.2548 107.862 59.1509 107.856C59.0457 107.835 58.9438 107.801 58.8477 107.753C58.6609 107.655 58.4833 107.54 58.3171 107.41C58.0064 107.178 57.7087 106.93 57.4254 106.665C56.3425 105.646 55.3141 104.57 54.3446 103.442C52.4453 101.284 50.7778 99.2019 49.2396 97.2936C46.1989 93.4682 43.8225 90.3071 42.1907 88.1225L40.3226 85.59C40.1175 85.3002 39.9614 85.0818 39.8455 84.9257C39.7296 84.7697 39.6895 84.6939 39.6895 84.6939C39.6895 84.6939 39.7519 84.7652 39.8678 84.9123L40.3627 85.5633L42.2665 88.0601C43.9206 90.2314 46.3193 93.3746 49.3733 97.1866C50.9026 99.086 52.5924 101.159 54.4917 103.313C55.4614 104.431 56.4882 105.498 57.5681 106.509C57.851 106.769 58.1488 107.011 58.4598 107.236C58.6119 107.346 58.773 107.443 58.9413 107.526C59.1062 107.605 59.2898 107.638 59.4719 107.62H61.8616H82.8746H83.9937L83.8778 107.735C83.8778 104.525 83.8778 101.387 83.8778 98.3726L83.9625 98.4841L65.2679 94.0345H65.2234L65.2011 93.9943C62.0088 87.3913 59.2891 81.9564 57.3273 78.2157C56.3509 76.3386 55.5439 74.8896 54.9732 73.9132C54.6834 73.4317 54.465 73.0572 54.2911 72.8253C54.1172 72.5935 54.0459 72.4553 54.0459 72.4553Z" fill="#263238"/>
<path d="M51.5849 70.9483C51.5849 70.9884 51.0052 70.7566 50.06 70.5426C49.5047 70.4195 48.9416 70.3346 48.3747 70.2885C47.6817 70.2352 46.9856 70.2352 46.2926 70.2885C45.6016 70.361 44.9173 70.4878 44.2461 70.6674C43.6973 70.8173 43.1595 71.005 42.6366 71.2292C41.7449 71.6171 41.2366 71.947 41.2144 71.9114C41.3149 71.8101 41.429 71.7231 41.5532 71.6528C41.8781 71.4387 42.2178 71.248 42.5697 71.0821C43.0917 70.8311 43.6329 70.6223 44.1882 70.4579C44.8688 70.2631 45.5657 70.1303 46.2703 70.0611C46.9762 69.9963 47.6866 69.9963 48.3926 70.0611C48.9688 70.12 49.5396 70.2229 50.1002 70.3687C50.4758 70.4669 50.8438 70.592 51.2014 70.7432C51.4556 70.8502 51.5938 70.9305 51.5849 70.9483Z" fill="#263238"/>
<path d="M61.8843 98.2076C62.1604 97.4077 62.5888 96.6688 63.146 96.0319C63.6417 95.3448 64.2673 94.7616 64.9874 94.3154C65.032 94.3689 64.176 95.1001 63.3244 96.1746C62.4728 97.2491 61.9512 98.2389 61.8843 98.2076Z" fill="#263238"/>
<path d="M61.3179 95.3363C62.2654 94.4973 63.4995 94.055 64.7643 94.1013C64.7643 94.1727 63.9484 94.2574 62.9809 94.6051C62.0134 94.9529 61.358 95.3943 61.3179 95.3363Z" fill="#263238"/>
<path d="M77.2033 143.417C76.8466 142.672 75.9816 142.347 75.1925 142.079C59.6189 137.059 42.9084 134.652 26.8087 137.576C24.8737 137.929 22.8763 138.388 21.3381 139.618C19.7999 140.849 18.877 143.078 19.6973 144.862L23.0011 145.923C39.4864 144.088 56.1307 144.204 72.5887 146.27C73.6989 146.413 74.867 146.551 75.8924 146.114C76.9179 145.677 77.6892 144.416 77.2033 143.417Z" fill="#455A64"/>
<path d="M59.1333 138.267C59.098 138.274 59.0617 138.274 59.0263 138.267L58.7276 138.227L57.5728 138.058C56.5741 137.897 55.1251 137.666 53.3239 137.46C48.6401 136.907 43.9234 136.682 39.2082 136.787C37.8305 136.814 36.4841 136.881 35.1956 136.988C33.907 137.095 32.6497 137.157 31.4504 137.264C31.302 137.276 31.1529 137.276 31.0046 137.264C30.8652 137.251 30.7248 137.251 30.5855 137.264C30.3032 137.284 30.0229 137.325 29.7473 137.389L28.1333 137.728C27.0944 137.96 26.1403 138.214 25.2798 138.499C23.9205 138.923 22.6225 139.522 21.4188 140.283C20.9729 140.555 20.6786 140.791 20.4691 140.956L20.2283 141.139C20.1748 141.179 20.1436 141.201 20.1392 141.197L20.2105 141.121L20.4379 140.92C20.7344 140.665 21.0456 140.426 21.3697 140.207C22.5641 139.406 23.8634 138.775 25.2308 138.33C26.1693 138.014 27.1232 137.747 28.0887 137.527L29.7071 137.18C29.9995 137.106 30.298 137.06 30.5988 137.041C30.7472 137.029 30.8963 137.029 31.0447 137.041C31.1928 137.058 31.3424 137.058 31.4905 137.041C32.672 136.93 33.9383 136.854 35.2357 136.752C36.5331 136.649 37.9108 136.573 39.2484 136.546C43.9594 136.439 48.6719 136.685 53.3462 137.282C55.1296 137.509 56.592 137.768 57.5862 137.955L58.7365 138.169L59.0308 138.232L59.1333 138.267Z" fill="#263238"/>
<path d="M20.1035 112.89L46.6495 113.817C46.742 113.82 46.8327 113.843 46.9158 113.884C46.9988 113.925 47.0724 113.983 47.1317 114.054C47.191 114.125 47.2347 114.207 47.2599 114.296C47.2851 114.385 47.2913 114.479 47.2781 114.57L43.4572 146.404H49.4405L52.5258 111.36C52.5606 111.078 52.5362 110.791 52.4542 110.518C52.3723 110.245 52.2345 109.992 52.0496 109.775C51.8647 109.559 51.6368 109.383 51.3803 109.259C51.1238 109.135 50.8443 109.065 50.5596 109.055L19.3901 107.941L20.1035 112.89Z" fill="#455A64"/>
<path d="M161.184 110.571H157.024V111.494L166.182 199.028H170.453L161.184 110.571Z" fill="#455A64"/>
<path d="M68.3136 110.571H72.4734V111.512L63.9353 199.001H59.6641L68.3136 110.571Z" fill="#455A64"/>
<path d="M68.3138 110.571C68.3138 110.571 68.3138 110.727 68.2782 111.017C68.2425 111.307 68.2068 111.77 68.1533 112.355C68.0419 113.527 67.8814 115.257 67.6718 117.477C67.226 121.936 66.6241 128.37 65.8617 136.35C64.3101 152.294 62.1656 174.386 59.7758 198.997L59.6643 198.868H63.9356L63.8197 198.975C67.868 157.876 71.2966 123.059 72.438 111.494C72.438 111.048 72.438 110.799 72.438 110.553L72.4692 110.584H69.3482H68.5814H68.3272H68.5724H69.3304L72.487 110.562H72.5182V110.598C72.5182 110.843 72.5182 111.102 72.5182 111.539C71.3991 123.104 68.033 157.907 64.047 199.032V199.139H59.5439V199.01C61.9694 174.372 64.1496 152.254 65.7234 136.292C66.5215 128.325 67.1591 121.896 67.6049 117.451C67.8279 115.221 68.0017 113.527 68.1177 112.355C68.1801 111.779 68.2247 111.338 68.2559 111.017C68.2871 110.696 68.3138 110.571 68.3138 110.571Z" fill="#263238"/>
<path d="M177.355 107.722H58.3042V111.49H177.355V107.722Z" fill="#455A64"/>
<path d="M164.68 111.494C164.68 111.556 140.952 111.61 111.691 111.61C82.4295 111.61 58.6924 111.556 58.6924 111.494C58.6924 111.432 82.4161 111.378 111.691 111.378C140.965 111.378 164.68 111.423 164.68 111.494Z" fill="#263238"/>
</svg>
