<svg width="266" height="119" viewBox="0 0 266 119" fill="none" xmlns="http://www.w3.org/2000/svg">
<path d="M180.343 30.5972H214.978L212.587 39.5214H190.914L189.108 46.1614H209.241L206.957 54.7138H186.824L184.593 62.9474H206.904L206.213 65.4972C201.007 67.8345 195.536 70.0655 189.427 71.8716L169.029 72.4559L180.343 30.5972Z" fill="#DC782A"/>
<path d="M236.013 56.6792L247.965 73.4121H262.626L246.159 49.6143C243.291 52.1109 239.891 54.4482 236.013 56.6792Z" fill="#DC782A"/>
<path d="M216.89 30.5442L231.817 51.1548C235.429 48.6582 238.776 46.2147 241.538 43.8242L232.029 30.5442H216.89Z" fill="#DC782A"/>
<path d="M7.17089 58.5916L19.7073 57.8479C19.4417 59.8664 19.5479 61.3538 20.1322 62.4162C20.9822 64.1161 22.682 64.966 25.1787 64.966C27.0379 64.966 28.5783 64.541 29.8001 63.6911C31.0219 62.8412 31.8187 61.8319 32.0843 60.6632C32.3499 59.6008 32.1905 58.5916 31.4468 57.7416C30.7032 56.8917 28.7377 56.0949 25.4443 55.2981C20.1322 54.0232 16.5201 52.3234 14.6608 50.1986C12.8016 48.0738 12.2704 45.4177 13.1735 42.1243C13.7578 39.9464 14.9264 37.9278 16.6794 36.0155C18.4324 34.1031 20.7166 32.6158 23.5319 31.5002C26.3473 30.3847 29.9064 29.8535 34.2622 29.8535C39.6274 29.8535 43.452 30.8628 45.6831 32.8282C47.9672 34.7937 48.764 37.9809 48.1266 42.3368L35.7496 43.0273C35.9089 41.1681 35.6433 39.787 34.7934 38.9371C33.9966 38.0872 32.6686 37.6622 30.8625 37.6622C29.3751 37.6622 28.1534 37.9809 27.1972 38.6184C26.2411 39.2558 25.6567 40.0526 25.4443 40.9556C25.2849 41.6462 25.4443 42.2305 25.9223 42.7617C26.4004 43.2929 27.6753 43.8241 29.8532 44.3022C35.1653 45.524 38.8837 46.7458 41.0085 48.0206C43.1333 49.2424 44.5144 50.7829 45.0987 52.6421C45.7362 54.5013 45.7362 56.573 45.0987 58.8572C44.3551 61.5132 42.9739 64.0098 40.9022 66.294C38.8305 68.5782 36.2808 70.278 33.306 71.4467C30.3313 72.6153 26.8254 73.1996 22.7351 73.1996C15.617 73.1996 11.0487 71.8185 9.0301 69.1094C7.01153 66.294 6.42721 62.8412 7.17089 58.5916Z" fill="#2F2C2D"/>
<path d="M62.4165 51.5797C61.301 55.8293 61.2479 58.8572 62.3103 60.7164C63.3727 62.5756 65.285 63.4786 67.9941 63.4786C70.7564 63.4786 73.1468 62.5756 75.1654 60.7695C77.1839 58.9634 78.8307 55.7231 80.0524 51.0485C81.1148 47.1176 81.0617 44.2491 79.9993 42.3899C78.8838 40.5838 76.9714 39.6808 74.2623 39.6808C71.6594 39.6808 69.3221 40.5838 67.2504 42.443C65.1788 44.3022 63.5851 47.3301 62.4165 51.5797ZM49.5083 51.5266C51.3144 44.6741 54.661 39.362 59.4949 35.5905C64.3288 31.7658 70.1189 29.8535 76.9183 29.8535C83.8771 29.8535 88.7641 31.7127 91.5264 35.4843C94.2886 39.2027 94.7667 44.4616 92.9606 51.2078C91.6326 56.0949 89.7203 60.132 87.2768 63.2661C84.7801 66.4002 81.7523 68.8438 78.1932 70.5967C74.581 72.3497 70.4908 73.1996 65.8693 73.1996C61.1416 73.1996 57.4232 72.4559 54.7672 70.9686C52.0581 69.4812 50.1989 67.0908 49.1364 63.8505C48.074 60.5039 48.1803 56.4136 49.5083 51.5266Z" fill="#2F2C2D"/>
<path d="M102.203 30.5972H134.234L131.791 39.5745H112.827L110.862 46.9051H127.063L124.779 55.3512H108.577L104.009 72.4559H90.9946L102.203 30.5972Z" fill="#2F2C2D"/>
<path d="M138.219 30.5972H177.528L174.766 40.9025H161.592L153.146 72.4559H140.184L148.63 40.9025H135.457L138.219 30.5972Z" fill="#2F2C2D"/>
<path fill-rule="evenodd" clip-rule="evenodd" d="M155.695 20.292C347.459 -21.9386 257.686 109.481 92.5884 82.3896C221.246 96.4133 339.757 -8.18044 155.695 20.292Z" fill="#DC782A"/>
<path d="M1.91211 104.222L4.56812 91.5793H9.82702C10.7301 91.5793 11.4206 91.6856 11.8987 91.8981C12.3768 92.1106 12.7486 92.4824 13.0142 92.9605C13.2798 93.4386 13.4392 94.0229 13.4392 94.6603C13.4392 95.1915 13.333 95.7227 13.1205 96.2539C12.908 96.7851 12.6424 97.2632 12.3237 97.5819C12.005 97.9538 11.6862 98.2194 11.3144 98.3787C10.9425 98.5381 10.6238 98.6975 10.252 98.7506C9.45518 98.9631 8.60526 99.0162 7.80846 99.0162H4.62124L3.55884 104.116H1.91211V104.222ZM4.99308 97.6882H7.75533C8.81774 97.6882 9.61454 97.5819 10.1457 97.3163C10.6769 97.1039 11.0488 96.732 11.3675 96.2539C11.6862 95.7758 11.8456 95.2978 11.8456 94.7134C11.8456 94.2885 11.7394 93.9698 11.58 93.7042C11.4206 93.4386 11.2081 93.2261 10.8894 93.1198C10.5707 93.0136 10.0395 92.9605 9.18958 92.9605H5.94925L4.99308 97.6882Z" fill="#2F2C2D"/>
<path d="M21.938 104.222L24.594 91.5793H33.7307L33.412 93.0136H25.9751L25.1252 96.9445H32.3496L32.0308 98.3787H24.8065L23.9034 102.788H31.8715L31.5528 104.222H21.938Z" fill="#2F2C2D"/>
<path d="M41.9121 104.222L44.5681 91.5793H49.8801C50.9425 91.5793 51.7394 91.6856 52.2706 91.8449C52.8018 92.0043 53.2267 92.323 53.5454 92.8542C53.8642 93.3854 54.0235 93.9698 54.0235 94.6603C54.0235 95.6696 53.7048 96.5195 53.0142 97.2101C52.3237 97.9007 51.2613 98.3256 49.7739 98.5381C50.252 98.8568 50.5707 99.2287 50.8363 99.5474C51.3675 100.291 51.7925 101.035 52.1112 101.832L53.0674 104.222H51.155L50.252 101.885C49.9333 101.035 49.5614 100.291 49.1365 99.6536C48.8709 99.2287 48.5521 98.9631 48.2334 98.8037C47.9147 98.6443 47.4366 98.5912 46.7992 98.5912H44.8337L43.6651 104.222H41.9121ZM45.0462 97.2632H47.3835C48.4459 97.2632 49.1896 97.2632 49.5083 97.2101C50.1457 97.157 50.6769 96.9976 51.1019 96.7851C51.5269 96.5726 51.8456 96.2539 52.0581 95.8821C52.2706 95.5102 52.3768 95.0853 52.3768 94.6603C52.3768 94.2885 52.2706 93.9698 52.1112 93.7042C51.9518 93.4386 51.7394 93.2261 51.4738 93.173C51.2081 93.1198 50.7301 93.0136 50.0926 93.0136H45.9492L45.0462 97.2632Z" fill="#2F2C2D"/>
<path d="M62.894 104.222L65.5501 91.5793H67.1968L69.3216 96.3071C69.959 97.7413 70.4902 98.9631 70.8621 99.9723C71.0746 100.557 71.3402 101.3 71.6058 102.31C71.7651 101.247 71.9776 100.132 72.1901 99.0162L73.7306 91.5793H75.3773L72.7213 104.222H71.0746L67.9405 96.9445C67.4093 95.6696 66.9312 94.501 66.6656 93.5448C66.5593 94.3416 66.4 95.3509 66.1875 96.5727L64.5939 104.222H62.894Z" fill="#2F2C2D"/>
<path d="M82.6548 104.222L89.826 91.5793H91.7915L93.8631 104.222H92.2164L91.579 100.61H86.4794L84.4609 104.222H82.6548ZM87.2231 99.2818H91.4196L90.9415 96.0946C90.7291 94.8197 90.6228 93.8104 90.5697 92.9605C90.3041 93.7042 89.8791 94.5541 89.2948 95.5102L87.2231 99.2818Z" fill="#2F2C2D"/>
<path d="M103.744 104.222L106.4 91.5793H108.472L109.747 99.7599C109.906 100.822 110.012 101.885 110.065 102.841C110.437 101.991 111.022 100.822 111.818 99.388L116.227 91.5793H118.352L115.696 104.222H114.049L115.377 98.06C115.696 96.6258 116.121 95.0322 116.705 93.2792C116.334 94.076 115.909 94.979 115.377 95.9352L110.65 104.169H109.003L107.728 96.0946C107.622 95.3509 107.516 94.501 107.463 93.4917C107.303 94.6072 107.197 95.4571 107.038 96.1477L105.338 104.222H103.744Z" fill="#2F2C2D"/>
<path d="M126.638 104.222L129.294 91.5793H133.225C133.916 91.5793 134.447 91.6325 134.819 91.6856C135.403 91.7918 135.881 91.9512 136.253 92.2168C136.625 92.4824 136.944 92.8011 137.156 93.2261C137.368 93.651 137.475 94.1291 137.475 94.6072C137.475 95.2978 137.262 95.9352 136.89 96.4664C136.519 96.9976 135.934 97.4226 135.137 97.6882C135.828 97.9007 136.306 98.2725 136.678 98.6975C137.05 99.1224 137.209 99.6536 137.209 100.291C137.209 100.982 136.997 101.672 136.625 102.31C136.253 102.947 135.722 103.425 135.031 103.797C134.394 104.169 133.65 104.328 132.853 104.328H126.638V104.222ZM128.604 102.788H131.472C132.216 102.788 132.747 102.788 133.013 102.735C133.544 102.628 133.969 102.469 134.288 102.257C134.606 102.044 134.872 101.725 135.084 101.407C135.297 101.035 135.35 100.663 135.35 100.291C135.35 99.7067 135.191 99.2287 134.819 98.9631C134.447 98.6975 133.756 98.485 132.694 98.485H129.507L128.604 102.788ZM129.825 96.9976H132.375C133.597 96.9976 134.5 96.7851 135.031 96.4133C135.562 96.0414 135.828 95.4571 135.828 94.7134C135.828 94.3416 135.722 94.076 135.562 93.8104C135.403 93.5448 135.191 93.3854 134.872 93.2261C134.553 93.0667 134.075 93.0667 133.278 93.0667H130.675L129.825 96.9976Z" fill="#2F2C2D"/>
<path d="M149.321 91.5793H151.021L149.427 99.3349C149.321 99.9723 149.215 100.45 149.215 100.769C149.215 101.46 149.48 101.991 150.012 102.416C150.543 102.841 151.233 103.053 152.03 103.053C152.668 103.053 153.252 102.894 153.836 102.628C154.368 102.31 154.846 101.885 155.164 101.3C155.483 100.716 155.802 99.813 156.014 98.5381L157.449 91.5793H159.148L157.608 98.9631C157.342 100.238 156.97 101.247 156.545 101.991C156.121 102.735 155.536 103.319 154.739 103.744C153.943 104.169 153.093 104.434 152.083 104.434C151.127 104.434 150.33 104.275 149.587 103.956C148.896 103.638 148.365 103.213 147.993 102.628C147.621 102.097 147.462 101.46 147.462 100.716C147.462 100.291 147.568 99.4943 147.834 98.4319L149.321 91.5793Z" fill="#2F2C2D"/>
<path d="M177.422 99.7597L179.068 99.9722C178.537 101.406 177.793 102.522 176.784 103.266C175.775 104.009 174.659 104.381 173.384 104.381C171.844 104.381 170.622 103.903 169.719 103C168.816 102.044 168.391 100.716 168.391 98.9629C168.391 96.6787 169.082 94.8195 170.463 93.3321C171.685 92.0041 173.172 91.3667 174.978 91.3667C176.306 91.3667 177.422 91.7385 178.218 92.4291C179.068 93.1728 179.546 94.1289 179.653 95.2976L178.059 95.457C177.9 94.5539 177.528 93.8634 177.05 93.3853C176.572 92.9072 175.881 92.6947 175.031 92.6947C173.491 92.6947 172.216 93.3853 171.26 94.7664C170.41 95.935 170.038 97.3693 170.038 98.9629C170.038 100.238 170.357 101.247 170.994 101.938C171.631 102.628 172.481 102.947 173.491 102.947C174.341 102.947 175.137 102.681 175.881 102.097C176.572 101.619 177.103 100.822 177.422 99.7597Z" fill="#2F2C2D"/>
<path d="M189.32 98.963C189.32 96.7319 189.958 94.8727 191.286 93.4916C192.614 92.1105 194.154 91.4199 196.013 91.4199C197.607 91.4199 198.882 91.9511 199.838 92.9604C200.847 93.9697 201.325 95.3508 201.325 97.1038C201.325 98.3256 201.06 99.4942 200.582 100.503C200.21 101.3 199.732 101.991 199.148 102.522C198.563 103.053 197.979 103.531 197.341 103.85C196.492 104.275 195.588 104.487 194.579 104.487C193.57 104.487 192.667 104.222 191.817 103.744C190.967 103.266 190.383 102.575 189.905 101.725C189.533 100.822 189.32 99.9192 189.32 98.963ZM191.02 99.0161C191.02 99.7598 191.18 100.45 191.498 101.035C191.817 101.672 192.242 102.15 192.879 102.469C193.464 102.841 194.154 103 194.792 103C195.429 103 196.067 102.841 196.651 102.522C197.235 102.203 197.766 101.778 198.245 101.247C198.723 100.716 199.094 100.025 199.36 99.2286C199.626 98.4318 199.785 97.635 199.785 96.8382C199.785 95.5633 199.413 94.554 198.723 93.8103C198.032 93.0666 197.129 92.6948 196.12 92.6948C194.792 92.6948 193.623 93.2791 192.614 94.3946C191.498 95.6164 191.02 97.1038 191.02 99.0161Z" fill="#2F2C2D"/>
</svg>
