<svg width="346" height="119" viewBox="0 0 346 119" fill="none" xmlns="http://www.w3.org/2000/svg">
<path d="M34.9748 54.2905H17.9355V71.3403H34.9748V54.2905Z" fill="#2A55D9"/>
<path d="M52.0139 71.3401H34.9746V88.3899H52.0139V71.3401Z" fill="#2A55D9"/>
<path d="M52.0139 54.2905H34.9746V71.3403H52.0139V54.2905Z" fill="#2A55D9"/>
<path d="M34.9748 88.3899H17.9355V105.44H34.9748V88.3899Z" fill="#2A55D9"/>
<path d="M51.9734 20.1907H34.9341V37.2405H51.9734V20.1907Z" fill="#3D4043"/>
<path d="M69.0127 37.2407H51.9736V54.2905H69.0127V37.2407Z" fill="#446EEC"/>
<path d="M51.9734 54.2905H34.9341V71.3403H51.9734V54.2905Z" fill="#446EEC"/>
<path d="M51.9734 20.1907H34.9341V37.2405H51.9734V20.1907Z" fill="#3D4043"/>
<path d="M51.9734 20.1907H34.9341V37.2405H51.9734V20.1907Z" fill="#446EEC"/>
<path d="M90.0034 73.5446C88.0203 75.203 85.1848 76.0305 81.5003 76.0305H74.4424V88.2294H67.4028V54.3054H81.9612C85.3165 54.3054 87.9911 55.1805 89.9888 56.9304C91.9829 58.6805 92.9817 61.3859 92.9817 65.0544C92.978 69.0598 91.9865 71.8898 90.0034 73.5446ZM84.5955 61.3237C83.6992 60.5733 82.4405 60.1962 80.8271 60.1962H74.4424V70.1836H80.8271C82.4441 70.1836 83.6992 69.7773 84.5955 68.9646C85.4921 68.1518 85.9421 66.8631 85.9421 65.0983C85.9421 63.3338 85.4921 62.0781 84.5955 61.3237Z" fill="#3D4043"/>
<path d="M119.037 85.1614C116.922 87.7754 113.709 89.0824 109.399 89.0824C105.089 89.0824 101.877 87.7754 99.762 85.1614C97.6471 82.5475 96.5898 79.4026 96.5898 75.7231C96.5898 72.1058 97.6471 68.9718 99.762 66.3176C101.877 63.6634 105.089 62.3379 109.399 62.3379C113.709 62.3379 116.922 63.6634 119.037 66.3176C121.152 68.9718 122.209 72.1058 122.209 75.7231C122.213 79.3989 121.155 82.5475 119.037 85.1614ZM113.794 81.5368C114.822 80.175 115.334 78.2346 115.334 75.7231C115.334 73.2115 114.822 71.2748 113.794 69.9201C112.765 68.5655 111.295 67.8846 109.378 67.8846C107.46 67.8846 105.986 68.5618 104.95 69.9201C103.915 71.2748 103.399 73.2115 103.399 75.7231C103.399 78.2346 103.918 80.175 104.95 81.5368C105.986 82.8989 107.46 83.5835 109.378 83.5835C111.295 83.5798 112.765 82.8989 113.794 81.5368Z" fill="#3D4043"/>
<path d="M140.832 62.5574C140.916 62.5647 141.103 62.5757 141.396 62.5903V69.3123C140.982 69.2647 140.612 69.2352 140.29 69.2206C139.969 69.2059 139.709 69.1986 139.508 69.1986C136.87 69.1986 135.099 70.059 134.195 71.7762C133.69 72.7427 133.437 74.2327 133.437 76.2428V88.2329H126.837V63.1468H133.094V67.5182C134.107 65.8452 134.989 64.7028 135.739 64.0877C136.965 63.059 138.56 62.5464 140.525 62.5464C140.642 62.5464 140.748 62.55 140.832 62.5574Z" fill="#3D4043"/>
<path d="M142.662 68.0456V63.374H146.156V56.3774H152.643V63.374H156.715V68.0456H152.643V81.3025C152.643 82.3313 152.775 82.9719 153.034 83.2246C153.294 83.4773 154.092 83.6053 155.427 83.6053C155.625 83.6053 155.837 83.6017 156.06 83.5943C156.283 83.587 156.499 83.576 156.715 83.5614V88.4635L153.609 88.5772C150.51 88.6833 148.395 88.1487 147.261 86.9663C146.525 86.2156 146.156 85.0552 146.156 83.4919V68.0493H142.662V68.0456Z" fill="#3D4043"/>
<path d="M181.829 85.1614C179.714 87.7754 176.502 89.0824 172.192 89.0824C167.882 89.0824 164.669 87.7754 162.555 85.1614C160.44 82.5475 159.382 79.4026 159.382 75.7231C159.382 72.1058 160.44 68.9718 162.555 66.3176C164.669 63.6634 167.882 62.3379 172.192 62.3379C176.502 62.3379 179.714 63.6634 181.829 66.3176C183.944 68.9718 185.002 72.1058 185.002 75.7231C185.005 79.3989 183.944 82.5475 181.829 85.1614ZM176.586 81.5368C177.614 80.175 178.127 78.2346 178.127 75.7231C178.127 73.2115 177.614 71.2748 176.586 69.9201C175.558 68.5655 174.087 67.8846 172.17 67.8846C170.253 67.8846 168.778 68.5618 167.743 69.9201C166.707 71.2748 166.191 73.2115 166.191 75.7231C166.191 78.2346 166.711 80.175 167.743 81.5368C168.778 82.8989 170.253 83.5835 172.17 83.5835C174.087 83.5798 175.558 82.8989 176.586 81.5368Z" fill="#3D4043"/>
<path d="M210.09 55.0412C212.468 55.8248 214.393 57.2599 215.867 59.3468C217.049 61.0345 217.854 62.8614 218.286 64.8237C218.714 66.7899 218.93 68.6608 218.93 70.4399C218.93 74.9506 218.022 78.7728 216.215 81.903C213.76 86.1242 209.969 88.2331 204.843 88.2331H190.226V54.3054H204.843C206.943 54.3347 208.692 54.58 210.09 55.0412ZM197.101 60.1962V82.335H203.643C206.991 82.335 209.325 80.6875 210.646 77.3851C211.367 75.5766 211.729 73.4202 211.729 70.9196C211.729 67.4672 211.187 64.8164 210.105 62.9677C209.021 61.1188 206.866 60.1962 203.643 60.1962H197.101Z" fill="#3D4043"/>
<path d="M230.451 60.1521H223.803V54.0967H230.451V60.1521ZM223.807 63.1434H230.455V88.2292H223.807V63.1434Z" fill="#3D4043"/>
<path d="M249.203 63.121C250.794 63.78 252.082 64.9919 253.063 66.7566V63.143H259.458V86.9404C259.458 90.1767 258.914 92.6188 257.828 94.2589C255.957 97.0816 252.367 98.4949 247.063 98.4949C243.857 98.4949 241.246 97.8652 239.218 96.6095C237.194 95.35 236.076 93.4719 235.859 90.9713H242.99C243.173 91.7364 243.473 92.2893 243.887 92.6297C244.593 93.2265 245.778 93.5267 247.451 93.5267C249.811 93.5267 251.391 92.7358 252.189 91.1542C252.708 90.1401 252.971 88.4378 252.971 86.0434V84.4325C252.342 85.5051 251.67 86.3107 250.948 86.8489C249.646 87.8447 247.952 88.3461 245.867 88.3461C242.647 88.3461 240.075 87.215 238.15 84.9525C236.225 82.6897 235.264 79.6255 235.264 75.7592C235.264 72.0321 236.188 68.8984 238.045 66.3574C239.894 63.8166 242.522 62.5499 245.924 62.5499C247.172 62.5462 248.27 62.7367 249.203 63.121ZM251.435 81.1044C252.489 79.9477 253.017 78.1024 253.017 75.5689C253.017 73.1891 252.514 71.3805 251.515 70.1357C250.518 68.8911 249.173 68.2724 247.495 68.2724C245.204 68.2724 243.624 69.3523 242.753 71.5161C242.295 72.6657 242.064 74.0861 242.064 75.7738C242.064 77.231 242.309 78.527 242.796 79.6621C243.681 81.778 245.27 82.8399 247.561 82.8399C249.093 82.8436 250.38 82.2651 251.435 81.1044Z" fill="#3D4043"/>
<path d="M272.313 60.1521H265.664V54.0967H272.313V60.1521ZM265.668 63.1434H272.315V88.2292H265.668V63.1434Z" fill="#3D4043"/>
<path d="M276.086 68.0456V63.374H279.58V56.3774H286.067V63.374H290.139V68.0456H286.067V81.3025C286.067 82.3313 286.197 82.9719 286.458 83.2246C286.718 83.4773 287.514 83.6053 288.852 83.6053C289.048 83.6053 289.261 83.6017 289.483 83.5943C289.707 83.587 289.922 83.576 290.139 83.5614V88.4635L287.032 88.5772C283.933 88.6833 281.818 88.1487 280.684 86.9663C279.948 86.2156 279.58 85.0552 279.58 83.4919V68.0493H276.086V68.0456Z" fill="#3D4043"/>
<path d="M304.279 72.9698C305.497 72.8162 306.373 72.6257 306.899 72.3952C307.843 71.996 308.312 71.3736 308.312 70.5317C308.312 69.5027 307.949 68.7925 307.228 68.4045C306.508 68.0128 305.447 67.8187 304.046 67.8187C302.477 67.8187 301.363 68.2031 300.712 68.9684C300.248 69.5359 299.937 70.3046 299.779 71.2711H293.454C293.591 69.0781 294.207 67.2731 295.302 65.8637C297.042 63.6561 300.028 62.5503 304.265 62.5503C307.02 62.5503 309.471 63.0959 311.612 64.1833C313.752 65.2742 314.824 67.3282 314.824 70.3522V81.8592C314.824 82.6572 314.838 83.6237 314.872 84.7588C314.92 85.6192 315.048 86.2011 315.263 86.5086C315.48 86.8162 315.801 87.0688 316.23 87.2666V88.2332H309.099C308.898 87.7278 308.763 87.252 308.685 86.8052C308.607 86.3586 308.545 85.8533 308.502 85.286C307.592 86.2672 306.545 87.1054 305.356 87.7937C303.936 88.6065 302.333 89.0129 300.545 89.0129C298.261 89.0129 296.376 88.3649 294.888 87.0688C293.399 85.7728 292.656 83.9349 292.656 81.5553C292.656 78.4726 293.852 76.2393 296.248 74.859C297.563 74.1085 299.493 73.5703 302.04 73.2481L304.279 72.9698ZM308.287 76.0306C307.866 76.2906 307.441 76.503 307.016 76.664C306.588 76.8252 306.003 76.9751 305.257 77.1144L303.764 77.3888C302.367 77.6341 301.359 77.9343 300.753 78.2858C299.722 78.8826 299.205 79.8125 299.205 81.0719C299.205 82.1923 299.52 83.0013 300.149 83.4993C300.778 83.9971 301.546 84.2461 302.45 84.2461C303.885 84.2461 305.202 83.8325 306.41 83.005C307.617 82.1777 308.241 80.6656 308.289 78.4726V76.0306H308.287Z" fill="#3D4043"/>
<path d="M327.237 88.2294H320.682V54.3054H327.237V88.2294Z" fill="#3D4043"/>
</svg>
