<svg width="157" height="144" viewBox="0 0 157 144" fill="none" xmlns="http://www.w3.org/2000/svg">
<path d="M60.7974 20.144L60.9187 30.3381C60.9663 34.3294 61.3697 38.3086 62.1241 42.2283V42.2283C63.0984 47.2898 64.6523 52.2224 66.7551 56.9284L68.1743 60.1044L73.0522 68.1934C74.6895 70.9086 76.5816 73.4616 78.703 75.818V75.818C81.7876 79.2443 85.3318 82.2269 89.2346 84.681L100.027 91.4673" stroke="white" stroke-width="20" stroke-linecap="round" stroke-linejoin="round"/>
<path d="M88.1033 108.953L119.195 102.149L111.017 71.3901" stroke="white" stroke-width="20" stroke-linecap="round" stroke-linejoin="round"/>
<path d="M95.8685 94.007C95.1312 93.6332 94.582 93.1979 94.221 92.701C93.8719 92.2101 93.6839 91.6963 93.657 91.1595C93.6362 90.6108 93.7494 90.0926 93.9965 89.605C94.304 88.9985 94.7178 88.5655 95.238 88.3059C95.7701 88.0525 96.3788 87.9574 97.0642 88.0208C97.7496 88.0842 98.4848 88.3149 99.2697 88.7127L101.66 89.9244C101.937 89.3774 102.08 88.8743 102.089 88.4152C102.109 87.9621 101.998 87.562 101.756 87.2148C101.519 86.8557 101.163 86.5556 100.687 86.3145C100.116 86.0251 99.5415 85.9206 98.9626 86.0009C98.3898 86.0693 97.9172 86.3529 97.5447 86.8517L96.0106 86.0741C96.4074 85.4681 96.8987 85.0444 97.4844 84.8031C98.0762 84.55 98.7088 84.4521 99.3823 84.5095C100.062 84.5549 100.711 84.7344 101.329 85.0479C102.15 85.4638 102.755 85.9651 103.146 86.5516C103.554 87.1322 103.756 87.7654 103.752 88.4511C103.766 89.131 103.59 89.8337 103.222 90.5591L100.437 96.0536L99.0989 95.3754L99.8145 93.7425C99.569 93.9319 99.2938 94.0914 98.989 94.2209C98.7021 94.3446 98.3915 94.4264 98.0574 94.4663C97.7412 94.5003 97.3984 94.4835 97.0291 94.4159C96.6597 94.3483 96.2729 94.212 95.8685 94.007ZM96.7425 92.858C97.1706 93.075 97.5934 93.1847 98.0108 93.1869C98.4461 93.1834 98.858 93.0932 99.2466 92.9165C99.6352 92.7397 99.9823 92.4971 100.288 92.1888C100.594 91.8804 100.849 91.524 101.054 91.1196L101.072 91.084L98.8068 89.9356C98.2241 89.6402 97.7181 89.4734 97.289 89.4353C96.8718 89.4032 96.5256 89.4669 96.2504 89.6263C95.9752 89.7858 95.7593 90.0202 95.6026 90.3294C95.4458 90.6386 95.3785 90.9483 95.4007 91.2585C95.4228 91.5687 95.5434 91.8615 95.7626 92.137C95.9996 92.4067 96.3262 92.647 96.7425 92.858Z" fill="#259821"/>
<path d="M69.5567 77.9011L80.1627 68.1905L81.1891 69.3116L80.0876 70.537C80.4677 70.4783 80.8735 70.4773 81.3051 70.5341C81.7466 70.5818 82.1888 70.7193 82.6318 70.9464C83.0846 71.1646 83.5181 71.4998 83.9323 71.9522C84.5895 72.6701 84.9937 73.457 85.1447 74.313C85.3056 75.16 85.2309 75.9967 84.9209 76.8229C84.6198 77.659 84.0955 78.4192 83.3481 79.1035C82.6106 79.7788 81.8121 80.2296 80.9528 80.456C80.1025 80.6922 79.258 80.688 78.4195 80.4434C77.5997 80.1997 76.8612 79.7188 76.2039 79.001C75.6547 78.4011 75.2914 77.7575 75.1141 77.0702C74.9368 76.3829 74.9523 75.7088 75.1608 75.048L70.6912 79.1402L69.5567 77.9011ZM77.1592 77.8823C77.6004 78.3641 78.1052 78.6884 78.6735 78.855C79.2607 79.0224 79.8553 79.0203 80.4574 78.8487C81.0784 78.6779 81.6691 78.3358 82.2297 77.8226C82.7804 77.3184 83.1632 76.769 83.3781 76.1745C83.6119 75.5808 83.6663 74.9887 83.5414 74.3981C83.4352 73.8083 83.1616 73.2725 82.7204 72.7906C82.2702 72.2989 81.7515 71.9693 81.1643 71.8019C80.596 71.6353 80.0014 71.6374 79.3804 71.8082C78.7783 71.9799 78.2019 72.3178 77.6512 72.822C77.0906 73.3352 76.6935 73.8887 76.4597 74.4824C76.2448 75.0769 76.1904 75.669 76.2965 76.2588C76.4214 76.8494 76.709 77.3906 77.1592 77.8823Z" fill="#259821"/>
<path d="M61.8674 56.0768C61.5599 55.3094 61.4345 54.6199 61.4911 54.0084C61.5527 53.4091 61.7505 52.899 62.0845 52.4779C62.4309 52.0518 62.8578 51.7372 63.3653 51.5338C63.9965 51.2809 64.5932 51.2286 65.1553 51.3769C65.7224 51.5375 66.2425 51.8677 66.7157 52.3676C67.1889 52.8675 67.5891 53.5259 67.9164 54.3427L68.9131 56.8305C69.4824 56.6024 69.9217 56.3187 70.2311 55.9793C70.5453 55.6523 70.7258 55.2783 70.7727 54.8574C70.8318 54.4315 70.7623 53.971 70.5639 53.4759C70.3259 52.8818 69.9629 52.424 69.475 52.1024C68.9994 51.7758 68.4571 51.6771 67.8481 51.8062L67.2084 50.2096C67.9065 50.016 68.5552 50.0219 69.1545 50.227C69.7662 50.4273 70.3061 50.7711 70.7744 51.2586C71.255 51.7411 71.6242 52.3042 71.8821 52.9478C72.2242 53.8018 72.3484 54.578 72.2547 55.2762C72.1784 55.9819 71.9126 56.5911 71.4573 57.1039C71.0193 57.6241 70.4228 58.0354 69.6678 58.3379L63.9497 60.6289L63.3918 59.2365L65.007 58.4817C64.6975 58.462 64.3855 58.4003 64.071 58.2965C63.7738 58.2001 63.4865 58.0566 63.2091 57.8661C62.949 57.6831 62.7025 57.4443 62.4696 57.1498C62.2367 56.8553 62.036 56.4976 61.8674 56.0768ZM63.2822 55.79C63.4607 56.2356 63.7061 56.597 64.0182 56.8741C64.3476 57.1586 64.7167 57.3627 65.1253 57.4863C65.5339 57.6098 65.9548 57.6566 66.3881 57.6267C66.8213 57.5967 67.2484 57.4975 67.6692 57.3289L67.7063 57.314L66.7617 54.9562C66.5187 54.3497 66.2486 53.8906 65.9513 53.5788C65.659 53.2793 65.3568 53.0988 65.0448 53.037C64.7328 52.9753 64.4159 53.0089 64.0941 53.1378C63.7723 53.2668 63.5174 53.4551 63.3293 53.7028C63.1413 53.9505 63.0387 54.2501 63.0216 54.6017C63.0218 54.9607 63.1087 55.3568 63.2822 55.79Z" fill="#259821"/>
<path d="M57.4716 20.1897L67.4469 20.4946L67.4005 22.0139L65.9575 22.0899C66.4808 22.426 66.8809 22.8651 67.1578 23.4072C67.4347 23.9492 67.563 24.5534 67.5426 25.2198C67.5267 25.7395 67.4392 26.2037 67.2799 26.6124C67.1336 27.0348 66.909 27.4014 66.606 27.7123C66.316 28.0369 65.948 28.2925 65.5021 28.4789C66.1045 28.8442 66.563 29.3384 66.8774 29.9616C67.2052 30.5853 67.3587 31.2369 67.3379 31.9166C67.3139 32.7029 67.133 33.3844 66.7952 33.961C66.4708 34.538 65.984 34.97 65.3349 35.257C64.6855 35.5573 63.8676 35.6924 62.8814 35.6622L57.0041 35.4826L57.0549 33.8234L62.7522 33.9975C63.7784 34.0289 64.551 33.8457 65.0701 33.4481C65.6025 33.0508 65.8803 32.4724 65.9035 31.7127C65.9198 31.1796 65.7943 30.7022 65.5271 30.2805C65.2598 29.8588 64.87 29.5201 64.3576 29.2643C63.8451 29.0086 63.2024 28.8689 62.4295 28.8452L57.2119 28.6858L57.2632 27.0066L62.9606 27.1807C63.9867 27.2121 64.7594 27.0289 65.2784 26.6312C65.8108 26.234 66.0888 25.6489 66.1124 24.8759C66.1279 24.3695 66.0022 23.8987 65.7354 23.4637C65.4682 23.042 65.0783 22.7033 64.5659 22.4475C64.0535 22.1917 63.4108 22.052 62.6378 22.0284L57.4202 21.869L57.4716 20.1897Z" fill="#259821"/>
</svg>
