<svg width="84" height="134" viewBox="0 0 84 134" fill="none" xmlns="http://www.w3.org/2000/svg">
<path d="M12.5 17L19.5869 22.9796C25.4885 27.959 30.5273 33.8788 34.5 40.5V40.5V40.5C38.485 47.1416 41.6403 54.2469 43.8955 61.6566L44 62L45.0767 66.1529C46.6885 72.3698 47.6976 78.7276 48.0901 85.1381L49 100" stroke="white" stroke-width="20" stroke-linecap="round" stroke-linejoin="round"/>
<path d="M71 101L49 124L27 101" stroke="white" stroke-width="20" stroke-linecap="round" stroke-linejoin="round"/>
<path d="M44.0336 98.5299C44.0387 97.5833 44.2567 96.7445 44.6873 96.0135C45.1313 95.2826 45.7478 94.7059 46.5368 94.2836C47.3257 93.8745 48.2468 93.6729 49.3002 93.6787C50.3535 93.6844 51.2657 93.8961 52.0367 94.3136C52.8211 94.7313 53.4246 95.3079 53.8473 96.0435C54.2832 96.7926 54.4985 97.6538 54.4932 98.6271C54.4879 99.6004 54.2633 100.433 53.8195 101.123C53.3891 101.814 52.8195 102.338 52.1109 102.694C51.4022 103.064 50.6279 103.246 49.7879 103.241C49.6546 103.241 49.5146 103.24 49.3679 103.239C49.2212 103.238 49.0546 103.231 48.868 103.216L48.9133 94.9366L50.2133 94.9437L50.177 101.584C51.0838 101.562 51.7921 101.266 52.3018 100.695C52.8116 100.138 53.0688 99.4327 53.0734 98.5794C53.0766 98.006 52.9528 97.472 52.7022 96.9773C52.4515 96.4826 52.0804 96.0806 51.5887 95.7712C51.097 95.4752 50.4845 95.3252 49.7512 95.3211L49.1912 95.3181C48.3645 95.3136 47.6704 95.4631 47.1087 95.7667C46.5604 96.0704 46.1449 96.4681 45.8622 96.9599C45.5928 97.4518 45.4566 97.9777 45.4535 98.5377C45.4497 99.231 45.5999 99.8052 45.9041 100.26C46.2216 100.729 46.653 101.071 47.1985 101.287L47.1895 102.947C46.5904 102.771 46.052 102.481 45.5742 102.078C45.0963 101.689 44.719 101.194 44.4423 100.592C44.1655 100.004 44.0293 99.3166 44.0336 98.5299Z" fill="#EF6B01"/>
<path d="M40.0688 87.3782C39.9742 86.4899 40.0088 85.6817 40.1726 84.9535C40.3246 84.2401 40.6188 83.6657 41.0552 83.2304C41.4915 82.7951 42.0611 82.54 42.7637 82.4652C43.0554 82.4342 43.38 82.4599 43.7374 82.5426C44.0962 82.6384 44.4576 82.8212 44.8216 83.0909C45.1869 83.3738 45.5325 83.7862 45.8584 84.328L45.3029 85.5336C44.9392 84.8885 44.5598 84.473 44.1645 84.2871C43.7574 84.116 43.4014 84.0466 43.0965 84.0791C42.659 84.1256 42.3078 84.2904 42.0429 84.5734C41.778 84.8564 41.5967 85.231 41.4988 85.6973C41.401 86.1636 41.3817 86.6752 41.441 87.2321C41.5003 87.7889 41.638 88.2637 41.8541 88.6563C42.057 89.0504 42.3163 89.3446 42.632 89.5389C42.9476 89.7333 43.3044 89.8093 43.7021 89.7669C44.1396 89.7203 44.4991 89.5077 44.7806 89.1291C45.0503 88.7652 45.1608 88.1031 45.1122 87.1429C45.0819 86.355 45.085 85.6909 45.1213 85.1507C45.1577 84.6105 45.2172 84.1617 45.2998 83.8042C45.3957 83.4454 45.5104 83.1382 45.6441 82.8826C45.7792 82.6403 45.9231 82.4171 46.0757 82.2131L46.5331 82.1644L48.6498 83.9101L48.2831 85.3772L46.2836 83.5989L46.9873 83.7855C46.8967 83.9426 46.8121 84.0924 46.7334 84.2349C46.668 84.3759 46.6141 84.5627 46.5718 84.7951C46.5295 85.0276 46.5031 85.3455 46.4924 85.7489C46.4831 86.1656 46.4872 86.7082 46.5048 87.3767C46.5331 88.2721 46.4502 89.005 46.2562 89.5754C46.0636 90.1591 45.7678 90.5928 45.369 90.8767C44.9715 91.1737 44.4944 91.3519 43.9375 91.4112C43.3674 91.4719 42.8069 91.3707 42.2559 91.1076C41.7064 90.8577 41.2313 90.4256 40.8307 89.8112C40.4314 89.2101 40.1775 88.3991 40.0688 87.3782ZM47.8029 86.5346C47.714 85.6993 47.7909 84.9737 48.0338 84.3579C48.2898 83.7406 48.6668 83.2513 49.1647 82.8899C49.6758 82.5271 50.2562 82.3111 50.9059 82.2419C51.5555 82.1727 52.1618 82.2624 52.7246 82.5108C53.2874 82.7593 53.7589 83.1583 54.1392 83.7078C54.5196 84.2573 54.7542 84.9497 54.8431 85.7849C54.9321 86.6202 54.8485 87.3465 54.5924 87.9637C54.3363 88.581 53.9593 89.0703 53.4615 89.4317C52.9636 89.7931 52.3898 90.0084 51.7402 90.0776C51.0905 90.1468 50.4777 90.0578 49.9016 89.8108C49.3388 89.5623 48.8672 89.1633 48.4869 88.6138C48.1199 88.0629 47.8919 87.3698 47.8029 86.5346ZM49.1752 86.3884C49.25 87.0911 49.4883 87.6289 49.89 88.0018C50.3064 88.3866 50.866 88.5415 51.5687 88.4667C52.2581 88.3933 52.7592 88.1254 53.072 87.663C53.3995 87.2125 53.5258 86.6359 53.451 85.9332C53.3762 85.2305 53.1306 84.6868 52.7142 84.302C52.311 83.9159 51.7647 83.7595 51.0753 83.8329C50.3726 83.9077 49.8582 84.177 49.5321 84.6408C49.2193 85.1032 49.1003 85.6857 49.1752 86.3884ZM53.364 87.5716L54.7231 86.9241L55.1593 91.0209L53.9064 91.1543L53.364 87.5716Z" fill="#EF6B01"/>
<path d="M41.5484 75.5563C41.3718 74.7487 41.3619 74.048 41.5187 73.4541C41.6783 72.8733 41.9576 72.4028 42.3566 72.0426C42.7685 71.6796 43.2415 71.4397 43.7756 71.3229C44.4399 71.1777 45.037 71.2246 45.567 71.4635C46.0998 71.7156 46.5582 72.1271 46.9424 72.6983C47.3266 73.2694 47.6127 73.9848 47.8006 74.8445L48.373 77.4627C48.9722 77.3317 49.4523 77.1243 49.8134 76.8407C50.1773 76.57 50.4171 76.231 50.5328 75.8235C50.6614 75.4133 50.6688 74.9476 50.5549 74.4266C50.4182 73.8014 50.1358 73.2899 49.7076 72.8921C49.2925 72.4916 48.774 72.3047 48.152 72.3315L47.7846 70.6511C48.5051 70.5755 49.1439 70.6883 49.7011 70.9896C50.2714 71.2881 50.7472 71.7163 51.1285 72.2744C51.5228 72.8297 51.7941 73.446 51.9422 74.1233C52.1386 75.0221 52.1331 75.8081 51.9254 76.4813C51.7336 77.1647 51.3709 77.7217 50.8372 78.1523C50.3194 78.593 49.6632 78.9003 48.8686 79.074L42.8507 80.3897L42.5304 78.9243L44.2479 78.4464C43.9459 78.3759 43.6484 78.2636 43.3553 78.1093C43.0782 77.9651 42.8185 77.7762 42.5763 77.5426C42.35 77.3191 42.1463 77.0429 41.9653 76.714C41.7842 76.3851 41.6452 75.9992 41.5484 75.5563ZM42.9911 75.507C43.0937 75.9759 43.276 76.3728 43.5381 76.6977C43.816 77.0327 44.1463 77.2949 44.5289 77.4842C44.9115 77.6735 45.3189 77.7891 45.7512 77.8311C46.1835 77.8731 46.6211 77.8457 47.0639 77.7489L47.103 77.7403L46.5605 75.2589C46.421 74.6207 46.2303 74.1232 45.9886 73.7666C45.7497 73.4231 45.4815 73.1951 45.184 73.0827C44.8864 72.9703 44.5683 72.9512 44.2297 73.0252C43.891 73.0993 43.6085 73.2429 43.3821 73.4562C43.1558 73.6694 43.0052 73.948 42.9302 74.292C42.8712 74.6461 42.8915 75.0511 42.9911 75.507Z" fill="#EF6B01"/>
<path d="M34.9612 61.2449L48.5577 56.5632L49.0526 58.0004L47.554 58.6856C47.926 58.7832 48.2987 58.9439 48.6719 59.1679C49.0578 59.3876 49.4087 59.6899 49.7245 60.0747C50.0529 60.4551 50.317 60.9353 50.5167 61.5152C50.8335 62.4356 50.8907 63.3184 50.6882 64.1637C50.4984 65.0046 50.0966 65.7423 49.483 66.3766C48.8738 67.0235 48.0901 67.512 47.132 67.8419C46.1865 68.1674 45.2745 68.2629 44.3962 68.1282C43.5221 68.0061 42.7492 67.6658 42.0775 67.1074C41.4227 66.5573 40.9369 65.8221 40.62 64.9018C40.3552 64.1328 40.2784 63.3977 40.3896 62.6967C40.5007 61.9956 40.7835 61.3835 41.2379 60.8604L35.5081 62.8334L34.9612 61.2449ZM41.9419 64.2563C42.1546 64.874 42.4884 65.3725 42.9433 65.7517C43.4152 66.1392 43.9614 66.3741 44.5821 66.4566C45.2197 66.5473 45.8978 66.4689 46.6164 66.2215C47.3223 65.9784 47.8923 65.627 48.3263 65.1673C48.7773 64.7159 49.0631 64.1945 49.1837 63.6029C49.3213 63.0197 49.2838 62.4192 49.0711 61.8015C48.854 61.1711 48.5096 60.6622 48.0377 60.2747C47.5828 59.8955 47.0366 59.6605 46.399 59.5698C45.7783 59.4874 45.115 59.5678 44.409 59.8108C43.6904 60.0583 43.1056 60.4077 42.6547 60.8591C42.2207 61.3188 41.9349 61.8402 41.7973 62.4235C41.6766 63.015 41.7248 63.6259 41.9419 64.2563Z" fill="#EF6B01"/>
<path d="M34.0263 51.488L46.8771 44.9905L47.6351 46.4898L34.7844 52.9873L34.0263 51.488Z" fill="#EF6B01"/>
<path d="M31.8933 47.5709L44.4448 40.5124L45.2682 41.9767L32.7168 49.0352L31.8933 47.5709Z" fill="#EF6B01"/>
<path d="M27.8096 41.4748C27.2879 40.7009 26.9953 39.8851 26.9318 39.0275C26.8682 38.1699 27.0396 37.3388 27.446 36.5342C27.8598 35.7407 28.5034 35.0496 29.3769 34.4608C30.2614 33.8646 31.1527 33.5291 32.051 33.4542C32.9492 33.3794 33.7839 33.5323 34.555 33.9129C35.3336 34.3046 35.9838 34.8875 36.5055 35.6614C37.0346 36.4464 37.3309 37.2677 37.3945 38.1253C37.458 38.9829 37.2829 39.8085 36.8691 40.602C36.4553 41.3955 35.8061 42.0903 34.9216 42.6865C34.0482 43.2753 33.1624 43.6071 32.2641 43.6819C31.3733 43.7679 30.5386 43.615 29.76 43.2232C28.9889 42.8426 28.3388 42.2598 27.8096 41.4748ZM29.0037 40.6699C29.3316 41.1564 29.7495 41.5259 30.2574 41.7785C30.7654 42.031 31.3335 42.1224 31.9618 42.0527C32.6086 41.9865 33.2803 41.7186 33.9768 41.2491C34.6734 40.7796 35.1718 40.2667 35.4722 39.7105C35.7726 39.1542 35.901 38.5933 35.8575 38.0277C35.8139 37.4622 35.6319 36.9417 35.3114 36.4663C34.9984 36.0019 34.5842 35.6379 34.0688 35.3743C33.5609 35.1217 32.9891 35.0248 32.3533 35.0835C31.7175 35.1422 31.0459 35.4101 30.3383 35.8871C29.6528 36.3491 29.1581 36.8675 28.8541 37.4423C28.5611 38.0096 28.4327 38.5705 28.4688 39.125C28.5124 39.6906 28.6907 40.2056 29.0037 40.6699Z" fill="#EF6B01"/>
<path d="M20.7937 31.8541L28.5002 25.513L29.466 26.6867L28.0724 28.0148C28.558 27.8915 29.0345 27.862 29.5018 27.9264C29.9777 28.001 30.435 28.1686 30.8738 28.4291C31.3211 28.7 31.7439 29.0773 32.1421 29.5612L30.783 30.6795L30.4526 30.278C30.173 29.9382 29.8598 29.652 29.513 29.4194C29.185 29.1886 28.8257 29.0352 28.4352 28.9594C28.0532 28.8938 27.6373 28.9339 27.1874 29.0796C26.7562 29.2272 26.2884 29.5085 25.7839 29.9236L21.8612 33.1514L20.7937 31.8541Z" fill="#EF6B01"/>
<path d="M15.9343 26.9835C15.2673 26.3117 14.8222 25.5511 14.599 24.7018C14.3852 23.8619 14.3976 23.0134 14.6364 22.1563C14.894 21.2993 15.3919 20.5044 16.1299 19.7716C16.8774 19.0295 17.6758 18.5374 18.5252 18.2953C19.3935 18.0533 20.2468 18.0422 21.0851 18.2621C21.9328 18.4914 22.6902 18.9419 23.3571 19.6137C24.1932 20.4558 24.6755 21.3768 24.8039 22.3766C24.9323 23.3765 24.7026 24.3185 24.1149 25.2026L22.9031 23.982C23.2538 23.4459 23.3643 22.8759 23.2345 22.272C23.1141 21.6588 22.8097 21.1061 22.3212 20.6141C21.9266 20.2167 21.4562 19.9416 20.9099 19.7888C20.3636 19.636 19.779 19.6527 19.1561 19.8391C18.5426 20.016 17.9426 20.3957 17.3559 20.9781C16.9112 21.4196 16.5796 21.871 16.3611 22.3322C16.1615 22.7935 16.0467 23.2456 16.0168 23.6886C16.0058 24.1317 16.0798 24.5468 16.2387 24.9339C16.4069 25.3305 16.6367 25.6755 16.9279 25.9688C17.2567 26.3 17.6094 26.5511 17.9859 26.7221C18.3718 26.8838 18.7629 26.9559 19.1589 26.9385C19.5644 26.9116 19.9467 26.7857 20.3058 26.5607L21.5176 27.7813C20.6482 28.3439 19.7093 28.5621 18.701 28.4359C17.6926 28.3097 16.7704 27.8256 15.9343 26.9835Z" fill="#EF6B01"/>
<path d="M7.96069 19.7368C7.33995 19.2322 6.87055 18.6787 6.55252 18.0765C6.24289 17.4639 6.09884 16.8485 6.12036 16.2302C6.15028 15.6016 6.34351 14.994 6.70005 14.4075L8.03465 15.4925C7.87805 15.8119 7.78999 16.1527 7.77049 16.5149C7.76133 16.8855 7.84175 17.2516 8.01174 17.6132C8.19208 17.9832 8.47883 18.328 8.87197 18.6476C9.24441 18.9504 9.5865 19.1426 9.89821 19.2242C10.2287 19.3038 10.5223 19.302 10.7791 19.2186C11.0546 19.1333 11.2807 18.982 11.4574 18.7648C11.7097 18.4544 11.8255 18.1534 11.8049 17.8617C11.7947 17.5784 11.6825 17.2724 11.4685 16.9438C11.2546 16.6152 10.9795 16.2455 10.6433 15.8347C10.3627 15.5035 10.0989 15.1516 9.85193 14.779C9.61532 14.4148 9.43077 14.0499 9.29829 13.6845C9.17422 13.3087 9.13552 12.9335 9.18219 12.5591C9.22887 12.1846 9.39519 11.8215 9.68115 11.4698C10.0428 11.0249 10.4762 10.7243 10.9814 10.5679C11.495 10.4012 12.0386 10.3877 12.6122 10.5276C13.1962 10.6759 13.7779 10.9855 14.3572 11.4565C15.1746 12.121 15.6779 12.8652 15.8671 13.6893C16.0667 14.5217 15.8967 15.3543 15.3571 16.1872L14.069 15.1401C14.3473 14.7133 14.4299 14.2735 14.3168 13.8208C14.2225 13.3661 13.9322 12.941 13.446 12.5457C12.9597 12.1504 12.5125 11.9501 12.1044 11.9448C11.6963 11.9396 11.3619 12.0973 11.1012 12.418C10.9414 12.6146 10.8656 12.8451 10.874 13.1096C10.8926 13.3826 10.9902 13.6853 11.1667 14.0178C11.3619 14.3483 11.6267 14.7096 11.9609 15.1016C12.3734 15.6088 12.7287 16.1124 13.0267 16.6125C13.3331 17.1021 13.4989 17.6063 13.5239 18.1251C13.549 18.6438 13.3345 19.1825 12.8803 19.7411C12.5037 20.2254 12.0441 20.5477 11.5014 20.708C10.9588 20.8682 10.3809 20.871 9.76779 20.7162C9.17346 20.5595 8.5711 20.2331 7.96069 19.7368Z" fill="#EF6B01"/>
</svg>
