<svg width="159" height="44" viewBox="0 0 159 44" fill="none" xmlns="http://www.w3.org/2000/svg">
<rect width="159" height="44" rx="22" fill="#259821"/>
<path d="M30.5495 27.192C29.4402 27.192 28.4802 26.952 27.6695 26.472C26.8695 25.9813 26.2508 25.304 25.8135 24.44C25.3868 23.5653 25.1735 22.5573 25.1735 21.416C25.1735 20.264 25.3868 19.256 25.8135 18.392C26.2508 17.5173 26.8695 16.8347 27.6695 16.344C28.4802 15.8533 29.4402 15.608 30.5495 15.608C31.8828 15.608 32.9708 15.9387 33.8135 16.6C34.6562 17.2507 35.1895 18.1733 35.4135 19.368H33.3015C33.1522 18.7387 32.8482 18.2427 32.3895 17.88C31.9308 17.5173 31.3122 17.336 30.5335 17.336C29.8295 17.336 29.2215 17.5013 28.7095 17.832C28.2082 18.152 27.8188 18.6213 27.5415 19.24C27.2748 19.848 27.1415 20.5733 27.1415 21.416C27.1415 22.2587 27.2748 22.984 27.5415 23.592C27.8188 24.1893 28.2082 24.6533 28.7095 24.984C29.2215 25.304 29.8295 25.464 30.5335 25.464C31.3122 25.464 31.9308 25.2987 32.3895 24.968C32.8482 24.6267 33.1522 24.1573 33.3015 23.56H35.4135C35.2002 24.6907 34.6668 25.5813 33.8135 26.232C32.9708 26.872 31.8828 27.192 30.5495 27.192ZM36.4 27L40.496 15.8H42.64L46.736 27H44.704L41.552 18.04L38.4 27H36.4ZM38.224 24.36L38.736 22.84H44.256L44.768 24.36H38.224ZM48.2766 27V15.8H51.8926C53.194 15.8 54.266 16.0293 55.1086 16.488C55.962 16.9467 56.5913 17.5973 56.9966 18.44C57.4126 19.272 57.6206 20.264 57.6206 21.416C57.6206 22.5467 57.4126 23.5333 56.9966 24.376C56.5913 25.208 55.962 25.8533 55.1086 26.312C54.266 26.7707 53.194 27 51.8926 27H48.2766ZM50.1966 25.368H51.7966C52.7673 25.368 53.53 25.2133 54.0846 24.904C54.65 24.584 55.05 24.1307 55.2846 23.544C55.53 22.9467 55.6526 22.2373 55.6526 21.416C55.6526 20.584 55.53 19.8747 55.2846 19.288C55.05 18.6907 54.65 18.232 54.0846 17.912C53.53 17.5813 52.7673 17.416 51.7966 17.416H50.1966V25.368ZM58.025 27L62.121 15.8H64.265L68.361 27H66.329L63.177 18.04L60.025 27H58.025ZM59.849 24.36L60.361 22.84H65.881L66.393 24.36H59.849ZM73.6616 27.192C72.851 27.192 72.131 27.048 71.5016 26.76C70.8723 26.472 70.3816 26.0613 70.0296 25.528C69.6776 24.9947 69.4963 24.36 69.4856 23.624H71.5176C71.5176 23.9973 71.603 24.3333 71.7736 24.632C71.955 24.92 72.2003 25.1493 72.5096 25.32C72.8296 25.4907 73.2136 25.576 73.6616 25.576C74.0456 25.576 74.3763 25.5173 74.6536 25.4C74.9416 25.272 75.1603 25.096 75.3096 24.872C75.4696 24.6373 75.5496 24.3653 75.5496 24.056C75.5496 23.704 75.4643 23.416 75.2936 23.192C75.1336 22.9573 74.9096 22.76 74.6216 22.6C74.3336 22.44 74.003 22.3013 73.6296 22.184C73.2563 22.056 72.8616 21.9227 72.4456 21.784C71.5603 21.4853 70.8936 21.1067 70.4456 20.648C69.9976 20.1787 69.7736 19.5547 69.7736 18.776C69.7736 18.1253 69.9283 17.5653 70.2376 17.096C70.547 16.6267 70.979 16.264 71.5336 16.008C72.099 15.7413 72.7496 15.608 73.4856 15.608C74.2323 15.608 74.883 15.7413 75.4376 16.008C76.003 16.2747 76.4456 16.648 76.7656 17.128C77.0963 17.5973 77.267 18.1627 77.2776 18.824H75.2296C75.219 18.5467 75.1443 18.2907 75.0056 18.056C74.867 17.8107 74.6643 17.6133 74.3976 17.464C74.1416 17.304 73.827 17.224 73.4536 17.224C73.1336 17.2133 72.8456 17.2667 72.5896 17.384C72.3443 17.4907 72.147 17.6507 71.9976 17.864C71.859 18.0667 71.7896 18.3227 71.7896 18.632C71.7896 18.9307 71.8536 19.1813 71.9816 19.384C72.1203 19.576 72.3176 19.7413 72.5736 19.88C72.8296 20.008 73.1283 20.1307 73.4696 20.248C73.811 20.3653 74.1843 20.4933 74.5896 20.632C75.1443 20.8133 75.6456 21.0373 76.0936 21.304C76.5523 21.56 76.915 21.896 77.1816 22.312C77.4483 22.728 77.5816 23.2667 77.5816 23.928C77.5816 24.504 77.4323 25.0427 77.1336 25.544C76.835 26.0347 76.3976 26.4347 75.8216 26.744C75.2456 27.0427 74.5256 27.192 73.6616 27.192ZM81.9003 27V17.352H78.6043V15.8H87.1003V17.352H83.8043V27H81.9003ZM88.6829 27V15.8H92.6989C93.5842 15.8 94.3149 15.9547 94.8909 16.264C95.4775 16.5627 95.9095 16.968 96.1869 17.48C96.4749 17.9813 96.6189 18.552 96.6189 19.192C96.6189 19.7893 96.4802 20.344 96.2029 20.856C95.9255 21.368 95.4935 21.7787 94.9069 22.088C94.3202 22.3973 93.5682 22.552 92.6509 22.552H90.6029V27H88.6829ZM94.5229 27L92.1709 22.056H94.2509L96.7149 27H94.5229ZM90.6029 21.128H92.5709C93.2855 21.128 93.8082 20.9573 94.1389 20.616C94.4802 20.264 94.6509 19.8053 94.6509 19.24C94.6509 18.6853 94.4855 18.2427 94.1549 17.912C93.8242 17.5707 93.2962 17.4 92.5709 17.4H90.6029V21.128ZM98.6048 27V15.8H105.837V17.352H100.525V20.568H105.357V22.088H100.525V25.448H105.837V27H98.6048ZM107.919 23.08V21.48H114.543V23.08H107.919ZM120.662 27.192C119.851 27.192 119.131 27.048 118.502 26.76C117.872 26.472 117.382 26.0613 117.03 25.528C116.678 24.9947 116.496 24.36 116.486 23.624H118.518C118.518 23.9973 118.603 24.3333 118.774 24.632C118.955 24.92 119.2 25.1493 119.51 25.32C119.83 25.4907 120.214 25.576 120.662 25.576C121.046 25.576 121.376 25.5173 121.654 25.4C121.942 25.272 122.16 25.096 122.31 24.872C122.47 24.6373 122.55 24.3653 122.55 24.056C122.55 23.704 122.464 23.416 122.294 23.192C122.134 22.9573 121.91 22.76 121.622 22.6C121.334 22.44 121.003 22.3013 120.63 22.184C120.256 22.056 119.862 21.9227 119.446 21.784C118.56 21.4853 117.894 21.1067 117.446 20.648C116.998 20.1787 116.774 19.5547 116.774 18.776C116.774 18.1253 116.928 17.5653 117.238 17.096C117.547 16.6267 117.979 16.264 118.534 16.008C119.099 15.7413 119.75 15.608 120.486 15.608C121.232 15.608 121.883 15.7413 122.438 16.008C123.003 16.2747 123.446 16.648 123.766 17.128C124.096 17.5973 124.267 18.1627 124.278 18.824H122.23C122.219 18.5467 122.144 18.2907 122.006 18.056C121.867 17.8107 121.664 17.6133 121.398 17.464C121.142 17.304 120.827 17.224 120.454 17.224C120.134 17.2133 119.846 17.2667 119.59 17.384C119.344 17.4907 119.147 17.6507 118.998 17.864C118.859 18.0667 118.79 18.3227 118.79 18.632C118.79 18.9307 118.854 19.1813 118.982 19.384C119.12 19.576 119.318 19.7413 119.574 19.88C119.83 20.008 120.128 20.1307 120.47 20.248C120.811 20.3653 121.184 20.4933 121.59 20.632C122.144 20.8133 122.646 21.0373 123.094 21.304C123.552 21.56 123.915 21.896 124.182 22.312C124.448 22.728 124.582 23.2667 124.582 23.928C124.582 24.504 124.432 25.0427 124.134 25.544C123.835 26.0347 123.398 26.4347 122.822 26.744C122.246 27.0427 121.526 27.192 120.662 27.192ZM126.449 27V15.8H133.681V17.352H128.369V20.568H133.201V22.088H128.369V25.448H133.681V27H126.449Z" fill="white"/>
</svg>
