<svg width="178" height="44" viewBox="0 0 178 44" fill="none" xmlns="http://www.w3.org/2000/svg">
<rect width="178" height="44" rx="22" fill="#EF6B01"/>
<path d="M30.3144 27.192C29.2157 27.192 28.2664 26.952 27.4664 26.472C26.677 25.9813 26.0637 25.304 25.6264 24.44C25.1997 23.5653 24.9864 22.552 24.9864 21.4C24.9864 20.2587 25.1997 19.2507 25.6264 18.376C26.0637 17.5013 26.677 16.824 27.4664 16.344C28.2664 15.8533 29.2157 15.608 30.3144 15.608C31.6264 15.608 32.6877 15.9227 33.4984 16.552C34.3197 17.1813 34.8424 18.0667 35.0664 19.208H33.3064C33.1464 18.5467 32.8157 18.0187 32.3144 17.624C31.8237 17.2293 31.157 17.032 30.3144 17.032C29.557 17.032 28.901 17.208 28.3464 17.56C27.7917 17.912 27.365 18.4133 27.0664 19.064C26.7677 19.7147 26.6184 20.4933 26.6184 21.4C26.6184 22.3067 26.7677 23.0907 27.0664 23.752C27.365 24.4027 27.7917 24.904 28.3464 25.256C28.901 25.5973 29.557 25.768 30.3144 25.768C31.157 25.768 31.8237 25.5813 32.3144 25.208C32.8157 24.824 33.1464 24.3067 33.3064 23.656H35.0664C34.8424 24.7653 34.3197 25.6347 33.4984 26.264C32.6877 26.8827 31.6264 27.192 30.3144 27.192ZM42.0205 27.192C40.9432 27.192 39.9938 26.952 39.1725 26.472C38.3618 25.9813 37.7218 25.304 37.2525 24.44C36.7938 23.5653 36.5645 22.552 36.5645 21.4C36.5645 20.2587 36.7938 19.256 37.2525 18.392C37.7218 17.5173 38.3618 16.8347 39.1725 16.344C39.9938 15.8533 40.9432 15.608 42.0205 15.608C43.1192 15.608 44.0792 15.8533 44.9005 16.344C45.7218 16.8347 46.3565 17.5173 46.8045 18.392C47.2632 19.256 47.4925 20.2587 47.4925 21.4C47.4925 22.552 47.2632 23.5653 46.8045 24.44C46.3565 25.304 45.7218 25.9813 44.9005 26.472C44.0792 26.952 43.1192 27.192 42.0205 27.192ZM42.0365 25.768C42.8045 25.768 43.4765 25.592 44.0525 25.24C44.6285 24.888 45.0712 24.3867 45.3805 23.736C45.7005 23.0853 45.8605 22.3067 45.8605 21.4C45.8605 20.4933 45.7005 19.7147 45.3805 19.064C45.0712 18.4133 44.6285 17.9173 44.0525 17.576C43.4765 17.224 42.8045 17.048 42.0365 17.048C41.2685 17.048 40.5965 17.224 40.0205 17.576C39.4445 17.9173 38.9965 18.4133 38.6765 19.064C38.3565 19.7147 38.1965 20.4933 38.1965 21.4C38.1965 22.3067 38.3565 23.0853 38.6765 23.736C38.9965 24.3867 39.4445 24.888 40.0205 25.24C40.5965 25.592 41.2685 25.768 42.0365 25.768ZM49.418 27V15.8H53.242C54.138 15.8 54.874 15.9493 55.45 16.248C56.026 16.5467 56.4527 16.9467 56.73 17.448C57.0073 17.9493 57.146 18.52 57.146 19.16C57.146 19.768 57.0073 20.328 56.73 20.84C56.4633 21.3413 56.042 21.7467 55.466 22.056C54.89 22.3547 54.1487 22.504 53.242 22.504H51.018V27H49.418ZM51.018 21.176H53.178C54.0207 21.176 54.618 20.9947 54.97 20.632C55.3327 20.2587 55.514 19.768 55.514 19.16C55.514 18.5093 55.3327 18.008 54.97 17.656C54.618 17.304 54.0207 17.128 53.178 17.128H51.018V21.176ZM58.8711 27V15.8H60.4711V27H58.8711ZM62.0886 27L66.2006 15.8H67.9446L72.0566 27H70.3446L67.0646 17.72L63.7686 27H62.0886ZM63.9446 24.232L64.3926 22.952H69.6566L70.1046 24.232H63.9446ZM73.6524 27V15.8H77.4444C78.3297 15.8 79.055 15.9493 79.6204 16.248C80.1857 16.5467 80.6017 16.9467 80.8684 17.448C81.1457 17.9387 81.2844 18.4987 81.2844 19.128C81.2844 19.7253 81.1457 20.28 80.8684 20.792C80.6017 21.2933 80.1804 21.6987 79.6044 22.008C79.0284 22.3067 78.2924 22.456 77.3964 22.456H75.2524V27H73.6524ZM79.5404 27L77.1244 22.024H78.8844L81.3964 27H79.5404ZM75.2524 21.24H77.3324C78.1217 21.24 78.703 21.048 79.0764 20.664C79.4497 20.2693 79.6364 19.768 79.6364 19.16C79.6364 18.5413 79.455 18.0507 79.0924 17.688C78.7297 17.3253 78.143 17.144 77.3324 17.144H75.2524V21.24ZM87.4493 27V15.8H89.0493V25.736H94.1693V27H87.4493ZM96.043 27V15.8H97.643V27H96.043ZM99.9805 27V15.8H101.581L107.293 24.392V15.8H108.893V27H107.293L101.581 18.424V27H99.9805ZM111.231 27V15.8H112.831V20.664L117.311 15.8H119.311L115.151 20.248L119.391 27H117.439L114.015 21.496L112.831 22.76V27H111.231Z" fill="white"/>
<path d="M145 17H148C148.657 17 149.307 17.1293 149.913 17.3806C150.52 17.6319 151.071 18.0002 151.536 18.4645C152 18.9288 152.368 19.48 152.619 20.0866C152.871 20.6932 153 21.3434 153 22C153 22.6566 152.871 23.3068 152.619 23.9134C152.368 24.52 152 25.0712 151.536 25.5355C151.071 25.9998 150.52 26.3681 149.913 26.6194C149.307 26.8707 148.657 27 148 27H145M139 27H136C135.343 27 134.693 26.8707 134.087 26.6194C133.48 26.3681 132.929 25.9998 132.464 25.5355C131.527 24.5979 131 23.3261 131 22C131 20.6739 131.527 19.4021 132.464 18.4645C133.402 17.5268 134.674 17 136 17H139" stroke="white" stroke-width="2" stroke-linecap="round" stroke-linejoin="round"/>
<path d="M138 22H146" stroke="white" stroke-width="2" stroke-linecap="round" stroke-linejoin="round"/>
</svg>
